<svg id="Grupo_181266" data-name="Grupo 181266" xmlns="http://www.w3.org/2000/svg" xmlns:xlink="http://www.w3.org/1999/xlink" width="151" height="133" viewBox="0 0 151 133">
  <defs>
    <clipPath id="clip-path">
      <rect id="Rectángulo_103872" data-name="Rectángulo 103872" width="151" height="133" fill="none"/>
    </clipPath>
    <clipPath id="clip-path-2">
      <path id="Trazado_245734" data-name="Trazado 245734" d="M17.405,33.8C-1.8,59.761,3.292,96.607,27.1,115.214c12.366,9.666,26.333,11.715,31.428,12.4,31.31,4.228,67.415-11.442,80.969-39.414,8.832-18.23,7.815-40.842-4.026-57.071a60.205,60.205,0,0,0-13.174-13.1C105.023,5.546,85.37,4.835,80.243,4.719c-.569-.012-1.137-.019-1.707-.019-23.289,0-47.489,10.649-61.131,29.1" fill="none"/>
    </clipPath>
    <linearGradient id="linear-gradient" x1="0.123" y1="0.829" x2="0.129" y2="0.829" gradientUnits="objectBoundingBox">
      <stop offset="0" stop-color="#dae3fe"/>
      <stop offset="1" stop-color="#e9effd"/>
    </linearGradient>
    <clipPath id="clip-path-4">
      <rect id="Rectángulo_103858" data-name="Rectángulo 103858" width="106.834" height="105.074" transform="translate(39.586 2.948)" fill="none"/>
    </clipPath>
    <clipPath id="clip-path-5">
      <path id="Trazado_245739" data-name="Trazado 245739" d="M57.144,44.408c-.22,5.247.5,18.6,13.412,19.042,10.757.364,11.613-8.854,11-15a44.79,44.79,0,0,0-19.385-4.311,47.036,47.036,0,0,0-5.027.27" fill="none"/>
    </clipPath>
    <linearGradient id="linear-gradient-2" x1="-1.874" y1="3.003" x2="-1.84" y2="3.003" gradientUnits="objectBoundingBox">
      <stop offset="0" stop-color="#ff928e"/>
      <stop offset="1" stop-color="#feb3b1"/>
    </linearGradient>
    <clipPath id="clip-path-6">
      <path id="Trazado_245740" data-name="Trazado 245740" d="M65.284,44.375a3.267,3.267,0,0,0,.662,4.323,11.886,11.886,0,0,0,7.62,2.434,3.468,3.468,0,0,0,3.365-2.563l3.523-12.9-6.7-7.348S68.4,39.614,65.284,44.375" fill="none"/>
    </clipPath>
    <linearGradient id="linear-gradient-3" x1="-2.112" y1="4.235" x2="-2.076" y2="4.235" xlink:href="#linear-gradient-2"/>
    <clipPath id="clip-path-7">
      <path id="Trazado_245741" data-name="Trazado 245741" d="M84.132,69.883c25.639,22.3,46.436-9.831,46.436-9.831l-3.236-5.128C98.927,78.067,83.2,49.331,83.2,49.331Z" fill="none"/>
    </clipPath>
    <linearGradient id="linear-gradient-4" x1="-1.176" y1="1.489" x2="-1.16" y2="1.489" xlink:href="#linear-gradient-2"/>
    <clipPath id="clip-path-8">
      <path id="Trazado_245742" data-name="Trazado 245742" d="M131.636,50.29a11.657,11.657,0,0,0-5.289,5.757l2.829,3.72a50.243,50.243,0,0,0,20.535,1.616l-.608-2.018a3.991,3.991,0,0,0-2.335-2.555l-10.987-4.419s-.165-1.409,2.322-2.367,1.9-3.743,1.9-3.743-3.4,1.551-8.372,4.009" fill="none"/>
    </clipPath>
    <linearGradient id="linear-gradient-5" x1="-4.399" y1="3.409" x2="-4.364" y2="3.409" xlink:href="#linear-gradient-2"/>
    <clipPath id="clip-path-9">
      <path id="Trazado_245743" data-name="Trazado 245743" d="M18.814,88.2c2.949,26.071,43.367,2.137,43.367,2.137l-.98-6.274s-24.728,7.176-28.847,1c-3.021-4.526,7.107-15.133,12.72-20.465a6.637,6.637,0,0,0,1.468-7.578l-3.991-8.713S15.867,62.133,18.814,88.2" fill="none"/>
    </clipPath>
    <linearGradient id="linear-gradient-6" x1="-0.343" y1="1.281" x2="-0.321" y2="1.281" xlink:href="#linear-gradient-2"/>
    <clipPath id="clip-path-11">
      <path id="Trazado_245747" data-name="Trazado 245747" d="M60.316,81.05c-.628,2.274.931,8.684.931,8.684a5.894,5.894,0,0,0,5.332-1.862c1.225-1.2,1.951-2.4,2.944-1.755a2.075,2.075,0,0,0,3.038-.7l-1.78-1.964c2.607,1.267,2.88-1.105,2.88-1.105l-1.914-1.481a2.324,2.324,0,0,0,3.328-2.006,59.309,59.309,0,0,0-8.85-2.36,6.921,6.921,0,0,0-1.1-.093c-3.193,0-4.243,2.586-4.812,4.64" fill="none"/>
    </clipPath>
    <linearGradient id="linear-gradient-7" x1="-2.813" y1="2.919" x2="-2.764" y2="2.919" xlink:href="#linear-gradient-2"/>
    <clipPath id="clip-path-12">
      <path id="Trazado_245748" data-name="Trazado 245748" d="M73.525,26.866c.485,7.871,4.386,11.71,7.4,13.858s7.76,1.393,10.667-7.3.433-14.406.433-14.406c-.992-2.1-3.012-2.984-5.366-2.984-5.742,0-13.474,5.245-13.13,10.828" fill="none"/>
    </clipPath>
    <linearGradient id="linear-gradient-8" x1="-1.959" y1="3.547" x2="-1.929" y2="3.547" xlink:href="#linear-gradient-2"/>
    <clipPath id="clip-path-14">
      <path id="Trazado_245750" data-name="Trazado 245750" d="M74.987,28.262l2.6-1.765s2.735-6.03-1.1-6.248q-.1-.006-.2-.006c-3.578,0-2.061,5.858-1.31,8.019" fill="none"/>
    </clipPath>
    <linearGradient id="linear-gradient-9" x1="-6.424" y1="10.349" x2="-6.333" y2="10.349" xlink:href="#linear-gradient-2"/>
    <clipPath id="clip-path-16">
      <rect id="Rectángulo_103870" data-name="Rectángulo 103870" width="21.566" height="21.566" transform="translate(117.144 87.651)" fill="none"/>
    </clipPath>
  </defs>
  <g id="Grupo_181298" data-name="Grupo 181298" clip-path="url(#clip-path)">
    <g id="Grupo_181267" data-name="Grupo 181267">
      <g id="Grupo_181266-2" data-name="Grupo 181266" clip-path="url(#clip-path-2)">
        <rect id="Rectángulo_103857" data-name="Rectángulo 103857" width="194.544" height="196.705" transform="translate(-64.807 76.711) rotate(-48.814)" fill="url(#linear-gradient)"/>
      </g>
    </g>
    <g id="Grupo_181272" data-name="Grupo 181272">
      <g id="Grupo_181271" data-name="Grupo 181271" clip-path="url(#clip-path)">
        <g id="Grupo_181270" data-name="Grupo 181270" opacity="0.35">
          <g id="Grupo_181269" data-name="Grupo 181269">
            <g id="Grupo_181268" data-name="Grupo 181268" clip-path="url(#clip-path-4)">
              <path id="Trazado_245735" data-name="Trazado 245735" d="M39.681,106.325a1.845,1.845,0,0,0-.054.179,1.193,1.193,0,0,0,1.276,1.517,2.189,2.189,0,0,0,2.015-1.57,41,41,0,0,1,3.3-8.787,48.64,48.64,0,0,1,5.316-8.292l.387-.492.4-.482c.266-.322.543-.637.821-.951q.828-.945,1.714-1.839c.292-.3.6-.588.9-.881s.613-.572.918-.857.623-.556.947-.822.639-.537.969-.79.652-.513.987-.755c.167-.122.331-.246.5-.364l.507-.35c.333-.239.681-.449,1.02-.674s.688-.425,1.034-.626.693-.4,1.045-.575c.176-.089.349-.184.524-.271l.526-.251c.088-.042.174-.086.263-.125l.273-.117.543-.232c.368-.141.731-.291,1.1-.421a38.014,38.014,0,0,1,9.043-1.99c3.078-.328,6.2-.4,9.441-.476,1.622-.039,3.272-.067,4.973-.134.848-.029,1.714-.078,2.587-.131.441-.033.88-.06,1.327-.1l1.305-.113c3.339-.3,6.79-.647,10.377-1.223a73.529,73.529,0,0,0,11.228-2.656,52.085,52.085,0,0,0,5.979-2.364,45.2,45.2,0,0,0,6.07-3.441c1-.677,1.984-1.408,2.943-2.188.48-.389.951-.794,1.417-1.207.232-.208.457-.408.69-.63s.468-.444.694-.671a36.645,36.645,0,0,0,4.809-5.856c.342-.52.672-1.043.98-1.574.166-.28.284-.495.422-.732l.4-.7c.263-.469.512-.948.756-1.43s.473-.973.707-1.462a38.562,38.562,0,0,0,2.222-6.1,32.485,32.485,0,0,0,1.069-6.3,29.96,29.96,0,0,0-3.825-16.887,38.233,38.233,0,0,0-6.426-8.432,45.976,45.976,0,0,0-3.921-3.5c-.7-.551-1.411-1.085-2.165-1.61-.38-.262-.765-.523-1.176-.786-.206-.132-.416-.263-.644-.4l-.358-.209-.2-.112-.125-.066-.189-.092c-6.376-2.728-15.285.466-19.9,7.132s-3.182,14.283,3.194,17.011l-.064-.038c-.015-.01,0-.009,0-.009l0,0c0-.005.029,0,.044,0,.045.006.09.014.134.024.1.019.215.051.33.082.234.064.483.14.733.224.5.17,1.017.361,1.524.568a27.428,27.428,0,0,1,2.962,1.414,23.4,23.4,0,0,1,4.977,3.594,14.637,14.637,0,0,1,3.174,4.363,10.682,10.682,0,0,1,.8,2.45,11.8,11.8,0,0,1,.226,2.7,15.194,15.194,0,0,1-.386,3c-.069.264-.126.528-.2.8s-.152.539-.241.813l-.262.8c-.064.209-.142.419-.218.628a11.9,11.9,0,0,1-1.289,2.432c-.066.1-.135.195-.2.292l-.236.309c-.162.207-.329.413-.507.616-.353.407-.736.811-1.154,1.209a27.5,27.5,0,0,1-6.495,4.421q-.972.5-2,.958t-2.108.881c-1.435.566-2.924,1.09-4.449,1.579-3.053.982-6.242,1.82-9.53,2.637l-1.18.291c-.381.094-.768.18-1.155.272-.78.172-1.566.342-2.369.5-1.6.321-3.24.619-4.911.914-3.341.6-6.817,1.212-10.38,2.141a50.169,50.169,0,0,0-10.709,4.007c-.436.223-.865.469-1.294.705-.427.254-.846.493-1.273.759l-.636.393c-.21.135-.415.274-.621.411-.416.269-.812.561-1.212.846a42.831,42.831,0,0,0-4.4,3.724,57.452,57.452,0,0,0-7.07,8.357,71.7,71.7,0,0,0-5.315,8.95,88.461,88.461,0,0,0-3.959,9.249Z" fill="#fdb74d"/>
            </g>
          </g>
        </g>
        <path id="Trazado_245736" data-name="Trazado 245736" d="M110.128,76.4l-4.51-2.589a4.3,4.3,0,0,1-2.128-3.358A45.919,45.919,0,0,0,101.37,60.2,4.305,4.305,0,0,1,102,56.267l3.12-4.167a5.143,5.143,0,0,0,.138-5.968l-3.677-5.419a5.144,5.144,0,0,0-5.6-2.077l-5.025,1.359a4.3,4.3,0,0,1-3.884-.872,45.837,45.837,0,0,0-8.746-5.759,4.3,4.3,0,0,1-2.332-3.219L75.251,25A5.14,5.14,0,0,0,71.13,20.68L64.7,19.448a5.142,5.142,0,0,0-5.426,2.49l-2.59,4.508a4.3,4.3,0,0,1-3.357,2.129,45.928,45.928,0,0,0-10.255,2.12,4.3,4.3,0,0,1-3.931-.625l-4.167-3.119A5.142,5.142,0,0,0,29,26.812l-5.419,3.677a5.141,5.141,0,0,0-2.077,5.6l1.359,5.024a4.305,4.305,0,0,1-.872,3.884,45.9,45.9,0,0,0-5.759,8.746,4.3,4.3,0,0,1-3.219,2.333l-5.147.74a5.144,5.144,0,0,0-4.318,4.122L2.319,67.368a5.144,5.144,0,0,0,2.489,5.426l4.509,2.589a4.3,4.3,0,0,1,2.129,3.358A45.94,45.94,0,0,0,13.566,89a4.3,4.3,0,0,1-.625,3.931l-3.12,4.166a5.143,5.143,0,0,0-.138,5.969l3.677,5.419a5.144,5.144,0,0,0,5.6,2.077l5.024-1.359a4.3,4.3,0,0,1,3.884.872,45.9,45.9,0,0,0,8.746,5.759,4.3,4.3,0,0,1,2.333,3.219l.74,5.146a5.144,5.144,0,0,0,4.122,4.319l6.433,1.232a5.143,5.143,0,0,0,5.426-2.49l2.589-4.508a4.3,4.3,0,0,1,3.357-2.129,45.937,45.937,0,0,0,10.256-2.12,4.306,4.306,0,0,1,3.932.625l4.166,3.119a5.142,5.142,0,0,0,5.969.139l5.418-3.677a5.144,5.144,0,0,0,2.077-5.6l-1.359-5.025a4.3,4.3,0,0,1,.872-3.883A46,46,0,0,0,98.7,95.454a4.3,4.3,0,0,1,3.22-2.333l5.145-.74a5.14,5.14,0,0,0,4.318-4.123l1.233-6.432a5.145,5.145,0,0,0-2.489-5.426M54.107,112.56a38.111,38.111,0,1,1,41.325-34.6,38.111,38.111,0,0,1-41.325,34.6" fill="#bdccd4"/>
        <path id="Trazado_245737" data-name="Trazado 245737" d="M51.206,130.776a6.177,6.177,0,0,1-1.144-.108l-6.432-1.232a6.085,6.085,0,0,1-4.875-5.107l-.74-5.147a3.366,3.366,0,0,0-1.827-2.514,46.942,46.942,0,0,1-8.925-5.877,3.371,3.371,0,0,0-3.037-.686L19.2,111.464a6.085,6.085,0,0,1-6.618-2.456l-3.678-5.419A6.084,6.084,0,0,1,9.07,96.53l3.119-4.166a3.373,3.373,0,0,0,.485-3.075,46.937,46.937,0,0,1-2.163-10.465A3.37,3.37,0,0,0,8.85,76.2L4.341,73.608A6.083,6.083,0,0,1,1.4,67.191L2.63,60.758a6.081,6.081,0,0,1,5.106-4.874l5.147-.74A3.368,3.368,0,0,0,15.4,53.317a46.941,46.941,0,0,1,5.877-8.925,3.373,3.373,0,0,0,.686-3.036L20.6,36.331a6.081,6.081,0,0,1,2.456-6.618l5.419-3.677a6.083,6.083,0,0,1,7.058.163L39.7,29.318a3.367,3.367,0,0,0,3.075.485A46.88,46.88,0,0,1,53.241,27.64a3.367,3.367,0,0,0,2.626-1.661l2.59-4.509a6.089,6.089,0,0,1,6.417-2.944l6.432,1.232a6.082,6.082,0,0,1,4.875,5.107l.74,5.146a3.366,3.366,0,0,0,1.827,2.515A46.925,46.925,0,0,1,87.673,38.4a3.369,3.369,0,0,0,3.036.686l5.025-1.359a6.086,6.086,0,0,1,6.619,2.456l3.676,5.419a6.084,6.084,0,0,1-.163,7.058l-3.12,4.167a3.373,3.373,0,0,0-.484,3.075,46.981,46.981,0,0,1,2.163,10.465A3.365,3.365,0,0,0,106.086,73l4.509,2.589A6.085,6.085,0,0,1,113.539,82l-1.233,6.432a6.081,6.081,0,0,1-5.106,4.874l-5.147.74a3.369,3.369,0,0,0-2.514,1.828,46.958,46.958,0,0,1-5.877,8.925,3.369,3.369,0,0,0-.686,3.036l1.359,5.024a6.082,6.082,0,0,1-2.456,6.619l-5.419,3.678A6.086,6.086,0,0,1,79.4,123l-4.167-3.119a3.367,3.367,0,0,0-3.075-.485,46.944,46.944,0,0,1-10.465,2.162,3.371,3.371,0,0,0-2.627,1.662l-2.589,4.509a6.088,6.088,0,0,1-5.273,3.052M25.081,108.114a5.285,5.285,0,0,1,3.387,1.237,44.968,44.968,0,0,0,8.567,5.641,5.247,5.247,0,0,1,2.838,3.923l.74,5.146a4.209,4.209,0,0,0,3.371,3.531l6.431,1.232a4.207,4.207,0,0,0,4.436-2.035l2.589-4.509a5.251,5.251,0,0,1,4.087-2.6,45.063,45.063,0,0,0,10.046-2.075,5.248,5.248,0,0,1,4.787.765l4.167,3.119a4.2,4.2,0,0,0,4.879.113l5.419-3.677a4.205,4.205,0,0,0,1.7-4.575l-1.359-5.025a5.246,5.246,0,0,1,1.058-4.73,45.071,45.071,0,0,0,5.641-8.568,5.244,5.244,0,0,1,3.923-2.838l5.147-.74a4.207,4.207,0,0,0,3.53-3.371l1.232-6.431a4.206,4.206,0,0,0-2.035-4.436l-4.509-2.589a5.247,5.247,0,0,1-2.6-4.088,45.046,45.046,0,0,0-2.076-10.045,5.25,5.25,0,0,1,.765-4.787l3.119-4.167a4.206,4.206,0,0,0,.113-4.879L100.8,41.24a4.2,4.2,0,0,0-4.575-1.7L91.2,40.9a5.25,5.25,0,0,1-4.732-1.058A45,45,0,0,0,77.9,34.2a5.248,5.248,0,0,1-2.839-3.923l-.74-5.147a4.2,4.2,0,0,0-3.369-3.53L64.52,20.37a4.2,4.2,0,0,0-4.435,2.035l-2.59,4.509a5.247,5.247,0,0,1-4.087,2.6,45.058,45.058,0,0,0-10.045,2.076,5.248,5.248,0,0,1-4.787-.764L34.409,27.7a4.2,4.2,0,0,0-4.879-.113l-5.419,3.677a4.2,4.2,0,0,0-1.7,4.575l1.359,5.025a5.25,5.25,0,0,1-1.058,4.73,45.03,45.03,0,0,0-5.641,8.567A5.245,5.245,0,0,1,13.15,57L8,57.742a4.206,4.206,0,0,0-3.53,3.37L3.241,67.545A4.205,4.205,0,0,0,5.276,71.98l4.509,2.589a5.246,5.246,0,0,1,2.6,4.088A45.058,45.058,0,0,0,14.457,88.7a5.25,5.25,0,0,1-.765,4.787l-3.119,4.166a4.208,4.208,0,0,0-.113,4.88l3.677,5.419a4.2,4.2,0,0,0,4.575,1.7l5.024-1.358a5.142,5.142,0,0,1,1.345-.179M57.5,113.649q-1.725,0-3.473-.154a39.028,39.028,0,1,1,3.473.154m-3.307-2.024A37.173,37.173,0,1,0,20.44,71.319a37.207,37.207,0,0,0,33.75,40.306" fill="#a5b1b7"/>
        <path id="Trazado_245738" data-name="Trazado 245738" d="M42.551,48.313c-.934.4,4.63,36.357-1.418,59.965,0,0,11.113,5.672,23.393,3.285,0,0,20.794-31.82,21.364-35.649.645-4.338-2.688-26.583-2.688-26.583S65.6,38.352,42.551,48.313" fill="#5038a1"/>
      </g>
    </g>
    <g id="Grupo_181274" data-name="Grupo 181274">
      <g id="Grupo_181273" data-name="Grupo 181273" clip-path="url(#clip-path-5)">
        <rect id="Rectángulo_103860" data-name="Rectángulo 103860" width="29.293" height="31.556" transform="translate(48.711 59.391) rotate(-61.699)" fill="url(#linear-gradient-2)"/>
      </g>
    </g>
    <g id="Grupo_181276" data-name="Grupo 181276">
      <g id="Grupo_181275" data-name="Grupo 181275" clip-path="url(#clip-path-6)">
        <rect id="Rectángulo_103861" data-name="Rectángulo 103861" width="27.723" height="24.985" transform="translate(54.84 46.017) rotate(-61.699)" fill="url(#linear-gradient-3)"/>
      </g>
    </g>
    <g id="Grupo_181278" data-name="Grupo 181278">
      <g id="Grupo_181277" data-name="Grupo 181277" clip-path="url(#clip-path-7)">
        <rect id="Rectángulo_103862" data-name="Rectángulo 103862" width="63.771" height="63.095" transform="translate(62.257 66.245) rotate(-38.924)" fill="url(#linear-gradient-4)"/>
      </g>
    </g>
    <g id="Grupo_181280" data-name="Grupo 181280">
      <g id="Grupo_181279" data-name="Grupo 181279" clip-path="url(#clip-path-8)">
        <rect id="Rectángulo_103863" data-name="Rectángulo 103863" width="28.173" height="27.057" transform="translate(118.57 52.561) rotate(-38.924)" fill="url(#linear-gradient-5)"/>
      </g>
    </g>
    <g id="Grupo_181282" data-name="Grupo 181282">
      <g id="Grupo_181281" data-name="Grupo 181281" clip-path="url(#clip-path-9)">
        <rect id="Rectángulo_103864" data-name="Rectángulo 103864" width="46.314" height="65.96" transform="translate(15.867 48.314)" fill="url(#linear-gradient-6)"/>
      </g>
    </g>
    <g id="Grupo_181284" data-name="Grupo 181284">
      <g id="Grupo_181283" data-name="Grupo 181283" clip-path="url(#clip-path)">
        <path id="Trazado_245744" data-name="Trazado 245744" d="M58.543,99.176,69.733,60.1a1.14,1.14,0,0,1,.964-.82c2.028-.237,7.9-.9,14.685-1.475,8.171-.691,17.659-1.251,23.329-.774a1.143,1.143,0,0,1,.935,1.645c-3.224,6.523-16.487,33.057-23.128,41.75a1.149,1.149,0,0,1-.923.453l-25.963-.242a1.143,1.143,0,0,1-1.089-1.458" fill="#e6e6e6"/>
        <path id="Trazado_245745" data-name="Trazado 245745" d="M86.543,54.414l8.113-1.352a.583.583,0,0,1,.649.757l-.8,2.434a.581.581,0,0,1-.476.394L86.219,57.69a.582.582,0,0,1-.644-.71l.5-2.124a.582.582,0,0,1,.471-.442" fill="#333"/>
        <path id="Trazado_245746" data-name="Trazado 245746" d="M80.468,61.282l.668-3.481a.8.8,0,0,1,.709-.649l16.387-1.663a.8.8,0,0,1,.864.988l-1.042,4.339a.805.805,0,0,1-.742.615L81.3,62.237a.8.8,0,0,1-.831-.955" fill="#333"/>
      </g>
    </g>
    <g id="Grupo_181286" data-name="Grupo 181286">
      <g id="Grupo_181285" data-name="Grupo 181285" clip-path="url(#clip-path-11)">
        <rect id="Rectángulo_103866" data-name="Rectángulo 103866" width="20.34" height="20.581" transform="translate(52.979 84.634) rotate(-50.793)" fill="url(#linear-gradient-7)"/>
      </g>
    </g>
    <g id="Grupo_181288" data-name="Grupo 181288">
      <g id="Grupo_181287" data-name="Grupo 181287" clip-path="url(#clip-path-12)">
        <rect id="Rectángulo_103867" data-name="Rectángulo 103867" width="34.098" height="33.986" transform="translate(59.769 29.84) rotate(-45.823)" fill="url(#linear-gradient-8)"/>
      </g>
    </g>
    <g id="Grupo_181290" data-name="Grupo 181290">
      <g id="Grupo_181289" data-name="Grupo 181289" clip-path="url(#clip-path)">
        <path id="Trazado_245749" data-name="Trazado 245749" d="M79.4,26.353s5.251-11.761,13.125-4.435l.609,3.028s7.5-2.137,5.034-8.932a13.774,13.774,0,0,0-19.448-7c-8.021,4.4-10.747,9.593-10.316,15.779s5.068,4.069,5.068,4.069.892-4.548,3.07-5.356,2.133,2.634,2.133,2.634Z" fill="#603813"/>
      </g>
    </g>
    <g id="Grupo_181292" data-name="Grupo 181292">
      <g id="Grupo_181291" data-name="Grupo 181291" clip-path="url(#clip-path-14)">
        <rect id="Rectángulo_103869" data-name="Rectángulo 103869" width="11.052" height="11.044" transform="translate(68.711 24.368) rotate(-45.823)" fill="url(#linear-gradient-9)"/>
      </g>
    </g>
    <g id="Grupo_181297" data-name="Grupo 181297">
      <g id="Grupo_181296" data-name="Grupo 181296" clip-path="url(#clip-path)">
        <path id="Trazado_245751" data-name="Trazado 245751" d="M75.416,13.372a2.691,2.691,0,0,0,1.55-4.507C72.255,3.717,63.362-2,50.692,6.77c-14.271,9.872-21.993,14.339-25.5,13.4a2.7,2.7,0,0,0-3.216,3.782c.8,1.568,2.44,3.206,5.465,4.7C50.771,40.163,62.829,14.9,75.416,13.372" fill="#603813"/>
        <g id="Grupo_181295" data-name="Grupo 181295" opacity="0.7" style="isolation: isolate">
          <g id="Grupo_181294" data-name="Grupo 181294">
            <g id="Grupo_181293" data-name="Grupo 181293" clip-path="url(#clip-path-16)">
              <path id="Trazado_245752" data-name="Trazado 245752" d="M123.321,108.181a10.781,10.781,0,1,1,14.353-5.141,10.781,10.781,0,0,1-14.353,5.141" fill="#5038a1"/>
            </g>
          </g>
        </g>
        <path id="Trazado_245753" data-name="Trazado 245753" d="M123.072,102.921a3.594,3.594,0,1,1,4.784-1.714A3.594,3.594,0,0,1,123.072,102.921Z" fill="none" stroke="#fff" stroke-width="0.937"/>
        <path id="Trazado_245754" data-name="Trazado 245754" d="M137.4,128.183a2.187,2.187,0,1,1,2.912-1.043,2.187,2.187,0,0,1-2.912,1.043" fill="#fdb74d"/>
        <path id="Trazado_245755" data-name="Trazado 245755" d="M137.6,127.759a1.719,1.719,0,1,1,2.288-.82,1.719,1.719,0,0,1-2.288.82" fill="#fdb74d"/>
        <path id="Trazado_245756" data-name="Trazado 245756" d="M137.6,127.759a1.719,1.719,0,1,1,2.288-.82A1.719,1.719,0,0,1,137.6,127.759Z" fill="none" stroke="#8c6df2" stroke-width="0.937"/>
        <path id="Trazado_245757" data-name="Trazado 245757" d="M136.857,109.953a1.406,1.406,0,1,1,1.872-.671,1.407,1.407,0,0,1-1.872.671" fill="#fdb74d"/>
      </g>
    </g>
  </g>
</svg>
