<svg xmlns="http://www.w3.org/2000/svg" width="673.113" height="289.05" viewBox="0 0 673.113 289.05">
  <g id="Grupo_182335" data-name="Grupo 182335" transform="translate(-463.667 -4806)">
    <path id="Trazado_243337" data-name="Trazado 243337" d="M502.353,56.562l9.756,7.5-3.617,11.762" transform="translate(415.281 4800.552)" fill="none" stroke="#fdb74d" stroke-linecap="round" stroke-linejoin="round" stroke-width="2.654"/>
    <path id="Trazado_247085" data-name="Trazado 247085" d="M34.463,0,0,9.664" transform="translate(892.927 4864.614)" fill="none" stroke="#fdb74d" stroke-linecap="round" stroke-width="2.654"/>
    <path id="Trazado_243338" data-name="Trazado 243338" d="M502.353,151.056l9.756-7.5-3.617-11.762" transform="translate(415.281 4793.306)" fill="none" stroke="#fdb74d" stroke-linecap="round" stroke-linejoin="round" stroke-width="2.654"/>
    <path id="Trazado_247086" data-name="Trazado 247086" d="M34.463,9.664,0,0" transform="translate(892.927 4927.198)" fill="none" stroke="#fdb74d" stroke-linecap="round" stroke-width="2.654"/>
    <path id="Trazado_243339" data-name="Trazado 243339" d="M240.545,104.826l9.756,7.5-3.617,11.762" transform="translate(440.498 4795.903)" fill="none" stroke="#fdb74d" stroke-linecap="round" stroke-linejoin="round" stroke-width="2.654"/>
    <path id="Trazado_247081" data-name="Trazado 247081" d="M34.463,0,0,9.664" transform="translate(656.336 4908.229)" fill="none" stroke="#fdb74d" stroke-linecap="round" stroke-width="2.654"/>
    <path id="Trazado_243340" data-name="Trazado 243340" d="M240.545,225.52l9.756-7.5-3.617-11.762" transform="translate(440.498 4786.134)" fill="none" stroke="#fdb74d" stroke-linecap="round" stroke-linejoin="round" stroke-width="2.654"/>
    <path id="Trazado_247082" data-name="Trazado 247082" d="M34.463,9.664,0,0" transform="translate(656.336 4994.49)" fill="none" stroke="#fdb74d" stroke-linecap="round" stroke-width="2.654"/>
    <path id="Trazado_243341" data-name="Trazado 243341" d="M502.353,257.959l9.756-7.5L508.493,238.7" transform="translate(415.281 4783.009)" fill="none" stroke="#fdb74d" stroke-linecap="round" stroke-linejoin="round" stroke-width="2.654"/>
    <path id="Trazado_247092" data-name="Trazado 247092" d="M25.2,8.588,0,0" transform="translate(902.188 5024.88)" fill="none" stroke="#fdb74d" stroke-linecap="round" stroke-width="2.654"/>
    <path id="Trazado_243342" data-name="Trazado 243342" d="M159.174,205.8H44.317A44.317,44.317,0,0,1,0,161.481H0a44.317,44.317,0,0,1,44.317-44.317H159.174a44.317,44.317,0,0,1,44.317,44.317h0A44.317,44.317,0,0,1,159.174,205.8" transform="translate(463.667 4794.715)" fill="#5038a1"/>
    <path id="Trazado_243343" data-name="Trazado 243343" d="M40.888,165.957v3.963H38.2V158.355H42.89a4.8,4.8,0,0,1,3.264,1.052,3.742,3.742,0,0,1,0,5.505,4.816,4.816,0,0,1-3.264,1.045Zm0-2.065h2a1.749,1.749,0,0,0,1.33-.482,1.72,1.72,0,0,0,.456-1.234,1.789,1.789,0,0,0-.456-1.264,1.727,1.727,0,0,0-1.33-.493h-2Z" transform="translate(459.988 4790.748)" fill="#fff"/>
    <path id="Trazado_243344" data-name="Trazado 243344" d="M54.7,163.993l-.977-.007a1.628,1.628,0,0,0-.755.154.99.99,0,0,0-.436.441v5.64H49.85v-8.594h2.526l.095,1.263a2.594,2.594,0,0,1,.715-1.048,1.572,1.572,0,0,1,1.041-.374,3.027,3.027,0,0,1,.389.028,3.176,3.176,0,0,1,.35.068Z" transform="translate(458.865 4790.448)" fill="#fff"/>
    <path id="Trazado_243345" data-name="Trazado 243345" d="M60.234,170.387A3.988,3.988,0,0,1,57.2,169.2a4.166,4.166,0,0,1-1.131-2.987v-.3A4.863,4.863,0,0,1,57.1,162.7a4.115,4.115,0,0,1,5.683-.187,3.963,3.963,0,0,1,.993,2.843v1.407H58.868l-.015.048a1.746,1.746,0,0,0,.539,1.084,1.688,1.688,0,0,0,1.207.426,4.991,4.991,0,0,0,1.219-.12,8.913,8.913,0,0,0,1.156-.413l.635,1.636a4.853,4.853,0,0,1-1.458.687,6.481,6.481,0,0,1-1.918.276m-.191-6.855a.993.993,0,0,0-.87.413,2.264,2.264,0,0,0-.353,1.105l.024.039h2.311v-.207a1.61,1.61,0,0,0-.269-1,1,1,0,0,0-.842-.35" transform="translate(458.267 4790.448)" fill="#fff"/>
    <path id="Trazado_243346" data-name="Trazado 243346" d="M68.876,166.694l.159.915.048.007.174-.922,1.136-5.052h2.819l-2.8,8.594H67.692l-2.8-8.594h2.828Z" transform="translate(457.416 4790.431)" fill="#fff"/>
    <path id="Trazado_243347" data-name="Trazado 243347" d="M78.779,170.387a3.988,3.988,0,0,1-3.031-1.191,4.166,4.166,0,0,1-1.131-2.987v-.3a4.863,4.863,0,0,1,1.028-3.205,4.115,4.115,0,0,1,5.683-.187,3.963,3.963,0,0,1,.993,2.843v1.407H77.413l-.015.048a1.746,1.746,0,0,0,.54,1.084,1.688,1.688,0,0,0,1.207.426,4.991,4.991,0,0,0,1.219-.12,8.913,8.913,0,0,0,1.156-.413l.635,1.636a4.853,4.853,0,0,1-1.458.687,6.481,6.481,0,0,1-1.918.276m-.191-6.855a.993.993,0,0,0-.87.413,2.264,2.264,0,0,0-.353,1.105l.024.039H79.7v-.207a1.61,1.61,0,0,0-.269-1,1,1,0,0,0-.842-.35" transform="translate(456.48 4790.448)" fill="#fff"/>
    <path id="Trazado_243348" data-name="Trazado 243348" d="M86.865,161.625l.1,1.207a3.114,3.114,0,0,1,1.041-1,2.7,2.7,0,0,1,1.382-.362,2.478,2.478,0,0,1,1.974.819,3.927,3.927,0,0,1,.711,2.605v5.329H89.39v-5.337a1.451,1.451,0,0,0-.306-1.046,1.228,1.228,0,0,0-.9-.305,1.548,1.548,0,0,0-.663.136,1.453,1.453,0,0,0-.5.372v6.179H84.347v-8.594Z" transform="translate(455.543 4790.448)" fill="#fff"/>
    <path id="Trazado_243349" data-name="Trazado 243349" d="M97.34,159.245H94.648v-1.8H97.34Zm0,10.587H94.648v-8.594H97.34Z" transform="translate(454.551 4790.835)" fill="#fff"/>
    <path id="Trazado_243350" data-name="Trazado 243350" d="M104.3,163.993l-.977-.007a1.628,1.628,0,0,0-.755.154.99.99,0,0,0-.436.441v5.64H99.447v-8.594h2.526l.095,1.263a2.594,2.594,0,0,1,.715-1.048,1.572,1.572,0,0,1,1.041-.374,3.027,3.027,0,0,1,.389.028,3.176,3.176,0,0,1,.35.068Z" transform="translate(454.089 4790.448)" fill="#fff"/>
    <path id="Trazado_243351" data-name="Trazado 243351" d="M113.407,159.245h-2.692v-1.8h2.692Zm0,10.587h-2.692v-8.594h2.692Z" transform="translate(453.003 4790.835)" fill="#fff"/>
    <path id="Trazado_243352" data-name="Trazado 243352" d="M117.978,161.625l.1,1.207a3.114,3.114,0,0,1,1.041-1,2.7,2.7,0,0,1,1.382-.362,2.478,2.478,0,0,1,1.974.819,3.927,3.927,0,0,1,.711,2.605v5.329H120.5v-5.337a1.451,1.451,0,0,0-.306-1.046,1.228,1.228,0,0,0-.9-.305,1.548,1.548,0,0,0-.663.136,1.453,1.453,0,0,0-.5.372v6.179H115.46v-8.594Z" transform="translate(452.546 4790.448)" fill="#fff"/>
    <path id="Trazado_243353" data-name="Trazado 243353" d="M129.256,168.322a1.023,1.023,0,0,0,.8-.295,1.262,1.262,0,0,0,.262-.865h2.454l.015.048a2.819,2.819,0,0,1-.973,2.291,3.727,3.727,0,0,1-2.561.886,3.786,3.786,0,0,1-3.015-1.216,4.619,4.619,0,0,1-1.06-3.152v-.183a4.636,4.636,0,0,1,1.056-3.148,3.75,3.75,0,0,1,2.995-1.22,3.67,3.67,0,0,1,2.613.915,3.141,3.141,0,0,1,.945,2.485l-.015.048H130.32a1.7,1.7,0,0,0-.27-1,.934.934,0,0,0-.818-.385,1.092,1.092,0,0,0-1.069.629,3.848,3.848,0,0,0-.305,1.675v.183a3.831,3.831,0,0,0,.305,1.691,1.116,1.116,0,0,0,1.093.613" transform="translate(451.609 4790.448)" fill="#fff"/>
    <path id="Trazado_243354" data-name="Trazado 243354" d="M138.72,170.387a3.988,3.988,0,0,1-3.031-1.191,4.166,4.166,0,0,1-1.131-2.987v-.3a4.863,4.863,0,0,1,1.028-3.205,4.115,4.115,0,0,1,5.683-.187,3.963,3.963,0,0,1,.993,2.843v1.407h-4.909l-.015.048a1.746,1.746,0,0,0,.54,1.084,1.688,1.688,0,0,0,1.207.426,4.991,4.991,0,0,0,1.219-.12,8.914,8.914,0,0,0,1.156-.413l.635,1.636a4.854,4.854,0,0,1-1.458.687,6.481,6.481,0,0,1-1.918.276m-.191-6.855a.993.993,0,0,0-.87.413,2.264,2.264,0,0,0-.353,1.105l.024.039h2.311v-.207a1.61,1.61,0,0,0-.269-1,1,1,0,0,0-.842-.35" transform="translate(450.707 4790.448)" fill="#fff"/>
    <path id="Trazado_243355" data-name="Trazado 243355" d="M146.806,161.625l.1,1.207a3.114,3.114,0,0,1,1.041-1,2.7,2.7,0,0,1,1.382-.362,2.478,2.478,0,0,1,1.974.819,3.927,3.927,0,0,1,.711,2.605v5.329h-2.685v-5.337a1.451,1.451,0,0,0-.306-1.046,1.228,1.228,0,0,0-.9-.305,1.548,1.548,0,0,0-.663.136,1.453,1.453,0,0,0-.5.372v6.179h-2.677v-8.594Z" transform="translate(449.77 4790.448)" fill="#fff"/>
    <path id="Trazado_243356" data-name="Trazado 243356" d="M154.061,165.551a5.472,5.472,0,0,1,.877-3.241,2.865,2.865,0,0,1,2.474-1.231,2.135,2.135,0,0,1,1.076.274,2.864,2.864,0,0,1,.862.783v-4.7h2.685v12.39h-2.328l-.191-1.055a2.9,2.9,0,0,1-.925.91A2.307,2.307,0,0,1,157.4,170a2.892,2.892,0,0,1-2.463-1.175,5.092,5.092,0,0,1-.874-3.107Zm2.685.167a3.574,3.574,0,0,0,.305,1.633,1.071,1.071,0,0,0,1.029.584,1.693,1.693,0,0,0,.742-.155,1.337,1.337,0,0,0,.529-.458v-3.468a1.483,1.483,0,0,0-.524-.526,1.449,1.449,0,0,0-.731-.183,1.071,1.071,0,0,0-1.032.661,4.053,4.053,0,0,0-.318,1.747Z" transform="translate(448.828 4790.835)" fill="#fff"/>
    <path id="Trazado_243357" data-name="Trazado 243357" d="M167.4,159.245h-2.692v-1.8H167.4Zm0,10.587h-2.692v-8.594H167.4Z" transform="translate(447.803 4790.835)" fill="#fff"/>
    <path id="Trazado_243358" data-name="Trazado 243358" d="M169.108,165.844a4.55,4.55,0,0,1,1.1-3.157,4.455,4.455,0,0,1,6.124,0,4.549,4.549,0,0,1,1.1,3.157v.166a4.54,4.54,0,0,1-1.1,3.161,4.463,4.463,0,0,1-6.124,0,4.54,4.54,0,0,1-1.1-3.161Zm2.685.166a3.553,3.553,0,0,0,.337,1.7,1.2,1.2,0,0,0,1.149.616,1.187,1.187,0,0,0,1.128-.62,3.525,3.525,0,0,0,.342-1.693v-.166a3.534,3.534,0,0,0-.342-1.68,1.2,1.2,0,0,0-1.144-.632,1.18,1.18,0,0,0-1.132.635,3.58,3.58,0,0,0-.337,1.676Z" transform="translate(447.379 4790.448)" fill="#fff"/>
    <path id="Trazado_243359" data-name="Trazado 243359" d="M184.053,167.8a.705.705,0,0,0-.361-.568,3.923,3.923,0,0,0-1.314-.448,5.154,5.154,0,0,1-2.264-.913,2.063,2.063,0,0,1-.763-1.693,2.415,2.415,0,0,1,.953-1.926,3.924,3.924,0,0,1,2.581-.791,4.439,4.439,0,0,1,2.732.766,2.256,2.256,0,0,1,.97,1.982l-.016.048h-2.605a1.048,1.048,0,0,0-.258-.769,1.122,1.122,0,0,0-.83-.263,1.091,1.091,0,0,0-.707.23.722.722,0,0,0-.286.588.7.7,0,0,0,.329.578,3.729,3.729,0,0,0,1.331.429,5.374,5.374,0,0,1,2.331.924,2.122,2.122,0,0,1,.758,1.744,2.272,2.272,0,0,1-1.028,1.909,4.5,4.5,0,0,1-2.72.752,4.081,4.081,0,0,1-2.776-.889,2.447,2.447,0,0,1-.972-1.985l.015-.048h2.431a1.074,1.074,0,0,0,.369.881,1.63,1.63,0,0,0,1,.269,1.335,1.335,0,0,0,.818-.21.707.707,0,0,0,.278-.6" transform="translate(446.413 4790.448)" fill="#fff"/>
    <path id="Trazado_243360" data-name="Trazado 243360" d="M678.849,88.634H563.992a44.317,44.317,0,0,1-44.317-44.317h0A44.317,44.317,0,0,1,563.992,0H678.849a44.317,44.317,0,0,1,44.317,44.317h0a44.317,44.317,0,0,1-44.317,44.317" transform="translate(413.613 4806)" fill="#8c6df2"/>
    <path id="Trazado_243381" data-name="Trazado 243381" d="M547.9,41.059a5.038,5.038,0,0,1,.784-2.948,2.534,2.534,0,0,1,2.2-1.119,2.413,2.413,0,0,1,1.172.276,2.524,2.524,0,0,1,.868.791l.2-.925h1.391V47.709H552.8V44.052a2.3,2.3,0,0,1-.832.65,2.85,2.85,0,0,1-3.283-.805,4.3,4.3,0,0,1-.784-2.689Zm1.715.145a3.14,3.14,0,0,0,.406,1.7,1.411,1.411,0,0,0,1.289.642,1.742,1.742,0,0,0,.885-.209,1.677,1.677,0,0,0,.6-.6V39.18a1.76,1.76,0,0,0-.606-.6,1.681,1.681,0,0,0-.868-.216,1.38,1.38,0,0,0-1.292.751,3.96,3.96,0,0,0-.417,1.936Z" transform="translate(410.895 4802.437)" fill="#fff"/>
    <path id="Trazado_243382" data-name="Trazado 243382" d="M562.067,43.672a2.616,2.616,0,0,1-.911.935,2.7,2.7,0,0,1-3.191-.455,3.605,3.605,0,0,1-.692-2.435V37.148h1.709v4.583a2.287,2.287,0,0,0,.324,1.4,1.187,1.187,0,0,0,.981.4,2.2,2.2,0,0,0,1.042-.223,1.624,1.624,0,0,0,.66-.645V37.148H563.7v7.639h-1.5Z" transform="translate(409.991 4802.422)" fill="#fff"/>
    <path id="Trazado_243383" data-name="Trazado 243383" d="M568.208,44.486h-1.715V36.847h1.715Zm-.339-10.463h1.9l.014.042L567.855,35.9h-1.334Z" transform="translate(409.104 4802.723)" fill="#fff"/>
    <path id="Trazado_243384" data-name="Trazado 243384" d="M572.146,37.133l.092,1a2.576,2.576,0,0,1,.939-.84,2.764,2.764,0,0,1,1.306-.3,2.36,2.36,0,0,1,1.285.339,2.052,2.052,0,0,1,.8,1.017,2.671,2.671,0,0,1,.933-1,2.514,2.514,0,0,1,1.356-.36,2.257,2.257,0,0,1,1.817.787,3.625,3.625,0,0,1,.668,2.389v4.6h-1.716v-4.61a2.148,2.148,0,0,0-.335-1.37,1.246,1.246,0,0,0-1.006-.4,1.471,1.471,0,0,0-.932.3,1.643,1.643,0,0,0-.551.8c0,.071,0,.132.007.184s.007.1.007.148v4.949H575.1v-4.61a2.132,2.132,0,0,0-.342-1.353,1.235,1.235,0,0,0-1.007-.413,1.807,1.807,0,0,0-.886.2,1.48,1.48,0,0,0-.576.568v5.606h-1.715V37.133Z" transform="translate(408.71 4802.437)" fill="#fff"/>
    <path id="Trazado_243385" data-name="Trazado 243385" d="M586.333,34.918h-1.715v-1.5h1.715Zm0,9.509h-1.715V36.788h1.715Z" transform="translate(407.357 4802.782)" fill="#fff"/>
    <path id="Trazado_243386" data-name="Trazado 243386" d="M591.761,43.544a1.573,1.573,0,0,0,1.059-.369,1.167,1.167,0,0,0,.43-.924H594.8l.014.042a2.26,2.26,0,0,1-.872,1.85,3.249,3.249,0,0,1-2.185.776,3.168,3.168,0,0,1-2.587-1.087,4.171,4.171,0,0,1-.9-2.754v-.247a4.177,4.177,0,0,1,.9-2.75A3.569,3.569,0,0,1,594,37.794a2.584,2.584,0,0,1,.83,2.037l-.014.042h-1.561a1.5,1.5,0,0,0-.413-1.066,1.412,1.412,0,0,0-1.076-.438,1.449,1.449,0,0,0-1.37.7,3.5,3.5,0,0,0-.4,1.759v.248a3.506,3.506,0,0,0,.4,1.772,1.452,1.452,0,0,0,1.37.695" transform="translate(407.006 4802.437)" fill="#fff"/>
    <path id="Trazado_243387" data-name="Trazado 243387" d="M601.6,44.772c-.061-.192-.112-.381-.152-.565a3.978,3.978,0,0,1-.081-.55,3.028,3.028,0,0,1-.928.9,2.358,2.358,0,0,1-1.289.363,2.537,2.537,0,0,1-1.832-.614,2.227,2.227,0,0,1-.639-1.687,1.992,1.992,0,0,1,.876-1.727,4.222,4.222,0,0,1,2.463-.617h1.335V39.6a1.241,1.241,0,0,0-.353-.939,1.4,1.4,0,0,0-1.009-.339,1.429,1.429,0,0,0-.932.282.9.9,0,0,0-.346.727h-1.652l-.007-.042a1.893,1.893,0,0,1,.808-1.6,3.429,3.429,0,0,1,2.235-.7,3.271,3.271,0,0,1,2.154.678,2.389,2.389,0,0,1,.819,1.948v3.4a6.367,6.367,0,0,0,.063.907,4.832,4.832,0,0,0,.205.85Zm-2.1-1.228a2.162,2.162,0,0,0,1.168-.324,1.635,1.635,0,0,0,.689-.742v-1.13h-1.363a1.722,1.722,0,0,0-1.172.371,1.129,1.129,0,0,0-.424.872.89.89,0,0,0,.286.7,1.176,1.176,0,0,0,.815.258" transform="translate(406.196 4802.437)" fill="#fff"/>
    <path id="Trazado_243388" data-name="Trazado 243388" d="M610,42.7a.8.8,0,0,0-.339-.657,3.383,3.383,0,0,0-1.263-.459,5.23,5.23,0,0,1-2.072-.822,1.722,1.722,0,0,1-.7-1.45,2.062,2.062,0,0,1,.812-1.638,3.225,3.225,0,0,1,2.139-.678,3.352,3.352,0,0,1,2.22.689,2.043,2.043,0,0,1,.787,1.705l-.014.042h-1.645a1.079,1.079,0,0,0-.36-.812,1.386,1.386,0,0,0-.989-.339,1.411,1.411,0,0,0-.946.279.863.863,0,0,0-.324.681.766.766,0,0,0,.306.639,3.3,3.3,0,0,0,1.246.419,5.264,5.264,0,0,1,2.136.837,1.767,1.767,0,0,1,.695,1.472,2,2,0,0,1-.85,1.674,3.627,3.627,0,0,1-2.242.643,3.421,3.421,0,0,1-2.351-.763,2.15,2.15,0,0,1-.819-1.751l.014-.042h1.6a1.141,1.141,0,0,0,.48.967,1.928,1.928,0,0,0,1.1.3,1.765,1.765,0,0,0,1.024-.254A.8.8,0,0,0,610,42.7" transform="translate(405.354 4802.437)" fill="#fff"/>
    <path id="Trazado_243389" data-name="Trazado 243389" d="M617.7,40.714a5.038,5.038,0,0,1,.784-2.948,2.535,2.535,0,0,1,2.2-1.119,2.425,2.425,0,0,1,1.112.25,2.516,2.516,0,0,1,.85.717v-4.2h1.716V44.427h-1.44l-.17-.946a2.529,2.529,0,0,1-.882.816,2.483,2.483,0,0,1-1.2.278,2.6,2.6,0,0,1-2.189-1.023,4.309,4.309,0,0,1-.784-2.69Zm1.715.148a3.072,3.072,0,0,0,.406,1.687,1.421,1.421,0,0,0,1.289.629,1.729,1.729,0,0,0,.922-.233,1.784,1.784,0,0,0,.617-.664V38.949a1.815,1.815,0,0,0-.621-.661,1.687,1.687,0,0,0-.9-.236,1.382,1.382,0,0,0-1.292.737,3.886,3.886,0,0,0-.417,1.924Z" transform="translate(404.172 4802.782)" fill="#fff"/>
    <path id="Trazado_243390" data-name="Trazado 243390" d="M630.357,44.921a3.323,3.323,0,0,1-2.588-1.063,3.911,3.911,0,0,1-.963-2.729v-.282a4.056,4.056,0,0,1,.957-2.764,3.025,3.025,0,0,1,2.4-1.091,2.986,2.986,0,0,1,2.369.935,3.664,3.664,0,0,1,.822,2.51v1.009h-4.765l-.014.035a2.4,2.4,0,0,0,.533,1.485,1.686,1.686,0,0,0,1.359.577,3.674,3.674,0,0,0,1.186-.169,3.9,3.9,0,0,0,.953-.487l.551,1.124a3.574,3.574,0,0,1-1.144.646,4.786,4.786,0,0,1-1.652.263m-.2-6.552a1.289,1.289,0,0,0-1.045.5,2.481,2.481,0,0,0-.509,1.281l.015.035h3.028v-.176a1.826,1.826,0,0,0-.37-1.187,1.353,1.353,0,0,0-1.119-.458" transform="translate(403.294 4802.437)" fill="#fff"/>
    <path id="Trazado_247087" data-name="Trazado 247087" d="M0,0H1.715V11.014H0Z" transform="translate(1041.741 4836.195)" fill="#fff"/>
    <path id="Trazado_243391" data-name="Trazado 243391" d="M648.272,44.772c-.061-.192-.112-.381-.152-.565a4,4,0,0,1-.081-.55,3.027,3.027,0,0,1-.928.9,2.358,2.358,0,0,1-1.289.363,2.537,2.537,0,0,1-1.832-.614,2.227,2.227,0,0,1-.639-1.687,1.992,1.992,0,0,1,.876-1.727,4.222,4.222,0,0,1,2.463-.617h1.335V39.6a1.241,1.241,0,0,0-.353-.939,1.4,1.4,0,0,0-1.009-.339,1.429,1.429,0,0,0-.932.282.9.9,0,0,0-.346.727h-1.652l-.007-.042a1.893,1.893,0,0,1,.808-1.6,3.429,3.429,0,0,1,2.235-.7,3.271,3.271,0,0,1,2.153.678,2.389,2.389,0,0,1,.819,1.948v3.4a6.367,6.367,0,0,0,.063.907,4.838,4.838,0,0,0,.205.85Zm-2.1-1.228a2.162,2.162,0,0,0,1.169-.324,1.635,1.635,0,0,0,.688-.742v-1.13h-1.363a1.722,1.722,0,0,0-1.172.371,1.128,1.128,0,0,0-.424.872.891.891,0,0,0,.286.7,1.176,1.176,0,0,0,.815.258" transform="translate(401.7 4802.437)" fill="#fff"/>
    <path id="Trazado_243392" data-name="Trazado 243392" d="M656.676,42.7a.8.8,0,0,0-.339-.657,3.383,3.383,0,0,0-1.263-.459A5.231,5.231,0,0,1,653,40.759a1.722,1.722,0,0,1-.7-1.45,2.062,2.062,0,0,1,.812-1.638,3.225,3.225,0,0,1,2.139-.678,3.352,3.352,0,0,1,2.22.689,2.043,2.043,0,0,1,.787,1.705l-.014.042H656.6a1.079,1.079,0,0,0-.36-.812,1.386,1.386,0,0,0-.989-.339,1.411,1.411,0,0,0-.946.279.863.863,0,0,0-.324.681.766.766,0,0,0,.306.639,3.3,3.3,0,0,0,1.246.419,5.264,5.264,0,0,1,2.136.837,1.767,1.767,0,0,1,.7,1.472,2,2,0,0,1-.85,1.674,3.627,3.627,0,0,1-2.242.643,3.421,3.421,0,0,1-2.35-.763,2.151,2.151,0,0,1-.819-1.751l.014-.042h1.6a1.141,1.141,0,0,0,.48.967,1.928,1.928,0,0,0,1.1.3,1.765,1.765,0,0,0,1.024-.254.8.8,0,0,0,.36-.685" transform="translate(400.858 4802.437)" fill="#fff"/>
    <path id="Trazado_243393" data-name="Trazado 243393" d="M671.412,41.207a4.308,4.308,0,0,1-.784,2.69,2.594,2.594,0,0,1-2.181,1.023,2.718,2.718,0,0,1-1.151-.232,2.383,2.383,0,0,1-.861-.685v3.706h-1.715V37.133h1.447l.17.961a2.539,2.539,0,0,1,.886-.82,2.48,2.48,0,0,1,1.2-.282,2.542,2.542,0,0,1,2.2,1.119,5.032,5.032,0,0,1,.786,2.948Zm-1.709-.152a3.728,3.728,0,0,0-.44-1.914,1.438,1.438,0,0,0-1.318-.744,1.72,1.72,0,0,0-.911.229,1.69,1.69,0,0,0-.6.639v3.447a1.6,1.6,0,0,0,.6.617,1.828,1.828,0,0,0,.925.215,1.475,1.475,0,0,0,1.31-.645,2.988,2.988,0,0,0,.433-1.7Z" transform="translate(399.643 4802.437)" fill="#fff"/>
    <path id="Trazado_247095" data-name="Trazado 247095" d="M0,0H1.715V11.014H0Z" transform="translate(1072.665 4836.195)" fill="#fff"/>
    <path id="Trazado_243394" data-name="Trazado 243394" d="M682.492,44.772c-.061-.192-.112-.381-.152-.565a3.988,3.988,0,0,1-.081-.55,3.026,3.026,0,0,1-.928.9,2.358,2.358,0,0,1-1.289.363,2.537,2.537,0,0,1-1.832-.614,2.227,2.227,0,0,1-.639-1.687,1.992,1.992,0,0,1,.876-1.727,4.222,4.222,0,0,1,2.463-.617h1.335V39.6a1.241,1.241,0,0,0-.353-.939,1.4,1.4,0,0,0-1.009-.339,1.429,1.429,0,0,0-.932.282.9.9,0,0,0-.346.727h-1.652l-.007-.042a1.893,1.893,0,0,1,.808-1.6,3.429,3.429,0,0,1,2.235-.7,3.271,3.271,0,0,1,2.153.678,2.389,2.389,0,0,1,.819,1.948v3.4a6.376,6.376,0,0,0,.063.907,4.849,4.849,0,0,0,.205.85Zm-2.1-1.228a2.162,2.162,0,0,0,1.169-.324,1.635,1.635,0,0,0,.689-.742v-1.13h-1.363a1.721,1.721,0,0,0-1.172.371,1.128,1.128,0,0,0-.424.872.89.89,0,0,0,.286.7,1.176,1.176,0,0,0,.815.258" transform="translate(398.404 4802.437)" fill="#fff"/>
    <path id="Trazado_243399" data-name="Trazado 243399" d="M559.372,64.121a3.323,3.323,0,0,1-2.588-1.063,3.909,3.909,0,0,1-.963-2.728v-.283a4.052,4.052,0,0,1,.957-2.763,3.025,3.025,0,0,1,2.4-1.091,2.983,2.983,0,0,1,2.369.935,3.664,3.664,0,0,1,.822,2.51v1.009H557.6l-.014.035a2.391,2.391,0,0,0,.533,1.485,1.686,1.686,0,0,0,1.359.577,3.673,3.673,0,0,0,1.186-.17,3.9,3.9,0,0,0,.953-.487l.551,1.125a3.573,3.573,0,0,1-1.144.645,4.764,4.764,0,0,1-1.652.263m-.2-6.552a1.287,1.287,0,0,0-1.045.505,2.476,2.476,0,0,0-.509,1.281l.014.035h3.028v-.177a1.825,1.825,0,0,0-.371-1.186,1.35,1.35,0,0,0-1.119-.459" transform="translate(410.132 4800.587)" fill="#fff"/>
    <path id="Trazado_247088" data-name="Trazado 247088" d="M0,0H1.715V11.014H0Z" transform="translate(973.993 4853.546)" fill="#fff"/>
    <path id="Trazado_243400" data-name="Trazado 243400" d="M571.989,63.818a3.321,3.321,0,0,1-2.587-1.063,3.9,3.9,0,0,1-.963-2.728v-.283a4.051,4.051,0,0,1,.956-2.763,3.025,3.025,0,0,1,2.4-1.091,2.986,2.986,0,0,1,2.37.935,3.668,3.668,0,0,1,.822,2.51v1.009h-4.766l-.014.035a2.391,2.391,0,0,0,.532,1.485,1.689,1.689,0,0,0,1.359.577,3.679,3.679,0,0,0,1.187-.17,3.915,3.915,0,0,0,.953-.487l.55,1.125a3.553,3.553,0,0,1-1.144.645,4.761,4.761,0,0,1-1.652.263m-.2-6.552a1.289,1.289,0,0,0-1.045.505,2.467,2.467,0,0,0-.508,1.281l.014.035h3.029v-.177a1.831,1.831,0,0,0-.37-1.186,1.354,1.354,0,0,0-1.12-.459m.431-4.215h1.9l.014.042-1.927,1.835h-1.334Z" transform="translate(408.916 4800.89)" fill="#fff"/>
    <path id="Trazado_243401" data-name="Trazado 243401" d="M580.331,62.744a1.574,1.574,0,0,0,1.059-.369,1.168,1.168,0,0,0,.43-.924h1.553l.015.042a2.26,2.26,0,0,1-.872,1.85,3.249,3.249,0,0,1-2.185.776,3.167,3.167,0,0,1-2.587-1.087,4.171,4.171,0,0,1-.9-2.754v-.247a4.177,4.177,0,0,1,.9-2.75,3.569,3.569,0,0,1,4.822-.289,2.584,2.584,0,0,1,.83,2.037l-.014.042h-1.561a1.5,1.5,0,0,0-.413-1.066,1.411,1.411,0,0,0-1.076-.438,1.449,1.449,0,0,0-1.37.7,3.5,3.5,0,0,0-.4,1.759v.248a3.506,3.506,0,0,0,.4,1.772,1.452,1.452,0,0,0,1.37.695" transform="translate(408.106 4800.588)" fill="#fff"/>
    <path id="Trazado_243402" data-name="Trazado 243402" d="M587.663,54.294v1.857h1.37v1.271h-1.37v4.222a.919.919,0,0,0,.205.674.741.741,0,0,0,.543.2,1.469,1.469,0,0,0,.276-.025,1.715,1.715,0,0,0,.254-.067l.183,1.257a2.007,2.007,0,0,1-.522.187,2.938,2.938,0,0,1-.628.067,1.968,1.968,0,0,1-1.483-.554,2.429,2.429,0,0,1-.537-1.74V57.422h-1.165V56.151h1.165V54.294Z" transform="translate(407.341 4800.771)" fill="#fff"/>
    <path id="Trazado_243403" data-name="Trazado 243403" d="M594.977,57.879l-.734-.028a1.538,1.538,0,0,0-.837.211,1.391,1.391,0,0,0-.52.6v5.309h-1.715V56.333h1.567l.113,1.109a2.444,2.444,0,0,1,.746-.918,1.731,1.731,0,0,1,1.048-.332,1.62,1.62,0,0,1,.289.024,2.112,2.112,0,0,1,.248.061Z" transform="translate(406.727 4800.588)" fill="#fff"/>
    <path id="Trazado_243404" data-name="Trazado 243404" d="M598.551,54.118h-1.715v-1.5h1.715Zm0,9.51h-1.715V55.989h1.715Z" transform="translate(406.181 4800.932)" fill="#fff"/>
    <path id="Trazado_243405" data-name="Trazado 243405" d="M603.98,62.744a1.573,1.573,0,0,0,1.059-.369,1.167,1.167,0,0,0,.43-.924h1.553l.014.042a2.259,2.259,0,0,1-.872,1.85,3.25,3.25,0,0,1-2.185.776,3.167,3.167,0,0,1-2.587-1.087,4.171,4.171,0,0,1-.9-2.754v-.247a4.177,4.177,0,0,1,.9-2.75,3.569,3.569,0,0,1,4.822-.289,2.584,2.584,0,0,1,.83,2.037l-.014.042H605.47a1.5,1.5,0,0,0-.413-1.066,1.412,1.412,0,0,0-1.076-.438,1.449,1.449,0,0,0-1.37.7,3.5,3.5,0,0,0-.4,1.759v.248a3.507,3.507,0,0,0,.4,1.772,1.452,1.452,0,0,0,1.37.695" transform="translate(405.828 4800.588)" fill="#fff"/>
    <path id="Trazado_243406" data-name="Trazado 243406" d="M613.82,63.972c-.061-.192-.112-.381-.152-.565a3.969,3.969,0,0,1-.081-.55,3.027,3.027,0,0,1-.928.9,2.358,2.358,0,0,1-1.289.363,2.537,2.537,0,0,1-1.832-.614,2.227,2.227,0,0,1-.639-1.687,1.992,1.992,0,0,1,.876-1.727,4.222,4.222,0,0,1,2.464-.617h1.335V58.8a1.241,1.241,0,0,0-.353-.939,1.4,1.4,0,0,0-1.009-.339,1.429,1.429,0,0,0-.932.282.9.9,0,0,0-.346.727H609.28l-.007-.042a1.893,1.893,0,0,1,.808-1.6,3.429,3.429,0,0,1,2.235-.7,3.271,3.271,0,0,1,2.153.678,2.388,2.388,0,0,1,.819,1.948v3.4a6.367,6.367,0,0,0,.063.907,4.832,4.832,0,0,0,.205.85Zm-2.1-1.228a2.162,2.162,0,0,0,1.168-.324,1.635,1.635,0,0,0,.689-.742v-1.13H612.21a1.722,1.722,0,0,0-1.172.371,1.129,1.129,0,0,0-.424.872.89.89,0,0,0,.286.7,1.176,1.176,0,0,0,.815.258" transform="translate(405.019 4800.588)" fill="#fff"/>
    <path id="Trazado_243407" data-name="Trazado 243407" d="M622.223,61.9a.8.8,0,0,0-.339-.657,3.386,3.386,0,0,0-1.263-.458,5.23,5.23,0,0,1-2.072-.823,1.722,1.722,0,0,1-.7-1.45,2.062,2.062,0,0,1,.812-1.637,3.225,3.225,0,0,1,2.139-.678,3.352,3.352,0,0,1,2.22.688,2.044,2.044,0,0,1,.787,1.705l-.015.042h-1.645a1.079,1.079,0,0,0-.36-.812,1.386,1.386,0,0,0-.989-.339,1.411,1.411,0,0,0-.946.279.864.864,0,0,0-.324.681.765.765,0,0,0,.306.639,3.3,3.3,0,0,0,1.246.42,5.239,5.239,0,0,1,2.136.837,1.764,1.764,0,0,1,.695,1.471,2,2,0,0,1-.85,1.674,3.627,3.627,0,0,1-2.242.643,3.417,3.417,0,0,1-2.351-.763,2.149,2.149,0,0,1-.819-1.75l.014-.042h1.6a1.141,1.141,0,0,0,.48.967,1.928,1.928,0,0,0,1.1.3,1.765,1.765,0,0,0,1.024-.254.8.8,0,0,0,.36-.685" transform="translate(404.177 4800.587)" fill="#fff"/>
    <path id="Trazado_243408" data-name="Trazado 243408" d="M633.512,64.121a3.322,3.322,0,0,1-2.588-1.063,3.909,3.909,0,0,1-.963-2.728v-.283a4.052,4.052,0,0,1,.957-2.763,3.025,3.025,0,0,1,2.4-1.091,2.983,2.983,0,0,1,2.369.935,3.664,3.664,0,0,1,.822,2.51v1.009H631.74l-.015.035a2.391,2.391,0,0,0,.533,1.485,1.686,1.686,0,0,0,1.359.577,3.673,3.673,0,0,0,1.186-.17,3.9,3.9,0,0,0,.953-.487l.551,1.125a3.573,3.573,0,0,1-1.144.645,4.764,4.764,0,0,1-1.652.263m-.2-6.552a1.288,1.288,0,0,0-1.045.505,2.475,2.475,0,0,0-.509,1.281l.014.035H634.8v-.177a1.825,1.825,0,0,0-.37-1.186,1.351,1.351,0,0,0-1.119-.459" transform="translate(402.99 4800.587)" fill="#fff"/>
    <path id="Trazado_243409" data-name="Trazado 243409" d="M640.286,56.334l.1,1.1a2.72,2.72,0,0,1,.943-.915,2.516,2.516,0,0,1,1.281-.328,2.4,2.4,0,0,1,1.861.723,3.249,3.249,0,0,1,.667,2.256v4.8h-1.715V59.186a1.715,1.715,0,0,0-.357-1.224,1.454,1.454,0,0,0-1.083-.364,1.8,1.8,0,0,0-.9.222,1.866,1.866,0,0,0-.65.611v5.542h-1.715V56.334Z" transform="translate(402.146 4800.587)" fill="#fff"/>
    <path id="Trazado_243410" data-name="Trazado 243410" d="M656.536,62.872a2.616,2.616,0,0,1-.911.935,2.7,2.7,0,0,1-3.191-.455,3.6,3.6,0,0,1-.692-2.435V56.348h1.709v4.583a2.287,2.287,0,0,0,.324,1.4,1.187,1.187,0,0,0,.981.4,2.2,2.2,0,0,0,1.042-.223,1.625,1.625,0,0,0,.66-.645V56.348h1.715v7.639h-1.5Z" transform="translate(400.893 4800.573)" fill="#fff"/>
    <path id="Trazado_243411" data-name="Trazado 243411" d="M662.4,56.334l.1,1.1a2.72,2.72,0,0,1,.943-.915,2.515,2.515,0,0,1,1.281-.328,2.4,2.4,0,0,1,1.861.723,3.248,3.248,0,0,1,.667,2.256v4.8h-1.715V59.186a1.715,1.715,0,0,0-.357-1.224,1.454,1.454,0,0,0-1.084-.364,1.8,1.8,0,0,0-.9.222,1.868,1.868,0,0,0-.65.611v5.542h-1.715V56.334Z" transform="translate(400.018 4800.587)" fill="#fff"/>
    <path id="Trazado_247096" data-name="Trazado 247096" d="M0,0H1.715V11.014H0Z" transform="translate(1072.763 4853.546)" fill="#fff"/>
    <path id="Trazado_243412" data-name="Trazado 243412" d="M682.794,62.872a2.616,2.616,0,0,1-.911.935,2.7,2.7,0,0,1-3.191-.455A3.605,3.605,0,0,1,678,60.916V56.348h1.709v4.583a2.287,2.287,0,0,0,.324,1.4,1.187,1.187,0,0,0,.981.4,2.2,2.2,0,0,0,1.042-.223,1.625,1.625,0,0,0,.66-.645V56.348h1.715v7.639h-1.5Z" transform="translate(398.363 4800.573)" fill="#fff"/>
    <path id="Trazado_243416" data-name="Trazado 243416" d="M602.739,80.6l.127.621h.042l.135-.621,1.518-5.055h1.772l-2.711,7.639h-1.49l-2.725-7.639h1.772Z" transform="translate(405.934 4798.723)" fill="#fff"/>
    <path id="Trazado_243417" data-name="Trazado 243417" d="M611.4,83.321a3.322,3.322,0,0,1-2.588-1.063,3.908,3.908,0,0,1-.963-2.728v-.283a4.052,4.052,0,0,1,.957-2.763,3.025,3.025,0,0,1,2.4-1.091,2.983,2.983,0,0,1,2.369.935,3.664,3.664,0,0,1,.822,2.51v1.009h-4.765l-.014.035a2.391,2.391,0,0,0,.533,1.485,1.686,1.686,0,0,0,1.359.577,3.673,3.673,0,0,0,1.186-.17,3.9,3.9,0,0,0,.953-.487l.551,1.125a3.573,3.573,0,0,1-1.144.645,4.765,4.765,0,0,1-1.652.263m-.2-6.552a1.288,1.288,0,0,0-1.045.505,2.475,2.475,0,0,0-.509,1.281l.015.035h3.028v-.177a1.826,1.826,0,0,0-.37-1.186,1.351,1.351,0,0,0-1.119-.459" transform="translate(405.12 4798.738)" fill="#fff"/>
    <path id="Trazado_243418" data-name="Trazado 243418" d="M618.177,75.534l.1,1.1a2.72,2.72,0,0,1,.943-.915,2.516,2.516,0,0,1,1.281-.328,2.4,2.4,0,0,1,1.861.724,3.247,3.247,0,0,1,.667,2.256v4.8h-1.715V78.386a1.715,1.715,0,0,0-.357-1.225,1.454,1.454,0,0,0-1.083-.364,1.787,1.787,0,0,0-.9.223,1.857,1.857,0,0,0-.65.61v5.542H616.61V75.534Z" transform="translate(404.276 4798.738)" fill="#fff"/>
    <path id="Trazado_243419" data-name="Trazado 243419" d="M627.741,73.494v1.857h1.37v1.271h-1.37v4.222a.919.919,0,0,0,.205.674.741.741,0,0,0,.543.2,1.469,1.469,0,0,0,.276-.025,1.712,1.712,0,0,0,.254-.067l.183,1.257a2.008,2.008,0,0,1-.522.187,2.94,2.94,0,0,1-.628.067,1.967,1.967,0,0,1-1.483-.554,2.429,2.429,0,0,1-.537-1.74V76.622h-1.165V75.351h1.165V73.494Z" transform="translate(403.48 4798.921)" fill="#fff"/>
    <path id="Trazado_243420" data-name="Trazado 243420" d="M633.091,73.318h-1.715v-1.5h1.715Zm0,9.51h-1.715V75.189h1.715Z" transform="translate(402.854 4799.083)" fill="#fff"/>
    <path id="Trazado_247089" data-name="Trazado 247089" d="M0,0H1.715V11.014H0Z" transform="translate(1037.979 4870.897)" fill="#fff"/>
    <path id="Trazado_243421" data-name="Trazado 243421" d="M644.109,83.172c-.061-.192-.112-.381-.152-.565a3.951,3.951,0,0,1-.081-.55,3.027,3.027,0,0,1-.928.9,2.358,2.358,0,0,1-1.289.363,2.537,2.537,0,0,1-1.832-.614,2.227,2.227,0,0,1-.639-1.687,1.992,1.992,0,0,1,.876-1.727,4.222,4.222,0,0,1,2.464-.617h1.335V78a1.241,1.241,0,0,0-.353-.939,1.4,1.4,0,0,0-1.009-.339,1.429,1.429,0,0,0-.932.282.9.9,0,0,0-.346.727h-1.652l-.007-.042a1.893,1.893,0,0,1,.808-1.6,3.429,3.429,0,0,1,2.235-.7,3.27,3.27,0,0,1,2.153.678,2.388,2.388,0,0,1,.819,1.948v3.4a6.385,6.385,0,0,0,.063.907,4.843,4.843,0,0,0,.205.85ZM642,81.944a2.162,2.162,0,0,0,1.168-.324,1.635,1.635,0,0,0,.689-.742v-1.13H642.5a1.722,1.722,0,0,0-1.172.371,1.129,1.129,0,0,0-.424.872.89.89,0,0,0,.287.7,1.176,1.176,0,0,0,.815.258" transform="translate(402.102 4798.738)" fill="#fff"/>
    <path id="Trazado_243422" data-name="Trazado 243422" d="M647.9,79.115a5.039,5.039,0,0,1,.783-2.948,2.533,2.533,0,0,1,2.2-1.119A2.425,2.425,0,0,1,652,75.3a2.506,2.506,0,0,1,.85.717v-4.2h1.716V82.828h-1.441l-.17-.947a2.512,2.512,0,0,1-.882.816,2.472,2.472,0,0,1-1.2.278,2.6,2.6,0,0,1-2.189-1.022,4.31,4.31,0,0,1-.783-2.69Zm1.715.148a3.073,3.073,0,0,0,.406,1.687,1.423,1.423,0,0,0,1.289.629,1.72,1.72,0,0,0,.922-.234,1.782,1.782,0,0,0,.617-.663V77.349a1.824,1.824,0,0,0-.621-.661,1.7,1.7,0,0,0-.9-.235,1.381,1.381,0,0,0-1.292.737,3.886,3.886,0,0,0-.417,1.924Z" transform="translate(401.263 4799.083)" fill="#fff"/>
    <path id="Trazado_243423" data-name="Trazado 243423" d="M656.961,79.282a4.165,4.165,0,0,1,.932-2.8,3.565,3.565,0,0,1,5.14,0,4.127,4.127,0,0,1,.939,2.8v.148a4.147,4.147,0,0,1-.939,2.81,3.588,3.588,0,0,1-5.14-.007,4.153,4.153,0,0,1-.932-2.8Zm1.715.145a3.406,3.406,0,0,0,.438,1.819,1.652,1.652,0,0,0,2.7,0,3.326,3.326,0,0,0,.452-1.819v-.148a3.277,3.277,0,0,0-.452-1.8,1.632,1.632,0,0,0-2.7,0,3.378,3.378,0,0,0-.438,1.8Z" transform="translate(400.39 4798.738)" fill="#fff"/>
    <path id="Trazado_243424" data-name="Trazado 243424" d="M678.849,199.523H563.992a44.317,44.317,0,0,1-44.317-44.317v0a44.316,44.316,0,0,1,44.317-44.316H678.849A44.316,44.316,0,0,1,723.166,155.2v0a44.317,44.317,0,0,1-44.317,44.317" transform="translate(413.613 4795.319)" fill="#8c6df2"/>
    <path id="Trazado_243425" data-name="Trazado 243425" d="M560.08,141.167h-4.5v3.248H560.8v1.376h-6.933V135.511h6.883v1.377h-5.168v2.9h4.5Z" transform="translate(410.319 4792.948)" fill="#fff"/>
    <path id="Trazado_243426" data-name="Trazado 243426" d="M565.262,143.488l.127.621h.042l.135-.621,1.518-5.055h1.772l-2.711,7.639h-1.49l-2.726-7.639H563.7Z" transform="translate(409.543 4792.667)" fill="#fff"/>
    <path id="Trazado_243427" data-name="Trazado 243427" d="M572.63,136.2h-1.715v-1.5h1.715Zm0,9.51h-1.715v-7.639h1.715Z" transform="translate(408.678 4793.026)" fill="#fff"/>
    <path id="Trazado_243428" data-name="Trazado 243428" d="M576.991,136.379v1.857h1.37v1.271h-1.37v4.222a.919.919,0,0,0,.205.674.741.741,0,0,0,.543.2,1.468,1.468,0,0,0,.276-.025,1.711,1.711,0,0,0,.254-.067l.183,1.257a2.006,2.006,0,0,1-.522.187,2.94,2.94,0,0,1-.628.067,1.968,1.968,0,0,1-1.483-.554,2.429,2.429,0,0,1-.537-1.741v-4.222h-1.165v-1.271h1.165v-1.857Z" transform="translate(408.369 4792.864)" fill="#fff"/>
    <path id="Trazado_243429" data-name="Trazado 243429" d="M585.062,146.057c-.061-.192-.112-.381-.152-.565a3.987,3.987,0,0,1-.081-.55,3.027,3.027,0,0,1-.928.9,2.358,2.358,0,0,1-1.289.363,2.537,2.537,0,0,1-1.832-.614,2.227,2.227,0,0,1-.639-1.687,1.992,1.992,0,0,1,.876-1.727,4.222,4.222,0,0,1,2.464-.617h1.335v-.671a1.241,1.241,0,0,0-.353-.939,1.4,1.4,0,0,0-1.009-.339,1.429,1.429,0,0,0-.932.282.9.9,0,0,0-.346.727h-1.652l-.007-.042a1.893,1.893,0,0,1,.808-1.6,3.429,3.429,0,0,1,2.235-.7,3.271,3.271,0,0,1,2.154.678,2.389,2.389,0,0,1,.819,1.948v3.4a6.367,6.367,0,0,0,.063.907,4.843,4.843,0,0,0,.205.85Zm-2.1-1.228a2.162,2.162,0,0,0,1.168-.324,1.635,1.635,0,0,0,.689-.742v-1.13h-1.363a1.721,1.721,0,0,0-1.172.371,1.128,1.128,0,0,0-.424.872.89.89,0,0,0,.286.7,1.176,1.176,0,0,0,.815.258" transform="translate(407.789 4792.682)" fill="#fff"/>
    <path id="Trazado_243430" data-name="Trazado 243430" d="M593.008,139.964l-.734-.028a1.538,1.538,0,0,0-.837.211,1.391,1.391,0,0,0-.52.6v5.309H589.2v-7.639h1.567l.113,1.109a2.444,2.444,0,0,1,.746-.918,1.731,1.731,0,0,1,1.048-.332,1.619,1.619,0,0,1,.289.024,2.114,2.114,0,0,1,.248.061Z" transform="translate(406.916 4792.682)" fill="#fff"/>
    <path id="Trazado_243431" data-name="Trazado 243431" d="M603.288,146.057c-.061-.192-.113-.381-.153-.565a3.85,3.85,0,0,1-.08-.55,3.045,3.045,0,0,1-.928.9,2.36,2.36,0,0,1-1.289.363,2.536,2.536,0,0,1-1.832-.614,2.224,2.224,0,0,1-.64-1.687,1.994,1.994,0,0,1,.876-1.727,4.227,4.227,0,0,1,2.464-.617h1.334v-.671a1.238,1.238,0,0,0-.353-.939,1.4,1.4,0,0,0-1.009-.339,1.431,1.431,0,0,0-.932.282.9.9,0,0,0-.346.727h-1.652l-.007-.042a1.9,1.9,0,0,1,.808-1.6,3.431,3.431,0,0,1,2.235-.7,3.267,3.267,0,0,1,2.153.678,2.387,2.387,0,0,1,.82,1.948v3.4a6.236,6.236,0,0,0,.063.907,4.825,4.825,0,0,0,.2.85Zm-2.1-1.228a2.165,2.165,0,0,0,1.169-.324,1.633,1.633,0,0,0,.688-.742v-1.13h-1.363a1.723,1.723,0,0,0-1.172.371,1.128,1.128,0,0,0-.423.872.89.89,0,0,0,.286.7,1.175,1.175,0,0,0,.814.258" transform="translate(406.033 4792.682)" fill="#fff"/>
    <path id="Trazado_243432" data-name="Trazado 243432" d="M610.55,144.829a1.573,1.573,0,0,0,1.059-.369,1.167,1.167,0,0,0,.43-.924h1.553l.014.042a2.259,2.259,0,0,1-.872,1.85,3.249,3.249,0,0,1-2.185.776,3.168,3.168,0,0,1-2.587-1.087,4.17,4.17,0,0,1-.9-2.754v-.247a4.177,4.177,0,0,1,.9-2.75,3.569,3.569,0,0,1,4.822-.289,2.584,2.584,0,0,1,.83,2.037l-.014.042H612.04a1.5,1.5,0,0,0-.413-1.066,1.412,1.412,0,0,0-1.076-.438,1.449,1.449,0,0,0-1.37.7,3.5,3.5,0,0,0-.4,1.759v.248a3.506,3.506,0,0,0,.4,1.772,1.452,1.452,0,0,0,1.37.695" transform="translate(405.195 4792.682)" fill="#fff"/>
    <path id="Trazado_243433" data-name="Trazado 243433" d="M620.583,144.957a2.617,2.617,0,0,1-.911.935,2.7,2.7,0,0,1-3.191-.455,3.6,3.6,0,0,1-.692-2.435v-4.568H617.5v4.583a2.287,2.287,0,0,0,.324,1.4,1.187,1.187,0,0,0,.981.4,2.2,2.2,0,0,0,1.042-.223,1.624,1.624,0,0,0,.66-.645v-5.521h1.715v7.639h-1.5Z" transform="translate(404.355 4792.667)" fill="#fff"/>
    <path id="Trazado_243434" data-name="Trazado 243434" d="M626.458,138.418l.092,1a2.573,2.573,0,0,1,.939-.84,2.763,2.763,0,0,1,1.306-.3,2.36,2.36,0,0,1,1.285.339,2.051,2.051,0,0,1,.8,1.017,2.671,2.671,0,0,1,.933-1,2.514,2.514,0,0,1,1.356-.36,2.257,2.257,0,0,1,1.817.787,3.625,3.625,0,0,1,.668,2.389v4.6h-1.716v-4.61a2.148,2.148,0,0,0-.335-1.37,1.246,1.246,0,0,0-1.006-.4,1.471,1.471,0,0,0-.932.3,1.642,1.642,0,0,0-.551.8c0,.071,0,.132.007.184s.007.1.007.148v4.949h-1.716v-4.61a2.133,2.133,0,0,0-.342-1.353,1.235,1.235,0,0,0-1.007-.413,1.807,1.807,0,0,0-.886.2,1.48,1.48,0,0,0-.576.568v5.606h-1.715v-7.639Z" transform="translate(403.479 4792.682)" fill="#fff"/>
    <path id="Trazado_243435" data-name="Trazado 243435" d="M643.559,144.957a2.616,2.616,0,0,1-.911.935,2.7,2.7,0,0,1-3.191-.455,3.6,3.6,0,0,1-.692-2.435v-4.568h1.709v4.583a2.287,2.287,0,0,0,.324,1.4,1.187,1.187,0,0,0,.981.4,2.2,2.2,0,0,0,1.042-.223,1.624,1.624,0,0,0,.66-.645v-5.521H645.2v7.639h-1.5Z" transform="translate(402.143 4792.667)" fill="#fff"/>
    <path id="Trazado_247090" data-name="Trazado 247090" d="M0,0H1.715V11.014H0Z" transform="translate(1049.247 4927.725)" fill="#fff"/>
    <path id="Trazado_243436" data-name="Trazado 243436" d="M656.578,146.057c-.062-.192-.112-.381-.152-.565a3.987,3.987,0,0,1-.081-.55,3.027,3.027,0,0,1-.928.9,2.357,2.357,0,0,1-1.289.363,2.537,2.537,0,0,1-1.832-.614,2.228,2.228,0,0,1-.639-1.687,1.992,1.992,0,0,1,.876-1.727A4.222,4.222,0,0,1,655,141.56h1.335v-.671a1.241,1.241,0,0,0-.353-.939,1.4,1.4,0,0,0-1.009-.339,1.429,1.429,0,0,0-.932.282.9.9,0,0,0-.346.727h-1.652l-.007-.042a1.893,1.893,0,0,1,.808-1.6,3.429,3.429,0,0,1,2.235-.7,3.271,3.271,0,0,1,2.154.678,2.389,2.389,0,0,1,.819,1.948v3.4a6.376,6.376,0,0,0,.063.907,4.833,4.833,0,0,0,.205.85Zm-2.1-1.228a2.162,2.162,0,0,0,1.168-.324,1.635,1.635,0,0,0,.689-.742v-1.13h-1.363A1.722,1.722,0,0,0,653.8,143a1.128,1.128,0,0,0-.424.872.891.891,0,0,0,.286.7,1.176,1.176,0,0,0,.815.258" transform="translate(400.9 4792.682)" fill="#fff"/>
    <path id="Trazado_243437" data-name="Trazado 243437" d="M663.839,144.829a1.574,1.574,0,0,0,1.059-.369,1.168,1.168,0,0,0,.43-.924h1.553l.015.042a2.26,2.26,0,0,1-.872,1.85,3.249,3.249,0,0,1-2.185.776,3.167,3.167,0,0,1-2.587-1.087,4.171,4.171,0,0,1-.9-2.754v-.247a4.177,4.177,0,0,1,.9-2.75,3.569,3.569,0,0,1,4.822-.289,2.583,2.583,0,0,1,.83,2.037l-.014.042h-1.561a1.5,1.5,0,0,0-.413-1.066,1.412,1.412,0,0,0-1.076-.438,1.449,1.449,0,0,0-1.37.7,3.5,3.5,0,0,0-.4,1.759v.248a3.506,3.506,0,0,0,.4,1.772,1.452,1.452,0,0,0,1.37.695" transform="translate(400.063 4792.682)" fill="#fff"/>
    <path id="Trazado_243438" data-name="Trazado 243438" d="M670.958,136.2h-1.715v-1.5h1.715Zm0,9.51h-1.715v-7.639h1.715Z" transform="translate(399.207 4793.026)" fill="#fff"/>
    <path id="Trazado_243439" data-name="Trazado 243439" d="M672.914,141.865a4.163,4.163,0,0,1,.932-2.8,3.565,3.565,0,0,1,5.14,0,4.122,4.122,0,0,1,.939,2.8v.149a4.144,4.144,0,0,1-.939,2.81,3.59,3.59,0,0,1-5.14-.007,4.156,4.156,0,0,1-.932-2.8Zm1.716.145a3.4,3.4,0,0,0,.437,1.818,1.65,1.65,0,0,0,2.7,0,3.312,3.312,0,0,0,.452-1.818v-.148a3.275,3.275,0,0,0-.452-1.8,1.632,1.632,0,0,0-2.7,0,3.383,3.383,0,0,0-.437,1.8Zm2.3-6.866h1.9l.014.042-1.928,1.835h-1.335Z" transform="translate(398.854 4792.983)" fill="#fff"/>
    <path id="Trazado_243440" data-name="Trazado 243440" d="M683.88,138.418l.1,1.1a2.72,2.72,0,0,1,.943-.915,2.516,2.516,0,0,1,1.281-.328,2.4,2.4,0,0,1,1.861.724,3.248,3.248,0,0,1,.667,2.256v4.8h-1.715V141.27a1.715,1.715,0,0,0-.357-1.225,1.454,1.454,0,0,0-1.083-.364,1.786,1.786,0,0,0-.9.223,1.856,1.856,0,0,0-.65.61v5.542h-1.715v-7.639Z" transform="translate(397.948 4792.682)" fill="#fff"/>
    <path id="Trazado_243443" data-name="Trazado 243443" d="M552.118,157.618l.092,1a2.574,2.574,0,0,1,.939-.84,2.763,2.763,0,0,1,1.306-.3,2.36,2.36,0,0,1,1.285.339,2.051,2.051,0,0,1,.8,1.017,2.671,2.671,0,0,1,.933-1,2.513,2.513,0,0,1,1.356-.36,2.257,2.257,0,0,1,1.817.787,3.625,3.625,0,0,1,.668,2.389v4.6H559.6v-4.61a2.148,2.148,0,0,0-.335-1.37,1.246,1.246,0,0,0-1.006-.4,1.47,1.47,0,0,0-.932.3,1.642,1.642,0,0,0-.551.8,1.827,1.827,0,0,0,.007.184c0,.052.007.1.007.148v4.949h-1.716v-4.61a2.132,2.132,0,0,0-.342-1.353,1.235,1.235,0,0,0-1.007-.413,1.807,1.807,0,0,0-.885.2,1.481,1.481,0,0,0-.576.568v5.606h-1.715v-7.639Z" transform="translate(410.639 4790.832)" fill="#fff"/>
    <path id="Trazado_243444" data-name="Trazado 243444" d="M569.026,165.256c-.061-.193-.112-.381-.152-.565a3.987,3.987,0,0,1-.081-.55,3.026,3.026,0,0,1-.928.9,2.358,2.358,0,0,1-1.289.363,2.537,2.537,0,0,1-1.832-.614,2.227,2.227,0,0,1-.639-1.687,1.992,1.992,0,0,1,.876-1.727,4.221,4.221,0,0,1,2.463-.617h1.335v-.671a1.241,1.241,0,0,0-.353-.939,1.4,1.4,0,0,0-1.009-.339,1.429,1.429,0,0,0-.932.282.9.9,0,0,0-.346.727h-1.652l-.007-.042a1.893,1.893,0,0,1,.808-1.6,3.429,3.429,0,0,1,2.235-.7,3.271,3.271,0,0,1,2.153.678,2.389,2.389,0,0,1,.819,1.948v3.4a6.375,6.375,0,0,0,.063.907,4.843,4.843,0,0,0,.205.85Zm-2.1-1.228a2.162,2.162,0,0,0,1.168-.324,1.635,1.635,0,0,0,.689-.742v-1.13h-1.363a1.721,1.721,0,0,0-1.172.371,1.128,1.128,0,0,0-.424.872.891.891,0,0,0,.286.7,1.176,1.176,0,0,0,.815.258" transform="translate(409.333 4790.832)" fill="#fff"/>
    <path id="Trazado_243445" data-name="Trazado 243445" d="M575.222,155.578v1.857h1.37v1.271h-1.37v4.222a.919.919,0,0,0,.205.674.741.741,0,0,0,.543.2,1.467,1.467,0,0,0,.276-.025,1.717,1.717,0,0,0,.254-.067l.183,1.257a2,2,0,0,1-.522.187,2.939,2.939,0,0,1-.628.067,1.968,1.968,0,0,1-1.483-.554,2.429,2.429,0,0,1-.537-1.74v-4.222h-1.165v-1.271h1.165v-1.857Z" transform="translate(408.539 4791.015)" fill="#fff"/>
    <path id="Trazado_243446" data-name="Trazado 243446" d="M581.977,165.4a3.322,3.322,0,0,1-2.588-1.063,3.908,3.908,0,0,1-.963-2.728v-.283a4.052,4.052,0,0,1,.957-2.763,3.025,3.025,0,0,1,2.4-1.091,2.983,2.983,0,0,1,2.368.935,3.663,3.663,0,0,1,.822,2.51v1.009h-4.765l-.015.035a2.391,2.391,0,0,0,.533,1.485,1.686,1.686,0,0,0,1.359.577,3.673,3.673,0,0,0,1.186-.17,3.9,3.9,0,0,0,.953-.487l.551,1.125a3.574,3.574,0,0,1-1.144.645,4.764,4.764,0,0,1-1.652.263m-.2-6.552a1.288,1.288,0,0,0-1.045.505,2.474,2.474,0,0,0-.509,1.281l.014.035h3.028V160.5a1.826,1.826,0,0,0-.37-1.186,1.351,1.351,0,0,0-1.119-.459" transform="translate(407.954 4790.832)" fill="#fff"/>
    <path id="Trazado_243447" data-name="Trazado 243447" d="M591,159.164l-.734-.028a1.538,1.538,0,0,0-.837.211,1.391,1.391,0,0,0-.52.6v5.309H587.2v-7.639h1.567l.113,1.109a2.443,2.443,0,0,1,.746-.918,1.731,1.731,0,0,1,1.048-.332,1.62,1.62,0,0,1,.289.024,2.123,2.123,0,0,1,.248.061Z" transform="translate(407.109 4790.832)" fill="#fff"/>
    <path id="Trazado_243448" data-name="Trazado 243448" d="M594.579,155.4h-1.715v-1.5h1.715Zm0,9.51h-1.715v-7.639h1.715Z" transform="translate(406.563 4791.177)" fill="#fff"/>
    <path id="Trazado_243449" data-name="Trazado 243449" d="M601.449,165.256c-.061-.193-.112-.381-.152-.565a4,4,0,0,1-.081-.55,3.026,3.026,0,0,1-.928.9A2.357,2.357,0,0,1,599,165.4a2.537,2.537,0,0,1-1.832-.614,2.227,2.227,0,0,1-.639-1.687,1.992,1.992,0,0,1,.876-1.727,4.222,4.222,0,0,1,2.463-.617H601.2v-.671a1.241,1.241,0,0,0-.353-.939,1.4,1.4,0,0,0-1.009-.339,1.429,1.429,0,0,0-.932.282.9.9,0,0,0-.346.727h-1.652l-.007-.042a1.893,1.893,0,0,1,.808-1.6,3.429,3.429,0,0,1,2.235-.7,3.27,3.27,0,0,1,2.153.678,2.389,2.389,0,0,1,.819,1.948v3.4a6.375,6.375,0,0,0,.063.907,4.832,4.832,0,0,0,.205.85Zm-2.1-1.228a2.162,2.162,0,0,0,1.168-.324,1.635,1.635,0,0,0,.689-.742v-1.13h-1.363a1.722,1.722,0,0,0-1.172.371,1.128,1.128,0,0,0-.424.872.891.891,0,0,0,.286.7,1.176,1.176,0,0,0,.815.258" transform="translate(406.211 4790.832)" fill="#fff"/>
    <path id="Trazado_247091" data-name="Trazado 247091" d="M0,0H1.715V11.014H0Z" transform="translate(1011.041 4945.075)" fill="#fff"/>
    <path id="Trazado_243450" data-name="Trazado 243450" d="M616.843,164.028a1.574,1.574,0,0,0,1.059-.369,1.168,1.168,0,0,0,.43-.924h1.553l.015.042a2.26,2.26,0,0,1-.872,1.85,3.249,3.249,0,0,1-2.185.776,3.167,3.167,0,0,1-2.587-1.087,4.17,4.17,0,0,1-.9-2.754v-.247a4.177,4.177,0,0,1,.9-2.75,3.569,3.569,0,0,1,4.822-.289,2.583,2.583,0,0,1,.83,2.037l-.014.042h-1.561a1.5,1.5,0,0,0-.413-1.066,1.412,1.412,0,0,0-1.076-.438,1.449,1.449,0,0,0-1.37.7,3.5,3.5,0,0,0-.4,1.759v.248a3.507,3.507,0,0,0,.4,1.772,1.452,1.452,0,0,0,1.37.695" transform="translate(404.59 4790.832)" fill="#fff"/>
    <path id="Trazado_243451" data-name="Trazado 243451" d="M621.77,161.366a4.161,4.161,0,0,1,.932-2.8,3.564,3.564,0,0,1,5.139,0,4.123,4.123,0,0,1,.939,2.8v.148a4.143,4.143,0,0,1-.939,2.81,3.587,3.587,0,0,1-5.139-.007,4.149,4.149,0,0,1-.932-2.8Zm1.715.145a3.407,3.407,0,0,0,.437,1.819,1.653,1.653,0,0,0,2.7,0,3.326,3.326,0,0,0,.452-1.819v-.148a3.277,3.277,0,0,0-.452-1.8,1.633,1.633,0,0,0-2.7,0,3.379,3.379,0,0,0-.437,1.8Z" transform="translate(403.779 4790.832)" fill="#fff"/>
    <path id="Trazado_243452" data-name="Trazado 243452" d="M632.751,157.618l.092,1a2.574,2.574,0,0,1,.939-.84,2.763,2.763,0,0,1,1.306-.3,2.36,2.36,0,0,1,1.285.339,2.052,2.052,0,0,1,.8,1.017,2.67,2.67,0,0,1,.933-1,2.513,2.513,0,0,1,1.355-.36,2.257,2.257,0,0,1,1.817.787,3.624,3.624,0,0,1,.668,2.389v4.6h-1.716v-4.61a2.148,2.148,0,0,0-.335-1.37,1.246,1.246,0,0,0-1.006-.4,1.471,1.471,0,0,0-.932.3,1.642,1.642,0,0,0-.551.8,1.827,1.827,0,0,0,.007.184c0,.052.007.1.007.148v4.949h-1.716v-4.61a2.132,2.132,0,0,0-.341-1.353,1.235,1.235,0,0,0-1.007-.413,1.807,1.807,0,0,0-.886.2,1.481,1.481,0,0,0-.576.568v5.606h-1.715v-7.639Z" transform="translate(402.872 4790.832)" fill="#fff"/>
    <path id="Trazado_243453" data-name="Trazado 243453" d="M651.8,161.346a4.323,4.323,0,0,1-.78,2.694,2.609,2.609,0,0,1-2.2,1.019,2.527,2.527,0,0,1-1.24-.289,2.419,2.419,0,0,1-.878-.847l-.17.988H645.1V153.9h1.715v4.243a2.332,2.332,0,0,1,2-1.009,2.542,2.542,0,0,1,2.213,1.115,5.058,5.058,0,0,1,.78,2.951Zm-1.715-.148a3.947,3.947,0,0,0-.409-1.928,1.381,1.381,0,0,0-1.3-.734,1.692,1.692,0,0,0-.956.254,1.77,1.77,0,0,0-.611.706V162.7a1.669,1.669,0,0,0,.607.709,1.759,1.759,0,0,0,.974.251,1.424,1.424,0,0,0,1.292-.625,3.094,3.094,0,0,0,.4-1.691Z" transform="translate(401.532 4791.177)" fill="#fff"/>
    <path id="Trazado_243454" data-name="Trazado 243454" d="M658.915,164.156a2.617,2.617,0,0,1-.911.935,2.7,2.7,0,0,1-3.191-.455,3.6,3.6,0,0,1-.692-2.435v-4.568h1.709v4.583a2.287,2.287,0,0,0,.324,1.4,1.187,1.187,0,0,0,.981.4,2.2,2.2,0,0,0,1.042-.223,1.624,1.624,0,0,0,.66-.645v-5.521h1.715v7.639h-1.5Z" transform="translate(400.663 4790.817)" fill="#fff"/>
    <path id="Trazado_243455" data-name="Trazado 243455" d="M667.485,163.181a.8.8,0,0,0-.339-.657,3.387,3.387,0,0,0-1.263-.458,5.231,5.231,0,0,1-2.072-.823,1.722,1.722,0,0,1-.7-1.45,2.062,2.062,0,0,1,.812-1.637,3.225,3.225,0,0,1,2.139-.678,3.351,3.351,0,0,1,2.22.688,2.043,2.043,0,0,1,.787,1.705l-.014.042h-1.645a1.079,1.079,0,0,0-.36-.812,1.386,1.386,0,0,0-.989-.339,1.411,1.411,0,0,0-.946.279.864.864,0,0,0-.324.681.765.765,0,0,0,.306.639,3.3,3.3,0,0,0,1.246.42,5.238,5.238,0,0,1,2.136.837,1.764,1.764,0,0,1,.695,1.471,2,2,0,0,1-.85,1.674,3.627,3.627,0,0,1-2.242.643,3.417,3.417,0,0,1-2.351-.763,2.149,2.149,0,0,1-.819-1.75l.014-.042h1.6a1.141,1.141,0,0,0,.48.967,1.927,1.927,0,0,0,1.1.3,1.765,1.765,0,0,0,1.024-.254.8.8,0,0,0,.36-.685" transform="translate(399.816 4790.832)" fill="#fff"/>
    <path id="Trazado_243456" data-name="Trazado 243456" d="M673.6,155.578v1.857h1.37v1.271H673.6v4.222a.919.919,0,0,0,.205.674.741.741,0,0,0,.543.2,1.468,1.468,0,0,0,.276-.025,1.718,1.718,0,0,0,.254-.067l.183,1.257a2,2,0,0,1-.522.187,2.937,2.937,0,0,1-.628.067,1.967,1.967,0,0,1-1.483-.554,2.429,2.429,0,0,1-.537-1.74v-4.222h-1.165v-1.271h1.165v-1.857Z" transform="translate(399.064 4791.015)" fill="#fff"/>
    <path id="Trazado_243457" data-name="Trazado 243457" d="M678.946,155.4h-1.715v-1.5h1.715Zm0,9.51h-1.715v-7.639h1.715Z" transform="translate(398.438 4791.177)" fill="#fff"/>
    <path id="Trazado_243458" data-name="Trazado 243458" d="M687.961,161.346a4.323,4.323,0,0,1-.78,2.694,2.609,2.609,0,0,1-2.2,1.019,2.527,2.527,0,0,1-1.24-.289,2.419,2.419,0,0,1-.878-.847l-.17.988h-1.44V153.9h1.715v4.243a2.332,2.332,0,0,1,2-1.009,2.542,2.542,0,0,1,2.213,1.115,5.058,5.058,0,0,1,.78,2.951Zm-1.715-.148a3.947,3.947,0,0,0-.409-1.928,1.381,1.381,0,0,0-1.3-.734,1.692,1.692,0,0,0-.956.254,1.77,1.77,0,0,0-.611.706V162.7a1.67,1.67,0,0,0,.607.709,1.759,1.759,0,0,0,.974.251,1.423,1.423,0,0,0,1.292-.625,3.094,3.094,0,0,0,.4-1.691Z" transform="translate(398.05 4791.177)" fill="#fff"/>
    <path id="Trazado_243461" data-name="Trazado 243461" d="M593.085,183.229a1.574,1.574,0,0,0,1.059-.369,1.168,1.168,0,0,0,.43-.924h1.553l.014.042a2.259,2.259,0,0,1-.872,1.85,3.249,3.249,0,0,1-2.185.776,3.168,3.168,0,0,1-2.587-1.087,4.171,4.171,0,0,1-.9-2.754v-.247a4.177,4.177,0,0,1,.9-2.75,3.569,3.569,0,0,1,4.822-.289,2.584,2.584,0,0,1,.83,2.037l-.015.042h-1.561a1.5,1.5,0,0,0-.413-1.066,1.412,1.412,0,0,0-1.076-.438,1.449,1.449,0,0,0-1.37.7,3.5,3.5,0,0,0-.4,1.759v.248a3.507,3.507,0,0,0,.4,1.772,1.452,1.452,0,0,0,1.37.695" transform="translate(406.878 4788.983)" fill="#fff"/>
    <path id="Trazado_243462" data-name="Trazado 243462" d="M598.012,180.566a4.16,4.16,0,0,1,.932-2.8,3.564,3.564,0,0,1,5.139,0,4.123,4.123,0,0,1,.939,2.8v.148a4.143,4.143,0,0,1-.939,2.81,3.587,3.587,0,0,1-5.139-.007,4.148,4.148,0,0,1-.932-2.8Zm1.715.145a3.406,3.406,0,0,0,.437,1.819,1.653,1.653,0,0,0,2.7,0,3.326,3.326,0,0,0,.452-1.819v-.148a3.278,3.278,0,0,0-.452-1.8,1.633,1.633,0,0,0-2.7,0,3.378,3.378,0,0,0-.437,1.8Z" transform="translate(406.067 4788.983)" fill="#fff"/>
    <path id="Trazado_243463" data-name="Trazado 243463" d="M608.993,176.818l.092,1a2.574,2.574,0,0,1,.939-.84,2.763,2.763,0,0,1,1.306-.3,2.36,2.36,0,0,1,1.285.339,2.051,2.051,0,0,1,.8,1.017,2.67,2.67,0,0,1,.933-1,2.513,2.513,0,0,1,1.356-.36,2.257,2.257,0,0,1,1.817.787,3.625,3.625,0,0,1,.668,2.389v4.6h-1.716v-4.61a2.148,2.148,0,0,0-.335-1.37,1.246,1.246,0,0,0-1.006-.4,1.47,1.47,0,0,0-.932.3,1.642,1.642,0,0,0-.551.8,1.828,1.828,0,0,0,.007.184c0,.052.007.1.007.148v4.949h-1.716v-4.61a2.133,2.133,0,0,0-.342-1.353,1.235,1.235,0,0,0-1.007-.413,1.807,1.807,0,0,0-.886.2,1.481,1.481,0,0,0-.576.568v5.606h-1.715v-7.639Z" transform="translate(405.161 4788.983)" fill="#fff"/>
    <path id="Trazado_243464" data-name="Trazado 243464" d="M628.046,180.547a4.323,4.323,0,0,1-.78,2.694,2.609,2.609,0,0,1-2.2,1.019,2.527,2.527,0,0,1-1.24-.289,2.418,2.418,0,0,1-.878-.847l-.17.988H621.34V173.1h1.715v4.243a2.332,2.332,0,0,1,2-1.009,2.542,2.542,0,0,1,2.213,1.115,5.058,5.058,0,0,1,.78,2.951Zm-1.715-.148a3.947,3.947,0,0,0-.409-1.928,1.381,1.381,0,0,0-1.3-.734,1.693,1.693,0,0,0-.956.254,1.77,1.77,0,0,0-.611.706V181.9a1.669,1.669,0,0,0,.607.709,1.759,1.759,0,0,0,.974.251,1.424,1.424,0,0,0,1.292-.625,3.1,3.1,0,0,0,.4-1.691Z" transform="translate(403.82 4789.328)" fill="#fff"/>
    <path id="Trazado_243465" data-name="Trazado 243465" d="M635.157,183.357a2.617,2.617,0,0,1-.911.935,2.7,2.7,0,0,1-3.191-.455,3.6,3.6,0,0,1-.692-2.435v-4.568h1.709v4.583a2.287,2.287,0,0,0,.324,1.4,1.187,1.187,0,0,0,.981.4A2.2,2.2,0,0,0,634.42,183a1.625,1.625,0,0,0,.66-.645v-5.522h1.715v7.639h-1.5Z" transform="translate(402.951 4788.968)" fill="#fff"/>
    <path id="Trazado_243466" data-name="Trazado 243466" d="M643.27,178.364l-.734-.028a1.538,1.538,0,0,0-.837.211,1.391,1.391,0,0,0-.52.6v5.309h-1.715v-7.639h1.567l.113,1.109a2.442,2.442,0,0,1,.746-.918,1.731,1.731,0,0,1,1.048-.332,1.622,1.622,0,0,1,.289.024,2.12,2.12,0,0,1,.248.061Z" transform="translate(402.075 4788.983)" fill="#fff"/>
    <path id="Trazado_243467" data-name="Trazado 243467" d="M648.25,184.6a3.323,3.323,0,0,1-2.588-1.063,3.909,3.909,0,0,1-.963-2.728v-.283a4.052,4.052,0,0,1,.957-2.763,3.025,3.025,0,0,1,2.4-1.091,2.983,2.983,0,0,1,2.369.935,3.664,3.664,0,0,1,.822,2.51v1.009h-4.765l-.014.035a2.391,2.391,0,0,0,.533,1.485,1.686,1.686,0,0,0,1.359.577,3.674,3.674,0,0,0,1.186-.17,3.9,3.9,0,0,0,.953-.487l.551,1.125a3.573,3.573,0,0,1-1.144.645,4.764,4.764,0,0,1-1.652.263m-.2-6.552a1.287,1.287,0,0,0-1.045.505,2.475,2.475,0,0,0-.509,1.281l.014.035h3.028V179.7a1.826,1.826,0,0,0-.371-1.186,1.351,1.351,0,0,0-1.119-.459" transform="translate(401.57 4788.983)" fill="#fff"/>
    <path id="Trazado_243468" data-name="Trazado 243468" d="M655.025,176.818l.1,1.1a2.719,2.719,0,0,1,.943-.915,2.516,2.516,0,0,1,1.281-.328,2.4,2.4,0,0,1,1.861.724,3.247,3.247,0,0,1,.667,2.256v4.8H658.16V179.67a1.715,1.715,0,0,0-.357-1.224,1.453,1.453,0,0,0-1.083-.364,1.786,1.786,0,0,0-.9.223,1.857,1.857,0,0,0-.65.61v5.542h-1.715v-7.639Z" transform="translate(400.728 4788.983)" fill="#fff"/>
    <path id="Trazado_243469" data-name="Trazado 243469" d="M664.589,174.778v1.857h1.37v1.271h-1.37v4.222a.919.919,0,0,0,.205.674.741.741,0,0,0,.543.2,1.469,1.469,0,0,0,.276-.025,1.711,1.711,0,0,0,.254-.067l.184,1.257a2.008,2.008,0,0,1-.522.187,2.939,2.939,0,0,1-.628.067,1.968,1.968,0,0,1-1.483-.554,2.429,2.429,0,0,1-.537-1.74v-4.222h-1.165v-1.271h1.165v-1.857Z" transform="translate(399.932 4789.166)" fill="#fff"/>
    <path id="Trazado_243470" data-name="Trazado 243470" d="M671.344,184.6a3.323,3.323,0,0,1-2.588-1.063,3.908,3.908,0,0,1-.963-2.728v-.283a4.052,4.052,0,0,1,.957-2.763,3.026,3.026,0,0,1,2.4-1.091,2.983,2.983,0,0,1,2.368.935,3.663,3.663,0,0,1,.822,2.51v1.009h-4.765l-.015.035a2.391,2.391,0,0,0,.533,1.485,1.686,1.686,0,0,0,1.359.577,3.673,3.673,0,0,0,1.186-.17,3.9,3.9,0,0,0,.953-.487l.551,1.125a3.573,3.573,0,0,1-1.144.645,4.764,4.764,0,0,1-1.652.263m-.2-6.552a1.287,1.287,0,0,0-1.045.505,2.475,2.475,0,0,0-.509,1.281l.014.035h3.028V179.7a1.826,1.826,0,0,0-.37-1.186,1.351,1.351,0,0,0-1.119-.459" transform="translate(399.347 4788.983)" fill="#fff"/>
    <path id="Trazado_243471" data-name="Trazado 243471" d="M678.849,310.411H563.992a44.317,44.317,0,0,1-44.317-44.317h0a44.317,44.317,0,0,1,44.317-44.317H678.849a44.317,44.317,0,0,1,44.317,44.317h0a44.317,44.317,0,0,1-44.317,44.317" transform="translate(413.613 4784.639)" fill="#8c6df2"/>
    <path id="Trazado_247094" data-name="Trazado 247094" d="M0,0H1.715V10.279H0Z" transform="translate(965.292 5036.591)" fill="#fff"/>
    <path id="Trazado_243472" data-name="Trazado 243472" d="M560.892,258.075l.1,1.1a2.711,2.711,0,0,1,.943-.915,2.516,2.516,0,0,1,1.281-.328,2.4,2.4,0,0,1,1.861.724,3.244,3.244,0,0,1,.667,2.256v4.8h-1.715v-4.787a1.712,1.712,0,0,0-.357-1.225,1.45,1.45,0,0,0-1.083-.364,1.786,1.786,0,0,0-.9.223,1.849,1.849,0,0,0-.65.61v5.542h-1.715v-7.639Z" transform="translate(409.794 4781.156)" fill="#fff"/>
    <path id="Trazado_243473" data-name="Trazado 243473" d="M572.665,263.638a.8.8,0,0,0-.339-.657,3.355,3.355,0,0,0-1.263-.458,5.258,5.258,0,0,1-2.072-.823,1.724,1.724,0,0,1-.7-1.45,2.06,2.06,0,0,1,.812-1.637,3.225,3.225,0,0,1,2.139-.678,3.351,3.351,0,0,1,2.22.688,2.043,2.043,0,0,1,.787,1.705l-.014.042h-1.645a1.078,1.078,0,0,0-.36-.812,1.387,1.387,0,0,0-.989-.339,1.406,1.406,0,0,0-.946.279.863.863,0,0,0-.324.681.766.766,0,0,0,.306.639,3.326,3.326,0,0,0,1.246.42,5.239,5.239,0,0,1,2.136.837,1.764,1.764,0,0,1,.695,1.471,2.006,2.006,0,0,1-.85,1.674,3.633,3.633,0,0,1-2.242.643,3.417,3.417,0,0,1-2.351-.763,2.15,2.15,0,0,1-.819-1.75l.014-.042h1.6a1.142,1.142,0,0,0,.48.967,1.935,1.935,0,0,0,1.1.3,1.765,1.765,0,0,0,1.024-.254.8.8,0,0,0,.36-.685" transform="translate(408.949 4781.156)" fill="#fff"/>
    <path id="Trazado_243474" data-name="Trazado 243474" d="M578.776,256.035v1.857h1.37v1.271h-1.37v4.222a.92.92,0,0,0,.205.674.741.741,0,0,0,.543.2,1.548,1.548,0,0,0,.276-.025,1.834,1.834,0,0,0,.254-.067l.183,1.257a2.036,2.036,0,0,1-.522.187,3,3,0,0,1-.628.067,1.971,1.971,0,0,1-1.483-.554,2.43,2.43,0,0,1-.537-1.74v-4.222H575.9v-1.271h1.165v-1.857Z" transform="translate(408.197 4781.339)" fill="#fff"/>
    <path id="Trazado_243475" data-name="Trazado 243475" d="M586.846,265.713q-.092-.29-.152-.565a3.988,3.988,0,0,1-.081-.55,3.045,3.045,0,0,1-.928.9,2.365,2.365,0,0,1-1.289.363,2.537,2.537,0,0,1-1.832-.614,2.228,2.228,0,0,1-.639-1.687,1.99,1.99,0,0,1,.876-1.727,4.215,4.215,0,0,1,2.463-.617H586.6v-.671a1.24,1.24,0,0,0-.353-.939,1.4,1.4,0,0,0-1.009-.339,1.424,1.424,0,0,0-.932.282.893.893,0,0,0-.346.727h-1.652l-.007-.042a1.892,1.892,0,0,1,.808-1.6,3.429,3.429,0,0,1,2.235-.7,3.271,3.271,0,0,1,2.154.678,2.388,2.388,0,0,1,.819,1.948v3.4a6.393,6.393,0,0,0,.063.907,4.862,4.862,0,0,0,.205.85Zm-2.1-1.228a2.17,2.17,0,0,0,1.168-.324,1.644,1.644,0,0,0,.689-.742v-1.13h-1.363a1.722,1.722,0,0,0-1.172.371,1.127,1.127,0,0,0-.424.872.893.893,0,0,0,.287.7,1.18,1.18,0,0,0,.815.258" transform="translate(407.617 4781.156)" fill="#fff"/>
    <path id="Trazado_247093" data-name="Trazado 247093" d="M0,0H1.715V11.014H0Z" transform="translate(997.846 5035.856)" fill="#fff"/>
    <path id="Trazado_243476" data-name="Trazado 243476" d="M599.7,265.713q-.092-.29-.152-.565a3.988,3.988,0,0,1-.081-.55,3.046,3.046,0,0,1-.928.9,2.365,2.365,0,0,1-1.289.363,2.537,2.537,0,0,1-1.832-.614,2.229,2.229,0,0,1-.639-1.687,1.99,1.99,0,0,1,.876-1.727,4.215,4.215,0,0,1,2.463-.617h1.335v-.671a1.24,1.24,0,0,0-.353-.939,1.4,1.4,0,0,0-1.009-.339,1.424,1.424,0,0,0-.932.282.893.893,0,0,0-.346.727h-1.652l-.007-.042a1.892,1.892,0,0,1,.808-1.6,3.429,3.429,0,0,1,2.235-.7,3.271,3.271,0,0,1,2.154.678,2.388,2.388,0,0,1,.819,1.948v3.4a6.384,6.384,0,0,0,.063.907,4.852,4.852,0,0,0,.205.85Zm-2.1-1.228a2.17,2.17,0,0,0,1.168-.324,1.644,1.644,0,0,0,.689-.742v-1.13h-1.363a1.722,1.722,0,0,0-1.172.371,1.127,1.127,0,0,0-.424.872.893.893,0,0,0,.286.7,1.18,1.18,0,0,0,.815.258" transform="translate(406.379 4781.156)" fill="#fff"/>
    <path id="Trazado_243477" data-name="Trazado 243477" d="M607.645,259.621l-.734-.028a1.538,1.538,0,0,0-.837.211,1.387,1.387,0,0,0-.52.6v5.309H603.84v-7.639h1.567l.113,1.109a2.431,2.431,0,0,1,.746-.918,1.725,1.725,0,0,1,1.048-.332,1.539,1.539,0,0,1,.289.024,1.8,1.8,0,0,1,.248.061Z" transform="translate(405.506 4781.156)" fill="#fff"/>
    <path id="Trazado_243478" data-name="Trazado 243478" d="M613.012,261.655a5.03,5.03,0,0,1,.783-2.947,2.533,2.533,0,0,1,2.2-1.12,2.425,2.425,0,0,1,1.112.25,2.527,2.527,0,0,1,.85.717v-4.2h1.716v11.013h-1.44l-.17-.946a2.538,2.538,0,0,1-.882.816,2.483,2.483,0,0,1-1.2.279,2.606,2.606,0,0,1-2.189-1.023,4.314,4.314,0,0,1-.783-2.691Zm1.715.148a3.078,3.078,0,0,0,.406,1.688,1.424,1.424,0,0,0,1.289.628,1.728,1.728,0,0,0,.922-.232,1.794,1.794,0,0,0,.617-.665V259.89a1.8,1.8,0,0,0-.621-.66,1.68,1.68,0,0,0-.9-.237,1.38,1.38,0,0,0-1.292.738,3.878,3.878,0,0,0-.417,1.923Z" transform="translate(404.623 4781.501)" fill="#fff"/>
    <path id="Trazado_243479" data-name="Trazado 243479" d="M625.673,265.862a3.326,3.326,0,0,1-2.588-1.063,3.912,3.912,0,0,1-.963-2.728v-.283a4.049,4.049,0,0,1,.957-2.763,3.02,3.02,0,0,1,2.4-1.091,2.98,2.98,0,0,1,2.369.935,3.66,3.66,0,0,1,.822,2.509v1.009H623.9l-.014.035a2.392,2.392,0,0,0,.533,1.485,1.686,1.686,0,0,0,1.359.577,3.673,3.673,0,0,0,1.186-.17,3.9,3.9,0,0,0,.953-.487l.551,1.124a3.558,3.558,0,0,1-1.144.646,4.785,4.785,0,0,1-1.652.263m-.2-6.552a1.285,1.285,0,0,0-1.045.505,2.469,2.469,0,0,0-.509,1.281l.015.035h3.028v-.177a1.822,1.822,0,0,0-.371-1.186,1.348,1.348,0,0,0-1.119-.459" transform="translate(403.745 4781.156)" fill="#fff"/>
    <path id="Trazado_243480" data-name="Trazado 243480" d="M632.948,256.035v1.857h1.37v1.271h-1.37v4.222a.92.92,0,0,0,.205.674.741.741,0,0,0,.543.2,1.549,1.549,0,0,0,.276-.025,1.839,1.839,0,0,0,.254-.067l.183,1.257a2.037,2.037,0,0,1-.522.187,3,3,0,0,1-.628.067,1.971,1.971,0,0,1-1.483-.554,2.43,2.43,0,0,1-.537-1.74v-4.222h-1.165v-1.271h1.165v-1.857Z" transform="translate(402.979 4781.339)" fill="#fff"/>
    <path id="Trazado_243481" data-name="Trazado 243481" d="M639.7,265.862a3.326,3.326,0,0,1-2.588-1.063,3.912,3.912,0,0,1-.963-2.728v-.283a4.048,4.048,0,0,1,.957-2.763,3.02,3.02,0,0,1,2.4-1.091,2.98,2.98,0,0,1,2.369.935,3.66,3.66,0,0,1,.822,2.509v1.009h-4.765l-.014.035a2.392,2.392,0,0,0,.533,1.485,1.686,1.686,0,0,0,1.359.577,3.674,3.674,0,0,0,1.186-.17,3.9,3.9,0,0,0,.953-.487l.551,1.124a3.557,3.557,0,0,1-1.144.646,4.785,4.785,0,0,1-1.652.263m-.2-6.552a1.285,1.285,0,0,0-1.045.505,2.468,2.468,0,0,0-.509,1.281l.014.035h3.028v-.177a1.822,1.822,0,0,0-.371-1.186,1.348,1.348,0,0,0-1.119-.459" transform="translate(402.394 4781.156)" fill="#fff"/>
    <path id="Trazado_243482" data-name="Trazado 243482" d="M648.046,264.485a1.579,1.579,0,0,0,1.059-.369,1.167,1.167,0,0,0,.43-.924h1.553l.015.042a2.262,2.262,0,0,1-.872,1.85,3.254,3.254,0,0,1-2.185.776,3.17,3.17,0,0,1-2.587-1.087,4.174,4.174,0,0,1-.9-2.754v-.247a4.175,4.175,0,0,1,.9-2.75,3.569,3.569,0,0,1,4.822-.289,2.582,2.582,0,0,1,.83,2.037l-.015.042h-1.561a1.492,1.492,0,0,0-.413-1.066,1.408,1.408,0,0,0-1.076-.438,1.448,1.448,0,0,0-1.37.7,3.5,3.5,0,0,0-.4,1.759v.248a3.5,3.5,0,0,0,.4,1.771,1.451,1.451,0,0,0,1.37.7" transform="translate(401.584 4781.156)" fill="#fff"/>
    <path id="Trazado_243483" data-name="Trazado 243483" d="M655.378,256.035v1.857h1.37v1.271h-1.37v4.222a.92.92,0,0,0,.205.674.741.741,0,0,0,.543.2,1.548,1.548,0,0,0,.276-.025,1.836,1.836,0,0,0,.254-.067l.183,1.257a2.038,2.038,0,0,1-.522.187,3,3,0,0,1-.628.067,1.971,1.971,0,0,1-1.483-.554,2.43,2.43,0,0,1-.537-1.74v-4.222H652.5v-1.271h1.165v-1.857Z" transform="translate(400.819 4781.339)" fill="#fff"/>
    <path id="Trazado_243484" data-name="Trazado 243484" d="M658.536,261.823a4.158,4.158,0,0,1,.932-2.8,3.564,3.564,0,0,1,5.139,0,4.12,4.12,0,0,1,.939,2.8v.148a4.146,4.146,0,0,1-.939,2.81,3.587,3.587,0,0,1-5.139-.007,4.15,4.15,0,0,1-.932-2.8Zm1.715.145a3.4,3.4,0,0,0,.437,1.818,1.651,1.651,0,0,0,2.7,0,3.322,3.322,0,0,0,.452-1.818v-.148a3.28,3.28,0,0,0-.452-1.8,1.634,1.634,0,0,0-2.7,0,3.381,3.381,0,0,0-.437,1.8Z" transform="translate(400.238 4781.156)" fill="#fff"/>
    <path id="Trazado_243485" data-name="Trazado 243485" d="M671.754,259.621l-.734-.028a1.538,1.538,0,0,0-.837.211,1.386,1.386,0,0,0-.52.6v5.309h-1.715v-7.639h1.567l.113,1.109a2.43,2.43,0,0,1,.745-.918,1.726,1.726,0,0,1,1.048-.332,1.539,1.539,0,0,1,.289.024,1.8,1.8,0,0,1,.248.061Z" transform="translate(399.331 4781.156)" fill="#fff"/>
    <path id="Trazado_243486" data-name="Trazado 243486" d="M676.736,265.862a3.326,3.326,0,0,1-2.588-1.063,3.912,3.912,0,0,1-.963-2.728v-.283a4.049,4.049,0,0,1,.957-2.763,3.02,3.02,0,0,1,2.4-1.091,2.98,2.98,0,0,1,2.369.935,3.66,3.66,0,0,1,.822,2.509v1.009h-4.765l-.014.035a2.391,2.391,0,0,0,.533,1.485,1.687,1.687,0,0,0,1.359.577,3.674,3.674,0,0,0,1.186-.17,3.9,3.9,0,0,0,.953-.487l.551,1.124a3.559,3.559,0,0,1-1.144.646,4.785,4.785,0,0,1-1.652.263m-.2-6.552a1.285,1.285,0,0,0-1.045.505,2.469,2.469,0,0,0-.509,1.281l.014.035h3.028v-.177a1.822,1.822,0,0,0-.371-1.186,1.348,1.348,0,0,0-1.119-.459" transform="translate(398.827 4781.156)" fill="#fff"/>
    <path id="Trazado_243487" data-name="Trazado 243487" d="M686.219,263.638a.8.8,0,0,0-.339-.657,3.354,3.354,0,0,0-1.263-.458,5.258,5.258,0,0,1-2.072-.823,1.724,1.724,0,0,1-.7-1.45,2.06,2.06,0,0,1,.812-1.637,3.225,3.225,0,0,1,2.139-.678,3.351,3.351,0,0,1,2.22.688,2.043,2.043,0,0,1,.787,1.705l-.014.042h-1.645a1.078,1.078,0,0,0-.36-.812,1.387,1.387,0,0,0-.989-.339,1.406,1.406,0,0,0-.946.279.863.863,0,0,0-.324.681.766.766,0,0,0,.306.639,3.332,3.332,0,0,0,1.246.42,5.24,5.24,0,0,1,2.136.837,1.764,1.764,0,0,1,.695,1.471,2.006,2.006,0,0,1-.85,1.674,3.633,3.633,0,0,1-2.242.643,3.417,3.417,0,0,1-2.35-.763,2.15,2.15,0,0,1-.819-1.75l.014-.042h1.6a1.142,1.142,0,0,0,.48.967,1.935,1.935,0,0,0,1.1.3,1.765,1.765,0,0,0,1.024-.254.8.8,0,0,0,.36-.685" transform="translate(398.013 4781.156)" fill="#fff"/>
    <path id="Trazado_243490" data-name="Trazado 243490" d="M614.407,277.918a2.717,2.717,0,0,1,.928-.833,2.5,2.5,0,0,1,1.211-.3,2.4,2.4,0,0,1,1.9.766,3.475,3.475,0,0,1,.681,2.361v4.652h-1.716V279.9a1.929,1.929,0,0,0-.36-1.306,1.375,1.375,0,0,0-1.08-.4,1.911,1.911,0,0,0-.9.208,1.821,1.821,0,0,0-.66.576v5.591h-1.715V273.555h1.715Z" transform="translate(404.653 4779.652)" fill="#fff"/>
    <path id="Trazado_243491" data-name="Trazado 243491" d="M626.532,283.813a2.624,2.624,0,0,1-.911.935,2.7,2.7,0,0,1-3.191-.455,3.6,3.6,0,0,1-.692-2.435v-4.568h1.709v4.583a2.289,2.289,0,0,0,.324,1.4,1.187,1.187,0,0,0,.981.4,2.2,2.2,0,0,0,1.042-.223,1.624,1.624,0,0,0,.66-.645v-5.521h1.715v7.639h-1.5Z" transform="translate(403.782 4779.292)" fill="#fff"/>
    <path id="Trazado_243492" data-name="Trazado 243492" d="M632.407,277.274l.092,1a2.564,2.564,0,0,1,.939-.84,2.763,2.763,0,0,1,1.306-.3,2.36,2.36,0,0,1,1.285.339,2.052,2.052,0,0,1,.8,1.017,2.671,2.671,0,0,1,.933-1,2.513,2.513,0,0,1,1.356-.36,2.254,2.254,0,0,1,1.817.787,3.621,3.621,0,0,1,.668,2.389v4.6H639.89V280.3a2.146,2.146,0,0,0-.335-1.37,1.243,1.243,0,0,0-1.006-.4,1.47,1.47,0,0,0-.932.3,1.638,1.638,0,0,0-.551.8,1.821,1.821,0,0,0,.007.184c0,.051.007.1.007.148v4.949h-1.716V280.3a2.131,2.131,0,0,0-.342-1.353,1.235,1.235,0,0,0-1.007-.413,1.807,1.807,0,0,0-.886.2,1.481,1.481,0,0,0-.576.568v5.606H630.84v-7.639Z" transform="translate(402.905 4779.307)" fill="#fff"/>
    <path id="Trazado_243493" data-name="Trazado 243493" d="M644.4,281.023a4.16,4.16,0,0,1,.932-2.8,3.564,3.564,0,0,1,5.139,0,4.121,4.121,0,0,1,.939,2.8v.148a4.143,4.143,0,0,1-.939,2.809,3.584,3.584,0,0,1-5.139-.007,4.146,4.146,0,0,1-.932-2.8Zm1.715.144a3.406,3.406,0,0,0,.437,1.819,1.653,1.653,0,0,0,2.7,0,3.325,3.325,0,0,0,.452-1.819v-.148a3.277,3.277,0,0,0-.452-1.8,1.634,1.634,0,0,0-2.7,0,3.376,3.376,0,0,0-.437,1.8Z" transform="translate(401.6 4779.307)" fill="#fff"/>
    <path id="Trazado_243494" data-name="Trazado 243494" d="M433.833,129.15H284.772a27.216,27.216,0,0,1,0-54.431H433.833a27.216,27.216,0,0,1,0,54.431" transform="translate(438.859 4798.803)" fill="#fedc72"/>
    <path id="Trazado_243495" data-name="Trazado 243495" d="M295.114,94.284v4.432h-2.692V87.152h4.446a5,5,0,0,1,3.186.929,3.064,3.064,0,0,1,1.176,2.541,2.532,2.532,0,0,1-.474,1.541,3.343,3.343,0,0,1-1.393,1.049,2.581,2.581,0,0,1,1.529,1,3.112,3.112,0,0,1,.464,1.75V96.7a4.6,4.6,0,0,0,.136,1.033,1.362,1.362,0,0,0,.468.826v.158H299.2a1.315,1.315,0,0,1-.418-.873,7.381,7.381,0,0,1-.1-1.16v-.7a1.71,1.71,0,0,0-.436-1.262,1.73,1.73,0,0,0-1.279-.437Zm0-2.065h1.771a1.852,1.852,0,0,0,1.239-.369,1.327,1.327,0,0,0,.429-1.061,1.524,1.524,0,0,0-.443-1.14,1.7,1.7,0,0,0-1.243-.432h-1.754Z" transform="translate(435.501 4797.605)"/>
    <path id="Trazado_243496" data-name="Trazado 243496" d="M308.043,99.182a3.985,3.985,0,0,1-3.031-1.191A4.165,4.165,0,0,1,303.882,95v-.3a4.854,4.854,0,0,1,1.028-3.2,4.115,4.115,0,0,1,5.683-.187,3.963,3.963,0,0,1,.993,2.843V95.56h-4.91l-.015.048a1.751,1.751,0,0,0,.54,1.084,1.691,1.691,0,0,0,1.207.425A4.991,4.991,0,0,0,309.628,97a8.962,8.962,0,0,0,1.157-.413l.635,1.636a4.87,4.87,0,0,1-1.459.687,6.476,6.476,0,0,1-1.918.275m-.191-6.854a.992.992,0,0,0-.87.413,2.261,2.261,0,0,0-.353,1.1l.024.04h2.312v-.207a1.6,1.6,0,0,0-.27-1,1,1,0,0,0-.842-.35" transform="translate(434.397 4797.306)"/>
    <path id="Trazado_243497" data-name="Trazado 243497" d="M316.685,95.49l.159.914.048.008.174-.922,1.136-5.052h2.82l-2.8,8.594H315.5l-2.8-8.594h2.828Z" transform="translate(433.548 4797.289)"/>
    <path id="Trazado_243498" data-name="Trazado 243498" d="M325.629,88.04h-2.692v-1.8h2.692Zm0,10.588h-2.692V90.033h2.692Z" transform="translate(432.563 4797.694)"/>
    <path id="Trazado_243499" data-name="Trazado 243499" d="M332.169,96.6a.705.705,0,0,0-.361-.568,3.921,3.921,0,0,0-1.314-.448,5.159,5.159,0,0,1-2.265-.914,2.063,2.063,0,0,1-.762-1.692,2.415,2.415,0,0,1,.953-1.926A3.92,3.92,0,0,1,331,90.262a4.436,4.436,0,0,1,2.731.766,2.255,2.255,0,0,1,.97,1.982l-.015.048h-2.605a1.05,1.05,0,0,0-.258-.77,1.122,1.122,0,0,0-.83-.262,1.093,1.093,0,0,0-.708.23.721.721,0,0,0-.285.588.7.7,0,0,0,.329.579,3.73,3.73,0,0,0,1.33.429,5.378,5.378,0,0,1,2.331.924,2.124,2.124,0,0,1,.757,1.744,2.272,2.272,0,0,1-1.028,1.909,4.5,4.5,0,0,1-2.719.751,4.083,4.083,0,0,1-2.777-.889,2.446,2.446,0,0,1-.971-1.985l.015-.048H329.7a1.079,1.079,0,0,0,.368.882,1.633,1.633,0,0,0,1,.269,1.338,1.338,0,0,0,.818-.21.707.707,0,0,0,.279-.6" transform="translate(432.146 4797.306)"/>
    <path id="Trazado_243500" data-name="Trazado 243500" d="M341.843,99.007a3.478,3.478,0,0,1-.2-.461,4.937,4.937,0,0,1-.155-.523,2.947,2.947,0,0,1-.921.845,2.573,2.573,0,0,1-1.31.314,2.82,2.82,0,0,1-1.99-.707,2.436,2.436,0,0,1-.766-1.881,2.3,2.3,0,0,1,.957-1.975,4.982,4.982,0,0,1,2.911-.694h.977v-.612a1.238,1.238,0,0,0-.258-.842,1.012,1.012,0,0,0-.8-.294.963.963,0,0,0-.687.218.914.914,0,0,0-.226.68l-2.6-.007-.016-.047a2.244,2.244,0,0,1,.977-1.966,4.379,4.379,0,0,1,2.732-.791,3.988,3.988,0,0,1,2.577.794,2.745,2.745,0,0,1,.99,2.273V96.57a6.314,6.314,0,0,0,.461,2.446Zm-1.771-1.74a1.7,1.7,0,0,0,.731-.158,1.539,1.539,0,0,0,.54-.413V95.353h-.953a1.213,1.213,0,0,0-.926.311,1.1,1.1,0,0,0-.289.785.764.764,0,0,0,.249.592.934.934,0,0,0,.648.226" transform="translate(431.256 4797.306)"/>
    <path id="Trazado_243501" data-name="Trazado 243501" d="M351.345,92.788l-.977-.008a1.628,1.628,0,0,0-.755.155.99.99,0,0,0-.436.441v5.641h-2.685V90.421h2.525l.1,1.262a2.594,2.594,0,0,1,.715-1.048,1.569,1.569,0,0,1,1.041-.373,2.881,2.881,0,0,1,.389.028,3.259,3.259,0,0,1,.35.068Z" transform="translate(430.294 4797.306)"/>
    <path id="Trazado_243502" data-name="Trazado 243502" d="M361.254,97.117a1.022,1.022,0,0,0,.8-.294,1.267,1.267,0,0,0,.262-.867h2.454l.015.049a2.823,2.823,0,0,1-.973,2.292,3.731,3.731,0,0,1-2.561.885,3.786,3.786,0,0,1-3.015-1.215,4.621,4.621,0,0,1-1.06-3.153V94.63a4.634,4.634,0,0,1,1.056-3.148,3.748,3.748,0,0,1,2.995-1.221,3.673,3.673,0,0,1,2.613.914,3.146,3.146,0,0,1,.945,2.487l-.015.047h-2.454a1.7,1.7,0,0,0-.27-1,.934.934,0,0,0-.818-.385,1.091,1.091,0,0,0-1.069.628,3.847,3.847,0,0,0-.305,1.675v.183a3.838,3.838,0,0,0,.305,1.692,1.115,1.115,0,0,0,1.092.612" transform="translate(429.265 4797.306)"/>
    <path id="Trazado_243503" data-name="Trazado 243503" d="M366.425,94.639a4.546,4.546,0,0,1,1.1-3.157,4.455,4.455,0,0,1,6.124,0,4.545,4.545,0,0,1,1.1,3.157v.167a4.54,4.54,0,0,1-1.1,3.161,4.465,4.465,0,0,1-6.124,0,4.54,4.54,0,0,1-1.1-3.161Zm2.685.167a3.555,3.555,0,0,0,.337,1.7,1.2,1.2,0,0,0,1.149.615,1.187,1.187,0,0,0,1.128-.62,3.521,3.521,0,0,0,.342-1.692v-.167a3.53,3.53,0,0,0-.342-1.679,1.2,1.2,0,0,0-1.144-.632,1.18,1.18,0,0,0-1.132.635,3.576,3.576,0,0,0-.337,1.675Z" transform="translate(428.374 4797.306)"/>
    <path id="Trazado_243504" data-name="Trazado 243504" d="M379.4,90.421l.1,1.207a3.107,3.107,0,0,1,1.041-1,2.687,2.687,0,0,1,1.382-.362,2.478,2.478,0,0,1,1.974.818,3.927,3.927,0,0,1,.711,2.605v5.33h-2.685V93.678a1.451,1.451,0,0,0-.306-1.046,1.228,1.228,0,0,0-.9-.305,1.548,1.548,0,0,0-.663.136,1.455,1.455,0,0,0-.5.373v6.179h-2.677V90.421Z" transform="translate(427.366 4797.306)"/>
    <path id="Trazado_243505" data-name="Trazado 243505" d="M390.951,99.182a3.985,3.985,0,0,1-3.031-1.191A4.166,4.166,0,0,1,386.789,95v-.3a4.859,4.859,0,0,1,1.028-3.2,4.115,4.115,0,0,1,5.683-.187,3.963,3.963,0,0,1,.993,2.843V95.56h-4.909l-.015.048a1.751,1.751,0,0,0,.54,1.084,1.691,1.691,0,0,0,1.207.425A5,5,0,0,0,392.536,97a8.915,8.915,0,0,0,1.156-.413l.635,1.636a4.853,4.853,0,0,1-1.458.687,6.48,6.48,0,0,1-1.918.275m-.191-6.854a.992.992,0,0,0-.87.413,2.261,2.261,0,0,0-.353,1.1l.024.04h2.311v-.207a1.609,1.609,0,0,0-.269-1,1,1,0,0,0-.842-.35" transform="translate(426.412 4797.306)"/>
    <path id="Trazado_243506" data-name="Trazado 243506" d="M399.894,92.972h.048l1.088-2.534h3.01l-2.494,4.249,2.582,4.345h-3.01l-1.144-2.613h-.048l-1.143,2.613h-3.011l2.582-4.345-2.5-4.249h2.995Z" transform="translate(425.547 4797.289)"/>
    <path id="Trazado_243507" data-name="Trazado 243507" d="M408.651,88.04h-2.692v-1.8h2.692Zm0,10.588h-2.692V90.033h2.692Z" transform="translate(424.565 4797.694)"/>
    <path id="Trazado_243508" data-name="Trazado 243508" d="M410.361,94.639a4.546,4.546,0,0,1,1.1-3.157,4.455,4.455,0,0,1,6.124,0,4.545,4.545,0,0,1,1.1,3.157v.167a4.54,4.54,0,0,1-1.1,3.161,4.465,4.465,0,0,1-6.124,0,4.54,4.54,0,0,1-1.1-3.161Zm2.685.167a3.555,3.555,0,0,0,.337,1.7,1.2,1.2,0,0,0,1.149.615,1.187,1.187,0,0,0,1.128-.62A3.521,3.521,0,0,0,416,94.806v-.167a3.53,3.53,0,0,0-.342-1.679,1.2,1.2,0,0,0-1.144-.632,1.18,1.18,0,0,0-1.132.635,3.576,3.576,0,0,0-.337,1.675Z" transform="translate(424.142 4797.306)"/>
    <path id="Trazado_243509" data-name="Trazado 243509" d="M423.339,90.421l.1,1.207a3.106,3.106,0,0,1,1.041-1,2.687,2.687,0,0,1,1.382-.362,2.478,2.478,0,0,1,1.974.818,3.927,3.927,0,0,1,.711,2.605v5.33h-2.685V93.678a1.451,1.451,0,0,0-.306-1.046,1.228,1.228,0,0,0-.9-.305,1.548,1.548,0,0,0-.663.136,1.455,1.455,0,0,0-.5.373v6.179h-2.677V90.421Z" transform="translate(423.134 4797.306)"/>
    <path id="Trazado_243510" data-name="Trazado 243510" d="M434.887,99.182a3.985,3.985,0,0,1-3.031-1.191A4.166,4.166,0,0,1,430.725,95v-.3a4.859,4.859,0,0,1,1.028-3.2,4.115,4.115,0,0,1,5.683-.187,3.963,3.963,0,0,1,.993,2.843V95.56h-4.909l-.015.048a1.751,1.751,0,0,0,.539,1.084,1.692,1.692,0,0,0,1.207.425A5,5,0,0,0,436.471,97a8.915,8.915,0,0,0,1.156-.413l.635,1.636a4.854,4.854,0,0,1-1.458.687,6.481,6.481,0,0,1-1.918.275m-.191-6.854a.992.992,0,0,0-.87.413,2.261,2.261,0,0,0-.353,1.1l.024.04h2.311v-.207a1.609,1.609,0,0,0-.269-1,1,1,0,0,0-.842-.35" transform="translate(422.181 4797.306)"/>
    <path id="Trazado_243511" data-name="Trazado 243511" d="M444.941,96.6a.705.705,0,0,0-.361-.568,3.922,3.922,0,0,0-1.314-.448A5.154,5.154,0,0,1,441,94.67a2.061,2.061,0,0,1-.763-1.692,2.414,2.414,0,0,1,.953-1.926,3.92,3.92,0,0,1,2.581-.791,4.439,4.439,0,0,1,2.732.766,2.256,2.256,0,0,1,.97,1.982l-.016.048h-2.605a1.05,1.05,0,0,0-.258-.77,1.122,1.122,0,0,0-.83-.262,1.09,1.09,0,0,0-.707.23.722.722,0,0,0-.286.588.7.7,0,0,0,.329.579,3.729,3.729,0,0,0,1.331.429,5.374,5.374,0,0,1,2.331.924,2.122,2.122,0,0,1,.758,1.744,2.272,2.272,0,0,1-1.028,1.909,4.5,4.5,0,0,1-2.72.751A4.081,4.081,0,0,1,441,98.292a2.448,2.448,0,0,1-.972-1.985l.015-.048h2.431a1.076,1.076,0,0,0,.369.882,1.63,1.63,0,0,0,1,.269,1.342,1.342,0,0,0,.818-.21.708.708,0,0,0,.278-.6" transform="translate(421.285 4797.306)"/>
    <path id="Trazado_243512" data-name="Trazado 243512" d="M335.281,120.781a3.985,3.985,0,0,1-3.031-1.191,4.166,4.166,0,0,1-1.131-2.987v-.3a4.859,4.859,0,0,1,1.028-3.2,4.115,4.115,0,0,1,5.683-.187,3.963,3.963,0,0,1,.993,2.843v1.406h-4.909l-.015.048a1.751,1.751,0,0,0,.54,1.084,1.692,1.692,0,0,0,1.207.425,5,5,0,0,0,1.219-.119,8.911,8.911,0,0,0,1.156-.413l.635,1.636a4.853,4.853,0,0,1-1.458.687,6.48,6.48,0,0,1-1.918.275m-.191-6.854a.993.993,0,0,0-.87.413,2.261,2.261,0,0,0-.353,1.1l.024.04H336.2v-.207a1.61,1.61,0,0,0-.269-1,1,1,0,0,0-.842-.35" transform="translate(431.774 4795.226)"/>
    <path id="Trazado_247083" data-name="Trazado 247083" d="M0,0H2.692V12.39H0Z" transform="translate(771.853 4903.45)"/>
    <path id="Trazado_243513" data-name="Trazado 243513" d="M349.73,120.438a3.985,3.985,0,0,1-3.031-1.191,4.165,4.165,0,0,1-1.131-2.987v-.3a4.859,4.859,0,0,1,1.028-3.2,4.115,4.115,0,0,1,5.683-.187,3.963,3.963,0,0,1,.993,2.843v1.406h-4.909l-.015.048a1.751,1.751,0,0,0,.539,1.084,1.691,1.691,0,0,0,1.207.425,5,5,0,0,0,1.219-.119,8.912,8.912,0,0,0,1.156-.413l.635,1.636a4.853,4.853,0,0,1-1.458.687,6.48,6.48,0,0,1-1.918.275m-.167-12.145h2.764l.016.048-2.224,2.065h-2.192Zm-.023,5.29a.992.992,0,0,0-.87.413,2.261,2.261,0,0,0-.353,1.1l.024.04h2.311v-.207a1.61,1.61,0,0,0-.269-1,1,1,0,0,0-.842-.35" transform="translate(430.383 4795.569)"/>
    <path id="Trazado_243514" data-name="Trazado 243514" d="M358.977,118.716a1.022,1.022,0,0,0,.8-.294,1.265,1.265,0,0,0,.262-.866H362.5l.015.048a2.822,2.822,0,0,1-.973,2.292,3.731,3.731,0,0,1-2.561.885,3.786,3.786,0,0,1-3.015-1.215,4.621,4.621,0,0,1-1.06-3.153v-.183a4.635,4.635,0,0,1,1.056-3.148,3.748,3.748,0,0,1,2.995-1.22,3.669,3.669,0,0,1,2.613.914,3.143,3.143,0,0,1,.945,2.486l-.015.047h-2.454a1.7,1.7,0,0,0-.27-1,.934.934,0,0,0-.818-.385,1.091,1.091,0,0,0-1.069.628,3.853,3.853,0,0,0-.305,1.675v.183a3.836,3.836,0,0,0,.305,1.692,1.115,1.115,0,0,0,1.093.612" transform="translate(429.483 4795.226)"/>
    <path id="Trazado_243515" data-name="Trazado 243515" d="M367.646,109.674v2.136H369.1v1.859h-1.453v3.939a.967.967,0,0,0,.186.664.657.657,0,0,0,.505.2c.169,0,.3-.005.4-.015s.224-.032.378-.064l.191,1.986a7.967,7.967,0,0,1-.8.147,7.275,7.275,0,0,1-.841.043,2.668,2.668,0,0,1-2.01-.708,3.13,3.13,0,0,1-.683-2.239v-3.955h-1.207V111.81h1.207v-2.136Z" transform="translate(428.63 4795.437)"/>
    <path id="Trazado_243516" data-name="Trazado 243516" d="M375.919,114.388l-.977-.008a1.628,1.628,0,0,0-.755.155.99.99,0,0,0-.436.441v5.64h-2.685v-8.594h2.526l.095,1.262a2.594,2.594,0,0,1,.715-1.048,1.571,1.571,0,0,1,1.041-.373,2.871,2.871,0,0,1,.389.028,2.978,2.978,0,0,1,.35.068Z" transform="translate(427.927 4795.226)"/>
    <path id="Trazado_243517" data-name="Trazado 243517" d="M380.543,109.64h-2.692v-1.8h2.692Zm0,10.588h-2.692v-8.594h2.692Z" transform="translate(427.273 4795.613)"/>
    <path id="Trazado_243518" data-name="Trazado 243518" d="M386.276,118.716a1.022,1.022,0,0,0,.8-.294,1.265,1.265,0,0,0,.262-.866h2.454l.015.048a2.822,2.822,0,0,1-.973,2.292,3.731,3.731,0,0,1-2.561.885,3.786,3.786,0,0,1-3.015-1.215,4.621,4.621,0,0,1-1.06-3.153v-.183a4.635,4.635,0,0,1,1.056-3.148,3.748,3.748,0,0,1,2.995-1.22,3.669,3.669,0,0,1,2.613.914,3.143,3.143,0,0,1,.945,2.486l-.015.047H387.34a1.7,1.7,0,0,0-.27-1,.934.934,0,0,0-.818-.385,1.091,1.091,0,0,0-1.069.628,3.852,3.852,0,0,0-.305,1.675v.183a3.835,3.835,0,0,0,.305,1.692,1.115,1.115,0,0,0,1.093.612" transform="translate(426.854 4795.226)"/>
    <path id="Trazado_243519" data-name="Trazado 243519" d="M396.74,120.607a3.477,3.477,0,0,1-.2-.461,4.883,4.883,0,0,1-.155-.524,2.939,2.939,0,0,1-.921.846,2.574,2.574,0,0,1-1.31.314,2.82,2.82,0,0,1-1.99-.707,2.437,2.437,0,0,1-.766-1.882,2.3,2.3,0,0,1,.957-1.975,4.975,4.975,0,0,1,2.911-.694h.977v-.612a1.236,1.236,0,0,0-.258-.842,1.008,1.008,0,0,0-.8-.294.959.959,0,0,0-.687.218.911.911,0,0,0-.226.68l-2.6-.007-.016-.048a2.243,2.243,0,0,1,.977-1.966,4.38,4.38,0,0,1,2.732-.791,3.988,3.988,0,0,1,2.577.794,2.744,2.744,0,0,1,.99,2.272v3.241a6.307,6.307,0,0,0,.461,2.446Zm-1.771-1.74a1.684,1.684,0,0,0,.731-.159,1.518,1.518,0,0,0,.54-.413v-1.342h-.952a1.216,1.216,0,0,0-.926.31,1.1,1.1,0,0,0-.289.786.764.764,0,0,0,.249.592.934.934,0,0,0,.648.226" transform="translate(425.969 4795.226)"/>
    <path id="Trazado_243520" data-name="Trazado 243520" d="M405.821,118.2a.705.705,0,0,0-.361-.568,3.923,3.923,0,0,0-1.314-.448,5.154,5.154,0,0,1-2.264-.914,2.062,2.062,0,0,1-.763-1.692,2.414,2.414,0,0,1,.953-1.926,3.92,3.92,0,0,1,2.581-.791,4.439,4.439,0,0,1,2.732.766,2.255,2.255,0,0,1,.97,1.982l-.016.048h-2.605a1.05,1.05,0,0,0-.258-.77,1.122,1.122,0,0,0-.83-.262,1.09,1.09,0,0,0-.707.23.722.722,0,0,0-.286.588.7.7,0,0,0,.329.579,3.73,3.73,0,0,0,1.331.429,5.374,5.374,0,0,1,2.331.924,2.122,2.122,0,0,1,.758,1.744,2.272,2.272,0,0,1-1.028,1.909,4.5,4.5,0,0,1-2.72.751,4.081,4.081,0,0,1-2.776-.889,2.448,2.448,0,0,1-.972-1.985l.015-.048h2.431a1.076,1.076,0,0,0,.369.882,1.63,1.63,0,0,0,1,.269,1.341,1.341,0,0,0,.818-.21.708.708,0,0,0,.278-.6" transform="translate(425.053 4795.226)"/>
    <path id="Trazado_243521" data-name="Trazado 243521" d="M433.833,251.888H284.772a27.216,27.216,0,0,1,0-54.431H433.833a27.216,27.216,0,0,1,0,54.431" transform="translate(438.859 4786.981)" fill="#fedc72"/>
    <path id="Trazado_243522" data-name="Trazado 243522" d="M304.29,221.453h-2.677l-4.233-7.37-.048.015v7.355H294.64V209.888h2.693l4.233,7.37.048-.015v-7.355h2.677Z" transform="translate(435.288 4785.784)"/>
    <path id="Trazado_243523" data-name="Trazado 243523" d="M306.777,217.376a4.546,4.546,0,0,1,1.1-3.157,4.455,4.455,0,0,1,6.124,0,4.545,4.545,0,0,1,1.1,3.157v.167A4.54,4.54,0,0,1,314,220.7a4.465,4.465,0,0,1-6.124,0,4.54,4.54,0,0,1-1.1-3.161Zm2.685.167a3.556,3.556,0,0,0,.337,1.7,1.2,1.2,0,0,0,1.149.615,1.187,1.187,0,0,0,1.128-.62,3.522,3.522,0,0,0,.342-1.692v-.167a3.531,3.531,0,0,0-.342-1.679,1.2,1.2,0,0,0-1.144-.632,1.18,1.18,0,0,0-1.132.635,3.576,3.576,0,0,0-.337,1.675Z" transform="translate(434.119 4785.484)"/>
    <path id="Trazado_243524" data-name="Trazado 243524" d="M326.2,219.338a.705.705,0,0,0-.361-.568,3.922,3.922,0,0,0-1.314-.448,5.155,5.155,0,0,1-2.264-.914,2.062,2.062,0,0,1-.763-1.692,2.414,2.414,0,0,1,.953-1.926,3.92,3.92,0,0,1,2.581-.791,4.439,4.439,0,0,1,2.732.766,2.256,2.256,0,0,1,.97,1.982l-.016.048h-2.605a1.051,1.051,0,0,0-.258-.77,1.122,1.122,0,0,0-.83-.262,1.09,1.09,0,0,0-.707.23.722.722,0,0,0-.286.588.7.7,0,0,0,.329.579,3.729,3.729,0,0,0,1.331.429,5.375,5.375,0,0,1,2.331.924,2.122,2.122,0,0,1,.758,1.744,2.272,2.272,0,0,1-1.028,1.91,4.5,4.5,0,0,1-2.72.751,4.081,4.081,0,0,1-2.776-.889,2.447,2.447,0,0,1-.972-1.985L321.3,219h2.431a1.076,1.076,0,0,0,.369.882,1.63,1.63,0,0,0,1,.269,1.341,1.341,0,0,0,.818-.21.708.708,0,0,0,.278-.6" transform="translate(432.722 4785.484)"/>
    <path id="Trazado_243525" data-name="Trazado 243525" d="M330.587,217.376a4.546,4.546,0,0,1,1.1-3.157,4.455,4.455,0,0,1,6.124,0,4.545,4.545,0,0,1,1.1,3.157v.167a4.54,4.54,0,0,1-1.1,3.161,4.465,4.465,0,0,1-6.124,0,4.54,4.54,0,0,1-1.1-3.161Zm2.685.167a3.555,3.555,0,0,0,.337,1.7,1.2,1.2,0,0,0,1.149.615,1.187,1.187,0,0,0,1.128-.62,3.522,3.522,0,0,0,.342-1.692v-.167a3.531,3.531,0,0,0-.342-1.679,1.2,1.2,0,0,0-1.144-.632,1.18,1.18,0,0,0-1.132.635,3.576,3.576,0,0,0-.337,1.675Z" transform="translate(431.825 4785.484)"/>
    <path id="Trazado_243526" data-name="Trazado 243526" d="M349.058,217.251a5.208,5.208,0,0,1-.842,3.121,2.885,2.885,0,0,1-2.493,1.159,2.4,2.4,0,0,1-1.232-.306,2.616,2.616,0,0,1-.889-.877l-.175,1.017H341.1v-12.39h2.685v4.63a2.6,2.6,0,0,1,.83-.735,2.249,2.249,0,0,1,1.093-.258,2.854,2.854,0,0,1,2.505,1.215,5.612,5.612,0,0,1,.847,3.257Zm-2.677-.167a4.413,4.413,0,0,0-.286-1.775,1.062,1.062,0,0,0-1.065-.632,1.62,1.62,0,0,0-.752.163,1.222,1.222,0,0,0-.5.473v3.606a1.151,1.151,0,0,0,.5.413,1.9,1.9,0,0,0,.762.136,1.067,1.067,0,0,0,1.064-.552,3.945,3.945,0,0,0,.27-1.664Z" transform="translate(430.813 4785.872)"/>
    <path id="Trazado_243527" data-name="Trazado 243527" d="M356.068,215.526l-.977-.008a1.628,1.628,0,0,0-.755.155.99.99,0,0,0-.436.441v5.64h-2.685v-8.594h2.526l.095,1.262a2.594,2.594,0,0,1,.715-1.048,1.571,1.571,0,0,1,1.041-.373,2.87,2.87,0,0,1,.389.028,2.978,2.978,0,0,1,.35.068Z" transform="translate(429.839 4785.484)"/>
    <path id="Trazado_243528" data-name="Trazado 243528" d="M361.6,221.919a3.985,3.985,0,0,1-3.031-1.191,4.166,4.166,0,0,1-1.131-2.987v-.3a4.859,4.859,0,0,1,1.028-3.2,4.115,4.115,0,0,1,5.683-.187,3.963,3.963,0,0,1,.993,2.843V218.3h-4.909l-.015.048a1.751,1.751,0,0,0,.54,1.084,1.691,1.691,0,0,0,1.207.425,5,5,0,0,0,1.219-.119,8.911,8.911,0,0,0,1.156-.413l.635,1.636a4.853,4.853,0,0,1-1.458.687,6.479,6.479,0,0,1-1.918.275m-.191-6.854a.992.992,0,0,0-.87.413,2.26,2.26,0,0,0-.353,1.1l.024.04h2.311v-.207a1.61,1.61,0,0,0-.269-1,1,1,0,0,0-.842-.35" transform="translate(429.239 4785.484)"/>
    <path id="Trazado_243529" data-name="Trazado 243529" d="M370.846,219.854a1.022,1.022,0,0,0,.8-.294,1.265,1.265,0,0,0,.262-.866h2.454l.015.048a2.822,2.822,0,0,1-.973,2.292,3.731,3.731,0,0,1-2.561.885,3.786,3.786,0,0,1-3.015-1.215,4.621,4.621,0,0,1-1.06-3.153v-.183a4.635,4.635,0,0,1,1.056-3.148,3.748,3.748,0,0,1,2.995-1.22,3.669,3.669,0,0,1,2.612.914,3.143,3.143,0,0,1,.945,2.486l-.015.047H371.91a1.7,1.7,0,0,0-.27-1,.934.934,0,0,0-.818-.385,1.091,1.091,0,0,0-1.069.628,3.852,3.852,0,0,0-.305,1.675v.183a3.835,3.835,0,0,0,.305,1.692,1.115,1.115,0,0,0,1.093.612" transform="translate(428.34 4785.484)"/>
    <path id="Trazado_243530" data-name="Trazado 243530" d="M381.31,221.745a3.479,3.479,0,0,1-.2-.461,4.891,4.891,0,0,1-.155-.524,2.939,2.939,0,0,1-.921.846,2.574,2.574,0,0,1-1.31.314,2.82,2.82,0,0,1-1.99-.707,2.437,2.437,0,0,1-.766-1.882,2.3,2.3,0,0,1,.957-1.975,4.975,4.975,0,0,1,2.911-.694h.977v-.612a1.236,1.236,0,0,0-.258-.842,1.009,1.009,0,0,0-.8-.294.959.959,0,0,0-.687.218.911.911,0,0,0-.226.68l-2.6-.007-.016-.048a2.243,2.243,0,0,1,.977-1.965,4.379,4.379,0,0,1,2.732-.791,3.988,3.988,0,0,1,2.577.794,2.744,2.744,0,0,1,.99,2.272v3.241a6.306,6.306,0,0,0,.461,2.446Zm-1.771-1.74a1.684,1.684,0,0,0,.731-.159,1.517,1.517,0,0,0,.54-.413v-1.342h-.953a1.216,1.216,0,0,0-.926.31,1.1,1.1,0,0,0-.289.786.764.764,0,0,0,.249.592.934.934,0,0,0,.648.226" transform="translate(427.455 4785.484)"/>
    <path id="Trazado_243531" data-name="Trazado 243531" d="M390.811,215.526l-.977-.008a1.628,1.628,0,0,0-.755.155.99.99,0,0,0-.436.441v5.64h-2.685v-8.594h2.526l.095,1.262a2.594,2.594,0,0,1,.715-1.048,1.571,1.571,0,0,1,1.041-.373,2.87,2.87,0,0,1,.389.028,2.977,2.977,0,0,1,.35.068Z" transform="translate(426.492 4785.484)"/>
    <path id="Trazado_243532" data-name="Trazado 243532" d="M392.049,217.471a5.483,5.483,0,0,1,.874-3.241,2.851,2.851,0,0,1,2.47-1.231,2.22,2.22,0,0,1,1.2.322,2.831,2.831,0,0,1,.89.917l.183-1.08h2.351v8.261a3.5,3.5,0,0,1-1.184,2.763,4.65,4.65,0,0,1-3.185,1.041,5.752,5.752,0,0,1-1.4-.183,7.494,7.494,0,0,1-1.39-.493l.436-1.985a6.642,6.642,0,0,0,1.12.378,5.467,5.467,0,0,0,1.215.123,1.691,1.691,0,0,0,1.262-.445,1.658,1.658,0,0,0,.437-1.215v-.436a2.483,2.483,0,0,1-.85.71,2.44,2.44,0,0,1-1.1.242,2.88,2.88,0,0,1-2.459-1.175,5.1,5.1,0,0,1-.869-3.106Zm2.677.167a3.573,3.573,0,0,0,.305,1.633,1.07,1.07,0,0,0,1.029.583,1.9,1.9,0,0,0,.75-.135,1.268,1.268,0,0,0,.521-.413V215.7a1.387,1.387,0,0,0-.513-.468,1.556,1.556,0,0,0-.742-.167,1.072,1.072,0,0,0-1.032.66,4.048,4.048,0,0,0-.318,1.747Z" transform="translate(425.905 4785.484)"/>
    <path id="Trazado_243533" data-name="Trazado 243533" d="M407.457,221.745a3.594,3.594,0,0,1-.2-.461,4.881,4.881,0,0,1-.154-.524,2.958,2.958,0,0,1-.921.846,2.576,2.576,0,0,1-1.31.314,2.818,2.818,0,0,1-1.99-.707,2.437,2.437,0,0,1-.766-1.882,2.3,2.3,0,0,1,.957-1.975,4.975,4.975,0,0,1,2.911-.694h.977v-.612a1.236,1.236,0,0,0-.258-.842,1.011,1.011,0,0,0-.8-.294.963.963,0,0,0-.688.218.914.914,0,0,0-.226.68l-2.6-.007-.017-.048a2.245,2.245,0,0,1,.977-1.965,4.384,4.384,0,0,1,2.733-.791,3.985,3.985,0,0,1,2.576.794,2.742,2.742,0,0,1,.99,2.272v3.241a6.659,6.659,0,0,0,.116,1.279,6.54,6.54,0,0,0,.346,1.168Zm-1.77-1.74a1.678,1.678,0,0,0,.73-.159,1.521,1.521,0,0,0,.54-.413v-1.342H406a1.214,1.214,0,0,0-.925.31,1.1,1.1,0,0,0-.29.786.767.767,0,0,0,.249.592.936.936,0,0,0,.649.226" transform="translate(424.937 4785.484)"/>
    <path id="Trazado_243534" data-name="Trazado 243534" d="M416.959,215.526l-.977-.008a1.628,1.628,0,0,0-.755.155.99.99,0,0,0-.436.441v5.64h-2.685v-8.594h2.526l.095,1.262a2.593,2.593,0,0,1,.715-1.048,1.571,1.571,0,0,1,1.041-.373,2.87,2.87,0,0,1,.389.028,2.978,2.978,0,0,1,.35.068Z" transform="translate(423.974 4785.484)"/>
    <path id="Trazado_247084" data-name="Trazado 247084" d="M0,0H2.692V12.39H0Z" transform="translate(846.262 4994.846)"/>
    <path id="Trazado_243535" data-name="Trazado 243535" d="M427.776,217.376a4.546,4.546,0,0,1,1.1-3.157,4.455,4.455,0,0,1,6.124,0,4.545,4.545,0,0,1,1.1,3.157v.167A4.54,4.54,0,0,1,435,220.7a4.465,4.465,0,0,1-6.124,0,4.54,4.54,0,0,1-1.1-3.161Zm2.685.167a3.556,3.556,0,0,0,.337,1.7,1.2,1.2,0,0,0,1.149.615,1.187,1.187,0,0,0,1.128-.62,3.522,3.522,0,0,0,.342-1.692v-.167a3.531,3.531,0,0,0-.342-1.679,1.2,1.2,0,0,0-1.144-.632,1.18,1.18,0,0,0-1.132.635,3.576,3.576,0,0,0-.337,1.675Z" transform="translate(422.465 4785.484)"/>
    <path id="Trazado_243536" data-name="Trazado 243536" d="M442.721,219.338a.705.705,0,0,0-.361-.568,3.922,3.922,0,0,0-1.314-.448,5.155,5.155,0,0,1-2.264-.914,2.062,2.062,0,0,1-.763-1.692,2.414,2.414,0,0,1,.953-1.926,3.919,3.919,0,0,1,2.581-.791,4.439,4.439,0,0,1,2.732.766,2.256,2.256,0,0,1,.97,1.982l-.016.048h-2.605a1.05,1.05,0,0,0-.258-.77,1.122,1.122,0,0,0-.83-.262,1.09,1.09,0,0,0-.707.23.722.722,0,0,0-.286.588.7.7,0,0,0,.329.579,3.729,3.729,0,0,0,1.331.429,5.375,5.375,0,0,1,2.331.924,2.122,2.122,0,0,1,.758,1.744,2.272,2.272,0,0,1-1.028,1.91,4.5,4.5,0,0,1-2.72.751,4.081,4.081,0,0,1-2.776-.889,2.448,2.448,0,0,1-.972-1.985l.015-.048h2.431a1.076,1.076,0,0,0,.369.882,1.629,1.629,0,0,0,1,.269,1.342,1.342,0,0,0,.818-.21.708.708,0,0,0,.278-.6" transform="translate(421.499 4785.484)"/>
    <path id="Trazado_243537" data-name="Trazado 243537" d="M312.164,232.411v2.136h1.453v1.859h-1.453v3.939a.968.968,0,0,0,.186.664.657.657,0,0,0,.505.2c.169,0,.3-.005.4-.015s.224-.032.378-.064l.191,1.986a7.966,7.966,0,0,1-.8.147,7.275,7.275,0,0,1-.841.043,2.668,2.668,0,0,1-2.01-.708,3.13,3.13,0,0,1-.683-2.239v-3.955H308.28v-1.859h1.207v-2.136Z" transform="translate(433.974 4783.615)"/>
    <path id="Trazado_243538" data-name="Trazado 243538" d="M314.925,238.976a4.546,4.546,0,0,1,1.1-3.157,4.455,4.455,0,0,1,6.124,0,4.545,4.545,0,0,1,1.1,3.157v.167a4.54,4.54,0,0,1-1.1,3.161,4.465,4.465,0,0,1-6.124,0,4.54,4.54,0,0,1-1.1-3.161Zm2.685.167a3.555,3.555,0,0,0,.337,1.7,1.2,1.2,0,0,0,1.149.615,1.187,1.187,0,0,0,1.128-.62,3.521,3.521,0,0,0,.342-1.692v-.167a3.531,3.531,0,0,0-.342-1.679,1.2,1.2,0,0,0-1.144-.632,1.18,1.18,0,0,0-1.132.635,3.576,3.576,0,0,0-.337,1.675Z" transform="translate(433.334 4783.404)"/>
    <path id="Trazado_243539" data-name="Trazado 243539" d="M327.963,234.758l.095,1.136a2.854,2.854,0,0,1,1.02-.958,2.9,2.9,0,0,1,1.411-.337,2.625,2.625,0,0,1,1.382.35,2.146,2.146,0,0,1,.874,1.065,2.9,2.9,0,0,1,1.02-1.046,2.82,2.82,0,0,1,1.458-.369,2.436,2.436,0,0,1,1.974.861,4.1,4.1,0,0,1,.719,2.658v5.234h-2.693v-5.234a1.856,1.856,0,0,0-.258-1.144.951.951,0,0,0-.774-.31,1.606,1.606,0,0,0-.688.14,1.45,1.45,0,0,0-.5.384c0,.09,0,.169.008.235s.008.131.008.194v5.735H330.33v-5.234a1.88,1.88,0,0,0-.254-1.144.961.961,0,0,0-.786-.31,1.548,1.548,0,0,0-.664.14,1.447,1.447,0,0,0-.5.384v6.164h-2.685v-8.594Z" transform="translate(432.321 4783.404)"/>
    <path id="Trazado_243540" data-name="Trazado 243540" d="M345.837,243.344a3.474,3.474,0,0,1-.2-.461,4.892,4.892,0,0,1-.155-.524,2.939,2.939,0,0,1-.921.846,2.574,2.574,0,0,1-1.31.314,2.82,2.82,0,0,1-1.99-.707,2.437,2.437,0,0,1-.766-1.882,2.3,2.3,0,0,1,.957-1.975,4.975,4.975,0,0,1,2.911-.694h.977v-.612a1.236,1.236,0,0,0-.258-.842,1.008,1.008,0,0,0-.8-.294.959.959,0,0,0-.687.218.911.911,0,0,0-.226.68l-2.6-.007-.016-.048a2.243,2.243,0,0,1,.977-1.966,4.379,4.379,0,0,1,2.732-.791,3.988,3.988,0,0,1,2.577.794,2.744,2.744,0,0,1,.99,2.272v3.241a6.306,6.306,0,0,0,.461,2.446Zm-1.771-1.74a1.684,1.684,0,0,0,.731-.159,1.518,1.518,0,0,0,.539-.413V239.69h-.952a1.216,1.216,0,0,0-.926.31,1.1,1.1,0,0,0-.289.786.764.764,0,0,0,.249.592.934.934,0,0,0,.648.226" transform="translate(430.871 4783.404)"/>
    <path id="Trazado_243541" data-name="Trazado 243541" d="M354.112,241.453a1.022,1.022,0,0,0,.8-.294,1.265,1.265,0,0,0,.262-.866h2.454l.015.048a2.822,2.822,0,0,1-.973,2.292,3.731,3.731,0,0,1-2.561.885A3.786,3.786,0,0,1,351.1,242.3a4.621,4.621,0,0,1-1.06-3.153v-.183a4.635,4.635,0,0,1,1.056-3.148,3.748,3.748,0,0,1,2.995-1.22,3.669,3.669,0,0,1,2.613.914,3.143,3.143,0,0,1,.945,2.486l-.015.047h-2.454a1.7,1.7,0,0,0-.27-1,.934.934,0,0,0-.818-.385,1.091,1.091,0,0,0-1.069.628,3.852,3.852,0,0,0-.305,1.675v.183a3.835,3.835,0,0,0,.305,1.692,1.115,1.115,0,0,0,1.093.612" transform="translate(429.952 4783.404)"/>
    <path id="Trazado_243542" data-name="Trazado 243542" d="M359.283,238.976a4.546,4.546,0,0,1,1.1-3.157,4.455,4.455,0,0,1,6.124,0,4.545,4.545,0,0,1,1.1,3.157v.167a4.54,4.54,0,0,1-1.1,3.161,4.465,4.465,0,0,1-6.124,0,4.54,4.54,0,0,1-1.1-3.161Zm2.685.167a3.555,3.555,0,0,0,.337,1.7,1.2,1.2,0,0,0,1.149.615,1.187,1.187,0,0,0,1.128-.62,3.521,3.521,0,0,0,.342-1.692v-.167a3.531,3.531,0,0,0-.342-1.679,1.2,1.2,0,0,0-1.144-.632,1.18,1.18,0,0,0-1.132.635,3.576,3.576,0,0,0-.337,1.675Z" transform="translate(429.062 4783.404)"/>
    <path id="Trazado_243543" data-name="Trazado 243543" d="M374.648,237.125l-.977-.008a1.628,1.628,0,0,0-.755.155.99.99,0,0,0-.436.441v5.64H369.8v-8.594h2.526l.095,1.262a2.594,2.594,0,0,1,.715-1.048,1.571,1.571,0,0,1,1.041-.373,2.87,2.87,0,0,1,.389.028,2.969,2.969,0,0,1,.35.068Z" transform="translate(428.049 4783.404)"/>
    <path id="Trazado_243544" data-name="Trazado 243544" d="M381.3,237.125l-.977-.008a1.628,1.628,0,0,0-.755.155.99.99,0,0,0-.436.441v5.64h-2.685v-8.594h2.525l.1,1.262a2.6,2.6,0,0,1,.715-1.048,1.569,1.569,0,0,1,1.041-.373,2.871,2.871,0,0,1,.389.028,3.046,3.046,0,0,1,.35.068Z" transform="translate(427.408 4783.404)"/>
    <path id="Trazado_243545" data-name="Trazado 243545" d="M385.926,232.377h-2.692v-1.8h2.692Zm0,10.588h-2.692V234.37h2.692Z" transform="translate(426.755 4783.792)"/>
    <path id="Trazado_243546" data-name="Trazado 243546" d="M391.93,243.519a3.985,3.985,0,0,1-3.031-1.191,4.166,4.166,0,0,1-1.131-2.987v-.3a4.859,4.859,0,0,1,1.028-3.2,4.115,4.115,0,0,1,5.683-.187,3.963,3.963,0,0,1,.993,2.843V239.9h-4.909l-.015.048a1.751,1.751,0,0,0,.539,1.084,1.691,1.691,0,0,0,1.207.425,5,5,0,0,0,1.219-.119,8.914,8.914,0,0,0,1.156-.413l.635,1.636a4.853,4.853,0,0,1-1.458.687,6.479,6.479,0,0,1-1.918.275m-.191-6.854a.992.992,0,0,0-.87.413,2.26,2.26,0,0,0-.353,1.1l.024.04h2.311v-.207a1.609,1.609,0,0,0-.269-1,1,1,0,0,0-.842-.35" transform="translate(426.318 4783.404)"/>
    <path id="Trazado_243547" data-name="Trazado 243547" d="M400.016,234.758l.1,1.207a3.106,3.106,0,0,1,1.041-1,2.687,2.687,0,0,1,1.382-.362,2.478,2.478,0,0,1,1.974.818,3.927,3.927,0,0,1,.711,2.605v5.33h-2.685v-5.337a1.451,1.451,0,0,0-.306-1.046,1.228,1.228,0,0,0-.9-.305,1.548,1.548,0,0,0-.663.136,1.456,1.456,0,0,0-.5.373v6.179H397.5v-8.594Z" transform="translate(425.381 4783.404)"/>
    <path id="Trazado_243548" data-name="Trazado 243548" d="M410.769,232.411v2.136h1.453v1.859h-1.453v3.939a.968.968,0,0,0,.186.664.658.658,0,0,0,.505.2c.169,0,.3-.005.4-.015s.224-.032.378-.064l.191,1.986a7.96,7.96,0,0,1-.8.147,7.274,7.274,0,0,1-.841.043,2.668,2.668,0,0,1-2.01-.708,3.13,3.13,0,0,1-.683-2.239v-3.955h-1.207v-1.859h1.207v-2.136Z" transform="translate(424.477 4783.615)"/>
    <path id="Trazado_243549" data-name="Trazado 243549" d="M418.086,243.519a3.985,3.985,0,0,1-3.031-1.191,4.166,4.166,0,0,1-1.131-2.987v-.3a4.854,4.854,0,0,1,1.029-3.2,4.115,4.115,0,0,1,5.683-.187,3.963,3.963,0,0,1,.993,2.843V239.9h-4.91l-.015.048a1.751,1.751,0,0,0,.539,1.084,1.692,1.692,0,0,0,1.207.425,4.991,4.991,0,0,0,1.219-.119,8.964,8.964,0,0,0,1.157-.413l.635,1.636a4.87,4.87,0,0,1-1.459.687,6.479,6.479,0,0,1-1.918.275m-.191-6.854a.993.993,0,0,0-.87.413,2.261,2.261,0,0,0-.353,1.1l.024.04h2.311v-.207a1.6,1.6,0,0,0-.269-1,1,1,0,0,0-.842-.35" transform="translate(423.799 4783.404)"/>
    <path id="Trazado_243550" data-name="Trazado 243550" d="M428.14,240.937a.705.705,0,0,0-.361-.568,3.922,3.922,0,0,0-1.314-.448,5.155,5.155,0,0,1-2.264-.914,2.062,2.062,0,0,1-.763-1.692,2.414,2.414,0,0,1,.953-1.926,3.919,3.919,0,0,1,2.581-.791,4.439,4.439,0,0,1,2.732.766,2.256,2.256,0,0,1,.97,1.982l-.016.048h-2.605a1.05,1.05,0,0,0-.258-.77,1.122,1.122,0,0,0-.83-.262,1.09,1.09,0,0,0-.707.23.722.722,0,0,0-.286.588.7.7,0,0,0,.329.579,3.73,3.73,0,0,0,1.331.429,5.374,5.374,0,0,1,2.331.924,2.122,2.122,0,0,1,.758,1.744,2.272,2.272,0,0,1-1.028,1.909,4.5,4.5,0,0,1-2.72.751,4.081,4.081,0,0,1-2.776-.889,2.447,2.447,0,0,1-.972-1.985l.015-.048h2.431a1.076,1.076,0,0,0,.369.882,1.63,1.63,0,0,0,1,.269,1.341,1.341,0,0,0,.818-.21.708.708,0,0,0,.278-.6" transform="translate(422.903 4783.404)"/>
    <path id="Trazado_247080" data-name="Trazado 247080" d="M0,0H673.113V289.05H0Z" transform="translate(463.667 4806)" fill="none"/>
  </g>
</svg>
