<svg id="Grupo_180901" data-name="Grupo 180901" xmlns="http://www.w3.org/2000/svg" xmlns:xlink="http://www.w3.org/1999/xlink" width="109" height="109" viewBox="0 0 109 109">
  <defs>
    <clipPath id="clip-path">
      <rect id="Rectángulo_103683" data-name="Rectángulo 103683" width="109" height="109" fill="none"/>
    </clipPath>
  </defs>
  <g id="Grupo_180901-2" data-name="Grupo 180901" clip-path="url(#clip-path)">
    <path id="Trazado_245487" data-name="Trazado 245487" d="M54.5,109h0A54.5,54.5,0,1,1,109,54.5,54.5,54.5,0,0,1,54.5,109" fill="#8c6df2"/>
    <path id="Trazado_245488" data-name="Trazado 245488" d="M84.683,65.441a2.5,2.5,0,0,1-.647-1.754c.016-11.1.014-22.4.013-33.315v-3.35a5.656,5.656,0,0,0-3.266-5.466,6.443,6.443,0,0,0-1.217-.411c-.188-.05-.38-.1-.57-.159H34.1c-.284.114-.578.217-.863.317a8.223,8.223,0,0,0-1.85.823,5.388,5.388,0,0,0-2.35,4.691c-.007.423-.006.853,0,1.308,0,.222,0,.452,0,.695v.265h-.264c-.3,0-.6-.008-.884-.018a12.331,12.331,0,0,0-1.76.032,5.545,5.545,0,0,0-5.05,4.754.909.909,0,0,1-.081.227.1.1,0,0,1-.009.021v1.214c.115.284.218.579.319.863a8.229,8.229,0,0,0,.822,1.851,5.392,5.392,0,0,0,4.689,2.349c.428.007.85.005,1.3,0,.206,0,.412,0,.624,0H29v8.446h-.264l-.6,0c-.432,0-.88-.007-1.32,0a5.621,5.621,0,0,0-5.262,3.264,6.536,6.536,0,0,0-.411,1.219c-.05.186-.1.379-.16.568v1.228c.115.284.218.578.319.863a8.229,8.229,0,0,0,.822,1.851,5.386,5.386,0,0,0,4.689,2.348c.428.008.85.005,1.3,0H29v8.444h-.264l-.6,0c-.432,0-.88-.006-1.32,0a5.62,5.62,0,0,0-5.262,3.264,6.56,6.56,0,0,0-.411,1.219c-.05.186-.1.379-.16.568V74.9c.115.285.218.579.32.864a8.222,8.222,0,0,0,.825,1.855,5.372,5.372,0,0,0,4.637,2.344c.426.009.857.007,1.313,0,.221,0,.45,0,.689,0h.264v.265c0,.2,0,.4,0,.6,0,.427,0,.831,0,1.24a5.757,5.757,0,0,0,4.274,5.726A6.192,6.192,0,0,0,34.989,88c12.489.01,25.807.021,39.238,0a13.753,13.753,0,0,0,8.7-3.012,13.492,13.492,0,0,0,4.761-7.847,13.122,13.122,0,0,0-3.009-11.705m-56-28.492-.636,0-.583,0c-.255,0-.511,0-.766-.009a2.237,2.237,0,1,1-.027-4.474c1.289-.023,2.607-.023,4.032,0a2.239,2.239,0,1,1-.035,4.476c-.459.011-.923.008-1.373.006-.2,0-.408,0-.612,0m-.042,19.79-.608,0c-.451,0-.919.008-1.38-.006a2.236,2.236,0,0,1-.005-4.471c1.335-.028,2.713-.028,4.1,0a2.235,2.235,0,0,1,.013,4.47c-.271.01-.543.012-.813.012q-.331,0-.654,0l-.652,0m2.113,19.786c-.476.015-.956.011-1.422.008-.211,0-.421,0-.631,0-.106,0-.212,0-.318,0s-.211,0-.316,0q-.313,0-.632,0c-.263,0-.526,0-.789-.011a2.236,2.236,0,0,1,.008-4.471c1.37-.027,2.75-.027,4.1,0a2.236,2.236,0,0,1,0,4.471m33.215,7.791H35.147a2.151,2.151,0,0,1-2.422-2.438,1.162,1.162,0,0,0,0-.132,2.275,2.275,0,0,1,1.327-2.627,5.235,5.235,0,0,0,2.593-5.265,5.625,5.625,0,0,0-3.324-4.873A.906.906,0,0,1,32.713,68c.028-2.462.02-4.925,0-7.388a.684.684,0,0,1,.465-.733,5.907,5.907,0,0,0,0-10.764.685.685,0,0,1-.469-.731q.024-3.79,0-7.584a.689.689,0,0,1,.489-.719,5.907,5.907,0,0,0,.023-10.736.712.712,0,0,1-.509-.773c.03-.637-.008-1.276.015-1.913A1.978,1.978,0,0,1,34.7,24.682c.175-.008.353,0,.528,0H77.837c1.823,0,2.518.688,2.518,2.5V61.728A13.893,13.893,0,0,0,61.208,78.463a14.44,14.44,0,0,0,3.551,5.853Zm10.457.262h-.038a10.242,10.242,0,0,1-10.127-10.3A10.192,10.192,0,0,1,74.414,64.13h.035A10.19,10.19,0,0,1,84.575,74.338a10.237,10.237,0,0,1-10.15,10.24" fill="#fff"/>
    <path id="Trazado_245489" data-name="Trazado 245489" d="M74.19,36.952c-1.89,0-3.8,0-5.723,0-1.892,0-3.792,0-5.687,0a2.063,2.063,0,0,0-1.494.555,1.608,1.608,0,0,0-.452,1.183,1.748,1.748,0,0,0,1.938,1.688c1.324,0,2.673,0,3.975,0h3.411q2.012,0,4.022,0a2.076,2.076,0,0,0,1.5-.558,1.607,1.607,0,0,0,.45-1.18,1.746,1.746,0,0,0-1.937-1.688m-.039,15.833c-1.89,0-3.786,0-5.671,0q-2.858,0-5.673,0a1.73,1.73,0,1,0,0,3.426q1.985,0,3.967,0h3.4q1.987,0,3.975,0a1.73,1.73,0,1,0,0-3.426m0,0c-1.89,0-3.786,0-5.671,0q-2.858,0-5.673,0a1.73,1.73,0,1,0,0,3.426q1.985,0,3.967,0h3.4q1.987,0,3.975,0a1.73,1.73,0,1,0,0-3.426m0,0c-1.89,0-3.786,0-5.671,0q-2.858,0-5.673,0a1.73,1.73,0,1,0,0,3.426q1.985,0,3.967,0h3.4q1.987,0,3.975,0a1.73,1.73,0,1,0,0-3.426M56.146,50.123a1.678,1.678,0,0,0-1.175-1.229,1.8,1.8,0,0,0-1.729.487c-1.039,1-2.076,2.046-3.078,3.056q-.583.588-1.167,1.174c-.5.5-.989.994-1.51,1.52l-.939.948-.187-.191c-.333-.34-.656-.675-.973-1-.719-.746-1.4-1.449-2.107-2.134a1.777,1.777,0,0,0-1.234-.525,1.712,1.712,0,0,0-1.192,2.91c1.435,1.483,2.954,3,4.513,4.516a1.619,1.619,0,0,0,2.409.01c2.593-2.558,5.124-5.1,7.923-7.918a1.586,1.586,0,0,0,.446-1.622m0,0a1.678,1.678,0,0,0-1.175-1.229,1.8,1.8,0,0,0-1.729.487c-1.039,1-2.076,2.046-3.078,3.056q-.583.588-1.167,1.174c-.5.5-.989.994-1.51,1.52l-.939.948-.187-.191c-.333-.34-.656-.675-.973-1-.719-.746-1.4-1.449-2.107-2.134a1.777,1.777,0,0,0-1.234-.525,1.712,1.712,0,0,0-1.192,2.91c1.435,1.483,2.954,3,4.513,4.516a1.619,1.619,0,0,0,2.409.01c2.593-2.558,5.124-5.1,7.923-7.918a1.586,1.586,0,0,0,.446-1.622m0,0a1.678,1.678,0,0,0-1.175-1.229,1.8,1.8,0,0,0-1.729.487c-1.039,1-2.076,2.046-3.078,3.056q-.583.588-1.167,1.174c-.5.5-.989.994-1.51,1.52l-.939.948-.187-.191c-.333-.34-.656-.675-.973-1-.719-.746-1.4-1.449-2.107-2.134a1.777,1.777,0,0,0-1.234-.525,1.712,1.712,0,0,0-1.192,2.91c1.435,1.483,2.954,3,4.513,4.516a1.619,1.619,0,0,0,2.409.01c2.593-2.558,5.124-5.1,7.923-7.918a1.586,1.586,0,0,0,.446-1.622m0-15.838a1.667,1.667,0,0,0-1.172-1.221,1.856,1.856,0,0,0-1.782.533c-1.349,1.326-2.708,2.688-4.024,4.005q-.926.93-1.854,1.858c-.115.113-.233.224-.361.343-.06.057-.123.114-.187.176l-.179.169L46.4,39.98l-.174-.157c-.116-.106-.227-.206-.333-.312-.287-.284-.571-.571-.856-.858-.571-.575-1.162-1.171-1.76-1.737a1.806,1.806,0,0,0-1.238-.517,1.707,1.707,0,0,0-1.184,2.909c1.466,1.513,2.985,3.032,4.513,4.515a1.619,1.619,0,0,0,2.409,0c2.669-2.632,5.27-5.247,7.923-7.919a1.577,1.577,0,0,0,.441-1.622m-.426,30.9A1.659,1.659,0,0,0,53.489,65a5.262,5.262,0,0,0-.554.505l-.048.049c-1.562,1.564-3.122,3.129-4.722,4.734l-1.6,1.6-.187-.189c-.294-.3-.581-.593-.864-.883-.706-.726-1.373-1.411-2.076-2.068a2.671,2.671,0,0,0-1.168-.646,1.379,1.379,0,0,0-.305-.035A1.634,1.634,0,0,0,40.545,69a1.673,1.673,0,0,0,.332,2c1.067,1.092,2.167,2.188,3.231,3.246l.955.952c1.09,1.09,1.939,1.09,3.027,0q3.663-3.655,7.317-7.317a4.754,4.754,0,0,0,.459-.507,1.674,1.674,0,0,0-.147-2.191M74.19,36.952c-1.89,0-3.8,0-5.723,0-1.892,0-3.792,0-5.687,0a2.063,2.063,0,0,0-1.494.555,1.608,1.608,0,0,0-.452,1.183,1.748,1.748,0,0,0,1.938,1.688c1.324,0,2.673,0,3.975,0h3.411q2.012,0,4.022,0a2.076,2.076,0,0,0,1.5-.558,1.607,1.607,0,0,0,.45-1.18,1.746,1.746,0,0,0-1.937-1.688m-.039,15.833c-1.89,0-3.786,0-5.671,0q-2.858,0-5.673,0a1.73,1.73,0,1,0,0,3.426q1.985,0,3.967,0h3.4q1.987,0,3.975,0a1.73,1.73,0,1,0,0-3.426m0,0c-1.89,0-3.786,0-5.671,0q-2.858,0-5.673,0a1.73,1.73,0,1,0,0,3.426q1.985,0,3.967,0h3.4q1.987,0,3.975,0a1.73,1.73,0,1,0,0-3.426m0,0c-1.89,0-3.786,0-5.671,0q-2.858,0-5.673,0a1.73,1.73,0,1,0,0,3.426q1.985,0,3.967,0h3.4q1.987,0,3.975,0a1.73,1.73,0,1,0,0-3.426M56.146,50.123a1.678,1.678,0,0,0-1.175-1.229,1.8,1.8,0,0,0-1.729.487c-1.039,1-2.076,2.046-3.078,3.056q-.583.588-1.167,1.174c-.5.5-.989.994-1.51,1.52l-.939.948-.187-.191c-.333-.34-.656-.675-.973-1-.719-.746-1.4-1.449-2.107-2.134a1.777,1.777,0,0,0-1.234-.525,1.712,1.712,0,0,0-1.192,2.91c1.435,1.483,2.954,3,4.513,4.516a1.619,1.619,0,0,0,2.409.01c2.593-2.558,5.124-5.1,7.923-7.918a1.586,1.586,0,0,0,.446-1.622m0,0a1.678,1.678,0,0,0-1.175-1.229,1.8,1.8,0,0,0-1.729.487c-1.039,1-2.076,2.046-3.078,3.056q-.583.588-1.167,1.174c-.5.5-.989.994-1.51,1.52l-.939.948-.187-.191c-.333-.34-.656-.675-.973-1-.719-.746-1.4-1.449-2.107-2.134a1.777,1.777,0,0,0-1.234-.525,1.712,1.712,0,0,0-1.192,2.91c1.435,1.483,2.954,3,4.513,4.516a1.619,1.619,0,0,0,2.409.01c2.593-2.558,5.124-5.1,7.923-7.918a1.586,1.586,0,0,0,.446-1.622m0,0a1.678,1.678,0,0,0-1.175-1.229,1.8,1.8,0,0,0-1.729.487c-1.039,1-2.076,2.046-3.078,3.056q-.583.588-1.167,1.174c-.5.5-.989.994-1.51,1.52l-.939.948-.187-.191c-.333-.34-.656-.675-.973-1-.719-.746-1.4-1.449-2.107-2.134a1.777,1.777,0,0,0-1.234-.525,1.712,1.712,0,0,0-1.192,2.91c1.435,1.483,2.954,3,4.513,4.516a1.619,1.619,0,0,0,2.409.01c2.593-2.558,5.124-5.1,7.923-7.918a1.586,1.586,0,0,0,.446-1.622m0-15.838a1.667,1.667,0,0,0-1.172-1.221,1.856,1.856,0,0,0-1.782.533c-1.349,1.326-2.708,2.688-4.024,4.005q-.926.93-1.854,1.858c-.115.113-.233.224-.361.343-.06.057-.123.114-.187.176l-.179.169L46.4,39.98l-.174-.157c-.116-.106-.227-.206-.333-.312-.287-.284-.571-.571-.856-.858-.571-.575-1.162-1.171-1.76-1.737a1.806,1.806,0,0,0-1.238-.517,1.707,1.707,0,0,0-1.184,2.909c1.466,1.513,2.985,3.032,4.513,4.515a1.619,1.619,0,0,0,2.409,0c2.669-2.632,5.27-5.247,7.923-7.919a1.577,1.577,0,0,0,.441-1.622m-.426,30.9A1.659,1.659,0,0,0,53.489,65a5.262,5.262,0,0,0-.554.505l-.048.049c-1.562,1.564-3.122,3.129-4.722,4.734l-1.6,1.6-.187-.189c-.294-.3-.581-.593-.864-.883-.706-.726-1.373-1.411-2.076-2.068a2.671,2.671,0,0,0-1.168-.646,1.379,1.379,0,0,0-.305-.035A1.634,1.634,0,0,0,40.545,69a1.673,1.673,0,0,0,.332,2c1.067,1.092,2.167,2.188,3.231,3.246l.955.952c1.09,1.09,1.939,1.09,3.027,0q3.663-3.655,7.317-7.317a4.754,4.754,0,0,0,.459-.507,1.674,1.674,0,0,0-.147-2.191M74.19,36.952c-1.89,0-3.8,0-5.723,0-1.892,0-3.792,0-5.687,0a2.063,2.063,0,0,0-1.494.555,1.608,1.608,0,0,0-.452,1.183,1.748,1.748,0,0,0,1.938,1.688c1.324,0,2.673,0,3.975,0h3.411q2.012,0,4.022,0a2.076,2.076,0,0,0,1.5-.558,1.607,1.607,0,0,0,.45-1.18,1.746,1.746,0,0,0-1.937-1.688m-.039,15.833c-1.89,0-3.786,0-5.671,0q-2.858,0-5.673,0a1.73,1.73,0,1,0,0,3.426q1.985,0,3.967,0h3.4q1.987,0,3.975,0a1.73,1.73,0,1,0,0-3.426m0,0c-1.89,0-3.786,0-5.671,0q-2.858,0-5.673,0a1.73,1.73,0,1,0,0,3.426q1.985,0,3.967,0h3.4q1.987,0,3.975,0a1.73,1.73,0,1,0,0-3.426m0,0c-1.89,0-3.786,0-5.671,0q-2.858,0-5.673,0a1.73,1.73,0,1,0,0,3.426q1.985,0,3.967,0h3.4q1.987,0,3.975,0a1.73,1.73,0,1,0,0-3.426M56.146,50.123a1.678,1.678,0,0,0-1.175-1.229,1.8,1.8,0,0,0-1.729.487c-1.039,1-2.076,2.046-3.078,3.056q-.583.588-1.167,1.174c-.5.5-.989.994-1.51,1.52l-.939.948-.187-.191c-.333-.34-.656-.675-.973-1-.719-.746-1.4-1.449-2.107-2.134a1.777,1.777,0,0,0-1.234-.525,1.712,1.712,0,0,0-1.192,2.91c1.435,1.483,2.954,3,4.513,4.516a1.619,1.619,0,0,0,2.409.01c2.593-2.558,5.124-5.1,7.923-7.918a1.586,1.586,0,0,0,.446-1.622m0,0a1.678,1.678,0,0,0-1.175-1.229,1.8,1.8,0,0,0-1.729.487c-1.039,1-2.076,2.046-3.078,3.056q-.583.588-1.167,1.174c-.5.5-.989.994-1.51,1.52l-.939.948-.187-.191c-.333-.34-.656-.675-.973-1-.719-.746-1.4-1.449-2.107-2.134a1.777,1.777,0,0,0-1.234-.525,1.712,1.712,0,0,0-1.192,2.91c1.435,1.483,2.954,3,4.513,4.516a1.619,1.619,0,0,0,2.409.01c2.593-2.558,5.124-5.1,7.923-7.918a1.586,1.586,0,0,0,.446-1.622m0,0a1.678,1.678,0,0,0-1.175-1.229,1.8,1.8,0,0,0-1.729.487c-1.039,1-2.076,2.046-3.078,3.056q-.583.588-1.167,1.174c-.5.5-.989.994-1.51,1.52l-.939.948-.187-.191c-.333-.34-.656-.675-.973-1-.719-.746-1.4-1.449-2.107-2.134a1.777,1.777,0,0,0-1.234-.525,1.712,1.712,0,0,0-1.192,2.91c1.435,1.483,2.954,3,4.513,4.516a1.619,1.619,0,0,0,2.409.01c2.593-2.558,5.124-5.1,7.923-7.918a1.586,1.586,0,0,0,.446-1.622m0-15.838a1.667,1.667,0,0,0-1.172-1.221,1.856,1.856,0,0,0-1.782.533c-1.349,1.326-2.708,2.688-4.024,4.005q-.926.93-1.854,1.858c-.115.113-.233.224-.361.343-.06.057-.123.114-.187.176l-.179.169L46.4,39.98l-.174-.157c-.116-.106-.227-.206-.333-.312-.287-.284-.571-.571-.856-.858-.571-.575-1.162-1.171-1.76-1.737a1.806,1.806,0,0,0-1.238-.517,1.707,1.707,0,0,0-1.184,2.909c1.466,1.513,2.985,3.032,4.513,4.515a1.619,1.619,0,0,0,2.409,0c2.669-2.632,5.27-5.247,7.923-7.919a1.577,1.577,0,0,0,.441-1.622m-.426,30.9A1.659,1.659,0,0,0,53.489,65a5.262,5.262,0,0,0-.554.505l-.048.049c-1.562,1.564-3.122,3.129-4.722,4.734l-1.6,1.6-.187-.189c-.294-.3-.581-.593-.864-.883-.706-.726-1.373-1.411-2.076-2.068a2.671,2.671,0,0,0-1.168-.646,1.379,1.379,0,0,0-.305-.035A1.634,1.634,0,0,0,40.545,69a1.673,1.673,0,0,0,.332,2c1.067,1.092,2.167,2.188,3.231,3.246l.955.952c1.09,1.09,1.939,1.09,3.027,0q3.663-3.655,7.317-7.317a4.754,4.754,0,0,0,.459-.507,1.674,1.674,0,0,0-.147-2.191M74.19,36.952c-1.89,0-3.8,0-5.723,0-1.892,0-3.792,0-5.687,0a2.063,2.063,0,0,0-1.494.555,1.608,1.608,0,0,0-.452,1.183,1.748,1.748,0,0,0,1.938,1.688c1.324,0,2.673,0,3.975,0h3.411q2.012,0,4.022,0a2.076,2.076,0,0,0,1.5-.558,1.607,1.607,0,0,0,.45-1.18,1.746,1.746,0,0,0-1.937-1.688m-.039,15.833c-1.89,0-3.786,0-5.671,0q-2.858,0-5.673,0a1.73,1.73,0,1,0,0,3.426q1.985,0,3.967,0h3.4q1.987,0,3.975,0a1.73,1.73,0,1,0,0-3.426m0,0c-1.89,0-3.786,0-5.671,0q-2.858,0-5.673,0a1.73,1.73,0,1,0,0,3.426q1.985,0,3.967,0h3.4q1.987,0,3.975,0a1.73,1.73,0,1,0,0-3.426m0,0c-1.89,0-3.786,0-5.671,0q-2.858,0-5.673,0a1.73,1.73,0,1,0,0,3.426q1.985,0,3.967,0h3.4q1.987,0,3.975,0a1.73,1.73,0,1,0,0-3.426M56.146,50.123a1.678,1.678,0,0,0-1.175-1.229,1.8,1.8,0,0,0-1.729.487c-1.039,1-2.076,2.046-3.078,3.056q-.583.588-1.167,1.174c-.5.5-.989.994-1.51,1.52l-.939.948-.187-.191c-.333-.34-.656-.675-.973-1-.719-.746-1.4-1.449-2.107-2.134a1.777,1.777,0,0,0-1.234-.525,1.712,1.712,0,0,0-1.192,2.91c1.435,1.483,2.954,3,4.513,4.516a1.619,1.619,0,0,0,2.409.01c2.593-2.558,5.124-5.1,7.923-7.918a1.586,1.586,0,0,0,.446-1.622m0,0a1.678,1.678,0,0,0-1.175-1.229,1.8,1.8,0,0,0-1.729.487c-1.039,1-2.076,2.046-3.078,3.056q-.583.588-1.167,1.174c-.5.5-.989.994-1.51,1.52l-.939.948-.187-.191c-.333-.34-.656-.675-.973-1-.719-.746-1.4-1.449-2.107-2.134a1.777,1.777,0,0,0-1.234-.525,1.712,1.712,0,0,0-1.192,2.91c1.435,1.483,2.954,3,4.513,4.516a1.619,1.619,0,0,0,2.409.01c2.593-2.558,5.124-5.1,7.923-7.918a1.586,1.586,0,0,0,.446-1.622m0,0a1.678,1.678,0,0,0-1.175-1.229,1.8,1.8,0,0,0-1.729.487c-1.039,1-2.076,2.046-3.078,3.056q-.583.588-1.167,1.174c-.5.5-.989.994-1.51,1.52l-.939.948-.187-.191c-.333-.34-.656-.675-.973-1-.719-.746-1.4-1.449-2.107-2.134a1.777,1.777,0,0,0-1.234-.525,1.712,1.712,0,0,0-1.192,2.91c1.435,1.483,2.954,3,4.513,4.516a1.619,1.619,0,0,0,2.409.01c2.593-2.558,5.124-5.1,7.923-7.918a1.586,1.586,0,0,0,.446-1.622m0-15.838a1.667,1.667,0,0,0-1.172-1.221,1.856,1.856,0,0,0-1.782.533c-1.349,1.326-2.708,2.688-4.024,4.005q-.926.93-1.854,1.858c-.115.113-.233.224-.361.343-.06.057-.123.114-.187.176l-.179.169L46.4,39.98l-.174-.157c-.116-.106-.227-.206-.333-.312-.287-.284-.571-.571-.856-.858-.571-.575-1.162-1.171-1.76-1.737a1.806,1.806,0,0,0-1.238-.517,1.707,1.707,0,0,0-1.184,2.909c1.466,1.513,2.985,3.032,4.513,4.515a1.619,1.619,0,0,0,2.409,0c2.669-2.632,5.27-5.247,7.923-7.919a1.577,1.577,0,0,0,.441-1.622m-.426,30.9A1.659,1.659,0,0,0,53.489,65a5.262,5.262,0,0,0-.554.505l-.048.049c-1.562,1.564-3.122,3.129-4.722,4.734l-1.6,1.6-.187-.189c-.294-.3-.581-.593-.864-.883-.706-.726-1.373-1.411-2.076-2.068a2.671,2.671,0,0,0-1.168-.646,1.379,1.379,0,0,0-.305-.035A1.634,1.634,0,0,0,40.545,69a1.673,1.673,0,0,0,.332,2c1.067,1.092,2.167,2.188,3.231,3.246l.955.952c1.09,1.09,1.939,1.09,3.027,0q3.663-3.655,7.317-7.317a4.754,4.754,0,0,0,.459-.507,1.674,1.674,0,0,0-.147-2.191M74.19,36.952c-1.89,0-3.8,0-5.723,0-1.892,0-3.792,0-5.687,0a2.063,2.063,0,0,0-1.494.555,1.608,1.608,0,0,0-.452,1.183,1.748,1.748,0,0,0,1.938,1.688c1.324,0,2.673,0,3.975,0h3.411q2.012,0,4.022,0a2.076,2.076,0,0,0,1.5-.558,1.607,1.607,0,0,0,.45-1.18,1.746,1.746,0,0,0-1.937-1.688m-.039,15.833c-1.89,0-3.786,0-5.671,0q-2.858,0-5.673,0a1.73,1.73,0,1,0,0,3.426q1.985,0,3.967,0h3.4q1.987,0,3.975,0a1.73,1.73,0,1,0,0-3.426m0,0c-1.89,0-3.786,0-5.671,0q-2.858,0-5.673,0a1.73,1.73,0,1,0,0,3.426q1.985,0,3.967,0h3.4q1.987,0,3.975,0a1.73,1.73,0,1,0,0-3.426m0,0c-1.89,0-3.786,0-5.671,0q-2.858,0-5.673,0a1.73,1.73,0,1,0,0,3.426q1.985,0,3.967,0h3.4q1.987,0,3.975,0a1.73,1.73,0,1,0,0-3.426M56.146,50.123a1.678,1.678,0,0,0-1.175-1.229,1.8,1.8,0,0,0-1.729.487c-1.039,1-2.076,2.046-3.078,3.056q-.583.588-1.167,1.174c-.5.5-.989.994-1.51,1.52l-.939.948-.187-.191c-.333-.34-.656-.675-.973-1-.719-.746-1.4-1.449-2.107-2.134a1.777,1.777,0,0,0-1.234-.525,1.712,1.712,0,0,0-1.192,2.91c1.435,1.483,2.954,3,4.513,4.516a1.619,1.619,0,0,0,2.409.01c2.593-2.558,5.124-5.1,7.923-7.918a1.586,1.586,0,0,0,.446-1.622m0,0a1.678,1.678,0,0,0-1.175-1.229,1.8,1.8,0,0,0-1.729.487c-1.039,1-2.076,2.046-3.078,3.056q-.583.588-1.167,1.174c-.5.5-.989.994-1.51,1.52l-.939.948-.187-.191c-.333-.34-.656-.675-.973-1-.719-.746-1.4-1.449-2.107-2.134a1.777,1.777,0,0,0-1.234-.525,1.712,1.712,0,0,0-1.192,2.91c1.435,1.483,2.954,3,4.513,4.516a1.619,1.619,0,0,0,2.409.01c2.593-2.558,5.124-5.1,7.923-7.918a1.586,1.586,0,0,0,.446-1.622m0,0a1.678,1.678,0,0,0-1.175-1.229,1.8,1.8,0,0,0-1.729.487c-1.039,1-2.076,2.046-3.078,3.056q-.583.588-1.167,1.174c-.5.5-.989.994-1.51,1.52l-.939.948-.187-.191c-.333-.34-.656-.675-.973-1-.719-.746-1.4-1.449-2.107-2.134a1.777,1.777,0,0,0-1.234-.525,1.712,1.712,0,0,0-1.192,2.91c1.435,1.483,2.954,3,4.513,4.516a1.619,1.619,0,0,0,2.409.01c2.593-2.558,5.124-5.1,7.923-7.918a1.586,1.586,0,0,0,.446-1.622m0-15.838a1.667,1.667,0,0,0-1.172-1.221,1.856,1.856,0,0,0-1.782.533c-1.349,1.326-2.708,2.688-4.024,4.005q-.926.93-1.854,1.858c-.115.113-.233.224-.361.343-.06.057-.123.114-.187.176l-.179.169L46.4,39.98l-.174-.157c-.116-.106-.227-.206-.333-.312-.287-.284-.571-.571-.856-.858-.571-.575-1.162-1.171-1.76-1.737a1.806,1.806,0,0,0-1.238-.517,1.707,1.707,0,0,0-1.184,2.909c1.466,1.513,2.985,3.032,4.513,4.515a1.619,1.619,0,0,0,2.409,0c2.669-2.632,5.27-5.247,7.923-7.919a1.577,1.577,0,0,0,.441-1.622m-.426,30.9A1.659,1.659,0,0,0,53.489,65a5.262,5.262,0,0,0-.554.505l-.048.049c-1.562,1.564-3.122,3.129-4.722,4.734l-1.6,1.6-.187-.189c-.294-.3-.581-.593-.864-.883-.706-.726-1.373-1.411-2.076-2.068a2.671,2.671,0,0,0-1.168-.646,1.379,1.379,0,0,0-.305-.035A1.634,1.634,0,0,0,40.545,69a1.673,1.673,0,0,0,.332,2c1.067,1.092,2.167,2.188,3.231,3.246l.955.952c1.09,1.09,1.939,1.09,3.027,0q3.663-3.655,7.317-7.317a4.754,4.754,0,0,0,.459-.507,1.674,1.674,0,0,0-.147-2.191" fill="#fff"/>
    <path id="Trazado_245490" data-name="Trazado 245490" d="M55.705,35.907c-2.653,2.672-5.255,5.287-7.924,7.919a1.62,1.62,0,0,1-2.409,0c-1.528-1.483-3.047-3-4.513-4.516A1.706,1.706,0,0,1,42.044,36.4a1.806,1.806,0,0,1,1.237.517c.6.565,1.19,1.162,1.761,1.737.284.287.568.573.855.858.106.1.217.206.333.312.056.05.114.1.175.157l.181.168.18-.169c.063-.062.127-.119.186-.176.128-.119.246-.23.361-.344q.93-.928,1.855-1.857c1.315-1.317,2.674-2.68,4.024-4.006a1.859,1.859,0,0,1,1.782-.533,1.666,1.666,0,0,1,1.171,1.222,1.58,1.58,0,0,1-.44,1.622" fill="#fff"/>
    <path id="Trazado_245491" data-name="Trazado 245491" d="M55.7,51.744c-2.8,2.82-5.33,5.361-7.924,7.919a1.62,1.62,0,0,1-2.408-.01c-1.559-1.514-3.078-3.034-4.514-4.517a1.712,1.712,0,0,1,1.193-2.91,1.781,1.781,0,0,1,1.233.525c.709.686,1.388,1.388,2.107,2.134.318.329.64.663.973,1l.188.191.939-.947c.52-.527,1.014-1.026,1.509-1.521.39-.389.779-.783,1.168-1.173,1-1.011,2.038-2.054,3.077-3.057a1.8,1.8,0,0,1,1.729-.486,1.675,1.675,0,0,1,1.176,1.227,1.587,1.587,0,0,1-.446,1.622" fill="#fff"/>
    <path id="Trazado_245492" data-name="Trazado 245492" d="M55.866,67.375a4.764,4.764,0,0,1-.459.508q-3.656,3.66-7.317,7.317c-1.088,1.085-1.936,1.085-3.027,0q-.476-.477-.955-.952c-1.064-1.059-2.164-2.155-3.23-3.247a1.67,1.67,0,0,1-.332-2,1.631,1.631,0,0,1,1.422-.924,1.449,1.449,0,0,1,.306.034,2.693,2.693,0,0,1,1.167.646c.7.658,1.371,1.342,2.077,2.068.283.291.569.584.863.883l.188.189,1.6-1.6c1.6-1.605,3.159-3.17,4.722-4.734l.047-.049A5.373,5.373,0,0,1,53.489,65a1.7,1.7,0,0,1,2.377,2.372" fill="#fff"/>
    <path id="Trazado_245493" data-name="Trazado 245493" d="M76.128,38.64a1.608,1.608,0,0,1-.451,1.181,2.077,2.077,0,0,1-1.5.557q-2.012.006-4.023,0H66.747c-1.3,0-2.65,0-3.975,0a1.749,1.749,0,0,1-1.938-1.688,1.616,1.616,0,0,1,.452-1.183,2.066,2.066,0,0,1,1.494-.555c1.9,0,3.8,0,5.687,0,1.921,0,3.834,0,5.723,0a1.747,1.747,0,0,1,1.938,1.688" fill="#fff"/>
    <path id="Trazado_245494" data-name="Trazado 245494" d="M76.128,54.5a1.745,1.745,0,0,1-1.975,1.715c-1.325,0-2.651,0-3.975,0h-3.4q-1.983,0-3.967,0a1.731,1.731,0,1,1,0-3.427c1.873,0,3.768,0,5.672,0,1.886,0,3.781,0,5.672,0A1.741,1.741,0,0,1,76.128,54.5" fill="#fff"/>
    <path id="Trazado_245495" data-name="Trazado 245495" d="M80.086,74.3A1.715,1.715,0,0,1,78.293,76c-1.363.019-2.61.019-3.813,0a1.7,1.7,0,0,1-1.771-1.785c-.019-1.277-.019-2.559,0-3.813a1.711,1.711,0,1,1,3.42,0c.01.411.007.826,0,1.265,0,.208,0,.422,0,.644v.265H76.4c.22,0,.431,0,.635,0,.426,0,.829,0,1.225,0a1.735,1.735,0,0,1,1.83,1.725" fill="#fff"/>
  </g>
</svg>
