<svg id="Grupo_180902" data-name="Grupo 180902" xmlns="http://www.w3.org/2000/svg" xmlns:xlink="http://www.w3.org/1999/xlink" width="109" height="109" viewBox="0 0 109 109">
  <defs>
    <clipPath id="clip-path">
      <rect id="Rectángulo_103684" data-name="Rectángulo 103684" width="109" height="109" fill="none"/>
    </clipPath>
  </defs>
  <g id="Grupo_180902-2" data-name="Grupo 180902" clip-path="url(#clip-path)">
    <path id="Trazado_245496" data-name="Trazado 245496" d="M54.5,109h0A54.5,54.5,0,1,1,109,54.5,54.5,54.5,0,0,1,54.5,109" fill="#5038a1"/>
    <path id="Trazado_245497" data-name="Trazado 245497" d="M26.666,87.867a1.941,1.941,0,0,1-.973-1.942c.036-2.514,0-5.028.016-7.541.039-6.429,2.825-11.261,8.459-14.39a13.925,13.925,0,0,1,6.851-1.63c1.273,0,2.546,0,3.882,0,0-1.181.012-2.295-.014-3.408a.842.842,0,0,0-.294-.5,15.777,15.777,0,0,1-4.439-6.962c-.109-.343-.237-.514-.65-.525a5.483,5.483,0,0,1-4.3-8.962c.041-.053.07-.116,0,0a16.723,16.723,0,0,1-1.177-2.754A3.84,3.84,0,0,1,36.2,35.008a.989.989,0,0,0,.608-.876A14.855,14.855,0,0,1,46.872,21.654a1.492,1.492,0,0,0,1.091-1.024,4.14,4.14,0,0,1,4.207-2.965q2.331,0,4.662,0a4.2,4.2,0,0,1,4.257,3.094,1.116,1.116,0,0,0,.781.811A14.908,14.908,0,0,1,72.218,34.2a1.036,1.036,0,0,0,.415.687,4.1,4.1,0,0,1,1.227,6.664c-.058.068-.116.137-.09.1a16.177,16.177,0,0,1,1.154,2.812A5.4,5.4,0,0,1,69.7,50.961a.813.813,0,0,0-.9.666,15.454,15.454,0,0,1-4.276,6.75,1.479,1.479,0,0,0-.405.922c-.051,1-.019,2-.019,3.065,1.292,0,2.519.021,3.746,0a13.969,13.969,0,0,1,6.392,1.3A15.81,15.81,0,0,1,83.3,78.041c-.007,2.628-.024,5.256.011,7.884a1.943,1.943,0,0,1-.973,1.942ZM42.16,42.783c0,1.238.013,2.4,0,3.563a13.309,13.309,0,0,0,3.4,9.208,11.9,11.9,0,0,0,13.1,3.29,12.807,12.807,0,0,0,6.751-6.111c1.694-3.15,1.467-6.55,1.4-9.95ZM36.725,65.8V85.09h2.693c0-.987,0-1.941,0-2.894a1.458,1.458,0,0,1,.763-1.428,1.365,1.365,0,0,1,1.973,1.325c.029,1,.006,1.993.006,2.978h10.97c0-3.982,0-7.912-.014-11.841a1.072,1.072,0,0,0-.31-.639Q49.415,69,46,65.441c-.122-.127-.279-.309-.423-.312-1.13-.026-2.262-.014-3.416-.014,0,2.771,0,5.444-.005,8.117a3.277,3.277,0,0,1-.1.945,1.236,1.236,0,0,1-1.231.916,1.252,1.252,0,0,1-1.3-.922,2.952,2.952,0,0,1-.1-.877c-.008-2.445,0-4.89,0-7.336v-.816l-2.693.661m32.858-.66V73.1c0,.16,0,.32,0,.48A1.421,1.421,0,0,1,68.234,75.1a1.4,1.4,0,0,1-1.389-1.544c-.013-2.56-.005-5.119-.005-7.678v-.776c-1.04,0-2-.032-2.95.018a1.517,1.517,0,0,0-.934.389q-3.39,3.492-6.717,7.045a1.537,1.537,0,0,0-.352.961c-.025,3.633-.016,7.267-.014,10.9,0,.221.019.441.03.654H66.842c0-1.033-.024-2.014.006-2.994a1.363,1.363,0,0,1,1.924-1.334,1.419,1.419,0,0,1,.81,1.4c0,.975,0,1.95,0,2.936H72.29V65.805l-2.707-.662M61.356,24.352c0,1.979.007,3.9,0,5.815-.006.983-.58,1.628-1.394,1.609a1.426,1.426,0,0,1-1.342-1.593c-.013-1.074,0-2.148,0-3.222,0-1.531.018-3.062,0-4.592a1.773,1.773,0,0,0-1.991-1.962c-1.508,0-3.017.021-4.524-.01a1.359,1.359,0,0,0-1.376.819,3.523,3.523,0,0,0-.316,1.375c-.03,2.536-.007,5.072-.018,7.608a1.38,1.38,0,1,1-2.735.02c-.015-1.119,0-2.239,0-3.359V24.339a12.1,12.1,0,0,0-8.069,10.155H69.436c-.16-4.182-4.063-9.1-8.08-10.142M54.5,37.272q-7.951,0-15.9,0a3.406,3.406,0,0,0-.948.093,1.329,1.329,0,0,0,0,2.549,2.859,2.859,0,0,0,.811.093q16.04.006,32.08,0c1.109,0,1.776-.521,1.773-1.37s-.662-1.365-1.775-1.371H54.5ZM33.913,67.438a1.184,1.184,0,0,0-.239.093,12.421,12.421,0,0,0-5.083,8.88c-.234,2.49-.108,5.014-.142,7.523,0,.38,0,.761,0,1.144h5.465Zm41.2-.05V85.076h5.442c0-2.283-.01-4.517,0-6.751a13.309,13.309,0,0,0-1.373-6.148,12.734,12.734,0,0,0-4.071-4.789M47.644,60.647c0,.648.032,1.191-.008,1.729a1.65,1.65,0,0,0,.537,1.389c1.57,1.6,3.1,3.23,4.644,4.851.548.574,1.093,1.15,1.609,1.694.1-.019.129-.016.142-.029q3.294-3.438,6.581-6.883a.7.7,0,0,0,.2-.413c.019-.744.009-1.488.009-2.339a14.675,14.675,0,0,1-13.71,0M39.4,42.791a2.716,2.716,0,0,0-2.712,2.917,2.6,2.6,0,0,0,2.712,2.45Zm30.192,0v5.418a2.709,2.709,0,1,0,0-5.418" fill="#fff"/>
    <path id="Trazado_245498" data-name="Trazado 245498" d="M40.791,79.218a1.36,1.36,0,1,1,1.358-1.362,1.406,1.406,0,0,1-1.358,1.362" fill="#fff"/>
    <path id="Trazado_245499" data-name="Trazado 245499" d="M68.2,79.218a1.36,1.36,0,1,1,1.369-1.351A1.406,1.406,0,0,1,68.2,79.218" fill="#fff"/>
  </g>
</svg>
