<svg id="Grupo_180903" data-name="Grupo 180903" xmlns="http://www.w3.org/2000/svg" xmlns:xlink="http://www.w3.org/1999/xlink" width="109" height="109" viewBox="0 0 109 109">
  <defs>
    <clipPath id="clip-path">
      <rect id="Rectángulo_103685" data-name="Rectángulo 103685" width="109" height="109" fill="none"/>
    </clipPath>
  </defs>
  <g id="Grupo_180903-2" data-name="Grupo 180903" clip-path="url(#clip-path)">
    <path id="Trazado_245500" data-name="Trazado 245500" d="M54.5,109h0A54.5,54.5,0,1,1,109,54.5,54.5,54.5,0,0,1,54.5,109" fill="#8c6df2"/>
    <path id="Trazado_245501" data-name="Trazado 245501" d="M37.883,90.229a6.986,6.986,0,0,1-3.54-2.338c-.646-.7-1.35-1.346-2.015-2.03a1.406,1.406,0,1,1,1.977-1.983c.949.925,1.871,1.878,2.818,2.807a1.921,1.921,0,0,0,3.043-.013c.682-.667,1.353-1.345,2.023-2.022,1.094-1.1,1.068-1.984-.025-3.085-2.506-2.523-4.99-5.069-7.5-7.593q-3.292-3.318-6.616-6.607a11.677,11.677,0,0,0-1.042-.922,1.741,1.741,0,0,0-2.135.148c-.935.871-1.851,1.768-2.715,2.708a1.814,1.814,0,0,0,.187,2.628c.972,1,1.975,1.972,2.956,2.965a1.341,1.341,0,0,1,.314,1.6,1.24,1.24,0,0,1-1.339.8,1.835,1.835,0,0,1-.972-.46c-1.079-1.024-2.143-2.068-3.162-3.152a4.611,4.611,0,0,1-.021-6.332c.884-.955,1.8-1.884,2.765-2.76a4.626,4.626,0,0,1,4.678-1.01.914.914,0,0,0,.732-.054c1.479-1.441,2.925-2.916,4.38-4.381A5.008,5.008,0,0,1,34.3,50.793a4.992,4.992,0,0,1,3.058-7.527,5.038,5.038,0,0,1,.534-3.809A4.854,4.854,0,0,1,40.918,37.2a14.97,14.97,0,0,1,.133-2.539,4.844,4.844,0,0,1,5.88-3.6,1.214,1.214,0,0,0,.852-.172,4.884,4.884,0,0,1,3.9-.491c3.017.546,6.024,1.147,9.042,1.7.566.1,1.162.042,1.731.137a4.817,4.817,0,0,1,4.068,5.675c-.021.137-.03.277-.05.479a4.959,4.959,0,0,1,3.664,6.086,5.1,5.1,0,0,1,3.715,6.191,4.851,4.851,0,0,1,3.633,3.571,4.92,4.92,0,0,1-1.472,4.893l3.419,3.415a3.28,3.28,0,0,1,.341.347,1.454,1.454,0,0,0,1.927.541,4.194,4.194,0,0,1,4.343.983c.978.891,1.921,1.829,2.818,2.805a4.568,4.568,0,0,1-.071,6.38q-7.564,7.635-15.205,15.191a4.611,4.611,0,0,1-6.54-.046c-.837-.807-1.667-1.624-2.469-2.466a4.537,4.537,0,0,1-1.014-5.143.651.651,0,0,0-.193-.833c-1.688-1.667-3.358-3.352-5.049-5.017a1.089,1.089,0,0,0-.643-.312c-1.509-.062-3.019-.091-4.529-.121a6.274,6.274,0,0,0-1.528.037,3.246,3.246,0,0,0-1.464.67c-1.589,1.5-3.1,3.078-4.665,4.611a.64.64,0,0,0-.158.883,4.586,4.586,0,0,1-.864,5.289,25.467,25.467,0,0,1-2.534,2.493,16.825,16.825,0,0,1-2.518,1.4ZM30.4,65.43l12.91,12.979c1.6-1.6,3.252-3.24,4.875-4.9a4.435,4.435,0,0,1,3.157-1.425,34.944,34.944,0,0,1,3.9.072c2.271.2,4.3-.085,5.806-2.058a1.347,1.347,0,0,1,2.086-.13,1.432,1.432,0,0,1-.112,2.107c-.6.679-1.162,1.394-1.673,2.013,1.3,1.313,2.811,2.838,4.278,4.316L78.307,65.673,73.9,61.228c-.283.269-.6.615-.961.9a1.363,1.363,0,0,1-2.021-.284,1.409,1.409,0,0,1,.257-1.891c1.011-1.029,2.055-2.025,3.051-3.067A2.028,2.028,0,0,0,74.243,54a2.05,2.05,0,0,0-2.891-.042c-.384.339-.726.721-1.095,1.077a1.432,1.432,0,0,1-2.153.157,1.459,1.459,0,0,1,.184-2.154c.752-.762,1.53-1.5,2.26-2.28a2.057,2.057,0,1,0-2.93-2.887c-.409.378-.791.787-1.19,1.178a1.466,1.466,0,0,1-2.205.177,1.449,1.449,0,0,1,.209-2.152c.83-.846,1.7-1.658,2.5-2.533a2.012,2.012,0,0,0-.112-2.881,2.05,2.05,0,0,0-2.842.045c-.393.362-.759.754-1.139,1.13-.8.79-1.636.894-2.257.285s-.538-1.467.246-2.255,1.549-1.544,2.32-2.318a2,2,0,0,0,.632-1.769A1.966,1.966,0,0,0,62.4,35.094a2,2,0,0,0-2.173.542c-1.177,1.158-2.329,2.343-3.514,3.491a.724.724,0,0,0-.19,1,4.831,4.831,0,0,1-2.878,6.619,14.414,14.414,0,0,1-1.521.321c-.026.112-.065.244-.085.379a4.745,4.745,0,0,1-4.439,4.42c-.419.059-.455.269-.491.6a4.787,4.787,0,0,1-4.255,4.3c-.2.026-.4.074-.544.1a14.675,14.675,0,0,1-.315,1.492,4.886,4.886,0,0,1-6.676,2.919c-.208-.092-.59-.141-.713-.024-1.451,1.4-2.869,2.843-4.2,4.177m39.96,22.035a7.226,7.226,0,0,0,1.442-.867q7.427-7.362,14.806-14.77a1.873,1.873,0,0,0,.017-2.888q-1.119-1.151-2.273-2.263a1.867,1.867,0,0,0-2.842-.013Q74.053,74.09,66.619,81.542a1.853,1.853,0,0,0-.012,2.787c.773.8,1.55,1.608,2.379,2.352a7.685,7.685,0,0,0,1.378.784M46.846,49.088A2.155,2.155,0,0,0,49.052,47.9a2.053,2.053,0,0,0-.461-2.372c-1.652-1.669-3.309-3.332-4.988-4.973a2.055,2.055,0,1,0-2.915,2.892c1.645,1.676,3.3,3.344,4.991,4.97a4.547,4.547,0,0,0,1.167.672m-3.268-13.17a7.816,7.816,0,0,0,.8,1.4c.689.783,1.464,1.49,2.2,2.229,1.331,1.329,2.646,2.673,4,3.982a2.051,2.051,0,0,0,3.378-.533,1.57,1.57,0,0,0-.864-2.279,11.578,11.578,0,0,1-5.989-6.028,1.279,1.279,0,0,0-1.472-.933,2.278,2.278,0,0,0-2.058,2.165m.839,15.98A3.845,3.845,0,0,0,43.9,50.72c-1.377-1.448-2.778-2.878-4.234-4.245a1.974,1.974,0,0,0-2.724.154,1.935,1.935,0,0,0-.163,2.663c1.377,1.478,2.817,2.9,4.292,4.284a1.821,1.821,0,0,0,2.162.173A2.194,2.194,0,0,0,44.417,51.9M33.9,55.6a1.856,1.856,0,0,0,.261.783,17.64,17.64,0,0,0,2.316,2.267,1.879,1.879,0,0,0,2.448-.467,1.964,1.964,0,0,0,.084-2.556,14.756,14.756,0,0,0-1.816-1.815,1.868,1.868,0,0,0-2.153-.2A2.079,2.079,0,0,0,33.9,55.6m23.47-21.3c-2.565-.359-5.079-1.126-7.855-1.285a8.962,8.962,0,0,0,4.228,4.927l3.627-3.642" fill="#fff"/>
    <path id="Trazado_245502" data-name="Trazado 245502" d="M31.769,19.153a3.455,3.455,0,0,1,.879.5c1.663,1.618,3.3,3.26,4.934,4.91a1.407,1.407,0,1,1-1.966,2c-1.668-1.646-3.321-3.307-4.979-4.964a1.371,1.371,0,0,1-.341-1.593,1.439,1.439,0,0,1,1.473-.855" fill="#fff"/>
    <path id="Trazado_245503" data-name="Trazado 245503" d="M70.554,25.573a4.825,4.825,0,0,1,.59-.978q2.442-2.491,4.932-4.936a1.406,1.406,0,0,1,2.052-.107,1.423,1.423,0,0,1-.088,2.1c-1.62,1.636-3.256,3.257-4.882,4.887a1.431,1.431,0,0,1-1.714.377,1.563,1.563,0,0,1-.89-1.348" fill="#fff"/>
    <path id="Trazado_245504" data-name="Trazado 245504" d="M55.764,23.345c0,1,.012,2,0,3a1.382,1.382,0,0,1-1.4,1.5,1.4,1.4,0,0,1-1.4-1.5q-.021-3.031,0-6.064a1.408,1.408,0,0,1,1.407-1.5,1.392,1.392,0,0,1,1.388,1.507c.014,1.022,0,2.045,0,3.067" fill="#fff"/>
    <path id="Trazado_245505" data-name="Trazado 245505" d="M28.55,81.6a1.376,1.376,0,0,1-1.414-1.4,1.4,1.4,0,1,1,2.793.035A1.373,1.373,0,0,1,28.55,81.6" fill="#fff"/>
    <path id="Trazado_245506" data-name="Trazado 245506" d="M66.6,67.915A1.366,1.366,0,0,1,65.19,66.58a1.4,1.4,0,0,1,1.373-1.46,1.438,1.438,0,0,1,1.425,1.422A1.406,1.406,0,0,1,66.6,67.915" fill="#fff"/>
  </g>
</svg>
