<svg xmlns="http://www.w3.org/2000/svg" width="95" height="95" viewBox="0 0 95 95">
  <g id="Grupo_182339" data-name="Grupo 182339" transform="translate(-336.068 -1668.717)">
    <g id="Elipse_5098" data-name="Elipse 5098" transform="translate(336.068 1668.717)" fill="#fff" stroke="#5038a1" stroke-width="8">
      <circle cx="47.5" cy="47.5" r="47.5" stroke="none"/>
      <circle cx="47.5" cy="47.5" r="43.5" fill="none"/>
    </g>
    <g id="Grupo_180534" data-name="Grupo 180534" transform="translate(360.573 1688.395)">
      <path id="Trazado_724" data-name="Trazado 724" d="M4.251-.047,26.983-.053c1.477,1.5,10.351,10.46,13.454,13.6V49.4a4.278,4.278,0,0,1-4.251,4.3H4.251A4.278,4.278,0,0,1,0,49.4V4.257A4.278,4.278,0,0,1,4.251-.047Z" transform="translate(5.555 0.067)" fill="#fff"/>
      <g id="Grupo_1192" data-name="Grupo 1192" transform="translate(0)">
        <path id="Trazado_722" data-name="Trazado 722" d="M1496.692,662.327h-22.658a4.432,4.432,0,0,0-4.4,4.454v44.844a4.432,4.432,0,0,0,4.4,4.454h31.638a4.432,4.432,0,0,0,4.4-4.454V675.873Zm10.907,49.3a1.942,1.942,0,0,1-1.928,1.952h-31.638a1.942,1.942,0,0,1-1.928-1.952V666.781a1.942,1.942,0,0,1,1.928-1.952h21.634l.012.012V676.9h11.911l.008.008Z" transform="translate(-1464.117 -662.327)" fill="#8c6df2"/>
        <path id="Trazado_723" data-name="Trazado 723" d="M1459.213,950.207a1.715,1.715,0,0,1-1.653,1.762h-36.373a1.715,1.715,0,0,1-1.653-1.762V932.589a1.715,1.715,0,0,1,1.653-1.762h36.373a1.715,1.715,0,0,1,1.653,1.762Z" transform="translate(-1419.534 -906.092)" fill="#5038a1"/>
        <text id="DOC" transform="translate(18.151 39.887)" fill="#f8f8f8" font-size="13" font-family="Montserrat-ExtraBold, Montserrat" font-weight="800" letter-spacing="0.04em" style="isolation: isolate"><tspan x="-16.185" y="0">DOC</tspan></text>
      </g>
    </g>
  </g>
</svg>
