<svg id="Grupo_181726" data-name="Grupo 181726" xmlns="http://www.w3.org/2000/svg" xmlns:xlink="http://www.w3.org/1999/xlink" width="208.107" height="169.926" viewBox="0 0 208.107 169.926">
  <defs>
    <clipPath id="clip-path">
      <rect id="Rectángulo_104066" data-name="Rectángulo 104066" width="208.107" height="169.926" fill="none"/>
    </clipPath>
    <clipPath id="clip-path-3">
      <path id="Trazado_245919" data-name="Trazado 245919" d="M133.89,90.526a3.135,3.135,0,0,0-2.345,4.834c6.63,10.1-1.01,19.971-7.177,20.6-7.159.732-14.373-3.135-13.683-11.953a26.733,26.733,0,0,1,2.353-9.159,2.994,2.994,0,0,0-2.6-4.366l-24.7.7v21.994a2.079,2.079,0,0,0,3.1,1.91,16.2,16.2,0,0,1,9.276-2.062c8.341.495,13.078,7.59,10.06,13.63-5.82,11.644-13.487,8.973-17.827,6.044a2.236,2.236,0,0,0-3.357,2.043v25.345L151.52,156a4.065,4.065,0,0,0,3.809-4.1l.821-61.375-1.475-.591Z" fill="none"/>
    </clipPath>
    <linearGradient id="linear-gradient" x1="-0.761" y1="0.968" x2="-0.75" y2="0.968" gradientUnits="objectBoundingBox">
      <stop offset="0" stop-color="#444b8c"/>
      <stop offset="0.996" stop-color="#3e4177"/>
      <stop offset="1" stop-color="#3e4177"/>
    </linearGradient>
    <clipPath id="clip-path-4">
      <path id="Trazado_245920" data-name="Trazado 245920" d="M51.39,66.741c-3.666.339-15.115,2.613-15.115,11.361a21.416,21.416,0,0,0,2.391,9.735,3.293,3.293,0,0,1-2.757,4.8l-21.151.6v67.2a4.066,4.066,0,0,0,4.33,4.057l67.9-4.4V134.74a2.236,2.236,0,0,1,3.357-2.043c4.34,2.929,12.007,5.6,17.827-6.044,3.018-6.04-1.719-13.135-10.06-13.63a16.2,16.2,0,0,0-9.276,2.062,2.079,2.079,0,0,1-3.1-1.91V91.181l-23.38.659a3.094,3.094,0,0,1-2.641-4.682C67.63,72.763,55.328,66.73,51.648,66.73c-.092,0-.177,0-.258.011" fill="none"/>
    </clipPath>
    <linearGradient id="linear-gradient-2" x1="0.037" y1="0.899" x2="0.045" y2="0.899" xlink:href="#linear-gradient"/>
    <clipPath id="clip-path-5">
      <path id="Trazado_245921" data-name="Trazado 245921" d="M14.865,30.988l-.107,62.243,21.151-.6a3.293,3.293,0,0,0,2.757-4.8A21.416,21.416,0,0,1,36.275,78.1c0-8.748,11.449-11.022,15.115-11.361,3.314-.306,16.437,5.664,8.323,20.417a3.094,3.094,0,0,0,2.641,4.682l23.38-.659V68.788a2.178,2.178,0,0,1,3.447-1.864c6.761,5.063,16.276.369,17.879-3.521,1.9-4.61,2.418-13.962-7.289-16.656a13.128,13.128,0,0,0-11.263,1.56,2.142,2.142,0,0,1-3.3-1.9l1.476-20.7L85.2,25.12l-64.079-.348H21.09a6.226,6.226,0,0,0-6.225,6.216" fill="none"/>
    </clipPath>
    <linearGradient id="linear-gradient-3" x1="-0.083" y1="1.454" x2="-0.073" y2="1.454" xlink:href="#linear-gradient"/>
    <clipPath id="clip-path-7">
      <rect id="Rectángulo_104039" data-name="Rectángulo 104039" width="87.505" height="62.471" transform="translate(19.191 28.314)" fill="none"/>
    </clipPath>
    <clipPath id="clip-path-8">
      <rect id="Rectángulo_104041" data-name="Rectángulo 104041" width="44.207" height="68.511" transform="translate(87.21 92.165)" fill="none"/>
    </clipPath>
    <clipPath id="clip-path-9">
      <path id="Trazado_245926" data-name="Trazado 245926" d="M87.21,92.165v21.6a2.079,2.079,0,0,0,3.1,1.911,16.19,16.19,0,0,1,9.276-2.063c8.341.5,13.078,7.59,10.06,13.63-5.82,11.645-13.487,8.974-17.827,6.044a2.237,2.237,0,0,0-3.357,2.044v25.345l42.951-2.72a92.854,92.854,0,0,0-9.336-28.338c-9.893-18.787-23.518-27.794-34.871-37.453" fill="none"/>
    </clipPath>
    <linearGradient id="linear-gradient-4" x1="-0.842" y1="1.1" x2="-0.83" y2="1.1" gradientUnits="objectBoundingBox">
      <stop offset="0" stop-color="#ffc444"/>
      <stop offset="0.996" stop-color="#f36f56"/>
      <stop offset="1" stop-color="#f36f56"/>
    </linearGradient>
    <clipPath id="clip-path-10">
      <path id="Trazado_245927" data-name="Trazado 245927" d="M101.186,23.782a2.142,2.142,0,0,0,3.3,1.9,13.127,13.127,0,0,1,11.264-1.56c9.707,2.693,9.189,12.045,7.289,16.655-1.6,3.89-11.119,8.585-17.88,3.521a2.177,2.177,0,0,0-3.446,1.865V68.552l24.7-.7a2.994,2.994,0,0,1,2.6,4.366,26.768,26.768,0,0,0-2.353,9.159c-.689,8.819,6.524,12.685,13.684,11.953,6.166-.63,13.806-10.5,7.176-20.6a3.136,3.136,0,0,1,2.346-4.835l20.784-.594-.508-60.664a4.068,4.068,0,0,0-4.06-4.033l-64.9-.115Z" fill="none"/>
    </clipPath>
    <linearGradient id="linear-gradient-5" x1="-0.683" y1="1.608" x2="-0.674" y2="1.608" xlink:href="#linear-gradient"/>
    <clipPath id="clip-path-12">
      <path id="Trazado_245929" data-name="Trazado 245929" d="M170.761,23.36c.3,1.112.61,4.063.61,4.063l1.652.361a5.119,5.119,0,0,1-.722-3.311c.258-1.883-1.026-4.879-1.667-5.137a.188.188,0,0,0-.07-.015c-.536,0-.091,2.969.2,4.039" fill="none"/>
    </clipPath>
    <linearGradient id="linear-gradient-6" x1="-21.582" y1="17.955" x2="-21.454" y2="17.955" xlink:href="#linear-gradient-4"/>
    <clipPath id="clip-path-13">
      <path id="Trazado_245930" data-name="Trazado 245930" d="M170.183,26.647c8.186,10.56,8.484,17.3,7.276,21.493-1.741,6.043-6.847,7.569-7.133,13.325-.337,6.789,6.27,14.6,10.895,13.951,6.363-.889,12.62-18.285,7.45-32.077-3.846-10.261-12.8-15.288-16.009-16.9l-2.479.2" fill="none"/>
    </clipPath>
    <linearGradient id="linear-gradient-7" x1="-3.029" y1="4.711" x2="-3.009" y2="4.711" gradientUnits="objectBoundingBox">
      <stop offset="0" stop-color="#444b8c"/>
      <stop offset="0.996" stop-color="#26264f"/>
      <stop offset="1" stop-color="#26264f"/>
    </linearGradient>
    <clipPath id="clip-path-14">
      <path id="Trazado_245931" data-name="Trazado 245931" d="M117.113,66.753h-2.77s2.131,2.131,3.2,1.918,4.9-.853,5.54-.426l.639.426.639-.853a3.011,3.011,0,0,0-.852-2.13,1.025,1.025,0,0,0-.607-.144c-1.4,0-4.35,1.209-5.786,1.209" fill="none"/>
    </clipPath>
    <linearGradient id="linear-gradient-8" x1="-18.078" y1="10.229" x2="-17.923" y2="10.229" xlink:href="#linear-gradient-4"/>
    <clipPath id="clip-path-15">
      <path id="Trazado_245932" data-name="Trazado 245932" d="M163.027,58.333l2.118,4.335L167.6,60.6l-2.54-3.486Z" fill="none"/>
    </clipPath>
    <linearGradient id="linear-gradient-9" x1="-22.529" y1="16.331" x2="-22.39" y2="16.331" xlink:href="#linear-gradient-4"/>
    <clipPath id="clip-path-16">
      <path id="Trazado_245933" data-name="Trazado 245933" d="M162.6,53.084a4.5,4.5,0,0,0-1.069.669l-.031.037-.225.392c-.155.3-.215.494-.215,1.711,0,.291-.225,2.228.7,3.182.684.7,2.322.011,2.57.006.041.1,2.151-1.11,1.953-1.361l-.23-.287c-1.294-2.711-2.785-4.359-3.379-4.359a.3.3,0,0,0-.076.01" fill="none"/>
    </clipPath>
    <linearGradient id="linear-gradient-10" x1="-18.867" y1="14.808" x2="-18.749" y2="14.808" xlink:href="#linear-gradient-4"/>
    <clipPath id="clip-path-18">
      <path id="Trazado_245935" data-name="Trazado 245935" d="M162.789,56.689c-.071.54.046,1.226.436,1.11a.773.773,0,0,0,.336-1.071.579.579,0,0,0-.476-.31.284.284,0,0,0-.3.271" fill="none"/>
    </clipPath>
    <linearGradient id="linear-gradient-11" x1="-90.309" y1="72.008" x2="-89.753" y2="72.008" xlink:href="#linear-gradient-4"/>
    <clipPath id="clip-path-20">
      <path id="Trazado_245937" data-name="Trazado 245937" d="M186.913,160.452l.6,4.564,1.556-.687.364-4.315Z" fill="none"/>
    </clipPath>
    <linearGradient id="linear-gradient-12" x1="-58.011" y1="1.899" x2="-57.7" y2="1.899" xlink:href="#linear-gradient-4"/>
    <clipPath id="clip-path-21">
      <path id="Trazado_245938" data-name="Trazado 245938" d="M188.737,163.876l-2.13,1.14s-2.549,1.215-3.366,1.441-.263,1.573,3.144.734,3.5-1.465,3.5-1.465l-.294-1.45a.585.585,0,0,0-.849-.4" fill="none"/>
    </clipPath>
    <linearGradient id="linear-gradient-13" x1="-24.467" y1="1.439" x2="-24.333" y2="1.439" gradientUnits="objectBoundingBox">
      <stop offset="0" stop-color="#311944"/>
      <stop offset="1" stop-color="#893976"/>
    </linearGradient>
    <clipPath id="clip-path-22">
      <path id="Trazado_245939" data-name="Trazado 245939" d="M160.077,159l3.333,4.045.908-1.18-1.685-4.306Z" fill="none"/>
    </clipPath>
    <linearGradient id="linear-gradient-14" x1="-31.396" y1="2.075" x2="-31.2" y2="2.075" xlink:href="#linear-gradient-4"/>
    <clipPath id="clip-path-23">
      <path id="Trazado_245940" data-name="Trazado 245940" d="M163.67,161.6l-1.213,2.091s-1.528,2.374-2.1,3,.6,1.475,3.06-1.031,2.2-3.086,2.2-3.086l-1.013-1.078a.584.584,0,0,0-.931.107" fill="none"/>
    </clipPath>
    <linearGradient id="linear-gradient-15" x1="-26.236" y1="1.246" x2="-26.072" y2="1.246" xlink:href="#linear-gradient-13"/>
    <clipPath id="clip-path-24">
      <path id="Trazado_245941" data-name="Trazado 245941" d="M173.381,106.252c-1.768,1.911-1.124,5.149-.479,7.917,3.1,13.314,7.606,21.889,10.2,29.75a67.641,67.641,0,0,1,3.286,18.609l3.688-.314c3.843-10.252,3.64-17.988,2.708-23.208-1.107-6.2-3.487-10.226-5.726-21.082-.991-4.808-1.512-8.806-1.8-11.433a22.828,22.828,0,0,0-7.6-1.726,5.647,5.647,0,0,0-4.273,1.487" fill="none"/>
    </clipPath>
    <linearGradient id="linear-gradient-16" x1="-7.695" y1="1.128" x2="-7.65" y2="1.128" gradientUnits="objectBoundingBox">
      <stop offset="0" stop-color="#aa80f9"/>
      <stop offset="0.996" stop-color="#6165d7"/>
      <stop offset="1" stop-color="#6165d7"/>
    </linearGradient>
    <clipPath id="clip-path-26">
      <rect id="Rectángulo_104059" data-name="Rectángulo 104059" width="17.524" height="57.763" transform="translate(172.236 104.765)" fill="none"/>
    </clipPath>
    <clipPath id="clip-path-27">
      <path id="Trazado_245942" data-name="Trazado 245942" d="M173.382,106.252c3.044-3.29,10.924-.151,11.875.24.155,1.422.382,3.257.711,5.393-4.406,5.92-4.693,9.871-3.95,12.48,1.149,4.031,4.872,5.346,5.039,10.077.111,3.165-1.508,3.927-.96,7.077.6,3.455,2.728,3.565,3.479,6.838.816,3.558-1.325,5.052-1.68,9.476a15.385,15.385,0,0,0,.342,4.537l-1.855.158a67.634,67.634,0,0,0-3.285-18.61c-2.59-7.86-7.1-16.435-10.2-29.749-.645-2.768-1.289-6.006.48-7.917" fill="none"/>
    </clipPath>
    <linearGradient id="linear-gradient-17" x1="-3.801" y1="1.101" x2="-3.777" y2="1.101" xlink:href="#linear-gradient-16"/>
    <clipPath id="clip-path-28">
      <path id="Trazado_245943" data-name="Trazado 245943" d="M167.122,105.714c-1.733,1.533-16.949,15.447-14.689,35.465a39.008,39.008,0,0,0,8.473,19.893l3.315-1.991c-1.766-4.432-4.012-12.285-1.756-21.04a35.533,35.533,0,0,1,5.778-11.918c4.678-6.28,8.716-7.205,12.128-13.378a25.805,25.805,0,0,0,2.967-9.253l-16.216,2.222" fill="none"/>
    </clipPath>
    <linearGradient id="linear-gradient-18" x1="-4.528" y1="1.154" x2="-4.498" y2="1.154" xlink:href="#linear-gradient-16"/>
    <clipPath id="clip-path-29">
      <path id="Trazado_245944" data-name="Trazado 245944" d="M176.379,56.3a6.67,6.67,0,0,0-3.237,1c-5.125,3.021-10.458,5.7-15.475,8.891-3.429,2.186-11.586,7.382-20.635,6.364a23.9,23.9,0,0,1-12.563-5.707l-2.184,1.3a19.078,19.078,0,0,0,33.1,12.44,52.235,52.235,0,0,1,5.638,18.114c.556,4.973.148,8.511,2.694,10.458,1.884,1.44,4.1,1.027,10.989.242,5.429-.619,9.734-1.01,12.227-1.224a85.575,85.575,0,0,0,2.394-29.936s-1.53-15.1-8.131-20.125a8.411,8.411,0,0,0-4.791-1.812h-.029" fill="none"/>
    </clipPath>
    <linearGradient id="linear-gradient-19" x1="-1.437" y1="1.709" x2="-1.424" y2="1.709" xlink:href="#linear-gradient-7"/>
    <clipPath id="clip-path-31">
      <rect id="Rectángulo_104064" data-name="Rectángulo 104064" width="28.061" height="51.233" transform="translate(161.677 58.876)" fill="none"/>
    </clipPath>
    <clipPath id="clip-path-32">
      <path id="Trazado_245945" data-name="Trazado 245945" d="M169.783,107.331c.632-.084,5.84-.846,7.437-4.438,1.234-2.775-.992-4.305.12-7.557,1.205-3.525,4.383-3.38,5.518-6.718.914-2.687-.783-3.848-1.319-7.8-.935-6.874,3.394-9.318,3-15.235a13.487,13.487,0,0,0-2.459-6.71c5.856,5.628,7.251,19.359,7.251,19.359a85.569,85.569,0,0,1-2.393,29.936c-2.494.214-6.8.605-12.228,1.224-6.891.785-9.106,1.2-10.989-.243a5.753,5.753,0,0,1-2.043-3.827,12.107,12.107,0,0,0,8.106,2.006" fill="none"/>
    </clipPath>
    <linearGradient id="linear-gradient-20" x1="-2.722" y1="1.963" x2="-2.704" y2="1.963" xlink:href="#linear-gradient-7"/>
  </defs>
  <g id="Grupo_181725" data-name="Grupo 181725" clip-path="url(#clip-path)">
    <g id="Grupo_181660" data-name="Grupo 181660">
      <g id="Grupo_181659" data-name="Grupo 181659" clip-path="url(#clip-path)">
        <path id="Trazado_245918" data-name="Trazado 245918" d="M29.6,18.173a79.172,79.172,0,0,1,14.661-8.16C81.9-6.869,122.71,2.052,135.313,4.992c20.333,4.747,37.53,8.317,51.589,20.522,31.947,27.731,24.631,118.692-.985,130.319-25.637,11.636-48.94,14.045-74.678,14.053-1.019.028-1.779.03-2.444.037-6.439.052-46.3-.134-76.881-24.819A87.779,87.779,0,0,1,14.322,126C-8.418,92.127-4.622,42.725,29.6,18.173" fill="#e5e1f1"/>
      </g>
    </g>
    <g id="Grupo_181662" data-name="Grupo 181662">
      <g id="Grupo_181661" data-name="Grupo 181661" clip-path="url(#clip-path-3)">
        <rect id="Rectángulo_104036" data-name="Rectángulo 104036" width="95.926" height="96.023" transform="translate(55.405 142.631) rotate(-60.079)" fill="url(#linear-gradient)"/>
      </g>
    </g>
    <g id="Grupo_181664" data-name="Grupo 181664">
      <g id="Grupo_181663" data-name="Grupo 181663" clip-path="url(#clip-path-4)">
        <rect id="Rectángulo_104037" data-name="Rectángulo 104037" width="136.151" height="135.851" transform="translate(-32.182 129.588) rotate(-53.249)" fill="url(#linear-gradient-2)"/>
      </g>
    </g>
    <g id="Grupo_181666" data-name="Grupo 181666">
      <g id="Grupo_181665" data-name="Grupo 181665" clip-path="url(#clip-path-5)">
        <rect id="Rectángulo_104038" data-name="Rectángulo 104038" width="106.581" height="116.243" transform="translate(-14.838 76.198) rotate(-60.079)" fill="url(#linear-gradient-3)"/>
      </g>
    </g>
    <g id="Grupo_181676" data-name="Grupo 181676">
      <g id="Grupo_181675" data-name="Grupo 181675" clip-path="url(#clip-path)">
        <path id="Trazado_245922" data-name="Trazado 245922" d="M156.15,90.522l-20.784.594a3.135,3.135,0,0,0-2.346,4.834c6.631,10.1-1.009,19.971-7.176,20.6-7.16.731-14.373-3.135-13.684-11.953a26.708,26.708,0,0,1,2.354-9.159,2.994,2.994,0,0,0-2.605-4.366l-24.7.7v21.994a2.079,2.079,0,0,0,3.1,1.911,16.206,16.206,0,0,1,9.276-2.063c8.34.5,13.078,7.591,10.059,13.631-5.819,11.645-13.486,8.973-17.826,6.043a2.237,2.237,0,0,0-3.357,2.044v25.345l64.529-4.086a4.068,4.068,0,0,0,3.81-4.1Z" fill="#fdb74d"/>
        <path id="Trazado_245923" data-name="Trazado 245923" d="M91.823,133.287c4.34,2.93,12.007,5.6,17.827-6.044,3.018-6.039-1.719-13.134-10.06-13.63a16.2,16.2,0,0,0-9.276,2.063,2.079,2.079,0,0,1-3.1-1.911V91.771l-23.381.659a3.093,3.093,0,0,1-2.64-4.681C69.3,73,56.179,67.025,52.866,67.332c-3.666.339-15.116,2.612-15.116,11.36a21.416,21.416,0,0,0,2.392,9.736,3.292,3.292,0,0,1-2.757,4.8l-21.151.6v67.2a4.066,4.066,0,0,0,4.33,4.058l67.9-4.4V135.331a2.237,2.237,0,0,1,3.357-2.044" fill="#8c6df2"/>
        <path id="Trazado_245924" data-name="Trazado 245924" d="M16.234,93.821l21.151-.6a3.293,3.293,0,0,0,2.757-4.8,21.415,21.415,0,0,1-2.392-9.735c0-8.748,11.45-11.021,15.116-11.361,3.313-.306,16.437,5.663,8.323,20.418a3.093,3.093,0,0,0,2.64,4.681l23.381-.659V69.378a2.177,2.177,0,0,1,3.446-1.864c6.761,5.064,16.277.369,17.88-3.521,1.9-4.61,2.418-13.962-7.289-16.656A13.13,13.13,0,0,0,89.983,48.9a2.141,2.141,0,0,1-3.3-1.9V25.71L22.6,25.362a6.227,6.227,0,0,0-6.26,6.215Z" fill="#5038a1"/>
        <g id="Grupo_181669" data-name="Grupo 181669" opacity="0.3" style="mix-blend-mode: soft-light;isolation: isolate">
          <g id="Grupo_181668" data-name="Grupo 181668">
            <g id="Grupo_181667" data-name="Grupo 181667" clip-path="url(#clip-path-7)">
              <path id="Trazado_245925" data-name="Trazado 245925" d="M19.292,31.583a3.279,3.279,0,0,1,3.274-3.269l61.162.332V47a5.216,5.216,0,0,0,1.513,3.708,5.093,5.093,0,0,0,3.584,1.5,5.018,5.018,0,0,0,2.805-.864,9.6,9.6,0,0,1,5.453-1.653,12.688,12.688,0,0,1,3.374.487,7.885,7.885,0,0,1,5.395,4.049,11.282,11.282,0,0,1-.045,8.639c-.567,1.376-4.164,3.905-8.338,3.905a8.221,8.221,0,0,1-5.044-1.622A5.015,5.015,0,0,0,89.4,64.135a5.2,5.2,0,0,0-5.142,5.244V88.9l-20.5.578a.285.285,0,0,1,.012-.309c4.512-8.2,3.058-13.989,1.043-17.4-2.987-5.052-8.744-7.406-11.694-7.406-.181,0-.36.008-.53.024-6.61.612-17.8,4.312-17.8,14.3a24.183,24.183,0,0,0,2.714,11.077.379.379,0,0,1-.021.371c-.078.131-.156.133-.19.134l-18.111.511Z" fill="#5038a1"/>
            </g>
          </g>
        </g>
        <g id="Grupo_181674" data-name="Grupo 181674" opacity="0.3" style="mix-blend-mode: multiply;isolation: isolate">
          <g id="Grupo_181673" data-name="Grupo 181673">
            <g id="Grupo_181672" data-name="Grupo 181672" clip-path="url(#clip-path-8)">
              <g id="Grupo_181671" data-name="Grupo 181671">
                <g id="Grupo_181670" data-name="Grupo 181670" clip-path="url(#clip-path-9)">
                  <rect id="Rectángulo_104040" data-name="Rectángulo 104040" width="81.43" height="72.488" transform="translate(57.591 143.63) rotate(-60.079)" fill="url(#linear-gradient-4)"/>
                </g>
              </g>
            </g>
          </g>
        </g>
      </g>
    </g>
    <g id="Grupo_181678" data-name="Grupo 181678">
      <g id="Grupo_181677" data-name="Grupo 181677" clip-path="url(#clip-path-10)">
        <rect id="Rectángulo_104043" data-name="Rectángulo 104043" width="114.901" height="109.805" transform="matrix(0.582, -0.813, 0.813, 0.582, 57.832, 63.006)" fill="url(#linear-gradient-5)"/>
      </g>
    </g>
    <g id="Grupo_181680" data-name="Grupo 181680">
      <g id="Grupo_181679" data-name="Grupo 181679" clip-path="url(#clip-path)">
        <path id="Trazado_245928" data-name="Trazado 245928" d="M105.671,25.651a13.124,13.124,0,0,1,11.263-1.56c9.707,2.694,9.19,12.046,7.29,16.656-1.6,3.889-11.119,8.584-17.88,3.52a2.178,2.178,0,0,0-3.446,1.865V68.524l24.7-.7a2.994,2.994,0,0,1,2.6,4.366,26.733,26.733,0,0,0-2.353,9.159c-.689,8.818,6.524,12.684,13.684,11.952,6.166-.63,13.806-10.5,7.176-20.6a3.135,3.135,0,0,1,2.346-4.834l20.784-.594-.509-60.665a4.066,4.066,0,0,0-4.059-4.033l-64.9-.115V23.754a2.142,2.142,0,0,0,3.3,1.9" fill="#fedc72"/>
      </g>
    </g>
    <g id="Grupo_181682" data-name="Grupo 181682">
      <g id="Grupo_181681" data-name="Grupo 181681" clip-path="url(#clip-path-12)">
        <rect id="Rectángulo_104045" data-name="Rectángulo 104045" width="7.768" height="8.385" transform="matrix(0.761, -0.648, 0.648, 0.761, 165.85, 22.879)" fill="url(#linear-gradient-6)"/>
      </g>
    </g>
    <g id="Grupo_181684" data-name="Grupo 181684">
      <g id="Grupo_181683" data-name="Grupo 181683" clip-path="url(#clip-path-13)">
        <rect id="Rectángulo_104046" data-name="Rectángulo 104046" width="51.551" height="28.185" transform="translate(165.578 75.667) rotate(-84.88)" fill="url(#linear-gradient-7)"/>
      </g>
    </g>
    <g id="Grupo_181686" data-name="Grupo 181686">
      <g id="Grupo_181685" data-name="Grupo 181685" clip-path="url(#clip-path-14)">
        <rect id="Rectángulo_104047" data-name="Rectángulo 104047" width="6.424" height="10.557" transform="translate(113.313 68.529) rotate(-70.962)" fill="url(#linear-gradient-8)"/>
      </g>
    </g>
    <g id="Grupo_181688" data-name="Grupo 181688">
      <g id="Grupo_181687" data-name="Grupo 181687" clip-path="url(#clip-path-15)">
        <rect id="Rectángulo_104048" data-name="Rectángulo 104048" width="7.178" height="6.95" transform="matrix(0.58, -0.814, 0.814, 0.58, 160.402, 60.797)" fill="url(#linear-gradient-9)"/>
      </g>
    </g>
    <g id="Grupo_181690" data-name="Grupo 181690">
      <g id="Grupo_181689" data-name="Grupo 181689" clip-path="url(#clip-path-16)">
        <rect id="Rectángulo_104049" data-name="Rectángulo 104049" width="8.45" height="7.933" transform="translate(158.289 58.605) rotate(-65.287)" fill="url(#linear-gradient-10)"/>
      </g>
    </g>
    <g id="Grupo_181692" data-name="Grupo 181692">
      <g id="Grupo_181691" data-name="Grupo 181691" clip-path="url(#clip-path)">
        <path id="Trazado_245934" data-name="Trazado 245934" d="M159.81,54.529a4.124,4.124,0,0,0,1.921.6,1.592,1.592,0,0,1,.493.17.476.476,0,0,1,.1.074c.48.437-.032,1.534.264,1.686.215.109.669-.44.82-.327s-.181.663-.014.793c.125.1.359-.181.653-.086.147.047.162.14.423.385a3.056,3.056,0,0,0,.444.352c.568.341,1.5.07,1.554-.218.015-.08-.049-.106-.1-.318a1.726,1.726,0,0,1-.041-.464,4.439,4.439,0,0,1,.579-1.345,3.136,3.136,0,0,0,.4-1.775c0-.022-.005-.042-.008-.06,0-.034-.01-.066-.017-.1-.151-.673-.957-1.03-1.365-1.178a9.075,9.075,0,0,0-2.687-.52c-.318-.013-3.4-.114-3.84,1.06a1.3,1.3,0,0,0,.421,1.271" fill="#26264f"/>
      </g>
    </g>
    <g id="Grupo_181694" data-name="Grupo 181694">
      <g id="Grupo_181693" data-name="Grupo 181693" clip-path="url(#clip-path-18)">
        <rect id="Rectángulo_104051" data-name="Rectángulo 104051" width="1.798" height="1.577" transform="matrix(0.418, -0.908, 0.908, 0.418, 162.149, 57.653)" fill="url(#linear-gradient-11)"/>
      </g>
    </g>
    <g id="Grupo_181696" data-name="Grupo 181696">
      <g id="Grupo_181695" data-name="Grupo 181695" clip-path="url(#clip-path)">
        <path id="Trazado_245936" data-name="Trazado 245936" d="M162.543,56.169s-.277,2.044-1.3,1.561c-.691-.325-.054,1.566.787,1.692s1.24.038,1.227-.119a23.61,23.61,0,0,1-.377-2.9c.117-.092-.334-.239-.334-.239" fill="#26264f"/>
      </g>
    </g>
    <g id="Grupo_181698" data-name="Grupo 181698">
      <g id="Grupo_181697" data-name="Grupo 181697" clip-path="url(#clip-path-20)">
        <rect id="Rectángulo_104053" data-name="Rectángulo 104053" width="3.216" height="5.315" transform="translate(186.193 160.12) rotate(-8.366)" fill="url(#linear-gradient-12)"/>
      </g>
    </g>
    <g id="Grupo_181700" data-name="Grupo 181700">
      <g id="Grupo_181699" data-name="Grupo 181699" clip-path="url(#clip-path-21)">
        <rect id="Rectángulo_104054" data-name="Rectángulo 104054" width="7.456" height="4.223" transform="translate(182.424 163.807)" fill="url(#linear-gradient-13)"/>
      </g>
    </g>
    <g id="Grupo_181702" data-name="Grupo 181702">
      <g id="Grupo_181701" data-name="Grupo 181701" clip-path="url(#clip-path-22)">
        <rect id="Rectángulo_104055" data-name="Rectángulo 104055" width="5.085" height="6.109" transform="translate(159.187 157.708) rotate(-9.462)" fill="url(#linear-gradient-14)"/>
      </g>
    </g>
    <g id="Grupo_181704" data-name="Grupo 181704">
      <g id="Grupo_181703" data-name="Grupo 181703" clip-path="url(#clip-path-23)">
        <rect id="Rectángulo_104056" data-name="Rectángulo 104056" width="6.09" height="6.854" transform="translate(159.779 161.31)" fill="url(#linear-gradient-15)"/>
      </g>
    </g>
    <g id="Grupo_181706" data-name="Grupo 181706">
      <g id="Grupo_181705" data-name="Grupo 181705" clip-path="url(#clip-path-24)">
        <rect id="Rectángulo_104057" data-name="Rectángulo 104057" width="22.302" height="57.763" transform="translate(171.613 104.765)" fill="url(#linear-gradient-16)"/>
      </g>
    </g>
    <g id="Grupo_181713" data-name="Grupo 181713">
      <g id="Grupo_181712" data-name="Grupo 181712" clip-path="url(#clip-path)">
        <g id="Grupo_181711" data-name="Grupo 181711" opacity="0.3" style="mix-blend-mode: multiply;isolation: isolate">
          <g id="Grupo_181710" data-name="Grupo 181710">
            <g id="Grupo_181709" data-name="Grupo 181709" clip-path="url(#clip-path-26)">
              <g id="Grupo_181708" data-name="Grupo 181708">
                <g id="Grupo_181707" data-name="Grupo 181707" clip-path="url(#clip-path-27)">
                  <rect id="Rectángulo_104058" data-name="Rectángulo 104058" width="42.084" height="61.941" transform="translate(148.889 113.493) rotate(-24.864)" fill="url(#linear-gradient-17)"/>
                </g>
              </g>
            </g>
          </g>
        </g>
      </g>
    </g>
    <g id="Grupo_181715" data-name="Grupo 181715">
      <g id="Grupo_181714" data-name="Grupo 181714" clip-path="url(#clip-path-28)">
        <rect id="Rectángulo_104061" data-name="Rectángulo 104061" width="33.165" height="57.58" transform="translate(150.173 103.492)" fill="url(#linear-gradient-18)"/>
      </g>
    </g>
    <g id="Grupo_181717" data-name="Grupo 181717">
      <g id="Grupo_181716" data-name="Grupo 181716" clip-path="url(#clip-path-29)">
        <rect id="Rectángulo_104062" data-name="Rectángulo 104062" width="80.681" height="71.529" transform="translate(107.341 60.781) rotate(-16.699)" fill="url(#linear-gradient-19)"/>
      </g>
    </g>
    <g id="Grupo_181724" data-name="Grupo 181724">
      <g id="Grupo_181723" data-name="Grupo 181723" clip-path="url(#clip-path)">
        <g id="Grupo_181722" data-name="Grupo 181722" opacity="0.3" style="mix-blend-mode: multiply;isolation: isolate">
          <g id="Grupo_181721" data-name="Grupo 181721">
            <g id="Grupo_181720" data-name="Grupo 181720" clip-path="url(#clip-path-31)">
              <g id="Grupo_181719" data-name="Grupo 181719">
                <g id="Grupo_181718" data-name="Grupo 181718" clip-path="url(#clip-path-32)">
                  <rect id="Rectángulo_104063" data-name="Rectángulo 104063" width="54.604" height="58.221" transform="matrix(0.781, -0.625, 0.625, 0.781, 136.45, 79.058)" fill="url(#linear-gradient-20)"/>
                </g>
              </g>
            </g>
          </g>
        </g>
        <path id="Trazado_245946" data-name="Trazado 245946" d="M38.688,141.581l3.643-.26a2.049,2.049,0,0,0,1.933-1.938v-7.137a1.716,1.716,0,0,0-1.9-1.679l-3.677.231a2.076,2.076,0,0,0-1.98,1.935v7.175a1.771,1.771,0,0,0,1.984,1.673" fill="#fff"/>
        <path id="Trazado_245947" data-name="Trazado 245947" d="M49.18,140.838l3.582-.255a2.019,2.019,0,0,0,1.9-1.922V126.714a1.745,1.745,0,0,0-1.921-1.674l-3.536.214a1.961,1.961,0,0,0-1.866,1.91v12.013a1.656,1.656,0,0,0,1.845,1.661" fill="#fff"/>
        <path id="Trazado_245948" data-name="Trazado 245948" d="M59.118,140.123l3.444-.251a1.917,1.917,0,0,0,1.783-1.9V121.974a1.642,1.642,0,0,0-1.787-1.67l-3.472.2a1.922,1.922,0,0,0-1.828,1.888v16.085a1.673,1.673,0,0,0,1.86,1.65" fill="#fff"/>
        <path id="Trazado_245949" data-name="Trazado 245949" d="M64.879,141.552,35.96,143.661a.962.962,0,0,0-.91.886v.47a.788.788,0,0,0,.887.758l28.936-2.154a.95.95,0,0,0,.89-.867v-.459a.794.794,0,0,0-.884-.743" fill="#fff"/>
        <path id="Trazado_245950" data-name="Trazado 245950" d="M37.074,126.093a1.025,1.025,0,0,1-.562-1.939l22.69-13.6a1.083,1.083,0,0,1,1.482.308,1.044,1.044,0,0,1-.4,1.437L37.634,125.918a1.219,1.219,0,0,1-.56.175" fill="#fff"/>
        <path id="Trazado_245951" data-name="Trazado 245951" d="M58.738,116.52a1.1,1.1,0,0,1-.255-.015.979.979,0,0,1-.8-1.211l.768-3.094-3.5-.849a.984.984,0,0,1-.726-1.266,1.161,1.161,0,0,1,1.367-.757l4.479,1.092a.98.98,0,0,1,.737,1.2l-1.005,4.05a1.154,1.154,0,0,1-1.056.852" fill="#fff"/>
        <path id="Trazado_245952" data-name="Trazado 245952" d="M149.144,43.967a16.033,16.033,0,1,1,16.034-16.033,16.052,16.052,0,0,1-16.034,16.033m0-29.864a13.831,13.831,0,1,0,13.831,13.831A13.847,13.847,0,0,0,149.144,14.1" fill="#8c6df2"/>
        <path id="Trazado_245953" data-name="Trazado 245953" d="M158.935,28c0,1-.548,1.89-1.224,1.89H140.576c-.676,0-1.224-.893-1.224-1.89s.548-1.89,1.224-1.89h17.135c.676,0,1.224.893,1.224,1.89" fill="#8c6df2"/>
        <path id="Trazado_245954" data-name="Trazado 245954" d="M144.19,147.942l-25.2,1.392a3.113,3.113,0,0,1-2.834-1.414,3.023,3.023,0,0,1,0-3.14L129.1,122.72a3.257,3.257,0,0,1,2.74-1.592,3.093,3.093,0,0,1,2.717,1.491l12.261,20.667a3.012,3.012,0,0,1-.006,3.008,3.25,3.25,0,0,1-2.623,1.648m-12.351-24.656a.979.979,0,0,0-.82.479L118.141,145.78a.905.905,0,0,0,0,.939.934.934,0,0,0,.847.425l25.206-1.315a.976.976,0,0,0,.789-.494.9.9,0,0,0,0-.9l-12.328-20.7a.927.927,0,0,0-.817-.446" fill="#fff"/>
        <path id="Trazado_245955" data-name="Trazado 245955" d="M133.181,141.171a1.818,1.818,0,0,0-1.35-.392,2.039,2.039,0,0,0-1.382.5,1.775,1.775,0,0,0-.477,1.331,1.61,1.61,0,0,0,.485,1.27,1.846,1.846,0,0,0,1.371.392,1.948,1.948,0,0,0,1.345-.533,1.773,1.773,0,0,0,.483-1.3,1.621,1.621,0,0,0-.475-1.271" fill="#fff"/>
        <path id="Trazado_245956" data-name="Trazado 245956" d="M131.131,139.091l1.424-.059a.653.653,0,0,0,.6-.609l.483-8.889a.524.524,0,0,0-.164-.41.571.571,0,0,0-.436-.149l-2.373.065a.6.6,0,0,0-.44.168.57.57,0,0,0-.167.429l.468,8.9a.585.585,0,0,0,.6.554" fill="#fff"/>
        <path id="Trazado_245957" data-name="Trazado 245957" d="M45.445,54.948a2.886,2.886,0,0,1-2.786,2.9l-.093,0a2.735,2.735,0,0,1-2.791-2.791V41.728a2.808,2.808,0,0,1,2.777-2.864h.125a2.8,2.8,0,0,1,2.768,2.843Z" fill="#fff"/>
        <path id="Trazado_245958" data-name="Trazado 245958" d="M38.357,51.468A3.024,3.024,0,0,1,35.57,54.22h-.01a2.63,2.63,0,0,1-2.637-2.668V45.4a2.7,2.7,0,0,1,2.627-2.758h.02a2.811,2.811,0,0,1,2.787,2.715Z" fill="#fff"/>
        <path id="Trazado_245959" data-name="Trazado 245959" d="M62.455,41.647A2.71,2.71,0,0,0,59.8,38.865h-.12a2.924,2.924,0,0,0-2.9,2.8V54.716a2.756,2.756,0,0,0,2.8,2.732l.153,0a2.837,2.837,0,0,0,2.717-2.84Z" fill="#fff"/>
        <path id="Trazado_245960" data-name="Trazado 245960" d="M68.834,45.112a2.623,2.623,0,0,0-2.445-2.7h.024a2.729,2.729,0,0,0-2.54,2.744v5.913a2.468,2.468,0,0,0,2.54,2.447H66.4a2.453,2.453,0,0,0,2.433-2.525Z" fill="#fff"/>
        <path id="Trazado_245961" data-name="Trazado 245961" d="M55.367,50.328l-8.033.118V46.168l8.033-.075Z" fill="#fff"/>
      </g>
    </g>
  </g>
</svg>
