<svg id="Grupo_180529" data-name="Grupo 180529" xmlns="http://www.w3.org/2000/svg" xmlns:xlink="http://www.w3.org/1999/xlink" width="520" height="287.978" viewBox="0 0 520 287.978">
  <defs>
    <clipPath id="clip-path">
      <rect id="Rectángulo_103474" data-name="Rectángulo 103474" width="520" height="287.977" fill="none"/>
    </clipPath>
  </defs>
  <line id="Línea_382" data-name="Línea 382" x1="50.522" y2="34.636" transform="translate(312.489 31.611)" fill="none" stroke="#8c6df2" stroke-miterlimit="10" stroke-width="3"/>
  <line id="Línea_383" data-name="Línea 383" x2="50.522" y2="34.636" transform="translate(312.489 85.394)" fill="none" stroke="#8c6df2" stroke-miterlimit="10" stroke-width="3"/>
  <line id="Línea_384" data-name="Línea 384" x1="50.522" y2="34.636" transform="translate(131.37 100.895)" fill="none" stroke="#8c6df2" stroke-miterlimit="10" stroke-width="3"/>
  <line id="Línea_385" data-name="Línea 385" x2="50.522" y2="34.636" transform="translate(131.37 154.678)" fill="none" stroke="#8c6df2" stroke-miterlimit="10" stroke-width="3"/>
  <line id="Línea_386" data-name="Línea 386" x1="50.522" y2="34.636" transform="translate(312.489 170.178)" fill="none" stroke="#8c6df2" stroke-miterlimit="10" stroke-width="3"/>
  <line id="Línea_387" data-name="Línea 387" x2="50.522" y2="34.636" transform="translate(312.489 223.961)" fill="none" stroke="#8c6df2" stroke-miterlimit="10" stroke-width="3"/>
  <g id="Grupo_180528" data-name="Grupo 180528">
    <g id="Grupo_180527" data-name="Grupo 180527" clip-path="url(#clip-path)">
      <path id="Trazado_244447" data-name="Trazado 244447" d="M145.195,161.328H23.726A23.8,23.8,0,0,1,0,137.6V126.181a23.8,23.8,0,0,1,23.725-23.727H145.195a23.8,23.8,0,0,1,23.727,23.727V137.6a23.8,23.8,0,0,1-23.727,23.727" transform="translate(0 13.213)" fill="#fedc72"/>
      <path id="Trazado_244448" data-name="Trazado 244448" d="M56.052,123.933l.018.053a3.876,3.876,0,0,1-1.27,3.029,4.839,4.839,0,0,1-3.449,1.223,4.529,4.529,0,0,1-3.549-1.544,5.672,5.672,0,0,1-1.371-3.915v-2.285a5.7,5.7,0,0,1,1.371-3.921,4.521,4.521,0,0,1,3.549-1.548,4.982,4.982,0,0,1,3.466,1.161,3.833,3.833,0,0,1,1.253,3.073l-.018.053H54.385a2.858,2.858,0,0,0-.794-2.134,3.044,3.044,0,0,0-2.24-.786,2.741,2.741,0,0,0-2.32,1.172,4.772,4.772,0,0,0-.864,2.909v2.3a4.8,4.8,0,0,0,.864,2.925,2.739,2.739,0,0,0,2.32,1.173,3.056,3.056,0,0,0,2.24-.781,2.882,2.882,0,0,0,.794-2.156Z" transform="translate(5.988 14.834)"/>
      <path id="Trazado_244449" data-name="Trazado 244449" d="M56.4,122.814a5.255,5.255,0,0,1,1.147-3.488,3.845,3.845,0,0,1,3.113-1.372,3.886,3.886,0,0,1,3.136,1.367,5.243,5.243,0,0,1,1.15,3.493v.194A5.234,5.234,0,0,1,63.8,126.5a4.269,4.269,0,0,1-6.25,0,5.225,5.225,0,0,1-1.15-3.489Zm1.737.19a4.51,4.51,0,0,0,.639,2.5,2.312,2.312,0,0,0,3.789,0,4.492,4.492,0,0,0,.644-2.5v-.194a4.478,4.478,0,0,0-.648-2.493,2.126,2.126,0,0,0-1.9-1,2.1,2.1,0,0,0-1.883,1,4.523,4.523,0,0,0-.639,2.493Z" transform="translate(7.273 15.212)"/>
      <rect id="Rectángulo_103466" data-name="Rectángulo 103466" width="1.737" height="13.76" transform="translate(74.486 129.126)"/>
      <path id="Trazado_244450" data-name="Trazado 244450" d="M75.786,127.674c-.059-.288-.1-.543-.137-.763a5.468,5.468,0,0,1-.058-.666,4.057,4.057,0,0,1-1.266,1.152,3.242,3.242,0,0,1-1.681.463,3.122,3.122,0,0,1-2.27-.763,2.8,2.8,0,0,1-.781-2.1,2.465,2.465,0,0,1,1.108-2.139,5.165,5.165,0,0,1,3-.771h1.888v-.944a1.755,1.755,0,0,0-.511-1.328,2.011,2.011,0,0,0-1.447-.49,2.085,2.085,0,0,0-1.363.428,1.289,1.289,0,0,0-.524,1.027H70.088l-.018-.052a2.312,2.312,0,0,1,.983-1.906,4.039,4.039,0,0,1,2.677-.865,3.942,3.942,0,0,1,2.611.825,2.921,2.921,0,0,1,.988,2.376v4.6a9.042,9.042,0,0,0,.053.988,5.1,5.1,0,0,0,.194.935ZM72.9,126.4a3.1,3.1,0,0,0,1.7-.484,2.3,2.3,0,0,0,.988-1.108v-1.548h-1.95a2.529,2.529,0,0,0-1.68.528,1.576,1.576,0,0,0-.631,1.24,1.306,1.306,0,0,0,.4,1,1.665,1.665,0,0,0,1.173.369" transform="translate(8.975 15.212)"/>
      <path id="Trazado_244451" data-name="Trazado 244451" d="M86.812,123.264a5.26,5.26,0,0,1-.988,3.329,3.266,3.266,0,0,1-2.725,1.266,3.794,3.794,0,0,1-1.548-.295,2.961,2.961,0,0,1-1.133-.887v4.666H78.68V118.13h1.332l.273,1.235a3.162,3.162,0,0,1,1.164-1.05,3.469,3.469,0,0,1,1.623-.361,3.172,3.172,0,0,1,2.756,1.407,6.364,6.364,0,0,1,.983,3.718Zm-1.737-.19a5.025,5.025,0,0,0-.639-2.664,2.073,2.073,0,0,0-1.883-1.044,2.313,2.313,0,0,0-1.279.34,2.52,2.52,0,0,0-.856.929v4.606a2.441,2.441,0,0,0,.856.92,2.391,2.391,0,0,0,1.3.331,2.14,2.14,0,0,0,1.871-.9,3.963,3.963,0,0,0,.634-2.33Z" transform="translate(10.147 15.212)"/>
      <path id="Trazado_244452" data-name="Trazado 244452" d="M93.356,125.134a1.183,1.183,0,0,0-.437-.944,4.1,4.1,0,0,0-1.654-.644,6.993,6.993,0,0,1-2.615-1.025,2.078,2.078,0,0,1-.877-1.767,2.493,2.493,0,0,1,.988-1.981,4.5,4.5,0,0,1,5.226.036,2.531,2.531,0,0,1,.939,2.082l-.018.053H93.25a1.516,1.516,0,0,0-.525-1.124,1.931,1.931,0,0,0-1.389-.5,2.008,2.008,0,0,0-1.376.405,1.272,1.272,0,0,0-.449.979,1.092,1.092,0,0,0,.4.891,4.132,4.132,0,0,0,1.614.583,6.962,6.962,0,0,1,2.69,1.053,2.128,2.128,0,0,1,.882,1.786,2.47,2.47,0,0,1-1.027,2.056,4.3,4.3,0,0,1-2.686.785,4.194,4.194,0,0,1-2.875-.926,2.643,2.643,0,0,1-1-2.161l.018-.053h1.658a1.6,1.6,0,0,0,.688,1.347,2.673,2.673,0,0,0,1.508.426,2.451,2.451,0,0,0,1.451-.375,1.157,1.157,0,0,0,.525-.983" transform="translate(11.285 15.212)"/>
      <path id="Trazado_244453" data-name="Trazado 244453" d="M95.782,122.814a5.255,5.255,0,0,1,1.147-3.488,3.845,3.845,0,0,1,3.113-1.372,3.886,3.886,0,0,1,3.136,1.367,5.243,5.243,0,0,1,1.15,3.493v.194a5.234,5.234,0,0,1-1.146,3.493,4.269,4.269,0,0,1-6.25,0,5.225,5.225,0,0,1-1.15-3.489Zm1.737.19a4.511,4.511,0,0,0,.639,2.5,2.312,2.312,0,0,0,3.789,0,4.492,4.492,0,0,0,.644-2.5v-.194a4.478,4.478,0,0,0-.648-2.493,2.126,2.126,0,0,0-1.9-1,2.1,2.1,0,0,0-1.883,1,4.523,4.523,0,0,0-.639,2.493Z" transform="translate(12.352 15.212)"/>
      <path id="Trazado_244454" data-name="Trazado 244454" d="M40.751,142.858a4.025,4.025,0,0,1-3.17-1.327,4.994,4.994,0,0,1-1.178-3.444V137.7a4.9,4.9,0,0,1,1.213-3.391,3.734,3.734,0,0,1,2.871-1.354,3.616,3.616,0,0,1,2.92,1.164,4.643,4.643,0,0,1,.988,3.1v1.085H38.2l-.027.044a3.758,3.758,0,0,0,.7,2.256,2.221,2.221,0,0,0,1.879.885,4.38,4.38,0,0,0,1.548-.252,3.565,3.565,0,0,0,1.152-.692l.68,1.13a4.062,4.062,0,0,1-1.35.843,5.442,5.442,0,0,1-2.029.336m-.264-8.537a1.883,1.883,0,0,0-1.49.734,3.466,3.466,0,0,0-.759,1.841l.017.044h4.4v-.228a2.644,2.644,0,0,0-.548-1.706,1.949,1.949,0,0,0-1.622-.685" transform="translate(4.695 17.146)"/>
      <path id="Trazado_244455" data-name="Trazado 244455" d="M50.789,140.134a1.183,1.183,0,0,0-.437-.944,4.1,4.1,0,0,0-1.654-.644,6.993,6.993,0,0,1-2.615-1.025,2.078,2.078,0,0,1-.877-1.767,2.493,2.493,0,0,1,.988-1.981,4.5,4.5,0,0,1,5.226.036,2.531,2.531,0,0,1,.939,2.082l-.018.053H50.683a1.519,1.519,0,0,0-.524-1.124,1.936,1.936,0,0,0-1.39-.5,2.008,2.008,0,0,0-1.376.405,1.272,1.272,0,0,0-.449.979,1.092,1.092,0,0,0,.4.891,4.132,4.132,0,0,0,1.614.583,6.962,6.962,0,0,1,2.69,1.053,2.128,2.128,0,0,1,.882,1.786,2.47,2.47,0,0,1-1.027,2.056,4.3,4.3,0,0,1-2.686.785,4.194,4.194,0,0,1-2.875-.926,2.643,2.643,0,0,1-1-2.161l.018-.053h1.658a1.6,1.6,0,0,0,.688,1.347,2.673,2.673,0,0,0,1.508.426,2.451,2.451,0,0,0,1.451-.375,1.157,1.157,0,0,0,.525-.983" transform="translate(5.796 17.146)"/>
      <path id="Trazado_244456" data-name="Trazado 244456" d="M55.978,131.071v2.3h1.809v1.288H55.978v5.795a1.3,1.3,0,0,0,.278.943,1,1,0,0,0,.736.274,1.719,1.719,0,0,0,.331-.036,1.848,1.848,0,0,0,.323-.088l.229,1.191a1.52,1.52,0,0,1-.569.26,2.88,2.88,0,0,1-.754.1,2.248,2.248,0,0,1-1.684-.639,2.776,2.776,0,0,1-.627-2.006v-5.795H52.723v-1.288H54.24v-2.3Z" transform="translate(6.799 16.904)"/>
      <path id="Trazado_244457" data-name="Trazado 244457" d="M63.622,134.666l-.891-.053a1.993,1.993,0,0,0-1.159.326,2.1,2.1,0,0,0-.728.918v6.818H59.106v-9.543h1.552l.167,1.393a3.33,3.33,0,0,1,1-1.155,2.334,2.334,0,0,1,1.372-.415,2.065,2.065,0,0,1,.37.032,2.536,2.536,0,0,1,.291.065Z" transform="translate(7.623 17.146)"/>
      <path id="Trazado_244458" data-name="Trazado 244458" d="M70.653,141.243a3.235,3.235,0,0,1-1.155,1.182,3.162,3.162,0,0,1-1.632.414,3.064,3.064,0,0,1-2.434-1,4.626,4.626,0,0,1-.873-3.1v-5.627H66.3v5.645a3.55,3.55,0,0,0,.449,2.1,1.672,1.672,0,0,0,1.4.574,2.854,2.854,0,0,0,1.531-.375,2.351,2.351,0,0,0,.912-1.062v-6.88h1.737v9.543h-1.56Z" transform="translate(8.326 17.167)"/>
      <path id="Trazado_244459" data-name="Trazado 244459" d="M77.611,141.492a2.338,2.338,0,0,0,1.522-.534,1.632,1.632,0,0,0,.657-1.31h1.562l.017.053a2.69,2.69,0,0,1-1.1,2.2,4,4,0,0,1-2.66.962,3.864,3.864,0,0,1-3.184-1.358,5.235,5.235,0,0,1-1.1-3.414v-.37a5.212,5.212,0,0,1,1.106-3.4,4.346,4.346,0,0,1,5.919-.375,3.071,3.071,0,0,1,1.026,2.425l-.018.053H79.789a2.025,2.025,0,0,0-.616-1.487,2.126,2.126,0,0,0-1.562-.613,2.091,2.091,0,0,0-1.953.983,4.613,4.613,0,0,0-.587,2.408v.37a4.676,4.676,0,0,0,.583,2.436,2.1,2.1,0,0,0,1.958.973" transform="translate(9.456 17.146)"/>
      <path id="Trazado_244460" data-name="Trazado 244460" d="M84.579,131.071v2.3h1.809v1.288H84.579v5.795a1.3,1.3,0,0,0,.278.943,1,1,0,0,0,.736.274,1.719,1.719,0,0,0,.331-.036,1.849,1.849,0,0,0,.323-.088l.229,1.191a1.52,1.52,0,0,1-.569.26,2.88,2.88,0,0,1-.754.1,2.248,2.248,0,0,1-1.684-.639,2.776,2.776,0,0,1-.627-2.006v-5.795H81.324v-1.288h1.517v-2.3Z" transform="translate(10.488 16.904)"/>
      <path id="Trazado_244461" data-name="Trazado 244461" d="M93.771,141.243a3.235,3.235,0,0,1-1.155,1.182,3.162,3.162,0,0,1-1.632.414,3.064,3.064,0,0,1-2.434-1,4.626,4.626,0,0,1-.873-3.1v-5.627h1.737v5.645a3.55,3.55,0,0,0,.449,2.1,1.672,1.672,0,0,0,1.4.574,2.854,2.854,0,0,0,1.531-.375,2.351,2.351,0,0,0,.912-1.062v-6.88h1.737v9.543h-1.56Z" transform="translate(11.307 17.167)"/>
      <path id="Trazado_244462" data-name="Trazado 244462" d="M101.317,134.666l-.891-.053a1.993,1.993,0,0,0-1.159.326,2.1,2.1,0,0,0-.728.918v6.818H96.8v-9.543h1.552l.167,1.393a3.33,3.33,0,0,1,1-1.155,2.334,2.334,0,0,1,1.372-.415,2.065,2.065,0,0,1,.37.032,2.536,2.536,0,0,1,.291.065Z" transform="translate(12.484 17.146)"/>
      <path id="Trazado_244463" data-name="Trazado 244463" d="M108.188,142.674c-.059-.288-.1-.543-.137-.763a5.466,5.466,0,0,1-.058-.666,4.057,4.057,0,0,1-1.266,1.152,3.242,3.242,0,0,1-1.681.463,3.122,3.122,0,0,1-2.27-.763,2.8,2.8,0,0,1-.781-2.1,2.465,2.465,0,0,1,1.108-2.139,5.165,5.165,0,0,1,3-.771h1.888v-.944a1.755,1.755,0,0,0-.511-1.328,2.011,2.011,0,0,0-1.447-.49,2.085,2.085,0,0,0-1.363.428,1.289,1.289,0,0,0-.524,1.027H102.49l-.018-.052a2.312,2.312,0,0,1,.983-1.906,4.039,4.039,0,0,1,2.677-.865,3.942,3.942,0,0,1,2.611.825,2.921,2.921,0,0,1,.988,2.376v4.6a9.042,9.042,0,0,0,.053.988,5.1,5.1,0,0,0,.194.935ZM105.3,141.4a3.1,3.1,0,0,0,1.7-.484,2.3,2.3,0,0,0,.988-1.108v-1.548h-1.95a2.529,2.529,0,0,0-1.68.528,1.576,1.576,0,0,0-.631,1.24,1.306,1.306,0,0,0,.4,1,1.665,1.665,0,0,0,1.173.369" transform="translate(13.154 17.146)"/>
      <rect id="Rectángulo_103467" data-name="Rectángulo 103467" width="1.737" height="13.76" transform="translate(125.549 146.061)"/>
      <path id="Trazado_244464" data-name="Trazado 244464" d="M287.745,99.959H166.276A23.8,23.8,0,0,1,142.55,76.232V64.812a23.8,23.8,0,0,1,23.726-23.727H287.745a23.8,23.8,0,0,1,23.727,23.727V76.232a23.8,23.8,0,0,1-23.727,23.727" transform="translate(18.384 5.299)" fill="#fedc72"/>
      <path id="Trazado_244465" data-name="Trazado 244465" d="M201.13,62.564l.018.053a3.869,3.869,0,0,1-1.27,3.029,4.841,4.841,0,0,1-3.449,1.223,4.535,4.535,0,0,1-3.551-1.544,5.678,5.678,0,0,1-1.371-3.915V59.124a5.7,5.7,0,0,1,1.371-3.921,4.527,4.527,0,0,1,3.551-1.548,4.982,4.982,0,0,1,3.466,1.161,3.83,3.83,0,0,1,1.253,3.073l-.018.053h-1.667a2.862,2.862,0,0,0-.794-2.134,3.046,3.046,0,0,0-2.24-.786,2.739,2.739,0,0,0-2.32,1.172,4.772,4.772,0,0,0-.864,2.909v2.3a4.8,4.8,0,0,0,.864,2.925,2.737,2.737,0,0,0,2.32,1.173,3.058,3.058,0,0,0,2.24-.781,2.886,2.886,0,0,0,.794-2.156Z" transform="translate(24.698 6.92)"/>
      <path id="Trazado_244466" data-name="Trazado 244466" d="M207.738,66.305c-.059-.288-.1-.543-.137-.763a5.7,5.7,0,0,1-.058-.666,4.057,4.057,0,0,1-1.266,1.152,3.242,3.242,0,0,1-1.681.463,3.122,3.122,0,0,1-2.27-.763,2.8,2.8,0,0,1-.781-2.1,2.465,2.465,0,0,1,1.108-2.139,5.17,5.17,0,0,1,3-.771h1.888V59.77a1.751,1.751,0,0,0-.511-1.328,2.01,2.01,0,0,0-1.447-.49,2.089,2.089,0,0,0-1.363.428,1.289,1.289,0,0,0-.524,1.027H202.04l-.018-.052a2.315,2.315,0,0,1,.983-1.906,4.039,4.039,0,0,1,2.677-.865,3.94,3.94,0,0,1,2.611.825,2.918,2.918,0,0,1,.988,2.376v4.6a9.04,9.04,0,0,0,.053.988,5.093,5.093,0,0,0,.194.935Zm-2.885-1.279a3.093,3.093,0,0,0,1.7-.484,2.293,2.293,0,0,0,.988-1.108V61.887h-1.95a2.533,2.533,0,0,0-1.68.528,1.576,1.576,0,0,0-.631,1.24,1.306,1.306,0,0,0,.4,1,1.665,1.665,0,0,0,1.173.369" transform="translate(25.992 7.297)"/>
      <path id="Trazado_244467" data-name="Trazado 244467" d="M216.7,64.873a3.234,3.234,0,0,1-1.155,1.182,3.159,3.159,0,0,1-1.632.414,3.064,3.064,0,0,1-2.434-1,4.626,4.626,0,0,1-.873-3.1V56.741h1.737v5.645a3.55,3.55,0,0,0,.449,2.1,1.672,1.672,0,0,0,1.4.574,2.854,2.854,0,0,0,1.531-.375,2.338,2.338,0,0,0,.912-1.062v-6.88h1.737v9.543h-1.56Z" transform="translate(27.16 7.318)"/>
      <path id="Trazado_244468" data-name="Trazado 244468" d="M225.308,63.764a1.183,1.183,0,0,0-.437-.944,4.094,4.094,0,0,0-1.654-.644,7,7,0,0,1-2.615-1.025,2.081,2.081,0,0,1-.877-1.767,2.493,2.493,0,0,1,.988-1.981,4.5,4.5,0,0,1,5.226.036,2.531,2.531,0,0,1,.939,2.082l-.018.053H225.2a1.512,1.512,0,0,0-.525-1.124,1.931,1.931,0,0,0-1.389-.5,2.008,2.008,0,0,0-1.376.405,1.272,1.272,0,0,0-.449.979,1.092,1.092,0,0,0,.4.891,4.131,4.131,0,0,0,1.614.583,6.955,6.955,0,0,1,2.69,1.053,2.125,2.125,0,0,1,.882,1.786,2.467,2.467,0,0,1-1.027,2.056,4.3,4.3,0,0,1-2.686.785,4.194,4.194,0,0,1-2.875-.926,2.647,2.647,0,0,1-1-2.161l.018-.053h1.658a1.6,1.6,0,0,0,.688,1.347,2.678,2.678,0,0,0,1.508.426,2.451,2.451,0,0,0,1.451-.375,1.154,1.154,0,0,0,.525-.983" transform="translate(28.302 7.297)"/>
      <path id="Trazado_244469" data-name="Trazado 244469" d="M234,66.305c-.059-.288-.1-.543-.137-.763a5.7,5.7,0,0,1-.058-.666,4.057,4.057,0,0,1-1.266,1.152,3.242,3.242,0,0,1-1.681.463,3.122,3.122,0,0,1-2.27-.763,2.8,2.8,0,0,1-.781-2.1,2.465,2.465,0,0,1,1.108-2.139,5.17,5.17,0,0,1,3-.771H233.8V59.77a1.751,1.751,0,0,0-.511-1.328,2.01,2.01,0,0,0-1.447-.49,2.089,2.089,0,0,0-1.363.428,1.289,1.289,0,0,0-.524,1.027H228.3l-.018-.052a2.315,2.315,0,0,1,.983-1.906,4.039,4.039,0,0,1,2.677-.865,3.94,3.94,0,0,1,2.611.825,2.918,2.918,0,0,1,.988,2.376v4.6a9.04,9.04,0,0,0,.053.988,5.1,5.1,0,0,0,.194.935Zm-2.885-1.279a3.093,3.093,0,0,0,1.7-.484,2.293,2.293,0,0,0,.988-1.108V61.887h-1.95a2.533,2.533,0,0,0-1.68.528,1.576,1.576,0,0,0-.631,1.24,1.306,1.306,0,0,0,.4,1,1.665,1.665,0,0,0,1.173.369" transform="translate(29.379 7.297)"/>
      <path id="Trazado_244470" data-name="Trazado 244470" d="M242.472,63.764a1.183,1.183,0,0,0-.437-.944,4.1,4.1,0,0,0-1.654-.644,7,7,0,0,1-2.615-1.025,2.081,2.081,0,0,1-.877-1.767,2.493,2.493,0,0,1,.988-1.981,4.5,4.5,0,0,1,5.226.036,2.531,2.531,0,0,1,.939,2.082l-.018.053h-1.658a1.512,1.512,0,0,0-.525-1.124,1.931,1.931,0,0,0-1.389-.5,2.008,2.008,0,0,0-1.376.405,1.272,1.272,0,0,0-.449.979,1.092,1.092,0,0,0,.4.891,4.131,4.131,0,0,0,1.614.583,6.955,6.955,0,0,1,2.69,1.053,2.125,2.125,0,0,1,.882,1.786,2.467,2.467,0,0,1-1.027,2.056,4.3,4.3,0,0,1-2.686.785,4.194,4.194,0,0,1-2.875-.926,2.647,2.647,0,0,1-1-2.161l.018-.053H238.3a1.6,1.6,0,0,0,.688,1.347,2.678,2.678,0,0,0,1.508.426,2.451,2.451,0,0,0,1.451-.375,1.154,1.154,0,0,0,.525-.983" transform="translate(30.516 7.297)"/>
      <path id="Trazado_244471" data-name="Trazado 244471" d="M198.657,77.356a5.241,5.241,0,0,1-.992,3.329,3.278,3.278,0,0,1-2.73,1.266,3.488,3.488,0,0,1-1.64-.366,3.052,3.052,0,0,1-1.155-1.08l-.212,1.261h-1.42V68.007h1.737v5.345a3.022,3.022,0,0,1,1.117-.97,3.419,3.419,0,0,1,1.557-.335,3.171,3.171,0,0,1,2.751,1.411,6.342,6.342,0,0,1,.988,3.713Zm-1.737-.185a5.264,5.264,0,0,0-.6-2.677,1.99,1.99,0,0,0-1.839-1.036,2.273,2.273,0,0,0-1.354.393,2.785,2.785,0,0,0-.878,1.053V79.04a2.851,2.851,0,0,0,.878,1.1,2.263,2.263,0,0,0,1.372.4,2.062,2.062,0,0,0,1.826-.873,4.013,4.013,0,0,0,.6-2.311Z" transform="translate(24.569 8.771)"/>
      <path id="Trazado_244472" data-name="Trazado 244472" d="M205.5,81.706c-.058-.288-.1-.543-.137-.763a5.962,5.962,0,0,1-.058-.666,4.056,4.056,0,0,1-1.266,1.152,3.241,3.241,0,0,1-1.68.463,3.123,3.123,0,0,1-2.271-.763,2.8,2.8,0,0,1-.78-2.1,2.466,2.466,0,0,1,1.106-2.139,5.173,5.173,0,0,1,3-.771h1.886v-.944a1.747,1.747,0,0,0-.511-1.328,2,2,0,0,0-1.446-.49,2.089,2.089,0,0,0-1.363.428,1.29,1.29,0,0,0-.525,1.027h-1.658l-.017-.053a2.314,2.314,0,0,1,.983-1.9,4.035,4.035,0,0,1,2.677-.865,3.94,3.94,0,0,1,2.611.825,2.918,2.918,0,0,1,.988,2.376v4.6a9.045,9.045,0,0,0,.052.988,5.188,5.188,0,0,0,.194.935Zm-2.883-1.279a3.091,3.091,0,0,0,1.7-.484,2.281,2.281,0,0,0,.988-1.108V77.288H203.36a2.539,2.539,0,0,0-1.68.527,1.58,1.58,0,0,0-.631,1.241,1.3,1.3,0,0,0,.4,1,1.665,1.665,0,0,0,1.173.369m1.49-11.951h2.029l.017.053-2.381,2.293h-1.3Z" transform="translate(25.704 8.831)"/>
      <path id="Trazado_244473" data-name="Trazado 244473" d="M213.98,78.764a1.183,1.183,0,0,0-.437-.944,4.094,4.094,0,0,0-1.654-.644,7,7,0,0,1-2.615-1.025,2.081,2.081,0,0,1-.877-1.767,2.493,2.493,0,0,1,.988-1.981,4.5,4.5,0,0,1,5.226.036,2.531,2.531,0,0,1,.939,2.082l-.018.053h-1.658a1.512,1.512,0,0,0-.525-1.124,1.931,1.931,0,0,0-1.389-.5,2.008,2.008,0,0,0-1.376.405,1.272,1.272,0,0,0-.449.979,1.092,1.092,0,0,0,.4.891,4.132,4.132,0,0,0,1.614.583,6.955,6.955,0,0,1,2.69,1.053,2.125,2.125,0,0,1,.882,1.786A2.467,2.467,0,0,1,214.69,80.7a4.3,4.3,0,0,1-2.686.785,4.194,4.194,0,0,1-2.875-.926,2.647,2.647,0,0,1-1-2.161l.018-.053h1.658A1.6,1.6,0,0,0,210.5,79.7a2.678,2.678,0,0,0,1.508.426,2.451,2.451,0,0,0,1.451-.375,1.154,1.154,0,0,0,.525-.983" transform="translate(26.841 9.232)"/>
      <path id="Trazado_244474" data-name="Trazado 244474" d="M218.628,69.779H216.89V68.007h1.737Zm0,11.987H216.89V72.224h1.737Z" transform="translate(27.971 8.771)"/>
      <path id="Trazado_244475" data-name="Trazado 244475" d="M224.724,80.123a2.338,2.338,0,0,0,1.522-.534,1.629,1.629,0,0,0,.657-1.31h1.561l.017.053a2.684,2.684,0,0,1-1.1,2.2,4,4,0,0,1-2.659.962,3.862,3.862,0,0,1-3.184-1.358,5.242,5.242,0,0,1-1.1-3.414v-.37a5.212,5.212,0,0,1,1.108-3.4,4.345,4.345,0,0,1,5.918-.375A3.068,3.068,0,0,1,228.49,75l-.018.053H226.9a2.018,2.018,0,0,0-.618-1.487,2.122,2.122,0,0,0-1.561-.613,2.092,2.092,0,0,0-1.953.983,4.624,4.624,0,0,0-.587,2.408v.37a4.676,4.676,0,0,0,.583,2.436,2.1,2.1,0,0,0,1.958.973" transform="translate(28.429 9.232)"/>
      <path id="Trazado_244476" data-name="Trazado 244476" d="M235.191,81.305c-.059-.288-.1-.543-.137-.763a5.7,5.7,0,0,1-.058-.666,4.057,4.057,0,0,1-1.266,1.152,3.242,3.242,0,0,1-1.681.463,3.122,3.122,0,0,1-2.27-.763,2.8,2.8,0,0,1-.781-2.1,2.465,2.465,0,0,1,1.108-2.139,5.169,5.169,0,0,1,3-.771H235V74.77a1.751,1.751,0,0,0-.511-1.328,2.009,2.009,0,0,0-1.447-.49,2.089,2.089,0,0,0-1.363.428,1.289,1.289,0,0,0-.524,1.027h-1.658l-.018-.052a2.315,2.315,0,0,1,.983-1.906,4.039,4.039,0,0,1,2.677-.865,3.94,3.94,0,0,1,2.611.825,2.918,2.918,0,0,1,.988,2.376v4.6a9.044,9.044,0,0,0,.053.988,5.094,5.094,0,0,0,.194.935Zm-2.884-1.279a3.092,3.092,0,0,0,1.7-.484A2.293,2.293,0,0,0,235,78.434V76.887h-1.95a2.533,2.533,0,0,0-1.68.528,1.576,1.576,0,0,0-.631,1.24,1.306,1.306,0,0,0,.4,1,1.665,1.665,0,0,0,1.173.369" transform="translate(29.533 9.232)"/>
      <path id="Trazado_244477" data-name="Trazado 244477" d="M243.667,78.764a1.183,1.183,0,0,0-.437-.944,4.094,4.094,0,0,0-1.654-.644,7,7,0,0,1-2.615-1.025,2.081,2.081,0,0,1-.877-1.767,2.493,2.493,0,0,1,.988-1.981,4.5,4.5,0,0,1,5.226.036,2.531,2.531,0,0,1,.939,2.082l-.018.053h-1.658a1.512,1.512,0,0,0-.525-1.124,1.931,1.931,0,0,0-1.389-.5,2.008,2.008,0,0,0-1.376.405,1.272,1.272,0,0,0-.449.979,1.092,1.092,0,0,0,.4.891,4.132,4.132,0,0,0,1.614.583,6.955,6.955,0,0,1,2.69,1.053,2.125,2.125,0,0,1,.882,1.786,2.467,2.467,0,0,1-1.027,2.056,4.3,4.3,0,0,1-2.686.785,4.194,4.194,0,0,1-2.875-.926,2.647,2.647,0,0,1-1-2.161l.018-.053H239.5a1.6,1.6,0,0,0,.688,1.347,2.678,2.678,0,0,0,1.508.426,2.451,2.451,0,0,0,1.451-.375,1.154,1.154,0,0,0,.525-.983" transform="translate(30.67 9.232)"/>
      <path id="Trazado_244478" data-name="Trazado 244478" d="M456.168,58.873H334.7a23.8,23.8,0,0,1-23.726-23.727V23.726A23.8,23.8,0,0,1,334.7,0H456.168A23.8,23.8,0,0,1,479.9,23.726V35.146a23.8,23.8,0,0,1-23.727,23.727" transform="translate(40.104 0)" fill="#fedc72"/>
      <path id="Trazado_244479" data-name="Trazado 244479" d="M352.872,25.576h-1.737l-6.183-9.931-.052.018v9.913h-1.739V12.734H344.9l6.182,9.913.053-.017v-9.9h1.737Z" transform="translate(44.256 1.642)"/>
      <path id="Trazado_244480" data-name="Trazado 244480" d="M353.927,20.359a5.25,5.25,0,0,1,1.147-3.489,3.844,3.844,0,0,1,3.113-1.372,3.886,3.886,0,0,1,3.136,1.367,5.243,5.243,0,0,1,1.15,3.493v.194a5.234,5.234,0,0,1-1.146,3.493,4.269,4.269,0,0,1-6.25,0,5.225,5.225,0,0,1-1.15-3.489Zm1.737.19a4.511,4.511,0,0,0,.639,2.5,2.312,2.312,0,0,0,3.789,0,4.492,4.492,0,0,0,.644-2.5v-.194a4.478,4.478,0,0,0-.648-2.493,2.126,2.126,0,0,0-1.9-1,2.1,2.1,0,0,0-1.883,1,4.523,4.523,0,0,0-.639,2.493Z" transform="translate(45.644 1.999)"/>
      <path id="Trazado_244481" data-name="Trazado 244481" d="M373.259,25.219c-.06-.288-.1-.543-.137-.763a5.249,5.249,0,0,1-.058-.666,4.07,4.07,0,0,1-1.266,1.152,3.242,3.242,0,0,1-1.681.463,3.121,3.121,0,0,1-2.27-.763,2.8,2.8,0,0,1-.781-2.1,2.462,2.462,0,0,1,1.108-2.139,5.165,5.165,0,0,1,3-.771h1.888v-.944a1.755,1.755,0,0,0-.511-1.328,2.013,2.013,0,0,0-1.447-.49,2.085,2.085,0,0,0-1.363.428,1.286,1.286,0,0,0-.524,1.027h-1.658l-.018-.052a2.312,2.312,0,0,1,.983-1.906A4.037,4.037,0,0,1,371.2,15.5a3.944,3.944,0,0,1,2.611.825A2.921,2.921,0,0,1,374.8,18.7v4.6a9.033,9.033,0,0,0,.053.988,5,5,0,0,0,.194.935Zm-2.884-1.279a3.1,3.1,0,0,0,1.7-.484,2.3,2.3,0,0,0,.988-1.108V20.8h-1.95a2.529,2.529,0,0,0-1.68.528,1.573,1.573,0,0,0-.631,1.24,1.306,1.306,0,0,0,.4,1,1.663,1.663,0,0,0,1.173.369" transform="translate(47.339 1.999)"/>
      <path id="Trazado_244482" data-name="Trazado 244482" d="M381.735,22.679a1.183,1.183,0,0,0-.437-.944,4.1,4.1,0,0,0-1.654-.644,6.986,6.986,0,0,1-2.615-1.025,2.078,2.078,0,0,1-.877-1.767,2.489,2.489,0,0,1,.988-1.981,4.5,4.5,0,0,1,5.226.036,2.537,2.537,0,0,1,.939,2.082l-.018.053h-1.658a1.516,1.516,0,0,0-.525-1.124,1.935,1.935,0,0,0-1.389-.5,2.008,2.008,0,0,0-1.376.405,1.272,1.272,0,0,0-.449.979,1.092,1.092,0,0,0,.4.891,4.132,4.132,0,0,0,1.614.583,6.97,6.97,0,0,1,2.69,1.053,2.128,2.128,0,0,1,.882,1.786,2.47,2.47,0,0,1-1.027,2.056,4.305,4.305,0,0,1-2.686.785,4.192,4.192,0,0,1-2.875-.926,2.643,2.643,0,0,1-1-2.161l.018-.053h1.658a1.591,1.591,0,0,0,.688,1.347,2.673,2.673,0,0,0,1.508.426,2.453,2.453,0,0,0,1.451-.375,1.157,1.157,0,0,0,.525-.983" transform="translate(48.476 1.999)"/>
      <path id="Trazado_244483" data-name="Trazado 244483" d="M388.525,25.4a4.023,4.023,0,0,1-3.17-1.327,4.994,4.994,0,0,1-1.178-3.444v-.388a4.891,4.891,0,0,1,1.213-3.391A3.734,3.734,0,0,1,388.26,15.5a3.617,3.617,0,0,1,2.92,1.164,4.643,4.643,0,0,1,.988,3.1v1.085h-6.191l-.027.044a3.75,3.75,0,0,0,.7,2.256,2.221,2.221,0,0,0,1.879.885,4.379,4.379,0,0,0,1.548-.252,3.589,3.589,0,0,0,1.152-.692l.68,1.13a4.086,4.086,0,0,1-1.35.843,5.443,5.443,0,0,1-2.029.336m-.264-8.537a1.883,1.883,0,0,0-1.49.734,3.457,3.457,0,0,0-.759,1.841l.017.044h4.4v-.228a2.651,2.651,0,0,0-.548-1.706,1.95,1.95,0,0,0-1.622-.685" transform="translate(49.545 1.999)"/>
      <path id="Trazado_244484" data-name="Trazado 244484" d="M392.645,20.624a6.262,6.262,0,0,1,1.006-3.713,3.224,3.224,0,0,1,2.777-1.411,3.356,3.356,0,0,1,1.6.366,3.135,3.135,0,0,1,1.146,1.054l.212-1.244h1.384v9.6A3.642,3.642,0,0,1,399.7,28.09a4.385,4.385,0,0,1-3.079.983,6.386,6.386,0,0,1-1.486-.19,5.778,5.778,0,0,1-1.407-.516l.441-1.349a4.481,4.481,0,0,0,1.128.428,5.4,5.4,0,0,0,1.306.163,2.529,2.529,0,0,0,1.847-.577,2.4,2.4,0,0,0,.578-1.76V24.2a3.043,3.043,0,0,1-1.12.9,3.524,3.524,0,0,1-1.5.3,3.326,3.326,0,0,1-2.76-1.27,5.2,5.2,0,0,1-1.006-3.325Zm1.737.185a3.97,3.97,0,0,0,.609,2.311,2.1,2.1,0,0,0,1.853.873,2.3,2.3,0,0,0,1.314-.357,2.711,2.711,0,0,0,.873-1.01V18.234a2.7,2.7,0,0,0-.873-.966,2.3,2.3,0,0,0-1.3-.357A2.022,2.022,0,0,0,395,17.952a5.173,5.173,0,0,0-.618,2.672Z" transform="translate(50.637 1.999)"/>
      <path id="Trazado_244485" data-name="Trazado 244485" d="M408.138,23.788a3.243,3.243,0,0,1-1.155,1.182,3.162,3.162,0,0,1-1.632.414,3.064,3.064,0,0,1-2.434-1,4.626,4.626,0,0,1-.873-3.1V15.656h1.737V21.3a3.55,3.55,0,0,0,.449,2.1,1.672,1.672,0,0,0,1.4.574,2.856,2.856,0,0,0,1.531-.375,2.351,2.351,0,0,0,.912-1.062v-6.88h1.737V25.2h-1.56Z" transform="translate(51.849 2.019)"/>
      <path id="Trazado_244486" data-name="Trazado 244486" d="M415.685,17.211l-.891-.053a1.993,1.993,0,0,0-1.159.326,2.079,2.079,0,0,0-.728.918v6.818h-1.737V15.676h1.552l.167,1.393a3.331,3.331,0,0,1,1-1.155,2.332,2.332,0,0,1,1.372-.415,2.066,2.066,0,0,1,.37.032,2.649,2.649,0,0,1,.291.065Z" transform="translate(53.026 1.999)"/>
      <path id="Trazado_244487" data-name="Trazado 244487" d="M422.556,25.219c-.06-.288-.105-.543-.137-.763a5.26,5.26,0,0,1-.058-.666,4.069,4.069,0,0,1-1.266,1.152,3.242,3.242,0,0,1-1.681.463,3.121,3.121,0,0,1-2.27-.763,2.8,2.8,0,0,1-.781-2.1,2.462,2.462,0,0,1,1.108-2.139,5.165,5.165,0,0,1,3-.771h1.888v-.944a1.755,1.755,0,0,0-.511-1.328,2.013,2.013,0,0,0-1.447-.49,2.085,2.085,0,0,0-1.363.428,1.286,1.286,0,0,0-.524,1.027h-1.658l-.018-.052a2.312,2.312,0,0,1,.983-1.906A4.037,4.037,0,0,1,420.5,15.5a3.944,3.944,0,0,1,2.611.825A2.921,2.921,0,0,1,424.1,18.7v4.6a9.04,9.04,0,0,0,.053.988,5,5,0,0,0,.194.935Zm-2.885-1.279a3.1,3.1,0,0,0,1.7-.484,2.3,2.3,0,0,0,.988-1.108V20.8h-1.95a2.529,2.529,0,0,0-1.68.528,1.573,1.573,0,0,0-.631,1.24,1.306,1.306,0,0,0,.4,1,1.663,1.663,0,0,0,1.173.369" transform="translate(53.696 1.999)"/>
      <path id="Trazado_244488" data-name="Trazado 244488" d="M429.966,17.211l-.891-.053a1.993,1.993,0,0,0-1.159.326,2.079,2.079,0,0,0-.728.918v6.818H425.45V15.676H427l.167,1.393a3.331,3.331,0,0,1,1-1.155,2.332,2.332,0,0,1,1.372-.415,2.065,2.065,0,0,1,.37.032,2.651,2.651,0,0,1,.291.065Z" transform="translate(54.868 1.999)"/>
      <rect id="Rectángulo_103468" data-name="Rectángulo 103468" width="1.737" height="13.76" transform="translate(385.494 30.393)"/>
      <path id="Trazado_244489" data-name="Trazado 244489" d="M351.267,40.219c-.06-.288-.1-.543-.137-.763a5.243,5.243,0,0,1-.058-.666,4.07,4.07,0,0,1-1.266,1.152,3.242,3.242,0,0,1-1.681.463,3.121,3.121,0,0,1-2.27-.763,2.8,2.8,0,0,1-.781-2.1,2.462,2.462,0,0,1,1.107-2.139,5.165,5.165,0,0,1,3-.771h1.888v-.944a1.755,1.755,0,0,0-.511-1.328,2.013,2.013,0,0,0-1.447-.49,2.085,2.085,0,0,0-1.363.428,1.286,1.286,0,0,0-.524,1.027H345.57l-.018-.052a2.312,2.312,0,0,1,.983-1.906,4.037,4.037,0,0,1,2.677-.865,3.944,3.944,0,0,1,2.611.825,2.921,2.921,0,0,1,.988,2.376v4.6a9.04,9.04,0,0,0,.053.988,5.009,5.009,0,0,0,.194.935Zm-2.884-1.279a3.1,3.1,0,0,0,1.7-.484,2.3,2.3,0,0,0,.988-1.108V35.8h-1.95a2.529,2.529,0,0,0-1.68.528,1.573,1.573,0,0,0-.631,1.24,1.306,1.306,0,0,0,.4,1,1.663,1.663,0,0,0,1.173.369" transform="translate(44.502 3.933)"/>
      <path id="Trazado_244490" data-name="Trazado 244490" d="M362.142,40.4a4.023,4.023,0,0,1-3.17-1.327,4.994,4.994,0,0,1-1.177-3.444v-.388a4.891,4.891,0,0,1,1.213-3.391,3.734,3.734,0,0,1,2.871-1.354,3.617,3.617,0,0,1,2.919,1.164,4.643,4.643,0,0,1,.988,3.1v1.085h-6.191l-.027.044a3.75,3.75,0,0,0,.7,2.256,2.221,2.221,0,0,0,1.879.885,4.379,4.379,0,0,0,1.548-.252,3.589,3.589,0,0,0,1.152-.692l.68,1.13a4.086,4.086,0,0,1-1.35.843,5.442,5.442,0,0,1-2.029.336m-.264-8.537a1.883,1.883,0,0,0-1.49.734,3.457,3.457,0,0,0-.759,1.841l.017.044h4.4v-.228a2.65,2.65,0,0,0-.548-1.706,1.95,1.95,0,0,0-1.622-.685" transform="translate(46.143 3.933)"/>
      <path id="Trazado_244491" data-name="Trazado 244491" d="M372.181,37.679a1.183,1.183,0,0,0-.437-.944,4.094,4.094,0,0,0-1.654-.644,6.986,6.986,0,0,1-2.615-1.025A2.078,2.078,0,0,1,366.6,33.3a2.49,2.49,0,0,1,.988-1.981,4.5,4.5,0,0,1,5.226.036,2.54,2.54,0,0,1,.939,2.082l-.018.053h-1.658a1.516,1.516,0,0,0-.525-1.124,1.935,1.935,0,0,0-1.389-.5,2.008,2.008,0,0,0-1.376.405,1.272,1.272,0,0,0-.449.979,1.092,1.092,0,0,0,.4.891,4.131,4.131,0,0,0,1.614.583,6.977,6.977,0,0,1,2.69,1.053,2.128,2.128,0,0,1,.882,1.786,2.473,2.473,0,0,1-1.027,2.056,4.305,4.305,0,0,1-2.686.785,4.192,4.192,0,0,1-2.875-.926,2.643,2.643,0,0,1-1-2.161l.018-.053h1.658a1.588,1.588,0,0,0,.688,1.347,2.673,2.673,0,0,0,1.508.426,2.453,2.453,0,0,0,1.451-.375,1.157,1.157,0,0,0,.525-.983" transform="translate(47.244 3.933)"/>
      <path id="Trazado_244492" data-name="Trazado 244492" d="M377.369,28.617v2.3h1.809v1.288h-1.809V38a1.3,1.3,0,0,0,.278.943,1,1,0,0,0,.736.274,1.737,1.737,0,0,0,.331-.036,1.874,1.874,0,0,0,.323-.088l.229,1.191a1.538,1.538,0,0,1-.569.26,2.881,2.881,0,0,1-.754.1,2.246,2.246,0,0,1-1.684-.639A2.776,2.776,0,0,1,375.631,38V32.207h-1.517V30.919h1.517v-2.3Z" transform="translate(48.247 3.691)"/>
      <path id="Trazado_244493" data-name="Trazado 244493" d="M385.013,32.211l-.891-.053a1.993,1.993,0,0,0-1.159.326,2.079,2.079,0,0,0-.728.918v6.818H380.5V30.676h1.552l.167,1.393a3.33,3.33,0,0,1,1-1.155,2.332,2.332,0,0,1,1.372-.415,2.065,2.065,0,0,1,.37.032,2.647,2.647,0,0,1,.291.065Z" transform="translate(49.071 3.933)"/>
      <path id="Trazado_244494" data-name="Trazado 244494" d="M392.044,38.788a3.244,3.244,0,0,1-1.155,1.182,3.162,3.162,0,0,1-1.632.414,3.064,3.064,0,0,1-2.434-1,4.626,4.626,0,0,1-.873-3.1V30.656h1.737V36.3a3.55,3.55,0,0,0,.449,2.1,1.672,1.672,0,0,0,1.4.574,2.856,2.856,0,0,0,1.531-.375,2.351,2.351,0,0,0,.912-1.062v-6.88h1.737V40.2h-1.56Z" transform="translate(49.774 3.954)"/>
      <path id="Trazado_244495" data-name="Trazado 244495" d="M399,39.037a2.342,2.342,0,0,0,1.522-.534,1.635,1.635,0,0,0,.657-1.31h1.561l.017.053a2.687,2.687,0,0,1-1.1,2.2A4,4,0,0,1,399,40.4a3.859,3.859,0,0,1-3.184-1.358,5.235,5.235,0,0,1-1.1-3.414v-.37a5.206,5.206,0,0,1,1.108-3.4,4.345,4.345,0,0,1,5.918-.375,3.079,3.079,0,0,1,1.027,2.425l-.018.053h-1.569a2.022,2.022,0,0,0-.618-1.487A2.126,2.126,0,0,0,399,31.866a2.089,2.089,0,0,0-1.953.983,4.613,4.613,0,0,0-.587,2.408v.37a4.676,4.676,0,0,0,.583,2.436,2.1,2.1,0,0,0,1.958.973" transform="translate(50.904 3.933)"/>
      <path id="Trazado_244496" data-name="Trazado 244496" d="M405.97,28.617v2.3h1.809v1.288H405.97V38a1.3,1.3,0,0,0,.278.943,1,1,0,0,0,.736.274,1.736,1.736,0,0,0,.331-.036,1.876,1.876,0,0,0,.323-.088l.229,1.191a1.538,1.538,0,0,1-.569.26,2.881,2.881,0,0,1-.754.1,2.246,2.246,0,0,1-1.684-.639A2.776,2.776,0,0,1,404.232,38V32.207h-1.517V30.919h1.517v-2.3Z" transform="translate(51.936 3.691)"/>
      <path id="Trazado_244497" data-name="Trazado 244497" d="M415.162,38.788a3.243,3.243,0,0,1-1.155,1.182,3.162,3.162,0,0,1-1.632.414,3.064,3.064,0,0,1-2.434-1,4.626,4.626,0,0,1-.873-3.1V30.656h1.737V36.3a3.55,3.55,0,0,0,.449,2.1,1.672,1.672,0,0,0,1.4.574,2.856,2.856,0,0,0,1.531-.375,2.351,2.351,0,0,0,.912-1.062v-6.88h1.737V40.2h-1.56Z" transform="translate(52.755 3.954)"/>
      <path id="Trazado_244498" data-name="Trazado 244498" d="M422.708,32.211l-.891-.053a1.993,1.993,0,0,0-1.159.326,2.08,2.08,0,0,0-.728.918v6.818h-1.737V30.676h1.552l.167,1.393a3.33,3.33,0,0,1,1-1.155,2.332,2.332,0,0,1,1.372-.415,2.065,2.065,0,0,1,.37.032,2.648,2.648,0,0,1,.291.065Z" transform="translate(53.932 3.933)"/>
      <path id="Trazado_244499" data-name="Trazado 244499" d="M429.579,40.219c-.06-.288-.105-.543-.137-.763a5.243,5.243,0,0,1-.058-.666,4.07,4.07,0,0,1-1.266,1.152,3.242,3.242,0,0,1-1.681.463,3.121,3.121,0,0,1-2.27-.763,2.8,2.8,0,0,1-.781-2.1,2.462,2.462,0,0,1,1.108-2.139,5.164,5.164,0,0,1,3-.771h1.888v-.944a1.755,1.755,0,0,0-.511-1.328,2.013,2.013,0,0,0-1.447-.49,2.085,2.085,0,0,0-1.363.428,1.286,1.286,0,0,0-.524,1.027h-1.658l-.018-.052a2.312,2.312,0,0,1,.983-1.906,4.037,4.037,0,0,1,2.677-.865,3.944,3.944,0,0,1,2.611.825,2.921,2.921,0,0,1,.988,2.376v4.6a9.048,9.048,0,0,0,.053.988,5,5,0,0,0,.194.935Zm-2.885-1.279a3.1,3.1,0,0,0,1.7-.484,2.3,2.3,0,0,0,.988-1.108V35.8h-1.95a2.529,2.529,0,0,0-1.68.528,1.573,1.573,0,0,0-.631,1.24,1.306,1.306,0,0,0,.4,1,1.663,1.663,0,0,0,1.173.369" transform="translate(54.602 3.933)"/>
      <path id="Trazado_244500" data-name="Trazado 244500" d="M456.168,124.068H334.7a23.8,23.8,0,0,1-23.726-23.727V88.921A23.8,23.8,0,0,1,334.7,65.194H456.168A23.8,23.8,0,0,1,479.9,88.921v11.419a23.8,23.8,0,0,1-23.727,23.727" transform="translate(40.104 8.408)" fill="#fedc72"/>
      <rect id="Rectángulo_103469" data-name="Rectángulo 103469" width="1.747" height="12.842" transform="translate(392.766 79.25)"/>
      <path id="Trazado_244501" data-name="Trazado 244501" d="M353.607,73.139l.123,1.42a3.464,3.464,0,0,1,1.2-1.178,3.19,3.19,0,0,1,1.636-.419,3.111,3.111,0,0,1,2.39.9,3.968,3.968,0,0,1,.847,2.791v6.024h-1.737V76.693a2.584,2.584,0,0,0-.5-1.791,2,2,0,0,0-1.522-.528,2.444,2.444,0,0,0-1.328.361,2.643,2.643,0,0,0-.921.988v6.959h-1.737V73.139Z" transform="translate(45.403 9.41)"/>
      <path id="Trazado_244502" data-name="Trazado 244502" d="M366.731,80.142a1.183,1.183,0,0,0-.437-.944,4.111,4.111,0,0,0-1.654-.644,6.986,6.986,0,0,1-2.615-1.025,2.077,2.077,0,0,1-.877-1.767,2.491,2.491,0,0,1,.988-1.981,4.5,4.5,0,0,1,5.226.036A2.537,2.537,0,0,1,368.3,75.9l-.018.053h-1.658a1.52,1.52,0,0,0-.525-1.124,1.935,1.935,0,0,0-1.389-.5,2.008,2.008,0,0,0-1.376.405,1.272,1.272,0,0,0-.449.979,1.092,1.092,0,0,0,.4.891,4.132,4.132,0,0,0,1.614.583,6.97,6.97,0,0,1,2.69,1.053,2.129,2.129,0,0,1,.882,1.786,2.47,2.47,0,0,1-1.027,2.056,4.3,4.3,0,0,1-2.686.785,4.187,4.187,0,0,1-2.875-.926,2.643,2.643,0,0,1-1-2.161l.018-.053h1.658a1.591,1.591,0,0,0,.688,1.347,2.673,2.673,0,0,0,1.508.426,2.453,2.453,0,0,0,1.451-.375,1.157,1.157,0,0,0,.525-.983" transform="translate(46.541 9.41)"/>
      <path id="Trazado_244503" data-name="Trazado 244503" d="M377.648,78.273a5.26,5.26,0,0,1-.988,3.329,3.269,3.269,0,0,1-2.725,1.266,3.79,3.79,0,0,1-1.548-.295,2.953,2.953,0,0,1-1.133-.887v4.666h-1.737V73.139h1.332l.273,1.235a3.145,3.145,0,0,1,1.164-1.05,3.469,3.469,0,0,1,1.623-.361,3.171,3.171,0,0,1,2.756,1.407,6.373,6.373,0,0,1,.983,3.718Zm-1.737-.19a5.036,5.036,0,0,0-.639-2.664,2.073,2.073,0,0,0-1.883-1.044,2.31,2.31,0,0,0-1.279.34,2.52,2.52,0,0,0-.856.929v4.606a2.442,2.442,0,0,0,.856.92,2.391,2.391,0,0,0,1.3.331,2.141,2.141,0,0,0,1.871-.9,3.963,3.963,0,0,0,.634-2.33Z" transform="translate(47.655 9.41)"/>
      <path id="Trazado_244504" data-name="Trazado 244504" d="M382.615,82.867a4.023,4.023,0,0,1-3.17-1.327,4.994,4.994,0,0,1-1.177-3.444v-.388a4.891,4.891,0,0,1,1.212-3.391,3.734,3.734,0,0,1,2.871-1.354,3.617,3.617,0,0,1,2.919,1.164,4.643,4.643,0,0,1,.988,3.1v1.085h-6.191l-.027.044a3.75,3.75,0,0,0,.7,2.256,2.221,2.221,0,0,0,1.879.885,4.379,4.379,0,0,0,1.548-.252,3.589,3.589,0,0,0,1.152-.692l.68,1.13a4.085,4.085,0,0,1-1.35.843,5.442,5.442,0,0,1-2.029.336m-.264-8.537a1.883,1.883,0,0,0-1.49.734,3.457,3.457,0,0,0-.759,1.841l.017.044h4.4v-.228a2.65,2.65,0,0,0-.548-1.706,1.95,1.95,0,0,0-1.622-.685" transform="translate(48.783 9.41)"/>
      <path id="Trazado_244505" data-name="Trazado 244505" d="M391,81.5a2.342,2.342,0,0,0,1.522-.534,1.635,1.635,0,0,0,.657-1.31h1.561l.017.053a2.687,2.687,0,0,1-1.1,2.2,4,4,0,0,1-2.659.962,3.861,3.861,0,0,1-3.184-1.358,5.235,5.235,0,0,1-1.1-3.414v-.37a5.206,5.206,0,0,1,1.108-3.4,4.345,4.345,0,0,1,5.918-.375,3.076,3.076,0,0,1,1.027,2.425l-.018.053h-1.569a2.022,2.022,0,0,0-.618-1.487A2.126,2.126,0,0,0,391,74.33a2.09,2.09,0,0,0-1.953.983,4.614,4.614,0,0,0-.587,2.408v.37a4.676,4.676,0,0,0,.583,2.436A2.1,2.1,0,0,0,391,81.5" transform="translate(49.872 9.41)"/>
      <path id="Trazado_244506" data-name="Trazado 244506" d="M399.491,81.5a2.342,2.342,0,0,0,1.522-.534,1.632,1.632,0,0,0,.657-1.31h1.561l.017.053a2.687,2.687,0,0,1-1.1,2.2,4,4,0,0,1-2.659.962,3.861,3.861,0,0,1-3.184-1.358,5.235,5.235,0,0,1-1.1-3.414v-.37a5.206,5.206,0,0,1,1.108-3.4,4.345,4.345,0,0,1,5.918-.375,3.076,3.076,0,0,1,1.027,2.425l-.018.053H401.67a2.022,2.022,0,0,0-.618-1.487,2.126,2.126,0,0,0-1.561-.613,2.09,2.09,0,0,0-1.953.983,4.614,4.614,0,0,0-.587,2.408v.37a4.676,4.676,0,0,0,.583,2.436,2.1,2.1,0,0,0,1.958.973" transform="translate(50.967 9.41)"/>
      <path id="Trazado_244507" data-name="Trazado 244507" d="M405.918,71.157H404.18V69.385h1.737Zm0,11.986H404.18V73.6h1.737Z" transform="translate(52.125 8.948)"/>
      <path id="Trazado_244508" data-name="Trazado 244508" d="M407.728,78.224a5.255,5.255,0,0,1,1.146-3.488,4.25,4.25,0,0,1,6.25,0,5.243,5.243,0,0,1,1.15,3.493v.194a5.229,5.229,0,0,1-1.147,3.493,4.268,4.268,0,0,1-6.249,0,5.225,5.225,0,0,1-1.15-3.488Zm1.737.19a4.51,4.51,0,0,0,.639,2.5,2.312,2.312,0,0,0,3.789,0,4.493,4.493,0,0,0,.643-2.5V78.22a4.478,4.478,0,0,0-.648-2.493,2.127,2.127,0,0,0-1.9-1,2.1,2.1,0,0,0-1.883,1,4.523,4.523,0,0,0-.639,2.493Zm3.378-8.56h2.029l.017.053L412.508,72.2h-1.3Z" transform="translate(52.582 9.009)"/>
      <path id="Trazado_244509" data-name="Trazado 244509" d="M418.732,73.139l.123,1.42a3.464,3.464,0,0,1,1.2-1.178,3.19,3.19,0,0,1,1.636-.419,3.111,3.111,0,0,1,2.39.9,3.968,3.968,0,0,1,.847,2.791v6.024h-1.737V76.693a2.584,2.584,0,0,0-.5-1.791,2,2,0,0,0-1.522-.528,2.444,2.444,0,0,0-1.328.361,2.642,2.642,0,0,0-.921.988v6.959H417.18V73.139Z" transform="translate(53.801 9.41)"/>
      <path id="Trazado_244510" data-name="Trazado 244510" d="M341.356,93.273a5.26,5.26,0,0,1-.988,3.329,3.271,3.271,0,0,1-2.725,1.266,3.79,3.79,0,0,1-1.548-.295,2.944,2.944,0,0,1-1.134-.887v4.666h-1.737V88.139h1.332l.273,1.235a3.145,3.145,0,0,1,1.164-1.05,3.469,3.469,0,0,1,1.623-.361,3.172,3.172,0,0,1,2.756,1.407,6.381,6.381,0,0,1,.983,3.718Zm-1.737-.19a5.035,5.035,0,0,0-.639-2.664,2.073,2.073,0,0,0-1.883-1.044,2.31,2.31,0,0,0-1.279.34,2.511,2.511,0,0,0-.856.929v4.606a2.433,2.433,0,0,0,.856.92,2.391,2.391,0,0,0,1.3.331,2.141,2.141,0,0,0,1.871-.9,3.963,3.963,0,0,0,.634-2.33Z" transform="translate(42.974 11.344)"/>
      <path id="Trazado_244511" data-name="Trazado 244511" d="M346.833,89.675l-.891-.053a1.993,1.993,0,0,0-1.159.326,2.079,2.079,0,0,0-.728.918v6.818h-1.737V88.14h1.552l.167,1.393a3.331,3.331,0,0,1,1-1.155,2.332,2.332,0,0,1,1.372-.415,2.065,2.065,0,0,1,.37.032,2.652,2.652,0,0,1,.291.065Z" transform="translate(44.147 11.344)"/>
      <path id="Trazado_244512" data-name="Trazado 244512" d="M351.658,97.867a4.023,4.023,0,0,1-3.17-1.327A4.994,4.994,0,0,1,347.31,93.1v-.388a4.891,4.891,0,0,1,1.213-3.391,3.734,3.734,0,0,1,2.871-1.354,3.617,3.617,0,0,1,2.919,1.164,4.643,4.643,0,0,1,.988,3.1v1.085H349.11l-.027.044a3.751,3.751,0,0,0,.7,2.256,2.221,2.221,0,0,0,1.879.885,4.379,4.379,0,0,0,1.548-.252,3.6,3.6,0,0,0,1.152-.692l.68,1.13a4.085,4.085,0,0,1-1.35.843,5.443,5.443,0,0,1-2.029.336m-.264-8.537a1.883,1.883,0,0,0-1.49.734,3.457,3.457,0,0,0-.759,1.841l.017.044h4.4v-.228a2.651,2.651,0,0,0-.548-1.706,1.95,1.95,0,0,0-1.622-.685" transform="translate(44.791 11.344)"/>
      <path id="Trazado_244513" data-name="Trazado 244513" d="M355.755,92.823a5.249,5.249,0,0,1,1.147-3.488,3.844,3.844,0,0,1,3.113-1.372,3.886,3.886,0,0,1,3.136,1.367,5.243,5.243,0,0,1,1.15,3.493v.194a5.234,5.234,0,0,1-1.146,3.493,4.269,4.269,0,0,1-6.25,0,5.225,5.225,0,0,1-1.15-3.488Zm1.737.19a4.51,4.51,0,0,0,.639,2.5,2.312,2.312,0,0,0,3.789,0,4.492,4.492,0,0,0,.644-2.5v-.194a4.478,4.478,0,0,0-.648-2.493,2.126,2.126,0,0,0-1.9-1,2.1,2.1,0,0,0-1.883,1,4.523,4.523,0,0,0-.639,2.493Z" transform="translate(45.88 11.344)"/>
      <path id="Trazado_244514" data-name="Trazado 244514" d="M373.34,93.273a5.26,5.26,0,0,1-.988,3.329,3.269,3.269,0,0,1-2.725,1.266,3.79,3.79,0,0,1-1.548-.295,2.953,2.953,0,0,1-1.133-.887v4.666h-1.737V88.139h1.332l.273,1.235a3.145,3.145,0,0,1,1.164-1.05,3.469,3.469,0,0,1,1.623-.361,3.172,3.172,0,0,1,2.756,1.407,6.373,6.373,0,0,1,.983,3.718Zm-1.737-.19a5.035,5.035,0,0,0-.639-2.664,2.073,2.073,0,0,0-1.883-1.044,2.31,2.31,0,0,0-1.279.34,2.519,2.519,0,0,0-.856.929v4.606a2.441,2.441,0,0,0,.856.92,2.391,2.391,0,0,0,1.3.331,2.141,2.141,0,0,0,1.871-.9,3.963,3.963,0,0,0,.634-2.33Z" transform="translate(47.099 11.344)"/>
      <path id="Trazado_244515" data-name="Trazado 244515" d="M378.306,97.867a4.023,4.023,0,0,1-3.17-1.327,4.994,4.994,0,0,1-1.178-3.444v-.388a4.891,4.891,0,0,1,1.212-3.391,3.734,3.734,0,0,1,2.871-1.354,3.617,3.617,0,0,1,2.92,1.164,4.643,4.643,0,0,1,.988,3.1v1.085h-6.191l-.027.044a3.751,3.751,0,0,0,.7,2.256,2.221,2.221,0,0,0,1.879.885,4.38,4.38,0,0,0,1.548-.252,3.59,3.59,0,0,0,1.152-.692l.68,1.13a4.085,4.085,0,0,1-1.35.843,5.443,5.443,0,0,1-2.029.336m-.264-8.537a1.883,1.883,0,0,0-1.49.734,3.458,3.458,0,0,0-.759,1.841l.017.044h4.4v-.228a2.651,2.651,0,0,0-.548-1.706,1.95,1.95,0,0,0-1.622-.685" transform="translate(48.227 11.344)"/>
      <path id="Trazado_244516" data-name="Trazado 244516" d="M387.279,89.675l-.891-.053a1.993,1.993,0,0,0-1.159.326,2.079,2.079,0,0,0-.728.918v6.818h-1.737V88.14h1.552l.167,1.393a3.33,3.33,0,0,1,1-1.155,2.329,2.329,0,0,1,1.372-.415,2.065,2.065,0,0,1,.37.032,2.648,2.648,0,0,1,.291.065Z" transform="translate(49.363 11.344)"/>
      <path id="Trazado_244517" data-name="Trazado 244517" d="M394.15,97.683c-.06-.288-.1-.543-.137-.763a5.243,5.243,0,0,1-.058-.666,4.069,4.069,0,0,1-1.266,1.152,3.242,3.242,0,0,1-1.681.463,3.121,3.121,0,0,1-2.27-.763,2.8,2.8,0,0,1-.781-2.1,2.462,2.462,0,0,1,1.107-2.139,5.165,5.165,0,0,1,3-.771h1.888v-.944a1.759,1.759,0,0,0-.511-1.328A2.013,2.013,0,0,0,392,89.33a2.085,2.085,0,0,0-1.363.428,1.286,1.286,0,0,0-.524,1.027h-1.658l-.018-.052a2.312,2.312,0,0,1,.983-1.906,4.037,4.037,0,0,1,2.677-.865,3.946,3.946,0,0,1,2.611.825,2.921,2.921,0,0,1,.988,2.376v4.6a9.048,9.048,0,0,0,.053.988,5,5,0,0,0,.194.935ZM391.266,96.4a3.1,3.1,0,0,0,1.7-.484,2.31,2.31,0,0,0,.988-1.108V93.265h-1.95a2.529,2.529,0,0,0-1.68.528,1.573,1.573,0,0,0-.631,1.24,1.306,1.306,0,0,0,.4,1,1.661,1.661,0,0,0,1.173.369" transform="translate(50.033 11.344)"/>
      <path id="Trazado_244518" data-name="Trazado 244518" d="M400.971,96.5a2.342,2.342,0,0,0,1.522-.534,1.632,1.632,0,0,0,.657-1.31h1.561l.017.053a2.687,2.687,0,0,1-1.1,2.2,4,4,0,0,1-2.659.962,3.861,3.861,0,0,1-3.184-1.358,5.235,5.235,0,0,1-1.1-3.414v-.37a5.206,5.206,0,0,1,1.108-3.4,4.345,4.345,0,0,1,5.918-.375,3.076,3.076,0,0,1,1.027,2.425l-.018.053H403.15a2.022,2.022,0,0,0-.618-1.487,2.126,2.126,0,0,0-1.561-.613,2.09,2.09,0,0,0-1.953.983,4.613,4.613,0,0,0-.587,2.408v.37a4.676,4.676,0,0,0,.583,2.436,2.1,2.1,0,0,0,1.958.973" transform="translate(51.158 11.344)"/>
      <path id="Trazado_244519" data-name="Trazado 244519" d="M407.4,86.157h-1.737V84.385H407.4Zm0,11.986h-1.737V88.6H407.4Z" transform="translate(52.316 10.883)"/>
      <path id="Trazado_244520" data-name="Trazado 244520" d="M409.208,92.823a5.249,5.249,0,0,1,1.147-3.488,3.844,3.844,0,0,1,3.113-1.372A3.886,3.886,0,0,1,416.6,89.33a5.244,5.244,0,0,1,1.15,3.493v.194a5.234,5.234,0,0,1-1.146,3.493,4.269,4.269,0,0,1-6.25,0,5.225,5.225,0,0,1-1.15-3.488Zm1.737.19a4.511,4.511,0,0,0,.639,2.5,2.312,2.312,0,0,0,3.789,0,4.492,4.492,0,0,0,.643-2.5v-.194a4.478,4.478,0,0,0-.648-2.493,2.126,2.126,0,0,0-1.9-1,2.1,2.1,0,0,0-1.883,1,4.523,4.523,0,0,0-.639,2.493Z" transform="translate(52.773 11.344)"/>
      <path id="Trazado_244521" data-name="Trazado 244521" d="M420.213,88.139l.123,1.42a3.464,3.464,0,0,1,1.2-1.178,3.19,3.19,0,0,1,1.636-.419,3.111,3.111,0,0,1,2.39.9,3.968,3.968,0,0,1,.847,2.791v6.024h-1.737V91.693a2.584,2.584,0,0,0-.5-1.791,2,2,0,0,0-1.522-.528,2.444,2.444,0,0,0-1.328.361,2.642,2.642,0,0,0-.921.988v6.959h-1.737V88.139Z" transform="translate(53.992 11.344)"/>
      <path id="Trazado_244522" data-name="Trazado 244522" d="M433.657,97.683c-.06-.288-.1-.543-.137-.763a5.238,5.238,0,0,1-.058-.666,4.07,4.07,0,0,1-1.266,1.152,3.242,3.242,0,0,1-1.681.463,3.12,3.12,0,0,1-2.27-.763,2.8,2.8,0,0,1-.781-2.1,2.462,2.462,0,0,1,1.108-2.139,5.164,5.164,0,0,1,3-.771h1.888v-.944a1.755,1.755,0,0,0-.511-1.328,2.013,2.013,0,0,0-1.447-.49,2.085,2.085,0,0,0-1.363.428,1.286,1.286,0,0,0-.524,1.027H427.96l-.018-.052a2.312,2.312,0,0,1,.983-1.906,4.037,4.037,0,0,1,2.677-.865,3.944,3.944,0,0,1,2.611.825,2.921,2.921,0,0,1,.988,2.376v4.6a9.033,9.033,0,0,0,.053.988,5,5,0,0,0,.194.935ZM430.773,96.4a3.1,3.1,0,0,0,1.7-.484,2.3,2.3,0,0,0,.988-1.108V93.265h-1.95a2.529,2.529,0,0,0-1.68.528,1.573,1.573,0,0,0-.631,1.24,1.306,1.306,0,0,0,.4,1,1.663,1.663,0,0,0,1.173.369" transform="translate(55.128 11.344)"/>
      <rect id="Rectángulo_103470" data-name="Rectángulo 103470" width="1.737" height="13.76" transform="translate(492.993 95.267)"/>
      <path id="Trazado_244523" data-name="Trazado 244523" d="M350.962,108.549a6.366,6.366,0,0,1,.983-3.713,3.169,3.169,0,0,1,2.756-1.411,3.425,3.425,0,0,1,1.487.308,3.064,3.064,0,0,1,1.106.9V99.385h1.737v13.759h-1.419l-.2-1.173a3.093,3.093,0,0,1-1.147,1.015,3.45,3.45,0,0,1-1.578.343,3.276,3.276,0,0,1-2.734-1.266,5.253,5.253,0,0,1-.988-3.329Zm1.737.185a4.052,4.052,0,0,0,.59,2.316,2.066,2.066,0,0,0,1.835.868,2.309,2.309,0,0,0,1.306-.352,2.636,2.636,0,0,0,.864-.988v-4.455a2.708,2.708,0,0,0-.868-.939,2.3,2.3,0,0,0-1.284-.348,1.987,1.987,0,0,0-1.848,1.032,5.332,5.332,0,0,0-.595,2.681Z" transform="translate(45.262 12.817)"/>
      <path id="Trazado_244524" data-name="Trazado 244524" d="M364.411,112.867a4.023,4.023,0,0,1-3.17-1.327,4.994,4.994,0,0,1-1.177-3.444v-.388a4.891,4.891,0,0,1,1.213-3.391,3.734,3.734,0,0,1,2.871-1.354,3.617,3.617,0,0,1,2.919,1.164,4.643,4.643,0,0,1,.988,3.1v1.085h-6.191l-.027.044a3.75,3.75,0,0,0,.7,2.256,2.221,2.221,0,0,0,1.879.885,4.379,4.379,0,0,0,1.548-.252,3.589,3.589,0,0,0,1.152-.692l.68,1.13a4.087,4.087,0,0,1-1.35.843,5.442,5.442,0,0,1-2.029.336m-.264-8.537a1.883,1.883,0,0,0-1.49.734,3.458,3.458,0,0,0-.759,1.841l.017.044h4.4v-.228a2.65,2.65,0,0,0-.548-1.706,1.95,1.95,0,0,0-1.622-.685" transform="translate(46.435 13.279)"/>
      <path id="Trazado_244525" data-name="Trazado 244525" d="M369.679,113.165V104.91h-1.49v-1.288h1.49v-1.208a3.265,3.265,0,0,1,.8-2.36,2.939,2.939,0,0,1,2.227-.834,3.935,3.935,0,0,1,.6.049c.2.033.428.079.675.137l-.212,1.323a4.426,4.426,0,0,0-.856-.087,1.366,1.366,0,0,0-1.129.455,2.034,2.034,0,0,0-.37,1.318v1.208H373.4v1.288h-1.985v8.255Z" transform="translate(47.483 12.796)"/>
      <path id="Trazado_244526" data-name="Trazado 244526" d="M376.254,101.157h-1.737V99.385h1.737Zm0,11.986h-1.737V103.6h1.737Z" transform="translate(48.299 12.817)"/>
      <path id="Trazado_244527" data-name="Trazado 244527" d="M382.35,111.5a2.342,2.342,0,0,0,1.522-.534,1.632,1.632,0,0,0,.657-1.31h1.561l.017.053a2.687,2.687,0,0,1-1.1,2.2,4,4,0,0,1-2.659.962,3.861,3.861,0,0,1-3.184-1.358,5.235,5.235,0,0,1-1.1-3.414v-.37a5.206,5.206,0,0,1,1.108-3.4,4.345,4.345,0,0,1,5.918-.375,3.076,3.076,0,0,1,1.027,2.425l-.018.053h-1.569a2.022,2.022,0,0,0-.618-1.487,2.126,2.126,0,0,0-1.561-.613,2.09,2.09,0,0,0-1.953.983,4.613,4.613,0,0,0-.587,2.408v.37a4.676,4.676,0,0,0,.583,2.436,2.1,2.1,0,0,0,1.958.973" transform="translate(48.757 13.279)"/>
      <path id="Trazado_244528" data-name="Trazado 244528" d="M388.777,101.157H387.04V99.385h1.737Zm0,11.986H387.04V103.6h1.737Z" transform="translate(49.914 12.817)"/>
      <path id="Trazado_244529" data-name="Trazado 244529" d="M394.951,112.867a4.023,4.023,0,0,1-3.17-1.327A4.994,4.994,0,0,1,390.6,108.1v-.388a4.891,4.891,0,0,1,1.212-3.391,3.734,3.734,0,0,1,2.871-1.354,3.617,3.617,0,0,1,2.919,1.164,4.643,4.643,0,0,1,.988,3.1v1.085H392.4l-.027.044a3.75,3.75,0,0,0,.7,2.256,2.221,2.221,0,0,0,1.879.885,4.38,4.38,0,0,0,1.548-.252,3.6,3.6,0,0,0,1.152-.692l.68,1.13a4.086,4.086,0,0,1-1.35.843,5.443,5.443,0,0,1-2.029.336m-.264-8.537a1.883,1.883,0,0,0-1.49.734,3.458,3.458,0,0,0-.759,1.841l.017.044h4.4v-.228a2.651,2.651,0,0,0-.548-1.706,1.95,1.95,0,0,0-1.622-.685" transform="translate(50.374 13.279)"/>
      <path id="Trazado_244530" data-name="Trazado 244530" d="M400.959,103.139l.123,1.42a3.464,3.464,0,0,1,1.2-1.178,3.19,3.19,0,0,1,1.636-.419,3.111,3.111,0,0,1,2.39.9,3.968,3.968,0,0,1,.847,2.791v6.024h-1.737v-5.989a2.584,2.584,0,0,0-.5-1.791,2,2,0,0,0-1.522-.528,2.444,2.444,0,0,0-1.328.361,2.641,2.641,0,0,0-.921.988v6.959h-1.737v-9.543Z" transform="translate(51.509 13.279)"/>
      <path id="Trazado_244531" data-name="Trazado 244531" d="M410.9,101.08v2.3h1.809v1.288H410.9v5.795a1.3,1.3,0,0,0,.278.943,1,1,0,0,0,.736.274,1.737,1.737,0,0,0,.331-.036,1.877,1.877,0,0,0,.323-.088l.229,1.191a1.538,1.538,0,0,1-.569.26,2.882,2.882,0,0,1-.754.1,2.246,2.246,0,0,1-1.684-.639,2.777,2.777,0,0,1-.627-2.006V104.67h-1.517v-1.288h1.517v-2.3Z" transform="translate(52.572 13.036)"/>
      <path id="Trazado_244532" data-name="Trazado 244532" d="M418.036,112.867a4.023,4.023,0,0,1-3.17-1.327,4.994,4.994,0,0,1-1.178-3.444v-.388a4.891,4.891,0,0,1,1.213-3.391,3.734,3.734,0,0,1,2.871-1.354,3.617,3.617,0,0,1,2.919,1.164,4.643,4.643,0,0,1,.988,3.1v1.085h-6.191l-.027.044a3.75,3.75,0,0,0,.7,2.256,2.221,2.221,0,0,0,1.879.885,4.38,4.38,0,0,0,1.548-.252,3.589,3.589,0,0,0,1.152-.692l.68,1.13a4.086,4.086,0,0,1-1.35.843,5.443,5.443,0,0,1-2.029.336m-.264-8.537a1.883,1.883,0,0,0-1.49.734,3.458,3.458,0,0,0-.759,1.841l.017.044h4.4v-.228a2.651,2.651,0,0,0-.548-1.706,1.95,1.95,0,0,0-1.622-.685" transform="translate(53.351 13.279)"/>
      <path id="Trazado_244533" data-name="Trazado 244533" d="M456.168,196.622H334.7a23.8,23.8,0,0,1-23.726-23.727V161.475A23.8,23.8,0,0,1,334.7,137.748H456.168A23.8,23.8,0,0,1,479.9,161.475v11.419a23.8,23.8,0,0,1-23.727,23.727" transform="translate(40.104 17.765)" fill="#fedc72"/>
      <path id="Trazado_244534" data-name="Trazado 244534" d="M365.139,151.5l.018.053a3.876,3.876,0,0,1-1.27,3.029,4.843,4.843,0,0,1-3.449,1.223,4.532,4.532,0,0,1-3.551-1.544,5.672,5.672,0,0,1-1.371-3.915v-2.285a5.7,5.7,0,0,1,1.371-3.921,4.524,4.524,0,0,1,3.551-1.548,4.984,4.984,0,0,1,3.466,1.161,3.837,3.837,0,0,1,1.253,3.073l-.018.053h-1.668a2.862,2.862,0,0,0-.794-2.134,3.047,3.047,0,0,0-2.24-.786,2.738,2.738,0,0,0-2.32,1.172,4.772,4.772,0,0,0-.864,2.909v2.3a4.8,4.8,0,0,0,.864,2.925,2.736,2.736,0,0,0,2.32,1.173,3.059,3.059,0,0,0,2.24-.781,2.886,2.886,0,0,0,.794-2.156Z" transform="translate(45.849 18.389)"/>
      <path id="Trazado_244535" data-name="Trazado 244535" d="M371.747,155.237c-.06-.288-.105-.543-.137-.763a5.243,5.243,0,0,1-.058-.666,4.07,4.07,0,0,1-1.266,1.152,3.242,3.242,0,0,1-1.681.463,3.121,3.121,0,0,1-2.27-.763,2.8,2.8,0,0,1-.781-2.1,2.462,2.462,0,0,1,1.108-2.139,5.165,5.165,0,0,1,3-.771h1.888V148.7a1.755,1.755,0,0,0-.511-1.328,2.013,2.013,0,0,0-1.447-.49,2.085,2.085,0,0,0-1.363.428,1.286,1.286,0,0,0-.524,1.027H366.05l-.018-.052a2.312,2.312,0,0,1,.983-1.906,4.037,4.037,0,0,1,2.677-.865,3.944,3.944,0,0,1,2.611.825,2.921,2.921,0,0,1,.988,2.376v4.6a9.047,9.047,0,0,0,.053.988,5,5,0,0,0,.194.935Zm-2.885-1.279a3.1,3.1,0,0,0,1.7-.484,2.3,2.3,0,0,0,.988-1.108v-1.548H369.6a2.529,2.529,0,0,0-1.68.528,1.573,1.573,0,0,0-.631,1.24,1.306,1.306,0,0,0,.4,1,1.663,1.663,0,0,0,1.173.369" transform="translate(47.144 18.767)"/>
      <path id="Trazado_244536" data-name="Trazado 244536" d="M376.5,143.711h-1.737v-1.772H376.5Zm0,11.987h-1.737v-9.543H376.5Z" transform="translate(48.332 18.305)"/>
      <path id="Trazado_244537" data-name="Trazado 244537" d="M378.321,151.1a6.366,6.366,0,0,1,.983-3.713,3.169,3.169,0,0,1,2.756-1.411,3.425,3.425,0,0,1,1.487.308,3.064,3.064,0,0,1,1.106.9v-5.247h1.737V155.7h-1.419l-.2-1.173a3.094,3.094,0,0,1-1.147,1.015,3.45,3.45,0,0,1-1.578.343,3.276,3.276,0,0,1-2.734-1.266,5.253,5.253,0,0,1-.988-3.329Zm1.737.185a4.052,4.052,0,0,0,.59,2.315,2.066,2.066,0,0,0,1.835.868,2.309,2.309,0,0,0,1.306-.352,2.636,2.636,0,0,0,.864-.988v-4.455a2.707,2.707,0,0,0-.868-.939,2.3,2.3,0,0,0-1.284-.348,1.987,1.987,0,0,0-1.848,1.032,5.332,5.332,0,0,0-.6,2.681Z" transform="translate(48.79 18.305)"/>
      <path id="Trazado_244538" data-name="Trazado 244538" d="M393.669,155.237c-.06-.288-.105-.543-.137-.763a5.249,5.249,0,0,1-.058-.666,4.069,4.069,0,0,1-1.266,1.152,3.242,3.242,0,0,1-1.681.463,3.121,3.121,0,0,1-2.27-.763,2.8,2.8,0,0,1-.781-2.1,2.462,2.462,0,0,1,1.108-2.139,5.165,5.165,0,0,1,3-.771h1.888V148.7a1.755,1.755,0,0,0-.511-1.328,2.013,2.013,0,0,0-1.447-.49,2.085,2.085,0,0,0-1.363.428,1.286,1.286,0,0,0-.524,1.027h-1.658l-.018-.052a2.312,2.312,0,0,1,.983-1.906,4.037,4.037,0,0,1,2.677-.865,3.944,3.944,0,0,1,2.611.825,2.921,2.921,0,0,1,.988,2.376v4.6a9.04,9.04,0,0,0,.053.988,5,5,0,0,0,.194.935Zm-2.884-1.279a3.1,3.1,0,0,0,1.7-.484,2.3,2.3,0,0,0,.988-1.108v-1.548h-1.95a2.529,2.529,0,0,0-1.68.528,1.573,1.573,0,0,0-.631,1.24,1.306,1.306,0,0,0,.4,1,1.663,1.663,0,0,0,1.173.369" transform="translate(49.971 18.767)"/>
      <path id="Trazado_244539" data-name="Trazado 244539" d="M400.188,151.1a6.367,6.367,0,0,1,.983-3.713,3.169,3.169,0,0,1,2.756-1.411,3.425,3.425,0,0,1,1.487.308,3.064,3.064,0,0,1,1.106.9v-5.247h1.737V155.7h-1.419l-.2-1.173a3.093,3.093,0,0,1-1.147,1.015,3.45,3.45,0,0,1-1.578.343,3.276,3.276,0,0,1-2.734-1.266,5.253,5.253,0,0,1-.988-3.329Zm1.737.185a4.052,4.052,0,0,0,.59,2.315,2.066,2.066,0,0,0,1.835.868,2.309,2.309,0,0,0,1.306-.352,2.636,2.636,0,0,0,.864-.988v-4.455a2.709,2.709,0,0,0-.868-.939,2.3,2.3,0,0,0-1.284-.348,1.987,1.987,0,0,0-1.848,1.032,5.332,5.332,0,0,0-.595,2.681Z" transform="translate(51.61 18.305)"/>
      <path id="Trazado_244540" data-name="Trazado 244540" d="M413.638,155.421a4.023,4.023,0,0,1-3.17-1.327,4.994,4.994,0,0,1-1.178-3.444v-.388a4.891,4.891,0,0,1,1.213-3.391,3.733,3.733,0,0,1,2.871-1.354,3.617,3.617,0,0,1,2.919,1.164,4.643,4.643,0,0,1,.988,3.1v1.085H411.09l-.027.044a3.751,3.751,0,0,0,.7,2.256,2.221,2.221,0,0,0,1.879.885,4.379,4.379,0,0,0,1.548-.252,3.59,3.59,0,0,0,1.152-.692l.68,1.13a4.085,4.085,0,0,1-1.35.843,5.443,5.443,0,0,1-2.029.336m-.264-8.537a1.883,1.883,0,0,0-1.49.734,3.457,3.457,0,0,0-.759,1.841l.017.044h4.4v-.228a2.651,2.651,0,0,0-.548-1.706,1.95,1.95,0,0,0-1.622-.685" transform="translate(52.784 18.767)"/>
      <path id="Trazado_244541" data-name="Trazado 244541" d="M351.177,170.421a4.023,4.023,0,0,1-3.17-1.327,4.994,4.994,0,0,1-1.178-3.444v-.388a4.891,4.891,0,0,1,1.213-3.391,3.734,3.734,0,0,1,2.871-1.354,3.617,3.617,0,0,1,2.919,1.164,4.643,4.643,0,0,1,.988,3.1v1.085h-6.191l-.027.044a3.751,3.751,0,0,0,.7,2.256,2.221,2.221,0,0,0,1.879.885,4.379,4.379,0,0,0,1.548-.252,3.589,3.589,0,0,0,1.152-.692l.68,1.13a4.085,4.085,0,0,1-1.35.843,5.443,5.443,0,0,1-2.029.336m-.264-8.537a1.883,1.883,0,0,0-1.49.734,3.457,3.457,0,0,0-.759,1.841l.017.044h4.4v-.228a2.651,2.651,0,0,0-.548-1.706,1.95,1.95,0,0,0-1.622-.685" transform="translate(44.729 20.701)"/>
      <rect id="Rectángulo_103471" data-name="Rectángulo 103471" width="1.737" height="13.76" transform="translate(401.639 177.179)"/>
      <path id="Trazado_244542" data-name="Trazado 244542" d="M363.669,170.421a4.023,4.023,0,0,1-3.17-1.327,4.994,4.994,0,0,1-1.178-3.444v-.388a4.891,4.891,0,0,1,1.212-3.391,3.734,3.734,0,0,1,2.871-1.354,3.617,3.617,0,0,1,2.919,1.164,4.643,4.643,0,0,1,.988,3.1v1.085h-6.191l-.027.044a3.751,3.751,0,0,0,.7,2.256,2.221,2.221,0,0,0,1.879.885,4.379,4.379,0,0,0,1.548-.252,3.59,3.59,0,0,0,1.152-.692l.68,1.13a4.085,4.085,0,0,1-1.35.843,5.443,5.443,0,0,1-2.029.336m-.264-8.537a1.883,1.883,0,0,0-1.49.734,3.458,3.458,0,0,0-.759,1.841l.017.044h4.4v-.228a2.651,2.651,0,0,0-.547-1.706,1.95,1.95,0,0,0-1.622-.685" transform="translate(46.34 20.701)"/>
      <path id="Trazado_244543" data-name="Trazado 244543" d="M369.678,160.693l.123,1.252a3.232,3.232,0,0,1,1.187-1.053,3.555,3.555,0,0,1,1.672-.375,2.957,2.957,0,0,1,1.636.44,2.679,2.679,0,0,1,1.027,1.323,3.537,3.537,0,0,1,1.191-1.287,3.115,3.115,0,0,1,1.728-.476,2.861,2.861,0,0,1,2.3,1,4.574,4.574,0,0,1,.847,3.012v5.707h-1.737v-5.724a3.179,3.179,0,0,0-.485-2,1.771,1.771,0,0,0-1.446-.586,1.839,1.839,0,0,0-1.442.618,2.672,2.672,0,0,0-.649,1.56v6.13h-1.745v-5.724a3.129,3.129,0,0,0-.5-1.962,1.729,1.729,0,0,0-1.433-.622,2.387,2.387,0,0,0-1.306.326,2.1,2.1,0,0,0-.785.917v7.065h-1.737v-9.543Z" transform="translate(47.475 20.701)"/>
      <path id="Trazado_244544" data-name="Trazado 244544" d="M386.115,170.421a4.023,4.023,0,0,1-3.17-1.327,4.994,4.994,0,0,1-1.177-3.444v-.388a4.891,4.891,0,0,1,1.212-3.391,3.734,3.734,0,0,1,2.871-1.354,3.617,3.617,0,0,1,2.919,1.164,4.643,4.643,0,0,1,.988,3.1v1.085h-6.191l-.027.044a3.751,3.751,0,0,0,.7,2.256,2.221,2.221,0,0,0,1.879.885,4.379,4.379,0,0,0,1.548-.252,3.591,3.591,0,0,0,1.152-.692l.68,1.13a4.086,4.086,0,0,1-1.35.843,5.443,5.443,0,0,1-2.029.336m-.264-8.537a1.883,1.883,0,0,0-1.49.734,3.458,3.458,0,0,0-.759,1.841l.017.044h4.4v-.228a2.651,2.651,0,0,0-.547-1.706,1.95,1.95,0,0,0-1.622-.685" transform="translate(49.234 20.701)"/>
      <path id="Trazado_244545" data-name="Trazado 244545" d="M392.123,160.693l.123,1.42a3.464,3.464,0,0,1,1.2-1.178,3.19,3.19,0,0,1,1.636-.419,3.111,3.111,0,0,1,2.39.9,3.968,3.968,0,0,1,.847,2.791v6.024h-1.737v-5.989a2.584,2.584,0,0,0-.5-1.791,2,2,0,0,0-1.522-.528,2.444,2.444,0,0,0-1.328.361,2.642,2.642,0,0,0-.921.988v6.959h-1.737v-9.543Z" transform="translate(50.37 20.701)"/>
      <path id="Trazado_244546" data-name="Trazado 244546" d="M402.068,158.634v2.3h1.809v1.288h-1.809v5.795a1.3,1.3,0,0,0,.278.943,1,1,0,0,0,.736.274,1.735,1.735,0,0,0,.331-.036,1.874,1.874,0,0,0,.323-.088l.229,1.191a1.538,1.538,0,0,1-.569.26,2.881,2.881,0,0,1-.754.1,2.246,2.246,0,0,1-1.684-.639,2.777,2.777,0,0,1-.627-2.006v-5.795h-1.517v-1.288h1.517v-2.3Z" transform="translate(51.433 20.458)"/>
      <path id="Trazado_244547" data-name="Trazado 244547" d="M404.837,165.377a5.249,5.249,0,0,1,1.147-3.489,3.844,3.844,0,0,1,3.113-1.372,3.886,3.886,0,0,1,3.136,1.367,5.243,5.243,0,0,1,1.15,3.493v.194a5.234,5.234,0,0,1-1.146,3.493,4.269,4.269,0,0,1-6.25,0,5.225,5.225,0,0,1-1.15-3.488Zm1.737.19a4.51,4.51,0,0,0,.639,2.5,2.312,2.312,0,0,0,3.789,0,4.492,4.492,0,0,0,.644-2.5v-.194A4.478,4.478,0,0,0,411,162.88a2.126,2.126,0,0,0-1.9-1,2.1,2.1,0,0,0-1.883,1,4.523,4.523,0,0,0-.639,2.493Z" transform="translate(52.21 20.701)"/>
      <path id="Trazado_244548" data-name="Trazado 244548" d="M419.872,167.7a1.183,1.183,0,0,0-.437-.944,4.094,4.094,0,0,0-1.654-.644,6.985,6.985,0,0,1-2.615-1.025,2.078,2.078,0,0,1-.877-1.767,2.489,2.489,0,0,1,.988-1.981,4.5,4.5,0,0,1,5.226.036,2.537,2.537,0,0,1,.939,2.082l-.018.053h-1.658a1.516,1.516,0,0,0-.525-1.124,1.935,1.935,0,0,0-1.389-.5,2.008,2.008,0,0,0-1.376.405,1.272,1.272,0,0,0-.449.979,1.092,1.092,0,0,0,.4.891,4.131,4.131,0,0,0,1.614.583,6.97,6.97,0,0,1,2.69,1.053,2.128,2.128,0,0,1,.882,1.786,2.47,2.47,0,0,1-1.027,2.056,4.305,4.305,0,0,1-2.686.785,4.192,4.192,0,0,1-2.875-.926,2.643,2.643,0,0,1-1-2.161l.018-.053H415.7a1.591,1.591,0,0,0,.688,1.347,2.673,2.673,0,0,0,1.508.426,2.453,2.453,0,0,0,1.451-.375,1.157,1.157,0,0,0,.525-.983" transform="translate(53.394 20.701)"/>
      <path id="Trazado_244549" data-name="Trazado 244549" d="M339.715,180.827a5.26,5.26,0,0,1-.988,3.329A3.269,3.269,0,0,1,336,185.421a3.79,3.79,0,0,1-1.548-.295,2.953,2.953,0,0,1-1.133-.887v4.666h-1.737V175.693h1.332l.273,1.235a3.145,3.145,0,0,1,1.164-1.05,3.469,3.469,0,0,1,1.623-.361,3.171,3.171,0,0,1,2.756,1.407,6.372,6.372,0,0,1,.983,3.718Zm-1.737-.19a5.036,5.036,0,0,0-.639-2.664,2.073,2.073,0,0,0-1.883-1.044,2.31,2.31,0,0,0-1.279.34,2.52,2.52,0,0,0-.856.929V182.8a2.441,2.441,0,0,0,.856.92,2.391,2.391,0,0,0,1.3.331,2.141,2.141,0,0,0,1.871-.9,3.962,3.962,0,0,0,.635-2.33Z" transform="translate(42.762 22.635)"/>
      <path id="Trazado_244550" data-name="Trazado 244550" d="M340.317,180.377a5.249,5.249,0,0,1,1.147-3.489,3.844,3.844,0,0,1,3.113-1.372,3.886,3.886,0,0,1,3.136,1.367,5.243,5.243,0,0,1,1.15,3.493v.194a5.234,5.234,0,0,1-1.146,3.493,4.269,4.269,0,0,1-6.25,0,5.225,5.225,0,0,1-1.15-3.488Zm1.737.19a4.511,4.511,0,0,0,.639,2.5,2.312,2.312,0,0,0,3.789,0,4.492,4.492,0,0,0,.643-2.5v-.194a4.477,4.477,0,0,0-.648-2.493,2.126,2.126,0,0,0-1.9-1,2.1,2.1,0,0,0-1.883,1,4.523,4.523,0,0,0-.639,2.493Z" transform="translate(43.889 22.635)"/>
      <path id="Trazado_244551" data-name="Trazado 244551" d="M354.286,177.229l-.891-.053a1.993,1.993,0,0,0-1.159.326,2.079,2.079,0,0,0-.728.918v6.818H349.77v-9.543h1.552l.167,1.393a3.331,3.331,0,0,1,1-1.155,2.332,2.332,0,0,1,1.372-.415,2.067,2.067,0,0,1,.37.032,2.655,2.655,0,0,1,.291.065Z" transform="translate(45.108 22.635)"/>
      <path id="Trazado_244552" data-name="Trazado 244552" d="M362.513,182.4l.15.671h.053l.167-.671,2.2-6.73h1.774l-3.511,9.543h-1.314l-3.554-9.543h1.782Z" transform="translate(46.23 22.656)"/>
      <path id="Trazado_244553" data-name="Trazado 244553" d="M369.14,173.711H367.4v-1.772h1.737Zm0,11.987H367.4v-9.543h1.737Z" transform="translate(47.382 22.174)"/>
      <path id="Trazado_244554" data-name="Trazado 244554" d="M379.459,181.288a5.241,5.241,0,0,1-.992,3.329,3.279,3.279,0,0,1-2.73,1.266,3.481,3.481,0,0,1-1.64-.366,3.035,3.035,0,0,1-1.155-1.08l-.212,1.261h-1.42V171.939h1.737v5.345a3.014,3.014,0,0,1,1.117-.97,3.413,3.413,0,0,1,1.557-.335,3.173,3.173,0,0,1,2.751,1.411,6.35,6.35,0,0,1,.988,3.713Zm-1.737-.185a5.276,5.276,0,0,0-.6-2.677,1.992,1.992,0,0,0-1.839-1.036,2.268,2.268,0,0,0-1.354.393,2.764,2.764,0,0,0-.878,1.053v4.137a2.841,2.841,0,0,0,.878,1.1,2.261,2.261,0,0,0,1.372.4,2.065,2.065,0,0,0,1.826-.873,4.021,4.021,0,0,0,.6-2.311Z" transform="translate(47.886 22.174)"/>
      <path id="Trazado_244555" data-name="Trazado 244555" d="M384.919,177.229l-.891-.053a1.993,1.993,0,0,0-1.159.326,2.079,2.079,0,0,0-.728.918v6.818H380.4v-9.543h1.552l.167,1.393a3.33,3.33,0,0,1,1-1.155,2.332,2.332,0,0,1,1.372-.415,2.066,2.066,0,0,1,.37.032,2.654,2.654,0,0,1,.291.065Z" transform="translate(49.059 22.635)"/>
      <path id="Trazado_244556" data-name="Trazado 244556" d="M391.79,185.237c-.06-.288-.105-.543-.137-.763a5.249,5.249,0,0,1-.058-.666,4.07,4.07,0,0,1-1.266,1.152,3.242,3.242,0,0,1-1.681.463,3.12,3.12,0,0,1-2.27-.763,2.8,2.8,0,0,1-.781-2.1,2.462,2.462,0,0,1,1.108-2.139,5.165,5.165,0,0,1,3-.771H391.6V178.7a1.755,1.755,0,0,0-.511-1.328,2.013,2.013,0,0,0-1.447-.49,2.085,2.085,0,0,0-1.363.428,1.286,1.286,0,0,0-.524,1.027h-1.658l-.018-.052a2.312,2.312,0,0,1,.983-1.906,4.037,4.037,0,0,1,2.677-.865,3.944,3.944,0,0,1,2.611.825,2.921,2.921,0,0,1,.988,2.376v4.6a9.032,9.032,0,0,0,.053.988,5,5,0,0,0,.194.935Zm-2.885-1.279a3.1,3.1,0,0,0,1.7-.484,2.3,2.3,0,0,0,.988-1.108v-1.548h-1.95a2.529,2.529,0,0,0-1.68.528,1.573,1.573,0,0,0-.631,1.24,1.306,1.306,0,0,0,.4,1,1.663,1.663,0,0,0,1.173.369" transform="translate(49.729 22.635)"/>
      <path id="Trazado_244557" data-name="Trazado 244557" d="M398.612,184.055a2.342,2.342,0,0,0,1.522-.534,1.632,1.632,0,0,0,.657-1.31h1.561l.017.053a2.687,2.687,0,0,1-1.1,2.2,4,4,0,0,1-2.659.962,3.861,3.861,0,0,1-3.184-1.358,5.236,5.236,0,0,1-1.1-3.414v-.37a5.206,5.206,0,0,1,1.108-3.4,4.345,4.345,0,0,1,5.918-.375,3.076,3.076,0,0,1,1.027,2.425l-.018.053h-1.569a2.022,2.022,0,0,0-.618-1.487,2.126,2.126,0,0,0-1.561-.613,2.09,2.09,0,0,0-1.953.983,4.613,4.613,0,0,0-.587,2.408v.37a4.676,4.676,0,0,0,.583,2.436,2.1,2.1,0,0,0,1.958.973" transform="translate(50.854 22.636)"/>
      <path id="Trazado_244558" data-name="Trazado 244558" d="M405.04,173.711H403.3v-1.772h1.737Zm0,11.987H403.3v-9.543h1.737Z" transform="translate(52.012 22.174)"/>
      <path id="Trazado_244559" data-name="Trazado 244559" d="M406.849,180.377A5.25,5.25,0,0,1,408,176.889a3.844,3.844,0,0,1,3.113-1.372,3.886,3.886,0,0,1,3.136,1.367,5.243,5.243,0,0,1,1.15,3.493v.194a5.24,5.24,0,0,1-1.146,3.493,4.269,4.269,0,0,1-6.25,0,5.225,5.225,0,0,1-1.15-3.488Zm1.737.19a4.51,4.51,0,0,0,.639,2.5,2.312,2.312,0,0,0,3.789,0,4.492,4.492,0,0,0,.644-2.5v-.194a4.478,4.478,0,0,0-.648-2.493,2.126,2.126,0,0,0-1.9-1,2.1,2.1,0,0,0-1.883,1,4.523,4.523,0,0,0-.639,2.493Z" transform="translate(52.469 22.635)"/>
      <path id="Trazado_244560" data-name="Trazado 244560" d="M417.854,175.693l.123,1.42a3.464,3.464,0,0,1,1.2-1.178,3.19,3.19,0,0,1,1.636-.419,3.111,3.111,0,0,1,2.39.9,3.968,3.968,0,0,1,.847,2.791v6.024h-1.737v-5.989a2.584,2.584,0,0,0-.5-1.791,2,2,0,0,0-1.522-.528,2.444,2.444,0,0,0-1.328.361,2.642,2.642,0,0,0-.921.988v6.959H416.3v-9.543Z" transform="translate(53.688 22.635)"/>
      <path id="Trazado_244561" data-name="Trazado 244561" d="M429.4,185.421a4.023,4.023,0,0,1-3.17-1.327,4.994,4.994,0,0,1-1.178-3.444v-.388a4.891,4.891,0,0,1,1.213-3.391,3.733,3.733,0,0,1,2.871-1.354,3.617,3.617,0,0,1,2.919,1.164,4.643,4.643,0,0,1,.988,3.1v1.085h-6.191l-.027.044a3.75,3.75,0,0,0,.7,2.256,2.221,2.221,0,0,0,1.879.885,4.379,4.379,0,0,0,1.548-.252,3.59,3.59,0,0,0,1.152-.692l.68,1.13a4.085,4.085,0,0,1-1.35.843,5.443,5.443,0,0,1-2.029.336m-.264-8.537a1.884,1.884,0,0,0-1.49.734,3.458,3.458,0,0,0-.759,1.841l.017.044h4.4v-.228a2.65,2.65,0,0,0-.548-1.706,1.95,1.95,0,0,0-1.622-.685" transform="translate(54.817 22.635)"/>
      <path id="Trazado_244562" data-name="Trazado 244562" d="M439.438,182.7a1.183,1.183,0,0,0-.437-.944,4.1,4.1,0,0,0-1.654-.644,6.985,6.985,0,0,1-2.615-1.025,2.078,2.078,0,0,1-.877-1.767,2.489,2.489,0,0,1,.988-1.981,4.5,4.5,0,0,1,5.226.036,2.537,2.537,0,0,1,.939,2.082l-.018.053h-1.658a1.516,1.516,0,0,0-.525-1.124,1.935,1.935,0,0,0-1.389-.5,2.008,2.008,0,0,0-1.376.405,1.272,1.272,0,0,0-.449.979,1.092,1.092,0,0,0,.4.891,4.132,4.132,0,0,0,1.614.583,6.97,6.97,0,0,1,2.69,1.053,2.128,2.128,0,0,1,.882,1.786,2.47,2.47,0,0,1-1.027,2.056,4.305,4.305,0,0,1-2.686.785,4.192,4.192,0,0,1-2.875-.926,2.643,2.643,0,0,1-1-2.161l.018-.053h1.658a1.591,1.591,0,0,0,.688,1.347,2.673,2.673,0,0,0,1.508.426,2.453,2.453,0,0,0,1.451-.375,1.157,1.157,0,0,0,.525-.983" transform="translate(55.917 22.636)"/>
      <path id="Trazado_244563" data-name="Trazado 244563" d="M456.168,261.806H334.7a23.8,23.8,0,0,1-23.726-23.727V226.659A23.8,23.8,0,0,1,334.7,202.932H456.168A23.8,23.8,0,0,1,479.9,226.659v11.419a23.8,23.8,0,0,1-23.727,23.727" transform="translate(40.104 26.171)" fill="#fedc72"/>
      <path id="Trazado_244564" data-name="Trazado 244564" d="M352.938,220.777H351.2l-6.183-9.932-.052.018v9.913h-1.739V207.935h1.739l6.182,9.913.053-.017v-9.9h1.737Z" transform="translate(44.264 26.816)"/>
      <path id="Trazado_244565" data-name="Trazado 244565" d="M353.993,215.56a5.249,5.249,0,0,1,1.147-3.489,3.844,3.844,0,0,1,3.113-1.372,3.886,3.886,0,0,1,3.136,1.367,5.243,5.243,0,0,1,1.15,3.493v.194a5.234,5.234,0,0,1-1.146,3.493,4.269,4.269,0,0,1-6.25,0,5.225,5.225,0,0,1-1.15-3.488Zm1.737.19a4.511,4.511,0,0,0,.639,2.5,2.312,2.312,0,0,0,3.789,0,4.492,4.492,0,0,0,.643-2.5v-.194a4.478,4.478,0,0,0-.648-2.493,2.126,2.126,0,0,0-1.9-1,2.1,2.1,0,0,0-1.883,1,4.523,4.523,0,0,0-.639,2.493Z" transform="translate(45.653 27.173)"/>
      <path id="Trazado_244566" data-name="Trazado 244566" d="M367.071,216.287a6.366,6.366,0,0,1,.983-3.713,3.169,3.169,0,0,1,2.756-1.411,3.425,3.425,0,0,1,1.487.308,3.064,3.064,0,0,1,1.106.9v-5.247h1.737v13.759h-1.419l-.2-1.173a3.093,3.093,0,0,1-1.147,1.015,3.45,3.45,0,0,1-1.578.343,3.276,3.276,0,0,1-2.734-1.266,5.253,5.253,0,0,1-.988-3.329Zm1.737.185a4.052,4.052,0,0,0,.59,2.316,2.066,2.066,0,0,0,1.835.868,2.309,2.309,0,0,0,1.306-.352,2.636,2.636,0,0,0,.864-.988v-4.455a2.708,2.708,0,0,0-.868-.939,2.3,2.3,0,0,0-1.284-.348,1.987,1.987,0,0,0-1.848,1.032,5.332,5.332,0,0,0-.595,2.681Z" transform="translate(47.339 26.712)"/>
      <path id="Trazado_244567" data-name="Trazado 244567" d="M380.521,220.605a4.023,4.023,0,0,1-3.17-1.327,4.994,4.994,0,0,1-1.177-3.444v-.388a4.891,4.891,0,0,1,1.212-3.391,3.734,3.734,0,0,1,2.871-1.354,3.617,3.617,0,0,1,2.919,1.164,4.643,4.643,0,0,1,.988,3.1v1.085h-6.191l-.027.044a3.75,3.75,0,0,0,.7,2.256,2.221,2.221,0,0,0,1.879.885,4.38,4.38,0,0,0,1.548-.252,3.59,3.59,0,0,0,1.152-.692l.68,1.13a4.085,4.085,0,0,1-1.35.843,5.443,5.443,0,0,1-2.029.336m-.264-8.537a1.883,1.883,0,0,0-1.49.734,3.458,3.458,0,0,0-.759,1.841l.017.044h4.4v-.228a2.651,2.651,0,0,0-.548-1.706,1.95,1.95,0,0,0-1.622-.685" transform="translate(48.513 27.173)"/>
      <rect id="Rectángulo_103472" data-name="Rectángulo 103472" width="1.737" height="13.76" transform="translate(434.767 233.833)"/>
      <path id="Trazado_244568" data-name="Trazado 244568" d="M390.872,208.9h-1.737v-1.772h1.737Zm0,11.986h-1.737v-9.543h1.737Z" transform="translate(50.185 26.712)"/>
      <path id="Trazado_244569" data-name="Trazado 244569" d="M394.592,210.877l.123,1.252a3.232,3.232,0,0,1,1.187-1.053,3.555,3.555,0,0,1,1.672-.375,2.957,2.957,0,0,1,1.636.44,2.678,2.678,0,0,1,1.027,1.323,3.537,3.537,0,0,1,1.191-1.287,3.115,3.115,0,0,1,1.728-.476,2.861,2.861,0,0,1,2.3,1,4.574,4.574,0,0,1,.847,3.012v5.707h-1.737V214.7a3.179,3.179,0,0,0-.485-2,1.771,1.771,0,0,0-1.446-.586,1.839,1.839,0,0,0-1.442.618,2.672,2.672,0,0,0-.649,1.56v6.13H398.8V214.7a3.129,3.129,0,0,0-.5-1.962,1.729,1.729,0,0,0-1.433-.622,2.387,2.387,0,0,0-1.306.326,2.1,2.1,0,0,0-.785.917v7.065H393.04v-9.543Z" transform="translate(50.688 27.173)"/>
      <path id="Trazado_244570" data-name="Trazado 244570" d="M408.886,208.9h-1.737v-1.772h1.737Zm0,11.986h-1.737v-9.543h1.737Z" transform="translate(52.508 26.712)"/>
      <path id="Trazado_244571" data-name="Trazado 244571" d="M413.459,208.818v2.3h1.809v1.288h-1.809V218.2a1.3,1.3,0,0,0,.278.943,1,1,0,0,0,.736.274,1.74,1.74,0,0,0,.331-.036,1.877,1.877,0,0,0,.323-.088l.229,1.191a1.537,1.537,0,0,1-.569.26,2.881,2.881,0,0,1-.754.1,2.246,2.246,0,0,1-1.684-.639,2.776,2.776,0,0,1-.627-2.006v-5.795H410.2V211.12h1.517v-2.3Z" transform="translate(52.902 26.93)"/>
      <path id="Trazado_244572" data-name="Trazado 244572" d="M422.489,220.42c-.06-.288-.105-.543-.137-.763a5.254,5.254,0,0,1-.058-.666,4.07,4.07,0,0,1-1.266,1.152,3.242,3.242,0,0,1-1.681.463,3.12,3.12,0,0,1-2.27-.763,2.8,2.8,0,0,1-.781-2.1A2.462,2.462,0,0,1,417.4,215.6a5.165,5.165,0,0,1,3-.771H422.3v-.944a1.755,1.755,0,0,0-.511-1.328,2.013,2.013,0,0,0-1.447-.49,2.085,2.085,0,0,0-1.363.428,1.286,1.286,0,0,0-.524,1.027h-1.658l-.018-.052a2.312,2.312,0,0,1,.983-1.906,4.037,4.037,0,0,1,2.677-.865,3.944,3.944,0,0,1,2.611.825,2.921,2.921,0,0,1,.988,2.376v4.6a9.033,9.033,0,0,0,.053.988,5,5,0,0,0,.194.935Zm-2.885-1.279a3.1,3.1,0,0,0,1.7-.484,2.3,2.3,0,0,0,.988-1.108V216h-1.95a2.529,2.529,0,0,0-1.68.528,1.573,1.573,0,0,0-.631,1.24,1.306,1.306,0,0,0,.4,1,1.663,1.663,0,0,0,1.173.369" transform="translate(53.688 27.173)"/>
      <path id="Trazado_244573" data-name="Trazado 244573" d="M429.9,212.412l-.891-.053a1.994,1.994,0,0,0-1.159.326,2.079,2.079,0,0,0-.728.918v6.818h-1.737v-9.543h1.552l.167,1.393a3.33,3.33,0,0,1,1-1.155,2.329,2.329,0,0,1,1.372-.415,2.066,2.066,0,0,1,.37.032,2.648,2.648,0,0,1,.291.065Z" transform="translate(54.859 27.173)"/>
      <path id="Trazado_244574" data-name="Trazado 244574" d="M356.191,234.033H361.7V235.4h-7.586v-1.226l5.159-6.95h-5.1v-1.367H361.4v1.173Z" transform="translate(45.669 29.128)"/>
      <path id="Trazado_244575" data-name="Trazado 244575" d="M362.063,230.56a5.25,5.25,0,0,1,1.147-3.489,3.844,3.844,0,0,1,3.113-1.372,3.886,3.886,0,0,1,3.136,1.367,5.243,5.243,0,0,1,1.15,3.493v.194a5.234,5.234,0,0,1-1.146,3.493,4.269,4.269,0,0,1-6.25,0,5.225,5.225,0,0,1-1.15-3.488Zm1.737.19a4.511,4.511,0,0,0,.639,2.5,2.312,2.312,0,0,0,3.789,0,4.492,4.492,0,0,0,.644-2.5v-.194a4.478,4.478,0,0,0-.648-2.493,2.126,2.126,0,0,0-1.9-1,2.1,2.1,0,0,0-1.883,1,4.523,4.523,0,0,0-.639,2.493Z" transform="translate(46.693 29.107)"/>
      <path id="Trazado_244576" data-name="Trazado 244576" d="M373.068,225.877l.123,1.42a3.464,3.464,0,0,1,1.2-1.178,3.19,3.19,0,0,1,1.636-.419,3.111,3.111,0,0,1,2.39.9,3.968,3.968,0,0,1,.847,2.791v6.024h-1.737v-5.989a2.584,2.584,0,0,0-.5-1.791,2,2,0,0,0-1.522-.528,2.444,2.444,0,0,0-1.328.361,2.642,2.642,0,0,0-.921.988v6.959h-1.737v-9.543Z" transform="translate(47.912 29.107)"/>
      <path id="Trazado_244577" data-name="Trazado 244577" d="M386.513,235.42c-.06-.288-.105-.543-.137-.763a5.249,5.249,0,0,1-.058-.666,4.07,4.07,0,0,1-1.266,1.152,3.242,3.242,0,0,1-1.681.463,3.121,3.121,0,0,1-2.27-.763,2.8,2.8,0,0,1-.781-2.1,2.462,2.462,0,0,1,1.107-2.139,5.165,5.165,0,0,1,3-.771h1.888v-.944a1.755,1.755,0,0,0-.511-1.328,2.013,2.013,0,0,0-1.447-.49A2.086,2.086,0,0,0,383,227.5a1.286,1.286,0,0,0-.524,1.027h-1.658l-.018-.052a2.312,2.312,0,0,1,.983-1.906,4.037,4.037,0,0,1,2.677-.865,3.945,3.945,0,0,1,2.611.825,2.921,2.921,0,0,1,.988,2.376v4.6a9.032,9.032,0,0,0,.053.988,5,5,0,0,0,.194.935Zm-2.885-1.279a3.1,3.1,0,0,0,1.7-.484,2.3,2.3,0,0,0,.988-1.108V231h-1.95a2.529,2.529,0,0,0-1.68.528,1.573,1.573,0,0,0-.631,1.24,1.306,1.306,0,0,0,.4,1,1.663,1.663,0,0,0,1.173.369" transform="translate(49.048 29.107)"/>
      <path id="Trazado_244578" data-name="Trazado 244578" d="M394.989,232.88a1.183,1.183,0,0,0-.437-.944,4.094,4.094,0,0,0-1.654-.644,6.985,6.985,0,0,1-2.615-1.025,2.078,2.078,0,0,1-.877-1.767,2.489,2.489,0,0,1,.988-1.981,4.5,4.5,0,0,1,5.226.036,2.537,2.537,0,0,1,.939,2.082l-.018.053h-1.658a1.516,1.516,0,0,0-.525-1.124,1.935,1.935,0,0,0-1.389-.5,2.008,2.008,0,0,0-1.376.405,1.272,1.272,0,0,0-.449.979,1.092,1.092,0,0,0,.4.891,4.132,4.132,0,0,0,1.614.583,6.97,6.97,0,0,1,2.69,1.053,2.128,2.128,0,0,1,.882,1.786,2.47,2.47,0,0,1-1.027,2.056,4.305,4.305,0,0,1-2.686.785,4.192,4.192,0,0,1-2.876-.926,2.643,2.643,0,0,1-1-2.161l.018-.053h1.658a1.591,1.591,0,0,0,.688,1.347,2.673,2.673,0,0,0,1.508.426,2.453,2.453,0,0,0,1.451-.375,1.157,1.157,0,0,0,.525-.983" transform="translate(50.185 29.107)"/>
      <path id="Trazado_244579" data-name="Trazado 244579" d="M401.4,231.287a6.367,6.367,0,0,1,.983-3.713,3.169,3.169,0,0,1,2.756-1.411,3.425,3.425,0,0,1,1.487.308,3.064,3.064,0,0,1,1.106.9v-5.247h1.737v13.759H408.05l-.2-1.173a3.092,3.092,0,0,1-1.147,1.015,3.45,3.45,0,0,1-1.578.343,3.276,3.276,0,0,1-2.734-1.266,5.253,5.253,0,0,1-.988-3.329Zm1.737.185a4.052,4.052,0,0,0,.59,2.315,2.066,2.066,0,0,0,1.835.868,2.309,2.309,0,0,0,1.306-.352,2.636,2.636,0,0,0,.864-.988v-4.455a2.708,2.708,0,0,0-.868-.939,2.3,2.3,0,0,0-1.284-.348,1.987,1.987,0,0,0-1.848,1.032,5.333,5.333,0,0,0-.595,2.681Z" transform="translate(51.766 28.646)"/>
      <path id="Trazado_244580" data-name="Trazado 244580" d="M414.849,235.605a4.023,4.023,0,0,1-3.17-1.327,4.994,4.994,0,0,1-1.178-3.444v-.388a4.891,4.891,0,0,1,1.212-3.391,3.734,3.734,0,0,1,2.871-1.354,3.617,3.617,0,0,1,2.92,1.164,4.643,4.643,0,0,1,.988,3.1v1.085H412.3l-.027.044a3.75,3.75,0,0,0,.7,2.256,2.221,2.221,0,0,0,1.879.885,4.38,4.38,0,0,0,1.548-.252,3.59,3.59,0,0,0,1.152-.692l.68,1.13a4.085,4.085,0,0,1-1.35.843,5.442,5.442,0,0,1-2.029.336m-.264-8.537a1.883,1.883,0,0,0-1.49.734,3.457,3.457,0,0,0-.759,1.841l.017.044h4.4v-.228a2.651,2.651,0,0,0-.548-1.706,1.95,1.95,0,0,0-1.622-.685" transform="translate(52.94 29.107)"/>
      <path id="Trazado_244581" data-name="Trazado 244581" d="M327.735,250.42c-.06-.288-.105-.543-.137-.763a5.26,5.26,0,0,1-.058-.666,4.069,4.069,0,0,1-1.266,1.152,3.242,3.242,0,0,1-1.681.463,3.121,3.121,0,0,1-2.27-.763,2.8,2.8,0,0,1-.781-2.1,2.462,2.462,0,0,1,1.108-2.139,5.164,5.164,0,0,1,3-.771h1.888v-.944a1.755,1.755,0,0,0-.511-1.328,2.013,2.013,0,0,0-1.447-.49,2.085,2.085,0,0,0-1.363.428,1.286,1.286,0,0,0-.524,1.027h-1.658l-.018-.052a2.312,2.312,0,0,1,.983-1.906,4.037,4.037,0,0,1,2.677-.865,3.944,3.944,0,0,1,2.611.825,2.921,2.921,0,0,1,.988,2.376v4.6a9.054,9.054,0,0,0,.053.988,5,5,0,0,0,.194.935Zm-2.885-1.279a3.1,3.1,0,0,0,1.7-.484,2.3,2.3,0,0,0,.988-1.108V246h-1.95a2.529,2.529,0,0,0-1.68.528,1.573,1.573,0,0,0-.631,1.24,1.306,1.306,0,0,0,.4,1,1.663,1.663,0,0,0,1.173.369" transform="translate(41.468 31.042)"/>
      <path id="Trazado_244582" data-name="Trazado 244582" d="M334.557,249.238a2.342,2.342,0,0,0,1.522-.534,1.632,1.632,0,0,0,.657-1.31H338.3l.017.053a2.687,2.687,0,0,1-1.1,2.2,4,4,0,0,1-2.659.962,3.861,3.861,0,0,1-3.184-1.358,5.236,5.236,0,0,1-1.1-3.414v-.37a5.206,5.206,0,0,1,1.108-3.4,4.345,4.345,0,0,1,5.918-.375,3.076,3.076,0,0,1,1.027,2.425l-.018.053h-1.569a2.022,2.022,0,0,0-.618-1.487,2.126,2.126,0,0,0-1.561-.613,2.09,2.09,0,0,0-1.953.983,4.613,4.613,0,0,0-.587,2.408v.37a4.676,4.676,0,0,0,.583,2.436,2.1,2.1,0,0,0,1.958.973" transform="translate(42.593 31.042)"/>
      <path id="Trazado_244583" data-name="Trazado 244583" d="M343.049,249.238a2.342,2.342,0,0,0,1.522-.534,1.632,1.632,0,0,0,.657-1.31h1.561l.017.053a2.687,2.687,0,0,1-1.1,2.2,4,4,0,0,1-2.659.962,3.861,3.861,0,0,1-3.184-1.358,5.236,5.236,0,0,1-1.1-3.414v-.37a5.206,5.206,0,0,1,1.108-3.4,4.345,4.345,0,0,1,5.918-.375,3.076,3.076,0,0,1,1.027,2.425l-.018.053h-1.569a2.022,2.022,0,0,0-.618-1.487,2.126,2.126,0,0,0-1.561-.613,2.09,2.09,0,0,0-1.953.983,4.613,4.613,0,0,0-.587,2.408v.37a4.676,4.676,0,0,0,.583,2.436,2.1,2.1,0,0,0,1.958.973" transform="translate(43.688 31.042)"/>
      <path id="Trazado_244584" data-name="Trazado 244584" d="M351.619,250.605a4.023,4.023,0,0,1-3.17-1.327,4.994,4.994,0,0,1-1.177-3.444v-.388a4.89,4.89,0,0,1,1.212-3.391,3.734,3.734,0,0,1,2.871-1.354,3.617,3.617,0,0,1,2.919,1.164,4.643,4.643,0,0,1,.988,3.1v1.085h-6.191l-.027.044a3.75,3.75,0,0,0,.7,2.256,2.221,2.221,0,0,0,1.879.885,4.38,4.38,0,0,0,1.548-.252,3.6,3.6,0,0,0,1.152-.692l.68,1.13a4.085,4.085,0,0,1-1.35.843,5.442,5.442,0,0,1-2.029.336m-.264-8.537a1.883,1.883,0,0,0-1.49.734,3.458,3.458,0,0,0-.759,1.841l.017.044h4.4v-.228a2.651,2.651,0,0,0-.547-1.706,1.95,1.95,0,0,0-1.622-.685" transform="translate(44.786 31.042)"/>
      <path id="Trazado_244585" data-name="Trazado 244585" d="M361.657,247.88a1.183,1.183,0,0,0-.437-.944,4.1,4.1,0,0,0-1.654-.643,6.985,6.985,0,0,1-2.615-1.025,2.078,2.078,0,0,1-.877-1.767,2.489,2.489,0,0,1,.988-1.981,4.5,4.5,0,0,1,5.226.036,2.537,2.537,0,0,1,.939,2.082l-.018.053h-1.658a1.516,1.516,0,0,0-.525-1.124,1.935,1.935,0,0,0-1.389-.5,2.008,2.008,0,0,0-1.376.405,1.272,1.272,0,0,0-.449.979,1.092,1.092,0,0,0,.4.891,4.132,4.132,0,0,0,1.614.583,6.97,6.97,0,0,1,2.69,1.053,2.128,2.128,0,0,1,.882,1.786,2.47,2.47,0,0,1-1.027,2.056,4.305,4.305,0,0,1-2.686.785,4.192,4.192,0,0,1-2.876-.926,2.643,2.643,0,0,1-1-2.161l.018-.053h1.658a1.591,1.591,0,0,0,.688,1.347,2.673,2.673,0,0,0,1.508.426,2.453,2.453,0,0,0,1.451-.375,1.157,1.157,0,0,0,.525-.983" transform="translate(45.886 31.042)"/>
      <path id="Trazado_244586" data-name="Trazado 244586" d="M364.083,245.56a5.249,5.249,0,0,1,1.147-3.488,3.844,3.844,0,0,1,3.113-1.372,3.886,3.886,0,0,1,3.136,1.367,5.243,5.243,0,0,1,1.15,3.493v.194a5.234,5.234,0,0,1-1.146,3.493,4.269,4.269,0,0,1-6.25,0,5.225,5.225,0,0,1-1.15-3.488Zm1.737.19a4.511,4.511,0,0,0,.639,2.5,2.312,2.312,0,0,0,3.789,0,4.492,4.492,0,0,0,.644-2.5v-.194a4.478,4.478,0,0,0-.648-2.493,2.126,2.126,0,0,0-1.9-1,2.1,2.1,0,0,0-1.883,1,4.523,4.523,0,0,0-.639,2.493Z" transform="translate(46.954 31.042)"/>
      <path id="Trazado_244587" data-name="Trazado 244587" d="M377.161,246.287a6.366,6.366,0,0,1,.983-3.713,3.169,3.169,0,0,1,2.756-1.411,3.425,3.425,0,0,1,1.487.308,3.064,3.064,0,0,1,1.106.9v-5.247h1.737v13.759h-1.419l-.2-1.173a3.094,3.094,0,0,1-1.147,1.015,3.45,3.45,0,0,1-1.578.343,3.276,3.276,0,0,1-2.734-1.266,5.253,5.253,0,0,1-.988-3.329Zm1.737.185a4.052,4.052,0,0,0,.59,2.315,2.066,2.066,0,0,0,1.835.868,2.31,2.31,0,0,0,1.306-.352,2.636,2.636,0,0,0,.864-.988v-4.455a2.708,2.708,0,0,0-.868-.939,2.3,2.3,0,0,0-1.284-.348,1.987,1.987,0,0,0-1.848,1.032,5.332,5.332,0,0,0-.595,2.681Z" transform="translate(48.64 30.58)"/>
      <path id="Trazado_244588" data-name="Trazado 244588" d="M390.611,250.605a4.023,4.023,0,0,1-3.17-1.327,4.994,4.994,0,0,1-1.177-3.444v-.388a4.89,4.89,0,0,1,1.212-3.391,3.734,3.734,0,0,1,2.871-1.354,3.617,3.617,0,0,1,2.919,1.164,4.643,4.643,0,0,1,.988,3.1v1.085h-6.191l-.027.044a3.75,3.75,0,0,0,.7,2.256,2.221,2.221,0,0,0,1.879.885,4.38,4.38,0,0,0,1.548-.252,3.589,3.589,0,0,0,1.152-.692l.68,1.13a4.086,4.086,0,0,1-1.35.843,5.442,5.442,0,0,1-2.029.336m-.264-8.537a1.883,1.883,0,0,0-1.49.734,3.457,3.457,0,0,0-.759,1.841l.017.044h4.4v-.228a2.65,2.65,0,0,0-.548-1.706,1.95,1.95,0,0,0-1.622-.685" transform="translate(49.814 31.042)"/>
      <path id="Trazado_244589" data-name="Trazado 244589" d="M407.176,246.011a5.26,5.26,0,0,1-.988,3.329,3.269,3.269,0,0,1-2.725,1.266,3.79,3.79,0,0,1-1.548-.295,2.953,2.953,0,0,1-1.133-.887v4.666h-1.737V240.877h1.332l.273,1.235a3.145,3.145,0,0,1,1.164-1.05,3.469,3.469,0,0,1,1.623-.361,3.172,3.172,0,0,1,2.756,1.407,6.373,6.373,0,0,1,.983,3.718Zm-1.737-.19a5.036,5.036,0,0,0-.639-2.664,2.073,2.073,0,0,0-1.883-1.044,2.31,2.31,0,0,0-1.279.34,2.519,2.519,0,0,0-.856.929v4.606a2.441,2.441,0,0,0,.856.92,2.391,2.391,0,0,0,1.3.331,2.141,2.141,0,0,0,1.871-.9,3.963,3.963,0,0,0,.634-2.33Z" transform="translate(51.463 31.042)"/>
      <path id="Trazado_244590" data-name="Trazado 244590" d="M414.2,249.39a3.246,3.246,0,0,1-1.156,1.182,3.155,3.155,0,0,1-1.631.414,3.064,3.064,0,0,1-2.434-1,4.626,4.626,0,0,1-.873-3.1v-5.627h1.737V246.9a3.55,3.55,0,0,0,.449,2.1,1.672,1.672,0,0,0,1.4.574,2.867,2.867,0,0,0,1.531-.375,2.348,2.348,0,0,0,.912-1.063v-6.879h1.737V250.8h-1.561Zm-1.367-11.634h2.029l.017.053L412.5,240.1h-1.3Z" transform="translate(52.631 30.662)"/>
      <path id="Trazado_244591" data-name="Trazado 244591" d="M425.381,246.472a5.241,5.241,0,0,1-.992,3.329,3.279,3.279,0,0,1-2.73,1.266,3.481,3.481,0,0,1-1.64-.366,3.036,3.036,0,0,1-1.155-1.08l-.212,1.261h-1.42V237.123h1.737v5.345a3.013,3.013,0,0,1,1.117-.97,3.413,3.413,0,0,1,1.557-.335,3.173,3.173,0,0,1,2.751,1.411,6.35,6.35,0,0,1,.988,3.713Zm-1.737-.185a5.276,5.276,0,0,0-.6-2.677,1.992,1.992,0,0,0-1.839-1.036,2.268,2.268,0,0,0-1.354.393,2.765,2.765,0,0,0-.878,1.053v4.137a2.841,2.841,0,0,0,.878,1.1,2.261,2.261,0,0,0,1.372.4,2.065,2.065,0,0,0,1.826-.873,4.021,4.021,0,0,0,.6-2.311Z" transform="translate(53.808 30.58)"/>
      <rect id="Rectángulo_103473" data-name="Rectángulo 103473" width="1.737" height="13.76" transform="translate(481.447 267.702)"/>
      <path id="Trazado_244592" data-name="Trazado 244592" d="M432.218,238.9h-1.737v-1.772h1.737Zm0,11.986h-1.737v-9.543h1.737Z" transform="translate(55.517 30.58)"/>
      <path id="Trazado_244593" data-name="Trazado 244593" d="M438.315,249.238a2.342,2.342,0,0,0,1.522-.534,1.632,1.632,0,0,0,.657-1.31h1.561l.017.053a2.687,2.687,0,0,1-1.1,2.2,4,4,0,0,1-2.659.962,3.861,3.861,0,0,1-3.184-1.358,5.236,5.236,0,0,1-1.1-3.414v-.37a5.206,5.206,0,0,1,1.108-3.4,4.345,4.345,0,0,1,5.918-.375,3.076,3.076,0,0,1,1.027,2.425l-.018.053h-1.569a2.022,2.022,0,0,0-.618-1.487,2.126,2.126,0,0,0-1.561-.613,2.09,2.09,0,0,0-1.953.983,4.613,4.613,0,0,0-.587,2.408v.37a4.676,4.676,0,0,0,.583,2.436,2.1,2.1,0,0,0,1.958.973" transform="translate(55.974 31.042)"/>
      <path id="Trazado_244594" data-name="Trazado 244594" d="M442.52,245.56a5.249,5.249,0,0,1,1.147-3.488,3.844,3.844,0,0,1,3.113-1.372,3.886,3.886,0,0,1,3.136,1.367,5.243,5.243,0,0,1,1.15,3.493v.194a5.234,5.234,0,0,1-1.146,3.493,4.269,4.269,0,0,1-6.25,0,5.225,5.225,0,0,1-1.15-3.488Zm1.737.19a4.511,4.511,0,0,0,.639,2.5,2.312,2.312,0,0,0,3.789,0,4.492,4.492,0,0,0,.644-2.5v-.194a4.478,4.478,0,0,0-.648-2.493,2.126,2.126,0,0,0-1.9-1,2.1,2.1,0,0,0-1.883,1,4.523,4.523,0,0,0-.639,2.493Z" transform="translate(57.069 31.042)"/>
      <path id="Trazado_244595" data-name="Trazado 244595" d="M287.745,222.7H166.276A23.8,23.8,0,0,1,142.55,198.97V187.55a23.8,23.8,0,0,1,23.726-23.727H287.745a23.8,23.8,0,0,1,23.727,23.727V198.97A23.8,23.8,0,0,1,287.745,222.7" transform="translate(18.384 21.127)" fill="#fedc72"/>
      <path id="Trazado_244596" data-name="Trazado 244596" d="M201.13,185.3l.018.053a3.869,3.869,0,0,1-1.27,3.029,4.841,4.841,0,0,1-3.449,1.223,4.535,4.535,0,0,1-3.551-1.544,5.678,5.678,0,0,1-1.371-3.915v-2.285a5.7,5.7,0,0,1,1.371-3.921,4.527,4.527,0,0,1,3.551-1.548,4.982,4.982,0,0,1,3.466,1.161,3.83,3.83,0,0,1,1.253,3.073l-.018.053h-1.667a2.862,2.862,0,0,0-.794-2.134,3.046,3.046,0,0,0-2.24-.786,2.739,2.739,0,0,0-2.32,1.172,4.772,4.772,0,0,0-.864,2.909v2.3a4.8,4.8,0,0,0,.864,2.925,2.737,2.737,0,0,0,2.32,1.173,3.058,3.058,0,0,0,2.24-.781,2.886,2.886,0,0,0,.794-2.156Z" transform="translate(24.698 22.748)"/>
      <path id="Trazado_244597" data-name="Trazado 244597" d="M207.738,189.042c-.059-.288-.1-.543-.137-.763a5.7,5.7,0,0,1-.058-.666,4.057,4.057,0,0,1-1.266,1.152,3.242,3.242,0,0,1-1.681.463,3.122,3.122,0,0,1-2.27-.763,2.8,2.8,0,0,1-.781-2.1,2.465,2.465,0,0,1,1.108-2.139,5.169,5.169,0,0,1,3-.771h1.888v-.944a1.751,1.751,0,0,0-.511-1.328,2.01,2.01,0,0,0-1.447-.49,2.089,2.089,0,0,0-1.363.428,1.289,1.289,0,0,0-.524,1.027H202.04l-.018-.052a2.315,2.315,0,0,1,.983-1.906,4.039,4.039,0,0,1,2.677-.865,3.94,3.94,0,0,1,2.611.825,2.918,2.918,0,0,1,.988,2.376v4.6a9.041,9.041,0,0,0,.053.988,5.093,5.093,0,0,0,.194.935Zm-2.885-1.279a3.092,3.092,0,0,0,1.7-.484,2.293,2.293,0,0,0,.988-1.107v-1.548h-1.95a2.533,2.533,0,0,0-1.68.528,1.576,1.576,0,0,0-.631,1.24,1.306,1.306,0,0,0,.4,1,1.665,1.665,0,0,0,1.173.369" transform="translate(25.992 23.126)"/>
      <path id="Trazado_244598" data-name="Trazado 244598" d="M216.7,187.611a3.235,3.235,0,0,1-1.155,1.182,3.159,3.159,0,0,1-1.632.414,3.064,3.064,0,0,1-2.434-1,4.626,4.626,0,0,1-.873-3.1v-5.627h1.737v5.645a3.55,3.55,0,0,0,.449,2.1,1.672,1.672,0,0,0,1.4.574,2.854,2.854,0,0,0,1.531-.375,2.338,2.338,0,0,0,.912-1.062v-6.88h1.737v9.543h-1.56Z" transform="translate(27.16 23.146)"/>
      <path id="Trazado_244599" data-name="Trazado 244599" d="M225.308,186.5a1.183,1.183,0,0,0-.437-.944,4.094,4.094,0,0,0-1.654-.644,7,7,0,0,1-2.615-1.025,2.081,2.081,0,0,1-.877-1.767,2.493,2.493,0,0,1,.988-1.981,4.5,4.5,0,0,1,5.226.036,2.531,2.531,0,0,1,.939,2.082l-.018.053H225.2a1.512,1.512,0,0,0-.525-1.124,1.931,1.931,0,0,0-1.389-.5,2.008,2.008,0,0,0-1.376.405,1.272,1.272,0,0,0-.449.979,1.092,1.092,0,0,0,.4.891,4.131,4.131,0,0,0,1.614.583,6.955,6.955,0,0,1,2.69,1.053,2.125,2.125,0,0,1,.882,1.786,2.467,2.467,0,0,1-1.027,2.056,4.3,4.3,0,0,1-2.686.785,4.194,4.194,0,0,1-2.875-.926,2.647,2.647,0,0,1-1-2.161l.018-.053h1.658a1.6,1.6,0,0,0,.688,1.347,2.678,2.678,0,0,0,1.508.426,2.451,2.451,0,0,0,1.451-.375,1.154,1.154,0,0,0,.525-.983" transform="translate(28.302 23.126)"/>
      <path id="Trazado_244600" data-name="Trazado 244600" d="M234,189.042c-.059-.288-.1-.543-.137-.763a5.7,5.7,0,0,1-.058-.666,4.057,4.057,0,0,1-1.266,1.152,3.242,3.242,0,0,1-1.681.463,3.122,3.122,0,0,1-2.27-.763,2.8,2.8,0,0,1-.781-2.1,2.465,2.465,0,0,1,1.108-2.139,5.169,5.169,0,0,1,3-.771H233.8v-.944a1.751,1.751,0,0,0-.511-1.328,2.01,2.01,0,0,0-1.447-.49,2.089,2.089,0,0,0-1.363.428,1.289,1.289,0,0,0-.524,1.027H228.3l-.018-.052a2.315,2.315,0,0,1,.983-1.906,4.039,4.039,0,0,1,2.677-.865,3.94,3.94,0,0,1,2.611.825,2.918,2.918,0,0,1,.988,2.376v4.6a9.041,9.041,0,0,0,.053.988,5.1,5.1,0,0,0,.194.935Zm-2.885-1.279a3.092,3.092,0,0,0,1.7-.484,2.293,2.293,0,0,0,.988-1.107v-1.548h-1.95a2.533,2.533,0,0,0-1.68.528,1.576,1.576,0,0,0-.631,1.24,1.306,1.306,0,0,0,.4,1,1.665,1.665,0,0,0,1.173.369" transform="translate(29.379 23.126)"/>
      <path id="Trazado_244601" data-name="Trazado 244601" d="M242.472,186.5a1.183,1.183,0,0,0-.437-.944,4.1,4.1,0,0,0-1.654-.644,7,7,0,0,1-2.615-1.025,2.081,2.081,0,0,1-.877-1.767,2.493,2.493,0,0,1,.988-1.981,4.5,4.5,0,0,1,5.226.036,2.531,2.531,0,0,1,.939,2.082l-.018.053h-1.658a1.512,1.512,0,0,0-.525-1.124,1.931,1.931,0,0,0-1.389-.5,2.008,2.008,0,0,0-1.376.405,1.272,1.272,0,0,0-.449.979,1.092,1.092,0,0,0,.4.891,4.132,4.132,0,0,0,1.614.583,6.955,6.955,0,0,1,2.69,1.053,2.125,2.125,0,0,1,.882,1.786,2.467,2.467,0,0,1-1.027,2.056,4.3,4.3,0,0,1-2.686.785,4.194,4.194,0,0,1-2.875-.926,2.647,2.647,0,0,1-1-2.161l.018-.053H238.3a1.6,1.6,0,0,0,.688,1.347,2.678,2.678,0,0,0,1.508.426,2.451,2.451,0,0,0,1.451-.375,1.154,1.154,0,0,0,.525-.983" transform="translate(30.516 23.126)"/>
      <path id="Trazado_244602" data-name="Trazado 244602" d="M180.249,192.517h-1.737v-1.772h1.737Zm0,11.986h-1.737v-9.543h1.737Z" transform="translate(23.022 24.599)"/>
      <path id="Trazado_244603" data-name="Trazado 244603" d="M183.969,194.5l.123,1.42a3.474,3.474,0,0,1,1.2-1.178,3.2,3.2,0,0,1,1.636-.419,3.109,3.109,0,0,1,2.39.9,3.968,3.968,0,0,1,.847,2.791v6.024h-1.737v-5.989a2.578,2.578,0,0,0-.5-1.791,2,2,0,0,0-1.522-.528,2.45,2.45,0,0,0-1.328.361,2.651,2.651,0,0,0-.921.988v6.959h-1.737V194.5Z" transform="translate(23.525 25.061)"/>
      <path id="Trazado_244604" data-name="Trazado 244604" d="M193.063,194.5l.123,1.252a3.25,3.25,0,0,1,1.187-1.053,3.558,3.558,0,0,1,1.672-.375,2.955,2.955,0,0,1,1.636.44,2.672,2.672,0,0,1,1.027,1.323A3.537,3.537,0,0,1,199.9,194.8a3.118,3.118,0,0,1,1.728-.476,2.861,2.861,0,0,1,2.3,1,4.574,4.574,0,0,1,.847,3.012v5.707h-1.737v-5.724a3.172,3.172,0,0,0-.485-2,1.768,1.768,0,0,0-1.446-.586,1.842,1.842,0,0,0-1.442.618,2.687,2.687,0,0,0-.649,1.56v6.13h-1.745v-5.724a3.122,3.122,0,0,0-.5-1.962,1.726,1.726,0,0,0-1.433-.622,2.389,2.389,0,0,0-1.306.326,2.12,2.12,0,0,0-.785.917v7.065h-1.737V194.5Z" transform="translate(24.698 25.061)"/>
      <path id="Trazado_244605" data-name="Trazado 244605" d="M209.5,204.227a4.024,4.024,0,0,1-3.17-1.327,4.994,4.994,0,0,1-1.178-3.444v-.388a4.9,4.9,0,0,1,1.213-3.391,3.735,3.735,0,0,1,2.871-1.354,3.616,3.616,0,0,1,2.92,1.164,4.637,4.637,0,0,1,.988,3.1v1.085h-6.191l-.027.044a3.758,3.758,0,0,0,.7,2.256,2.222,2.222,0,0,0,1.879.885,4.371,4.371,0,0,0,1.548-.252,3.565,3.565,0,0,0,1.152-.692l.68,1.13a4.062,4.062,0,0,1-1.35.843,5.439,5.439,0,0,1-2.029.336m-.264-8.537a1.885,1.885,0,0,0-1.49.734,3.475,3.475,0,0,0-.759,1.841l.017.044h4.4v-.228a2.644,2.644,0,0,0-.548-1.706,1.947,1.947,0,0,0-1.622-.685" transform="translate(26.457 25.061)"/>
      <path id="Trazado_244606" data-name="Trazado 244606" d="M213.605,199.909a6.375,6.375,0,0,1,.983-3.713,3.17,3.17,0,0,1,2.756-1.411,3.422,3.422,0,0,1,1.487.308,3.055,3.055,0,0,1,1.106.9v-5.247h1.737V204.5h-1.419l-.2-1.173a3.085,3.085,0,0,1-1.147,1.015,3.447,3.447,0,0,1-1.578.343,3.278,3.278,0,0,1-2.734-1.266,5.26,5.26,0,0,1-.988-3.329Zm1.737.185a4.061,4.061,0,0,0,.59,2.315,2.067,2.067,0,0,0,1.835.868,2.307,2.307,0,0,0,1.306-.352,2.626,2.626,0,0,0,.864-.988v-4.455a2.687,2.687,0,0,0-.868-.939,2.293,2.293,0,0,0-1.284-.348,1.988,1.988,0,0,0-1.848,1.032,5.332,5.332,0,0,0-.595,2.681Z" transform="translate(27.547 24.599)"/>
      <path id="Trazado_244607" data-name="Trazado 244607" d="M224.912,192.517h-1.737v-1.772h1.737Zm0,11.986h-1.737v-9.543h1.737Z" transform="translate(28.782 24.599)"/>
      <path id="Trazado_244608" data-name="Trazado 244608" d="M232.984,204.042c-.059-.288-.1-.543-.137-.763a5.7,5.7,0,0,1-.058-.666,4.057,4.057,0,0,1-1.266,1.152,3.242,3.242,0,0,1-1.681.463,3.122,3.122,0,0,1-2.27-.763,2.8,2.8,0,0,1-.781-2.1,2.465,2.465,0,0,1,1.107-2.139,5.169,5.169,0,0,1,3-.771h1.888v-.944a1.751,1.751,0,0,0-.511-1.328,2.009,2.009,0,0,0-1.447-.49,2.089,2.089,0,0,0-1.363.428,1.289,1.289,0,0,0-.524,1.027h-1.658l-.018-.052a2.315,2.315,0,0,1,.983-1.906,4.039,4.039,0,0,1,2.677-.865,3.94,3.94,0,0,1,2.611.825,2.918,2.918,0,0,1,.988,2.376v4.6a9.044,9.044,0,0,0,.053.988,5.094,5.094,0,0,0,.194.935Zm-2.885-1.279a3.092,3.092,0,0,0,1.7-.484,2.293,2.293,0,0,0,.988-1.107v-1.548h-1.95a2.533,2.533,0,0,0-1.68.528,1.576,1.576,0,0,0-.631,1.24,1.306,1.306,0,0,0,.4,1,1.665,1.665,0,0,0,1.173.369" transform="translate(29.248 25.061)"/>
      <path id="Trazado_244609" data-name="Trazado 244609" d="M238.282,192.44v2.3h1.809v1.288h-1.809v5.795a1.3,1.3,0,0,0,.278.943,1,1,0,0,0,.735.274,1.709,1.709,0,0,0,.331-.036,1.86,1.86,0,0,0,.324-.088l.228,1.191a1.5,1.5,0,0,1-.569.26,2.862,2.862,0,0,1-.754.1,2.245,2.245,0,0,1-1.683-.639,2.772,2.772,0,0,1-.628-2.006V196.03h-1.516v-1.288h1.516v-2.3Z" transform="translate(30.31 24.818)"/>
      <path id="Trazado_244610" data-name="Trazado 244610" d="M247.312,204.042c-.059-.288-.1-.543-.137-.763a5.7,5.7,0,0,1-.058-.666,4.057,4.057,0,0,1-1.266,1.152,3.242,3.242,0,0,1-1.681.463,3.122,3.122,0,0,1-2.27-.763,2.8,2.8,0,0,1-.781-2.1,2.465,2.465,0,0,1,1.108-2.139,5.169,5.169,0,0,1,3-.771h1.888v-.944a1.751,1.751,0,0,0-.511-1.328,2.01,2.01,0,0,0-1.447-.49,2.089,2.089,0,0,0-1.363.428,1.289,1.289,0,0,0-.524,1.027h-1.658l-.018-.052a2.315,2.315,0,0,1,.983-1.906,4.039,4.039,0,0,1,2.677-.865,3.94,3.94,0,0,1,2.611.825,2.918,2.918,0,0,1,.988,2.376v4.6a9.04,9.04,0,0,0,.053.988,5.1,5.1,0,0,0,.194.935Zm-2.884-1.279a3.092,3.092,0,0,0,1.7-.484,2.293,2.293,0,0,0,.988-1.107v-1.548h-1.95a2.533,2.533,0,0,0-1.68.528,1.576,1.576,0,0,0-.631,1.24,1.306,1.306,0,0,0,.4,1,1.665,1.665,0,0,0,1.173.369" transform="translate(31.096 25.061)"/>
      <path id="Trazado_244611" data-name="Trazado 244611" d="M255.788,201.5a1.182,1.182,0,0,0-.436-.944,4.1,4.1,0,0,0-1.655-.644,7,7,0,0,1-2.615-1.025,2.081,2.081,0,0,1-.877-1.767,2.493,2.493,0,0,1,.988-1.981,4.5,4.5,0,0,1,5.227.036,2.534,2.534,0,0,1,.939,2.082l-.019.053h-1.657a1.514,1.514,0,0,0-.526-1.124,1.929,1.929,0,0,0-1.389-.5,2,2,0,0,0-1.375.405,1.273,1.273,0,0,0-.45.979,1.089,1.089,0,0,0,.4.891,4.124,4.124,0,0,0,1.613.583,6.955,6.955,0,0,1,2.69,1.053,2.122,2.122,0,0,1,.882,1.786,2.464,2.464,0,0,1-1.027,2.056,4.3,4.3,0,0,1-2.686.785,4.189,4.189,0,0,1-2.874-.926,2.643,2.643,0,0,1-1-2.161l.017-.053h1.658a1.594,1.594,0,0,0,.689,1.347,2.674,2.674,0,0,0,1.507.426,2.457,2.457,0,0,0,1.452-.375,1.155,1.155,0,0,0,.524-.983" transform="translate(32.233 25.061)"/>
    </g>
  </g>
</svg>
