<svg id="Grupo_180846" data-name="Grupo 180846" xmlns="http://www.w3.org/2000/svg" xmlns:xlink="http://www.w3.org/1999/xlink" width="295" height="261" viewBox="0 0 295 261">
  <defs>
    <clipPath id="clip-path">
      <rect id="Rectángulo_103682" data-name="Rectángulo 103682" width="295" height="261" fill="none"/>
    </clipPath>
    <clipPath id="clip-path-2">
      <path id="Trazado_245439" data-name="Trazado 245439" d="M24.822,61.438A127.084,127.084,0,0,0,0,137.034v.282c.039,36.99,15.919,73.094,45.292,96.052,26.112,20.411,55.607,24.738,66.366,26.19A162.72,162.72,0,0,0,133.412,261h.083c60.283-.017,123.63-32.027,149.14-84.674,18.653-38.5,16.5-86.242-8.5-120.514a127.093,127.093,0,0,0-27.821-27.667C209.843,1.786,168.343.284,157.515.04c-1.2-.027-2.4-.04-3.607-.04C104.73,0,53.63,22.486,24.822,61.438" fill="none"/>
    </clipPath>
    <linearGradient id="linear-gradient" x1="0.118" y1="0.827" x2="0.121" y2="0.827" gradientUnits="objectBoundingBox">
      <stop offset="0" stop-color="#dae3fe"/>
      <stop offset="1" stop-color="#e9effd"/>
    </linearGradient>
    <clipPath id="clip-path-4">
      <rect id="Rectángulo_103657" data-name="Rectángulo 103657" width="270.232" height="236.791" transform="translate(12.384 15.213)" fill="none"/>
    </clipPath>
    <clipPath id="clip-path-5">
      <rect id="Rectángulo_103658" data-name="Rectángulo 103658" width="45.541" height="45.541" transform="translate(216.172 8.221)" fill="none"/>
    </clipPath>
    <clipPath id="clip-path-6">
      <path id="Trazado_245447" data-name="Trazado 245447" d="M180.613,154.67l-33.407,94.949,92.749,6.49a10.537,10.537,0,0,0,11.292-6.537l35.369-88.95a4.389,4.389,0,0,0-3.667-6.036c-21.187-1.886-80.414-3.348-96.676-3.724h-.137a5.911,5.911,0,0,0-5.523,3.809" fill="none"/>
    </clipPath>
    <linearGradient id="linear-gradient-2" x1="-1.048" y1="1.04" x2="-1.04" y2="1.04" gradientUnits="objectBoundingBox">
      <stop offset="0" stop-color="#09005d"/>
      <stop offset="1" stop-color="#1a0f91"/>
    </linearGradient>
    <clipPath id="clip-path-8">
      <path id="Trazado_245449" data-name="Trazado 245449" d="M115.668,253.214a3,3,0,0,0,3,3H240.653a4.562,4.562,0,0,0,4.562-4.563l1.919-2.23L120.478,248.34a4.875,4.875,0,0,0-4.81,4.874" fill="none"/>
    </clipPath>
    <linearGradient id="linear-gradient-3" x1="-0.878" y1="1.327" x2="-0.871" y2="1.327" xlink:href="#linear-gradient-2"/>
    <clipPath id="clip-path-10">
      <path id="Trazado_245452" data-name="Trazado 245452" d="M103.2,69.61l-86.163,4.7A4.171,4.171,0,0,0,13.1,78.841l4.724,53.234a4.173,4.173,0,0,0,4.568,3.784l82.005-8.145a4.171,4.171,0,0,0,3.759-4.2L107.6,73.729a4.173,4.173,0,0,0-4.169-4.126c-.076,0-.153,0-.23.007" fill="none"/>
    </clipPath>
    <linearGradient id="linear-gradient-4" x1="-0.135" y1="2.879" x2="-0.125" y2="2.879" xlink:href="#linear-gradient"/>
    <clipPath id="clip-path-12">
      <path id="Trazado_245457" data-name="Trazado 245457" d="M23.878,47.043l1.279,62.824a4.905,4.905,0,0,0,5.055,4.8l96.846-2.987a4.907,4.907,0,0,0,4.747-4.625l3.323-58.446a4.906,4.906,0,0,0-4.83-5.184L28.85,42.038h-.07a4.9,4.9,0,0,0-4.9,5.005" fill="none"/>
    </clipPath>
    <linearGradient id="linear-gradient-5" x1="-0.214" y1="3.011" x2="-0.205" y2="3.011" xlink:href="#linear-gradient"/>
    <clipPath id="clip-path-14">
      <path id="Trazado_245462" data-name="Trazado 245462" d="M39.98,22.338v69.7a5.44,5.44,0,0,0,5.5,5.44L152.941,96.35a5.442,5.442,0,0,0,5.369-5.022l5-64.738a5.442,5.442,0,0,0-5.239-5.858L45.607,16.9q-.094,0-.189,0a5.442,5.442,0,0,0-5.438,5.442" fill="none"/>
    </clipPath>
    <linearGradient id="linear-gradient-6" x1="-0.324" y1="3.028" x2="-0.315" y2="3.028" xlink:href="#linear-gradient"/>
    <clipPath id="clip-path-16">
      <path id="Trazado_245475" data-name="Trazado 245475" d="M85.978,52.186l37.9,13.139s5.27-.432,4.566-5.828L89.016,46.331Z" fill="none"/>
    </clipPath>
    <linearGradient id="linear-gradient-7" x1="-1.931" y1="5.201" x2="-1.908" y2="5.201" gradientUnits="objectBoundingBox">
      <stop offset="0" stop-color="#4042e2"/>
      <stop offset="1" stop-color="#4f52ff"/>
    </linearGradient>
    <clipPath id="clip-path-17">
      <path id="Trazado_245476" data-name="Trazado 245476" d="M78.827,47.532l7.151,4.654s4.2-2.618,3.038-5.855l-9.434-1.365a12.325,12.325,0,0,1-.755,2.566" fill="none"/>
    </clipPath>
    <linearGradient id="linear-gradient-8" x1="-5.854" y1="16.963" x2="-5.779" y2="16.963" gradientUnits="objectBoundingBox">
      <stop offset="0" stop-color="#ff928e"/>
      <stop offset="1" stop-color="#feb3b1"/>
    </linearGradient>
    <clipPath id="clip-path-18">
      <path id="Trazado_245477" data-name="Trazado 245477" d="M78.827,47.532a12.325,12.325,0,0,0,.755-2.566l-6.038-.875Z" fill="none"/>
    </clipPath>
    <linearGradient id="linear-gradient-9" x1="-10.626" y1="34.044" x2="-10.481" y2="34.044" xlink:href="#linear-gradient-7"/>
    <clipPath id="clip-path-20">
      <path id="Trazado_245479" data-name="Trazado 245479" d="M99.471,70.937a79.73,79.73,0,0,0,1.469,40.406c4.718-5.828,12.032-8.372,17.131-9.473a99.166,99.166,0,0,1-11.55-30.933Z" fill="none"/>
    </clipPath>
    <linearGradient id="linear-gradient-10" x1="-1.985" y1="4.137" x2="-1.962" y2="4.137" xlink:href="#linear-gradient-8"/>
    <clipPath id="clip-path-21">
      <path id="Trazado_245480" data-name="Trazado 245480" d="M95.842,48.921l-1.677,5.221a6.075,6.075,0,0,0,.17,4.182l6.605,16.065h3.1s10.734-12.79,7.246-19.452C108.365,49.358,99.507,48.9,96.7,48.9c-.545,0-.861.017-.861.017" fill="none"/>
    </clipPath>
    <linearGradient id="linear-gradient-11" x1="-2.767" y1="6.547" x2="-2.736" y2="6.547" xlink:href="#linear-gradient-8"/>
    <clipPath id="clip-path-22">
      <path id="Trazado_245481" data-name="Trazado 245481" d="M190.439,138.167c10.143,6.584,24.089,2.72,24.089,2.72l-2.427-22.8-14.532-.641Z" fill="none"/>
    </clipPath>
    <linearGradient id="linear-gradient-12" x1="-6.335" y1="4.555" x2="-6.301" y2="4.555" xlink:href="#linear-gradient-8"/>
    <clipPath id="clip-path-23">
      <path id="Trazado_245482" data-name="Trazado 245482" d="M195.919,92.092c-.335.29-14.165,25.273-14.165,25.273l15.674,6.96,16.933-21.887s-9.53-11.305-15.759-11.307a3.959,3.959,0,0,0-2.683.961" fill="none"/>
    </clipPath>
    <linearGradient id="linear-gradient-13" x1="-4.686" y1="4.565" x2="-4.66" y2="4.565" xlink:href="#linear-gradient-8"/>
    <clipPath id="clip-path-25">
      <path id="Trazado_245484" data-name="Trazado 245484" d="M204.854,120.807s3.031,4.926,8.965-.007c4.771-3.966,1.741-7.494-2.108-7.791-.07-.005-.139-.008-.208-.008-3.749,0-6.649,7.806-6.649,7.806" fill="none"/>
    </clipPath>
    <linearGradient id="linear-gradient-14" x1="-15.406" y1="10.427" x2="-15.331" y2="10.427" xlink:href="#linear-gradient-8"/>
    <clipPath id="clip-path-27">
      <path id="Trazado_245486" data-name="Trazado 245486" d="M214.1,249.733l16.019-.505,1.093-1.995c10.247-6.376,15.425-11.258,21.145-17.763-3.83-1.956-9.274-5.093-12.971-8.723-6.205,16.092-25.286,28.986-25.286,28.986" fill="none"/>
    </clipPath>
    <linearGradient id="linear-gradient-15" x1="-5.596" y1="1.389" x2="-5.57" y2="1.389" xlink:href="#linear-gradient-8"/>
  </defs>
  <g id="Grupo_180900" data-name="Grupo 180900" clip-path="url(#clip-path)">
    <g id="Grupo_180847" data-name="Grupo 180847">
      <g id="Grupo_180846-2" data-name="Grupo 180846" clip-path="url(#clip-path-2)">
        <rect id="Rectángulo_103656" data-name="Rectángulo 103656" width="394.822" height="398.612" transform="matrix(0.659, -0.753, 0.753, 0.659, -129.345, 147.823)" fill="url(#linear-gradient)"/>
      </g>
    </g>
    <g id="Grupo_180855" data-name="Grupo 180855">
      <g id="Grupo_180854" data-name="Grupo 180854" clip-path="url(#clip-path)">
        <g id="Grupo_180850" data-name="Grupo 180850" opacity="0.35">
          <g id="Grupo_180849" data-name="Grupo 180849">
            <g id="Grupo_180848" data-name="Grupo 180848" clip-path="url(#clip-path-4)">
              <path id="Trazado_245440" data-name="Trazado 245440" d="M278.849,15.33a4.094,4.094,0,0,1,.439-.084,2.855,2.855,0,0,1,3.3,3.407,5.24,5.24,0,0,1-4.23,4.413,98.037,98.037,0,0,0-21.721,5.7A116.354,116.354,0,0,0,235.6,39.384l-1.266.8-1.245.84c-.833.555-1.65,1.136-2.465,1.72q-2.451,1.74-4.8,3.631c-.788.62-1.546,1.28-2.319,1.916s-1.51,1.319-2.264,1.974c-.73.686-1.475,1.347-2.188,2.054s-1.434,1.389-2.116,2.112-1.381,1.425-2.039,2.163c-.331.367-.668.727-.99,1.1l-.957,1.12c-.651.735-1.236,1.513-1.854,2.263-.59.768-1.179,1.534-1.742,2.309s-1.119,1.551-1.625,2.346c-.256.395-.524.784-.774,1.181L206.23,68.1c-.12.2-.246.393-.361.6l-.345.621-.685,1.236c-.427.84-.871,1.666-1.271,2.512A90.906,90.906,0,0,0,196.615,94.1c-1.534,7.244-2.479,14.656-3.447,22.352-.488,3.851-.96,7.771-1.536,11.8-.277,2.011-.605,4.059-.947,6.125-.185,1.042-.356,2.078-.559,3.134l-.589,3.077c-1.525,7.875-3.2,16-5.454,24.4a175.809,175.809,0,0,1-9.072,26.073,124.492,124.492,0,0,1-7.093,13.65,107.828,107.828,0,0,1-9.676,13.6c-1.855,2.213-3.837,4.379-5.927,6.469-1.044,1.049-2.123,2.069-3.221,3.078-.551.5-1.083.986-1.669,1.486s-1.17,1.006-1.766,1.489a87.622,87.622,0,0,1-15.117,10.01c-1.319.686-2.645,1.343-3.985,1.948-.706.326-1.247.554-1.846.824l-1.767.774c-1.181.512-2.383.986-3.59,1.45s-2.43.886-3.651,1.324a92.172,92.172,0,0,1-15.074,3.792,77.746,77.746,0,0,1-15.252,1A71.679,71.679,0,0,1,46.121,238.72,91.484,91.484,0,0,1,27.63,221.361a110.1,110.1,0,0,1-7.368-10.189c-1.14-1.789-2.236-3.625-3.3-5.549-.532-.967-1.059-1.949-1.584-2.991-.263-.523-.523-1.053-.791-1.629l-.409-.9-.218-.513-.126-.314-.174-.473c-4.929-15.842,4.855-36.262,21.851-45.6s34.772-4.072,39.7,11.771l-.074-.162c-.02-.038-.019-.014-.019-.014l-.009.012c-.012.008-.007.068-.011.1,0,.109.011.218.024.326.021.241.069.524.114.8.1.572.215,1.184.353,1.8.282,1.237.611,2.508.98,3.767A65.681,65.681,0,0,0,79.209,179a55.955,55.955,0,0,0,7.335,12.725,35.014,35.014,0,0,0,9.607,8.624,25.555,25.555,0,0,0,5.634,2.507,28.185,28.185,0,0,0,6.364,1.2,36.128,36.128,0,0,0,7.225-.183c.644-.1,1.287-.172,1.945-.282.661-.13,1.321-.228,2-.373l1.955-.43c.513-.1,1.033-.233,1.548-.364a28.353,28.353,0,0,0,6.106-2.473c.25-.131.495-.274.743-.414l.794-.485c.531-.336,1.064-.681,1.59-1.055,1.056-.742,2.11-1.554,3.16-2.451a65.741,65.741,0,0,0,12.113-14.376q1.433-2.187,2.77-4.528t2.614-4.8c1.7-3.276,3.31-6.691,4.849-10.2,3.084-7.024,5.862-14.41,8.61-22.035l.982-2.736c.318-.883.617-1.785.93-2.684.6-1.814,1.2-3.643,1.774-5.514,1.156-3.726,2.267-7.56,3.379-11.463,2.239-7.806,4.554-15.929,7.638-24.182a120.139,120.139,0,0,1,12.16-24.5c.639-.982,1.329-1.944,2-2.907.708-.953,1.381-1.893,2.117-2.844l1.093-1.418c.371-.465.753-.918,1.129-1.377.742-.923,1.536-1.795,2.31-2.676a102.291,102.291,0,0,1,9.943-9.564A137.252,137.252,0,0,1,233.24,32.948a171.542,171.542,0,0,1,22.6-10.458,211.94,211.94,0,0,1,22.985-7.156Z" fill="#fdb74d"/>
            </g>
          </g>
        </g>
        <g id="Grupo_180853" data-name="Grupo 180853" opacity="0.7" style="isolation: isolate">
          <g id="Grupo_180852" data-name="Grupo 180852">
            <g id="Grupo_180851" data-name="Grupo 180851" clip-path="url(#clip-path-5)">
              <path id="Trazado_245441" data-name="Trazado 245441" d="M229.217,51.574a22.765,22.765,0,1,1,30.309-10.857,22.764,22.764,0,0,1-30.309,10.857" fill="#5038a1"/>
            </g>
          </g>
        </g>
        <path id="Trazado_245442" data-name="Trazado 245442" d="M228.69,40.467a7.588,7.588,0,1,1,10.1-3.619A7.588,7.588,0,0,1,228.69,40.467Z" fill="none" stroke="#fff" stroke-width="1.98"/>
        <path id="Trazado_245443" data-name="Trazado 245443" d="M258.95,93.811a4.619,4.619,0,1,1,6.15-2.2,4.62,4.62,0,0,1-6.15,2.2" fill="#fdb74d"/>
        <path id="Trazado_245444" data-name="Trazado 245444" d="M259.373,92.916a3.629,3.629,0,1,1,4.832-1.731,3.63,3.63,0,0,1-4.832,1.731" fill="#fdb74d"/>
        <path id="Trazado_245445" data-name="Trazado 245445" d="M259.373,92.916a3.629,3.629,0,1,1,4.832-1.731A3.63,3.63,0,0,1,259.373,92.916Z" fill="none" stroke="#8c6df2" stroke-width="1.98"/>
        <path id="Trazado_245446" data-name="Trazado 245446" d="M257.8,55.316a2.969,2.969,0,1,1,3.953-1.416,2.969,2.969,0,0,1-3.953,1.416" fill="#fdb74d"/>
      </g>
    </g>
    <g id="Grupo_180857" data-name="Grupo 180857">
      <g id="Grupo_180856" data-name="Grupo 180856" clip-path="url(#clip-path-6)">
        <rect id="Rectángulo_103660" data-name="Rectángulo 103660" width="140.528" height="105.941" transform="translate(147.206 150.861)" fill="url(#linear-gradient-2)"/>
      </g>
    </g>
    <g id="Grupo_180859" data-name="Grupo 180859">
      <g id="Grupo_180858" data-name="Grupo 180858" clip-path="url(#clip-path)">
        <path id="Trazado_245448" data-name="Trazado 245448" d="M243.081,252.071l35.338-89.749a2.8,2.8,0,0,0-2.542-3.824l-87.343-3.315a5.3,5.3,0,0,0-5.131,3.358l-31.989,87.49Z" fill="#91b3fa"/>
      </g>
    </g>
    <g id="Grupo_180861" data-name="Grupo 180861">
      <g id="Grupo_180860" data-name="Grupo 180860" clip-path="url(#clip-path-8)">
        <rect id="Rectángulo_103662" data-name="Rectángulo 103662" width="131.599" height="10.544" transform="translate(115.508 248.343) rotate(-1.163)" fill="url(#linear-gradient-3)"/>
      </g>
    </g>
    <g id="Grupo_180863" data-name="Grupo 180863">
      <g id="Grupo_180862" data-name="Grupo 180862" clip-path="url(#clip-path)">
        <path id="Trazado_245450" data-name="Trazado 245450" d="M270.832,194.389a.376.376,0,0,1-.349-.515L283.508,161.3a3.651,3.651,0,0,0-3.219-5l-23.619-1.109a.375.375,0,0,1,.035-.75l23.619,1.109a4.4,4.4,0,0,1,3.881,6.032l-13.024,32.576a.376.376,0,0,1-.349.236" fill="#7d97f4"/>
        <path id="Trazado_245451" data-name="Trazado 245451" d="M20.625,140.081l85.52-7.59a6.746,6.746,0,0,0,6.15-6.683l.315-57.661A6.747,6.747,0,0,0,105.4,61.38L14.332,67.717A6.748,6.748,0,0,0,8.08,75.044l5.229,58.914a6.746,6.746,0,0,0,7.316,6.123" fill="#91b3fa"/>
      </g>
    </g>
    <g id="Grupo_180865" data-name="Grupo 180865">
      <g id="Grupo_180864" data-name="Grupo 180864" clip-path="url(#clip-path-10)">
        <rect id="Rectángulo_103664" data-name="Rectángulo 103664" width="95.29" height="66.485" transform="translate(12.896 69.603)" fill="url(#linear-gradient-4)"/>
      </g>
    </g>
    <g id="Grupo_180867" data-name="Grupo 180867">
      <g id="Grupo_180866" data-name="Grupo 180866" clip-path="url(#clip-path)">
        <path id="Trazado_245453" data-name="Trazado 245453" d="M68.721,117.227,22.312,119.95a.845.845,0,0,0-.792.918l.066.746a.846.846,0,0,0,.9.768l46.343-3.469a.845.845,0,0,0-.113-1.686" fill="#91b3fa"/>
        <path id="Trazado_245454" data-name="Trazado 245454" d="M69.956,121.876l.028.318a.845.845,0,0,1-.767.916l-46.286,4.108a.844.844,0,0,1-.916-.767l-.029-.318a.845.845,0,0,1,.767-.916l46.287-4.108a.844.844,0,0,1,.916.767" fill="#91b3fa"/>
        <path id="Trazado_245455" data-name="Trazado 245455" d="M56.276,127.272l.012.139a.845.845,0,0,1-.767.917l-32.237,2.861a.844.844,0,0,1-.916-.767l-.059-.655a.846.846,0,0,1,.781-.918L55.373,126.5a.845.845,0,0,1,.9.768" fill="#91b3fa"/>
        <path id="Trazado_245456" data-name="Trazado 245456" d="M27.794,119.482l100.926-2.054a7.933,7.933,0,0,0,7.749-7.347l4.987-67.614a7.931,7.931,0,0,0-7.921-8.515l-107.328.141a7.932,7.932,0,0,0-7.92,8.093L19.7,111.713a7.932,7.932,0,0,0,8.092,7.769" fill="#91b3fa"/>
      </g>
    </g>
    <g id="Grupo_180869" data-name="Grupo 180869">
      <g id="Grupo_180868" data-name="Grupo 180868" clip-path="url(#clip-path-12)">
        <rect id="Rectángulo_103666" data-name="Rectángulo 103666" width="111.464" height="72.717" transform="translate(23.822 42.038)" fill="url(#linear-gradient-5)"/>
      </g>
    </g>
    <g id="Grupo_180871" data-name="Grupo 180871">
      <g id="Grupo_180870" data-name="Grupo 180870" clip-path="url(#clip-path)">
        <path id="Trazado_245458" data-name="Trazado 245458" d="M86.043,96.525,31.385,96a.993.993,0,0,0-1,1.014l.018.879a.991.991,0,0,0,1,.972l54.64-.356a.994.994,0,0,0,0-1.987" fill="#91b3fa"/>
        <path id="Trazado_245459" data-name="Trazado 245459" d="M87.12,102.077l.008.375a.994.994,0,0,1-.973,1.013L31.53,104.577a.993.993,0,0,1-1.013-.973l-.008-.375a.994.994,0,0,1,.973-1.013L86.107,101.1a.993.993,0,0,1,1.013.973" fill="#91b3fa"/>
        <path id="Trazado_245460" data-name="Trazado 245460" d="M70.64,107.312l0,.165a.992.992,0,0,1-.973,1.013l-38.045.774a.992.992,0,0,1-1.013-.973l-.016-.773a.994.994,0,0,1,.989-1.014l38.057-.165a.993.993,0,0,1,1,.973" fill="#91b3fa"/>
        <path id="Trazado_245461" data-name="Trazado 245461" d="M42.688,102.757H154.655a8.8,8.8,0,0,0,8.759-7.972l7.057-74.867a8.8,8.8,0,0,0-8.592-9.622L42.855,8.03a8.8,8.8,0,0,0-8.965,8.8V93.958a8.8,8.8,0,0,0,8.8,8.8" fill="#7d97f4"/>
      </g>
    </g>
    <g id="Grupo_180873" data-name="Grupo 180873">
      <g id="Grupo_180872" data-name="Grupo 180872" clip-path="url(#clip-path-14)">
        <rect id="Rectángulo_103668" data-name="Rectángulo 103668" width="123.573" height="80.611" transform="translate(39.98 16.896)" fill="url(#linear-gradient-6)"/>
      </g>
    </g>
    <g id="Grupo_180875" data-name="Grupo 180875">
      <g id="Grupo_180874" data-name="Grupo 180874" clip-path="url(#clip-path)">
        <path id="Trazado_245463" data-name="Trazado 245463" d="M105.943,26l-60.6-1.813a1.1,1.1,0,0,0-1.135,1.1v.976a1.1,1.1,0,0,0,1.087,1.1l60.6.837a1.1,1.1,0,0,0,.048-2.2" fill="#91b3fa"/>
        <path id="Trazado_245464" data-name="Trazado 245464" d="M107.012,32.18V32.6a1.1,1.1,0,0,1-1.1,1.1H45.31a1.1,1.1,0,0,1-1.1-1.1V32.18a1.1,1.1,0,0,1,1.1-1.1h60.6a1.1,1.1,0,0,1,1.1,1.1" fill="#91b3fa"/>
        <path id="Trazado_245465" data-name="Trazado 245465" d="M88.619,37.613V37.8a1.1,1.1,0,0,1-1.1,1.1H45.31a1.1,1.1,0,0,1-1.1-1.1v-.858a1.1,1.1,0,0,1,1.12-1.1l42.207.675a1.1,1.1,0,0,1,1.084,1.1" fill="#91b3fa"/>
        <path id="Trazado_245466" data-name="Trazado 245466" d="M60.274,70.879a.47.47,0,0,0,.3-.107L78.766,55.994,96.7,69.128a.477.477,0,0,0,.648-.079l24.945-29.925c2.836,2.487,21.214,18.6,23.661,20.741a.477.477,0,0,0,.627-.718c-2.653-2.319-24.027-21.062-24.027-21.062a.477.477,0,0,0-.681.053L96.9,68.1,79.032,55.008a.476.476,0,0,0-.582.015L60.285,69.78l-9.726-8.5a.477.477,0,0,0-.627.718L59.96,70.761a.474.474,0,0,0,.314.118" fill="#7d97f4"/>
        <path id="Trazado_245467" data-name="Trazado 245467" d="M121.546,86.653V85.7a.318.318,0,1,1,.635,0v.953a.318.318,0,0,1-.635,0m0-3.177v-.953a.318.318,0,0,1,.635,0v.953a.318.318,0,1,1-.635,0m0-3.176v-.953a.318.318,0,0,1,.635,0V80.3a.318.318,0,1,1-.635,0m0-3.176v-.953a.318.318,0,1,1,.635,0v.953a.318.318,0,1,1-.635,0m0-3.176V73a.318.318,0,1,1,.635,0v.953a.318.318,0,0,1-.635,0m0-3.176v-.953a.318.318,0,1,1,.635,0v.953a.318.318,0,0,1-.635,0m0-3.177v-.953a.318.318,0,0,1,.635,0V67.6a.318.318,0,1,1-.635,0m0-3.176v-.953a.318.318,0,0,1,.635,0v.953a.318.318,0,1,1-.635,0m0-3.176V60.29a.318.318,0,1,1,.635,0v.953a.318.318,0,1,1-.635,0m0-3.176v-.953a.318.318,0,1,1,.635,0v.953a.318.318,0,0,1-.635,0m0-3.176v-.953a.318.318,0,1,1,.635,0v.953a.318.318,0,0,1-.635,0m0-3.177v-.952a.318.318,0,1,1,.635,0v.952a.318.318,0,1,1-.635,0m0-3.176v-.953a.318.318,0,0,1,.635,0v.953a.318.318,0,1,1-.635,0m0-3.176v-.953a.318.318,0,0,1,.635,0v.953a.318.318,0,1,1-.635,0" fill="#7d97f4"/>
        <path id="Trazado_245468" data-name="Trazado 245468" d="M96.663,87.236v-.953a.317.317,0,0,1,.635,0v.953a.317.317,0,1,1-.635,0m0-3.176v-.953a.317.317,0,1,1,.635,0v.953a.317.317,0,0,1-.635,0m0-3.176v-.953a.317.317,0,1,1,.635,0v.953a.317.317,0,0,1-.635,0m0-3.177v-.952a.317.317,0,1,1,.635,0v.952a.317.317,0,1,1-.635,0m0-3.176v-.953a.317.317,0,0,1,.635,0v.953a.317.317,0,1,1-.635,0m0-3.176V70.4a.317.317,0,0,1,.635,0v.953a.317.317,0,1,1-.635,0" fill="#7d97f4"/>
        <path id="Trazado_245469" data-name="Trazado 245469" d="M78.062,88.164a.317.317,0,0,1-.307-.327l.029-.953a.307.307,0,0,1,.328-.307.318.318,0,0,1,.307.327l-.029.951a.32.32,0,0,1-.318.309h-.01m.1-3.175a.318.318,0,0,1-.307-.328l.029-.951a.318.318,0,0,1,.636.019l-.03.953a.318.318,0,0,1-.317.307H78.16m.1-3.174a.319.319,0,0,1-.308-.328l.029-.952a.318.318,0,1,1,.636.02l-.029.952a.319.319,0,0,1-.317.308h-.011m.1-3.175a.319.319,0,0,1-.308-.327l.03-.953a.311.311,0,0,1,.328-.307.317.317,0,0,1,.308.327l-.03.952a.318.318,0,0,1-.317.308h-.011m.1-3.175a.318.318,0,0,1-.308-.327l.029-.952a.312.312,0,0,1,.329-.308.317.317,0,0,1,.307.327l-.029.953a.317.317,0,0,1-.318.307h-.01m.1-3.174a.317.317,0,0,1-.307-.328l.029-.952a.317.317,0,1,1,.634.02l-.029.952a.317.317,0,0,1-.318.308h-.009m.1-3.175a.317.317,0,0,1-.308-.327l.029-.953a.32.32,0,0,1,.327-.307.315.315,0,0,1,.307.326l-.029.953a.316.316,0,0,1-.317.308h-.009m.1-3.175a.317.317,0,0,1-.308-.327l.03-.953a.313.313,0,0,1,.327-.307.317.317,0,0,1,.308.327l-.031.953a.315.315,0,0,1-.316.307h-.01m.1-3.174a.317.317,0,0,1-.308-.328l.03-.952a.308.308,0,0,1,.326-.308.319.319,0,0,1,.309.328l-.031.952a.316.316,0,0,1-.316.308h-.01m.1-3.175a.317.317,0,0,1-.308-.327l.03-.953A.306.306,0,0,1,79,58.005a.317.317,0,0,1,.308.327l-.03.952a.317.317,0,0,1-.317.308h-.01" fill="#7d97f4"/>
        <path id="Trazado_245470" data-name="Trazado 245470" d="M59.72,85.239v-.953a.317.317,0,1,1,.635,0v.953a.317.317,0,0,1-.635,0m0-3.176V81.11a.317.317,0,1,1,.635,0v.953a.317.317,0,0,1-.635,0m0-3.177v-.952a.317.317,0,1,1,.635,0v.952a.317.317,0,1,1-.635,0m0-3.176v-.953a.317.317,0,0,1,.635,0v.953a.317.317,0,1,1-.635,0m0-3.176v-.953a.317.317,0,0,1,.635,0v.953a.317.317,0,1,1-.635,0" fill="#7d97f4"/>
        <path id="Trazado_245471" data-name="Trazado 245471" d="M148.394,92.156a.476.476,0,0,0,.474-.436l5.12-60.462a.477.477,0,0,0-.95-.08l-5.119,60.461a.476.476,0,0,0,.434.515.289.289,0,0,0,.041,0" fill="#7d97f4"/>
        <path id="Trazado_245472" data-name="Trazado 245472" d="M154.963,33.245,153.49,31.5l-1.746,1.474.115-1.366,1.746-1.474,1.474,1.746Z" fill="#7d97f4"/>
        <path id="Trazado_245473" data-name="Trazado 245473" d="M47.34,89.334h104.9a.477.477,0,0,0,0-.953H47.34a.477.477,0,1,0,0,.953" fill="#7d97f4"/>
        <path id="Trazado_245474" data-name="Trazado 245474" d="M49.237,90.473l-1.616-1.615,1.616-1.616H47.865L46.25,88.858l1.615,1.615Z" fill="#7d97f4"/>
      </g>
    </g>
    <g id="Grupo_180877" data-name="Grupo 180877">
      <g id="Grupo_180876" data-name="Grupo 180876" clip-path="url(#clip-path-16)">
        <rect id="Rectángulo_103670" data-name="Rectángulo 103670" width="44.252" height="43.647" transform="matrix(0.72, -0.694, 0.694, 0.72, 76.487, 55.492)" fill="url(#linear-gradient-7)"/>
      </g>
    </g>
    <g id="Grupo_180879" data-name="Grupo 180879">
      <g id="Grupo_180878" data-name="Grupo 180878" clip-path="url(#clip-path-17)">
        <rect id="Rectángulo_103671" data-name="Rectángulo 103671" width="13.298" height="12.903" transform="matrix(0.753, -0.658, 0.658, 0.753, 75.25, 48.089)" fill="url(#linear-gradient-8)"/>
      </g>
    </g>
    <g id="Grupo_180881" data-name="Grupo 180881">
      <g id="Grupo_180880" data-name="Grupo 180880" clip-path="url(#clip-path-18)">
        <rect id="Rectángulo_103672" data-name="Rectángulo 103672" width="6.881" height="6.416" transform="translate(71.879 45.379) rotate(-37.716)" fill="url(#linear-gradient-9)"/>
      </g>
    </g>
    <g id="Grupo_180883" data-name="Grupo 180883">
      <g id="Grupo_180882" data-name="Grupo 180882" clip-path="url(#clip-path)">
        <path id="Trazado_245478" data-name="Trazado 245478" d="M118.071,101.87c8.194,14.03,21.8,28.347,43.926,32.184,20.432,3.542,57.122,7.919,71.867,9.628a18.526,18.526,0,0,1,11.381,5.606c11.577,12.312,37.074,46.118,7.116,80.182-3.831-1.956-9.274-5.093-12.971-8.722,3.312-8.588,3.583-19.562-3.357-33.02a29.456,29.456,0,0,1-.887,3.162,181.385,181.385,0,0,0-10.055,56.423,1.572,1.572,0,0,1-1.2,1.65c-16.572,2.075-47.7.362-47.7.362,5.746-26.283-15.88-72.5-21.46-83.8a7.668,7.668,0,0,0-3.971-3.633c-30.92-12.879-44.365-32.695-49.818-50.547,4.718-5.828,12.032-8.372,17.131-9.473" fill="#fdb74d"/>
      </g>
    </g>
    <g id="Grupo_180885" data-name="Grupo 180885">
      <g id="Grupo_180884" data-name="Grupo 180884" clip-path="url(#clip-path-20)">
        <rect id="Rectángulo_103674" data-name="Rectángulo 103674" width="42.735" height="46.694" transform="matrix(0.816, -0.578, 0.578, 0.816, 75.267, 84.448)" fill="url(#linear-gradient-10)"/>
      </g>
    </g>
    <g id="Grupo_180887" data-name="Grupo 180887">
      <g id="Grupo_180886" data-name="Grupo 180886" clip-path="url(#clip-path-21)">
        <rect id="Rectángulo_103675" data-name="Rectángulo 103675" width="31.911" height="32.965" transform="matrix(0.816, -0.578, 0.578, 0.816, 81.701, 57.426)" fill="url(#linear-gradient-11)"/>
      </g>
    </g>
    <g id="Grupo_180889" data-name="Grupo 180889">
      <g id="Grupo_180888" data-name="Grupo 180888" clip-path="url(#clip-path-22)">
        <rect id="Rectángulo_103676" data-name="Rectángulo 103676" width="29.626" height="32.037" transform="translate(184.441 118.83) rotate(-13.029)" fill="url(#linear-gradient-12)"/>
      </g>
    </g>
    <g id="Grupo_180891" data-name="Grupo 180891">
      <g id="Grupo_180890" data-name="Grupo 180890" clip-path="url(#clip-path-23)">
        <rect id="Rectángulo_103677" data-name="Rectángulo 103677" width="38.188" height="37.707" transform="translate(176.271 123.393) rotate(-80.355)" fill="url(#linear-gradient-13)"/>
      </g>
    </g>
    <g id="Grupo_180893" data-name="Grupo 180893">
      <g id="Grupo_180892" data-name="Grupo 180892" clip-path="url(#clip-path)">
        <path id="Trazado_245483" data-name="Trazado 245483" d="M207.425,103.044a2.142,2.142,0,0,1-.188,2.02l-7.818,11.988a2.293,2.293,0,0,1-.428.491c-.931.8-4.115,3.114-6.577-.041-2.1-2.689-4.066-5.135-6.176-6.143a2.6,2.6,0,0,0-3.372,1.022,82.352,82.352,0,0,0-5.351,11.674,2.243,2.243,0,0,0,1.449,2.808,73.933,73.933,0,0,0,15.013,4.029,2.6,2.6,0,0,0,2.364-.925c2.395-3.018,9.145-11.452,11.449-13.563,2.14-1.962,6.09-1.222,7.87-.752a2.7,2.7,0,0,0,2-.241c1.806-1,4.958-3.492,2.075-7.711a2.194,2.194,0,0,1,.774-3.127c2.016-1.22,4.2-3.51,2.119-7.219-2.11-3.754-5.878-4.091-8.445-3.8a2.645,2.645,0,0,1-2.724-1.393,1.63,1.63,0,0,0-1.29-.935A2.253,2.253,0,0,1,208.2,88.6c.453-2.124.112-4.884-3.576-6.749-6.763-3.421-12.687,2.153-14.193,6.858s6.055,8.03,10.812,8.585c3.494.408,5.409,3.915,6.18,5.749"/>
      </g>
    </g>
    <g id="Grupo_180895" data-name="Grupo 180895">
      <g id="Grupo_180894" data-name="Grupo 180894" clip-path="url(#clip-path-25)">
        <rect id="Rectángulo_103679" data-name="Rectángulo 103679" width="13.311" height="14.271" transform="translate(204.307 125.709) rotate(-87.535)" fill="url(#linear-gradient-14)"/>
      </g>
    </g>
    <g id="Grupo_180897" data-name="Grupo 180897">
      <g id="Grupo_180896" data-name="Grupo 180896" clip-path="url(#clip-path)">
        <path id="Trazado_245485" data-name="Trazado 245485" d="M237.3,185.643c5.074-12.774,3.233-28.2,3.214-28.354l-1.4.147c.02.152,1.821,15.281-3.138,27.762Z" fill="#fedc72"/>
      </g>
    </g>
    <g id="Grupo_180899" data-name="Grupo 180899">
      <g id="Grupo_180898" data-name="Grupo 180898" clip-path="url(#clip-path-27)">
        <rect id="Rectángulo_103681" data-name="Rectángulo 103681" width="38.257" height="28.986" transform="translate(214.104 220.747)" fill="url(#linear-gradient-15)"/>
      </g>
    </g>
  </g>
</svg>
