<svg id="Grupo_181734" data-name="Grupo 181734" xmlns="http://www.w3.org/2000/svg" xmlns:xlink="http://www.w3.org/1999/xlink" width="295" height="356.35" viewBox="0 0 295 356.35">
  <defs>
    <clipPath id="clip-path">
      <rect id="Rectángulo_104170" data-name="Rectángulo 104170" width="295" height="356.35" fill="none"/>
    </clipPath>
    <clipPath id="clip-path-3">
      <rect id="Rectángulo_104074" data-name="Rectángulo 104074" width="248.839" height="314.901" transform="translate(5.873 5.043)" fill="none"/>
    </clipPath>
    <clipPath id="clip-path-4">
      <rect id="Rectángulo_104075" data-name="Rectángulo 104075" width="45.541" height="45.541" transform="translate(222.96 10.867)" fill="none"/>
    </clipPath>
    <clipPath id="clip-path-5">
      <rect id="Rectángulo_104076" data-name="Rectángulo 104076" width="41.551" height="41.551" transform="translate(100.774 13.923)" fill="none"/>
    </clipPath>
    <clipPath id="clip-path-6">
      <path id="Trazado_245997" data-name="Trazado 245997" d="M193.919,229.719c.054.06.109.121.164.18-.134-.084-.2-.149-.164-.18m20.488-5.486c-15.55-7.9-21.226-27.944-12.677-44.782s28.084-24.085,43.633-16.191,21.226,27.944,12.678,44.782c-6.2,12.214-18.189,19.383-30.238,19.384a29.463,29.463,0,0,1-13.4-3.193m5.623-79.951c.006.267.028.527.054.787a49.768,49.768,0,0,0-7.2,2.672c-.111-.228-.226-.454-.359-.673a8.343,8.343,0,0,0-12.153-2.3,9.854,9.854,0,0,0-2.986,12.911c.13.215.272.417.417.615a54.343,54.343,0,0,0-5.188,6.018c-.207-.13-.417-.256-.639-.369-4.283-2.174-9.663-.178-12.017,4.46s-.791,10.159,3.491,12.333c.222.113.449.208.676.3a54.228,54.228,0,0,0-1.8,7.739c-.246,0-.492,0-.742.027a9.855,9.855,0,0,0-8.663,10.029,8.345,8.345,0,0,0,9.033,8.452c.255-.023.507-.063.756-.107a49.83,49.83,0,0,0,2.091,7.391c-.224.131-.448.267-.667.42a9.854,9.854,0,0,0-2.985,12.91c2.412,4,10.134,5.964,14.473,3.609a44.43,44.43,0,0,0,3.717,3.281c-.138.226-.273.454-.394.7-2.354,4.636-.791,10.159,3.491,12.333s9.663.178,12.018-4.459c.122-.241.227-.485.328-.729a44.124,44.124,0,0,0,7.285,1.391c-.015.257-.027.516-.022.778a8.344,8.344,0,0,0,9.033,8.451,9.853,9.853,0,0,0,8.661-10.029c-.005-.266-.028-.527-.054-.787a49.651,49.651,0,0,0,7.2-2.672c.112.228.227.454.359.674a8.344,8.344,0,0,0,12.154,2.3,9.853,9.853,0,0,0,2.985-12.911c-.13-.214-.272-.416-.416-.615a54.337,54.337,0,0,0,5.187-6.018c.207.13.418.256.639.37,4.283,2.174,9.663.177,12.018-4.46s.791-10.16-3.491-12.333c-.223-.114-.449-.208-.676-.3a54.363,54.363,0,0,0,1.8-7.739c.246,0,.491-.005.742-.027a9.852,9.852,0,0,0,8.662-10.029,8.345,8.345,0,0,0-9.032-8.452c-.256.024-.507.063-.756.108a49.951,49.951,0,0,0-2.092-7.391c.224-.131.448-.267.667-.42A9.853,9.853,0,0,0,278.62,159.6a8.344,8.344,0,0,0-12.153-2.3c-.215.15-.416.312-.615.477a44.2,44.2,0,0,0-5.422-5.061c.138-.226.273-.454.394-.7,2.356-4.637,5.432-9.7,1.116-11.809-9.985-4.875-14.27-.7-16.624,3.934-.123.241-.227.485-.329.729a44.111,44.111,0,0,0-7.284-1.39c.015-.258.027-.517.022-.778-.1-5.1,1.411-7.865-3.493-7.96-.231,0-.46-.007-.684-.007-10.167,0-13.618,4.551-13.518,9.544" fill="none"/>
    </clipPath>
    <linearGradient id="linear-gradient" x1="-0.997" y1="1.574" x2="-0.99" y2="1.574" gradientUnits="objectBoundingBox">
      <stop offset="0" stop-color="#311944"/>
      <stop offset="0.1" stop-color="#311944"/>
      <stop offset="0.267" stop-color="#361b47"/>
      <stop offset="0.48" stop-color="#462050"/>
      <stop offset="0.718" stop-color="#602a5f"/>
      <stop offset="0.973" stop-color="#843773"/>
      <stop offset="1" stop-color="#893976"/>
    </linearGradient>
    <clipPath id="clip-path-7">
      <path id="Trazado_245998" data-name="Trazado 245998" d="M249.439,165.766c12.406,9.09,16.355,27,8.6,42.276-6.57,12.942-19.632,20.208-32.386,19.3-.568,1.475-1.126,2.959-1.736,4.42-1.654,3.965-3.531,7.849-5.412,11.727q1.774.335,3.562.523c-.015.258-.027.517-.022.779.1,5.1,3.2,9.439,12.056,8.969,4.9-.26,5.741-5.444,5.638-10.547-.005-.266-.028-.527-.054-.787a49.768,49.768,0,0,0,7.2-2.672c.112.228.227.454.359.674,2.532,4.2,11.315,5.987,15.5,3.058s2.175-9.463-.357-13.665c-.13-.215-.272-.416-.416-.615a54.337,54.337,0,0,0,5.187-6.018c.207.13.417.257.639.369,4.283,2.175,9.663.178,12.018-4.46s.791-10.159-3.491-12.332c-.223-.114-.449-.208-.676-.3a54.382,54.382,0,0,0,1.8-7.738c.246,0,.491-.006.742-.028a9.853,9.853,0,0,0,8.662-10.029,8.345,8.345,0,0,0-9.032-8.452c-.256.023-.507.063-.756.108a49.917,49.917,0,0,0-2.092-7.391c.224-.131.448-.267.667-.42,4.18-2.928,9.352-10.006,6.4-13.926-5.6-7.439-11.391-4.219-15.571-1.29-.215.15-.416.312-.615.477a44.2,44.2,0,0,0-5.422-5.061c.138-.226.273-.454.394-.7a9.724,9.724,0,0,0,.549-7.672q-6.057,10.66-11.934,21.419" fill="none"/>
    </clipPath>
    <linearGradient id="linear-gradient-2" x1="-1.479" y1="1.991" x2="-1.471" y2="1.991" xlink:href="#linear-gradient"/>
    <clipPath id="clip-path-9">
      <path id="Trazado_246000" data-name="Trazado 246000" d="M146.238,132.454a1.822,1.822,0,0,0-.209.9c.047.431.29,2.115.409,2.937a.866.866,0,0,1-.258.741,1.752,1.752,0,0,0-.631,1.657l.48.756a2.657,2.657,0,0,0,1.538.974l1.15,2.164,1.588-.667-1.013-2.284a16.98,16.98,0,0,0,0-2.269,1.64,1.64,0,0,0-.734-1.045.851.851,0,0,0-.992-.435l-.923-3.393a.21.21,0,0,0-.207-.159.217.217,0,0,0-.2.128" fill="none"/>
    </clipPath>
    <linearGradient id="linear-gradient-3" x1="-18.116" y1="19.878" x2="-17.99" y2="19.878" gradientUnits="objectBoundingBox">
      <stop offset="0" stop-color="#311944"/>
      <stop offset="1" stop-color="#893976"/>
    </linearGradient>
    <clipPath id="clip-path-11">
      <path id="Trazado_246002" data-name="Trazado 246002" d="M108.386,301.075c-.42.387-.447,1.289-.464,1.879a1.448,1.448,0,0,0,.023.486c.255.662,1.569.653,3.635.738,3.265.133,4.246.33,4.471-.168.21-.468-.411-1.173-.481-1.251a2.986,2.986,0,0,0-1.657-.774c-1.561-.41-2.613-.623-2.931-.687a15.134,15.134,0,0,0-2.158-.37.574.574,0,0,0-.438.147" fill="none"/>
    </clipPath>
    <linearGradient id="linear-gradient-4" x1="-12.475" y1="12.928" x2="-12.359" y2="12.928" gradientUnits="objectBoundingBox">
      <stop offset="0" stop-color="#444b8c"/>
      <stop offset="0.996" stop-color="#26264f"/>
      <stop offset="1" stop-color="#26264f"/>
    </linearGradient>
    <clipPath id="clip-path-12">
      <path id="Trazado_246003" data-name="Trazado 246003" d="M108.084,298l.641,3.681a2.015,2.015,0,0,0,2.079-.144l-.128-3.717Z" fill="none"/>
    </clipPath>
    <linearGradient id="linear-gradient-5" x1="-23.664" y1="11.452" x2="-23.443" y2="11.452" xlink:href="#linear-gradient-3"/>
    <clipPath id="clip-path-13">
      <path id="Trazado_246004" data-name="Trazado 246004" d="M135.89,300.561a1.831,1.831,0,0,0-.307,2.185c.27.347.653.33,1.392.313a14.609,14.609,0,0,1,1.666.039c2.066.172,2.581.69,4.008.377.576-.127,1.6-.454,1.6-.861,0-.287-.5-.461-2.177-1.123a22.479,22.479,0,0,0-2.876-1.1,9.6,9.6,0,0,0-1.952-.3,1.839,1.839,0,0,0-1.357.467" fill="none"/>
    </clipPath>
    <linearGradient id="linear-gradient-6" x1="-13.928" y1="10.299" x2="-13.825" y2="10.299" xlink:href="#linear-gradient-4"/>
    <clipPath id="clip-path-14">
      <path id="Trazado_246005" data-name="Trazado 246005" d="M134.826,297.633l1.363,3.434a2.009,2.009,0,0,0,2.062-.3l-.854-3.509Z" fill="none"/>
    </clipPath>
    <linearGradient id="linear-gradient-7" x1="-25.651" y1="10.962" x2="-25.46" y2="10.962" xlink:href="#linear-gradient-3"/>
    <clipPath id="clip-path-15">
      <path id="Trazado_246006" data-name="Trazado 246006" d="M113.6,224.005a112.546,112.546,0,0,0,5.34,27.559c2.32,6.976,4.68,11.553,5.509,20.1.521,5.365-.02,7.565,1.018,11.96a33.75,33.75,0,0,0,8.844,15.552q2.015-.428,4.031-.857a323.938,323.938,0,0,1-6.13-77.189l-18.612,2.88" fill="none"/>
    </clipPath>
    <linearGradient id="linear-gradient-8" x1="-1.974" y1="1.678" x2="-1.954" y2="1.678" xlink:href="#linear-gradient-3"/>
    <clipPath id="clip-path-17">
      <rect id="Rectángulo_104089" data-name="Rectángulo 104089" width="21.737" height="76.829" transform="translate(113.599 222.343)" fill="none"/>
    </clipPath>
    <clipPath id="clip-path-18">
      <path id="Trazado_246007" data-name="Trazado 246007" d="M130.356,275.4c-1.48-5.86-4.33-7.409-4.432-12.94-.072-3.912,1.334-4.232,1.241-7.976-.142-5.68-3.469-8.658-5.141-12.231-1.765-3.773-2.441-9.834,2.317-19.915L113.6,224.005a112.566,112.566,0,0,0,5.341,27.558c2.32,6.977,4.68,11.555,5.51,20.1.521,5.365-.021,7.566,1.018,11.96a33.749,33.749,0,0,0,8.842,15.552l1.026-.217c-3.452-4.121-4.671-7.8-4.98-10.787-.505-4.858,1.491-6.854,0-12.762" fill="none"/>
    </clipPath>
    <linearGradient id="linear-gradient-9" x1="-2.111" y1="1.703" x2="-2.09" y2="1.703" xlink:href="#linear-gradient-3"/>
    <clipPath id="clip-path-19">
      <path id="Trazado_246008" data-name="Trazado 246008" d="M100.623,224.971c-4.428,5.14-3.032,13.861-.24,31.3,1.375,8.593,2.33,10.115,2.681,16.887.314,6.039-.205,9.461.931,15.332a47.312,47.312,0,0,0,3.65,11.152l4.086-.285q1.174-16.767,2.659-33.964,1.983-22.913,4.391-44.994a42.656,42.656,0,0,0-4.3-.228c-9.048,0-12.6,3.342-13.854,4.8" fill="none"/>
    </clipPath>
    <linearGradient id="linear-gradient-10" x1="-1.381" y1="1.695" x2="-1.363" y2="1.695" xlink:href="#linear-gradient-3"/>
    <clipPath id="clip-path-21">
      <rect id="Rectángulo_104093" data-name="Rectángulo 104093" width="37.792" height="43.579" transform="translate(123.33 153.376)" fill="none"/>
    </clipPath>
    <clipPath id="clip-path-22">
      <path id="Trazado_246009" data-name="Trazado 246009" d="M158.932,153.376a13.233,13.233,0,0,1-.924,4.508c-1.782,4.416-6.021,7.637-5.141,12.586.44,2.473,1.8,3.34,1.241,5.14-.787,2.551-4.011,2.431-7.445,5.318-3.046,2.56-3.217,4.932-4.786,7.09-2.124,2.923-6.921,5.6-18.547,4.747a10.852,10.852,0,0,0,3.764,3.118c10.525,5.116,30.337-8.811,33.572-26.3a29.716,29.716,0,0,0-1.734-16.207" fill="none"/>
    </clipPath>
    <linearGradient id="linear-gradient-11" x1="-1.917" y1="3.806" x2="-1.9" y2="3.806" gradientUnits="objectBoundingBox">
      <stop offset="0" stop-color="#e38ddd"/>
      <stop offset="0.004" stop-color="#e38ddd"/>
      <stop offset="1" stop-color="#9571f6"/>
    </linearGradient>
    <clipPath id="clip-path-23">
      <path id="Trazado_246011" data-name="Trazado 246011" d="M114.109,166.049c-.371,1.481-.6,1.857-.884,2.156-.428.451-1.059.814-4.551,1.485-1.9.364-2.141.339-2.192.523-.25.9,4.7,4.264,10.02,3.8,3.258-.284,6.3-1.971,6.17-2.95s-3.388-.633-4.256-2.449c-.6-1.262.24-2.964,1.2-4.359-.773-1.656-3.935-2.142-4.709-3.8a28.092,28.092,0,0,1-.8,5.591" fill="none"/>
    </clipPath>
    <linearGradient id="linear-gradient-12" x1="-6.288" y1="13.637" x2="-6.228" y2="13.637" xlink:href="#linear-gradient-3"/>
    <clipPath id="clip-path-24">
      <path id="Trazado_246012" data-name="Trazado 246012" d="M112.691,158.726c-.6,1.1.439,3.5.6,3.931.18.487.546.671.871,1.049.453.525,1.161,1.358,2.313,2.75a8.611,8.611,0,0,1,.545-1.376,7.541,7.541,0,0,1,1.069-1.6c1.147-1.255,2-.834,2.774-1.756a3.408,3.408,0,0,0,.139-3.906,3.706,3.706,0,0,0-2.6-1.323,6.163,6.163,0,0,0-1.036-.085,5.3,5.3,0,0,0-4.677,2.311" fill="none"/>
    </clipPath>
    <linearGradient id="linear-gradient-13" x1="-8.389" y1="15.496" x2="-8.313" y2="15.496" xlink:href="#linear-gradient-4"/>
    <clipPath id="clip-path-25">
      <path id="Trazado_246013" data-name="Trazado 246013" d="M117.957,160.407c-.5.113-.682.31-1.509.478-.762.155-.97.061-1.207.239-.3.224-.536.8-.147,2.411A1.32,1.32,0,0,0,113.71,163a.841.841,0,0,0-.34.3c-.371.6.153,1.424,1.419,1.953a4.619,4.619,0,0,0,3.952,2.268c2.429-.028,3.073-5.438,1.588-6.672a2.828,2.828,0,0,0-1.708-.507,3.048,3.048,0,0,0-.664.07" fill="none"/>
    </clipPath>
    <linearGradient id="linear-gradient-14" x1="-9.841" y1="18.066" x2="-9.753" y2="18.066" xlink:href="#linear-gradient-3"/>
    <clipPath id="clip-path-26">
      <path id="Trazado_246014" data-name="Trazado 246014" d="M120.085,165.055a2.949,2.949,0,0,1-1.437.146c-.044-.005-.094,0-.1.028a1.115,1.115,0,0,0,1.076.379c.385-.088.7-.431.653-.524-.013-.026-.055-.035-.106-.035a.656.656,0,0,0-.086.006" fill="none"/>
    </clipPath>
    <linearGradient id="linear-gradient-15" x1="-123.861" y1="101.752" x2="-122.819" y2="101.752" xlink:href="#linear-gradient-3"/>
    <clipPath id="clip-path-27">
      <path id="Trazado_246015" data-name="Trazado 246015" d="M92.732,214.655l-2.436.136-.621,2.607,3.274-.65c.261.458,1.8-.013,2.15-.794s2.331-1.26,3.218-1.163,1.772-.894,1.551-1.07a10.4,10.4,0,0,0-3.254-1.159.853.853,0,0,0-.114-.007c-1.259,0-3.768,2.1-3.768,2.1" fill="none"/>
    </clipPath>
    <linearGradient id="linear-gradient-16" x1="-7.82" y1="18.528" x2="-7.732" y2="18.528" xlink:href="#linear-gradient-3"/>
    <clipPath id="clip-path-29">
      <rect id="Rectángulo_104101" data-name="Rectángulo 104101" width="43.614" height="48.579" transform="translate(90.671 192.43)" fill="none"/>
    </clipPath>
    <clipPath id="clip-path-30">
      <path id="Trazado_246017" data-name="Trazado 246017" d="M128.051,233.573c-4.964-2.119-4.935-6.5-9.572-8.331-6.616-2.611-13.925,3.454-15.066,1.772-1.188-1.75,7.542-7.116,6.381-12.408-.923-4.205-7.017-3.46-10.281-9.217-3.1-5.461-.094-10.51-2.836-12.408-.983-.681-2.718-.949-6.006.5,2.293,7.161,3.937,13.476,4.056,21.3.032,2.086.011,7.913.355,16.485.223,5.557.458,8.745,2.3,9.572,1.925.863,3.487-1.789,8.154-3.368,3.427-1.16,6.881-.848,13.648-.177,10.093,1,10.809,2.427,12.786,1.245,1.288-.77,1.9-1.927,2.311-4.151a12.358,12.358,0,0,1-6.234-.816" fill="none"/>
    </clipPath>
    <linearGradient id="linear-gradient-17" x1="-1.288" y1="2.834" x2="-1.272" y2="2.834" xlink:href="#linear-gradient-11"/>
    <clipPath id="clip-path-31">
      <path id="Trazado_246018" data-name="Trazado 246018" d="M181.237,296.593c-1.139.342-3.99,2.167-2.2,2.378s7.051-.227,7.2-.834a10.988,10.988,0,0,0-.075-2.417s-3.787.53-4.925.873" fill="none"/>
    </clipPath>
    <linearGradient id="linear-gradient-18" x1="-19.006" y1="15.355" x2="-18.899" y2="15.355" xlink:href="#linear-gradient-4"/>
    <clipPath id="clip-path-32">
      <path id="Trazado_246019" data-name="Trazado 246019" d="M183.513,292.7l.554,3.633s1.415.635,2.1.007l.075-3.8Z" fill="none"/>
    </clipPath>
    <linearGradient id="linear-gradient-19" x1="-65.054" y1="14.221" x2="-64.7" y2="14.221" gradientUnits="objectBoundingBox">
      <stop offset="0" stop-color="#ffc444"/>
      <stop offset="0.996" stop-color="#f36f56"/>
      <stop offset="1" stop-color="#f36f56"/>
    </linearGradient>
    <clipPath id="clip-path-33">
      <path id="Trazado_246020" data-name="Trazado 246020" d="M213.186,292.537s-1.117.829-.819,1.822,2.9,4.97,4.762,6.1,1.274-1.222.734-2.687a28.218,28.218,0,0,0-2.461-5.233,1.151,1.151,0,0,0-.814-.24,5.4,5.4,0,0,0-1.4.24" fill="none"/>
    </clipPath>
    <linearGradient id="linear-gradient-20" x1="-28.544" y1="6.652" x2="-28.41" y2="6.652" xlink:href="#linear-gradient-4"/>
    <clipPath id="clip-path-34">
      <path id="Trazado_246021" data-name="Trazado 246021" d="M211.177,288.548c.54,1.5,1.059,2.741,1.465,3.654a13.041,13.041,0,0,0,1.947,3.433c.485.572,1.633,1.793,1.942,1.589s-.527-1.689-2.146-6.036c-.235-.631-.979-2.64-.979-2.64Z" fill="none"/>
    </clipPath>
    <linearGradient id="linear-gradient-21" x1="-36.022" y1="7.539" x2="-35.852" y2="7.539" xlink:href="#linear-gradient-19"/>
    <clipPath id="clip-path-35">
      <path id="Trazado_246022" data-name="Trazado 246022" d="M172.49,225.664a93.9,93.9,0,0,0-.2,16.779c.72,9.284,2.577,15.158,4.9,25.057,1.422,6.049,3.339,14.953,5.074,26.088a4.9,4.9,0,0,0,3.112.61,4.724,4.724,0,0,0,1.869-.71c4.551-13.909,3.207-22.528,1.011-27.9-.936-2.288-2.072-4.094-2.679-7.613-.8-4.655.19-7.257,1.606-18.041,1.009-7.685.834-8.873.163-10.026-2.124-3.647-7.709-4.351-11.912-4.351-1.108,0-2.119.049-2.946.106" fill="none"/>
    </clipPath>
    <linearGradient id="linear-gradient-22" x1="-2.204" y1="2.183" x2="-2.19" y2="2.183" gradientUnits="objectBoundingBox">
      <stop offset="0" stop-color="#aa80f9"/>
      <stop offset="0.996" stop-color="#6165d7"/>
      <stop offset="1" stop-color="#6165d7"/>
    </linearGradient>
    <clipPath id="clip-path-36">
      <path id="Trazado_246023" data-name="Trazado 246023" d="M139.816,183.16l.992.665a.985.985,0,0,1-.041.426,1.492,1.492,0,0,1-1.355.853c-2.546.534-3.541.56-3.929.446-.057-.016-.279-.088-.372.01-.151.157.119.658.234.833.688,1.052,3.079,1.509,4.87.687.653-.3.9-.623,1.38-.542.758.128,1.223,1.128,1.5,1.955l1.089-1.75s-.639-2.5-1.7-3.167-2.565-1.368-2.91-1.659a.221.221,0,0,0-.14-.057c-.288,0-.471.726.386,1.3" fill="none"/>
    </clipPath>
    <linearGradient id="linear-gradient-23" x1="-12.234" y1="18.634" x2="-12.143" y2="18.634" xlink:href="#linear-gradient-19"/>
    <clipPath id="clip-path-37">
      <path id="Trazado_246024" data-name="Trazado 246024" d="M195.753,253.522a72.018,72.018,0,0,1,3.826,9.339,76.217,76.217,0,0,1,2.324,8.894c.962,4.415,3.338,10.86,9.73,19.313a2.434,2.434,0,0,0,2.212.114,2.136,2.136,0,0,0,.9-.929c-.836-8.082-1.795-14.873-2.628-20.115-.175-1.1-.944-5.908-2.151-12.263-.472-2.487-1.165-6.13-1.994-9.873-1.031-4.66-2.614-11-5.053-18.6l-14.757-2.123c2.788,14.4,5.525,21.964,7.6,26.241" fill="none"/>
    </clipPath>
    <linearGradient id="linear-gradient-24" x1="-2.678" y1="1.984" x2="-2.662" y2="1.984" xlink:href="#linear-gradient-22"/>
    <clipPath id="clip-path-39">
      <path id="Trazado_246026" data-name="Trazado 246026" d="M179.969,154.707c-2.387,3.2-.769,7.373-.312,8.553,1.517,3.916,4.542,5.6,6.124,7.064,8.6,7.946-3.266,23.794,3.487,40.178,3.746,9.086,12.564,16.755,19.1,15.768.7-.106,5.067-.764,7.288-4.067,1.722-2.561.794-4.692,2.415-5.788,1.3-.878,2.785-.109,4.652.66a10.85,10.85,0,0,0,4.945,1.034c4.581-.293,9.445-4.607,9.962-9.123.373-3.255-1.722-5.91-5.913-11.22s-5.055-4.689-6.823-7.429c-5.392-8.363,1.74-15.6-3.183-22.743-2.774-4.022-8.531-6.788-13.487-7.007a20.849,20.849,0,0,0-3.786.241,11.582,11.582,0,0,1-6.68-.516A23.845,23.845,0,0,1,192,156.526c-3.368-2.779-3.677-4.159-5.66-4.549a5.034,5.034,0,0,0-.966-.092,7.091,7.091,0,0,0-5.4,2.822" fill="none"/>
    </clipPath>
    <linearGradient id="linear-gradient-25" x1="-1.738" y1="2.229" x2="-1.728" y2="2.229" xlink:href="#linear-gradient-4"/>
    <clipPath id="clip-path-41">
      <rect id="Rectángulo_104113" data-name="Rectángulo 104113" width="13.082" height="68.407" transform="translate(177.202 225.84)" fill="none"/>
    </clipPath>
    <clipPath id="clip-path-42">
      <path id="Trazado_246027" data-name="Trazado 246027" d="M188.258,265.59c-.937-2.289-2.072-4.1-2.679-7.614-.8-4.655.19-7.257,1.606-18.041,1.009-7.685.834-8.873.163-10.026-1.459-2.5-4.549-3.616-7.7-4.069.042.161.085.323.119.48,1.655,7.558-4.661,12.17-1.812,20.478,1.4,4.1,3.646,5.034,4.168,9.786.489,4.451-1.285,5.378-.906,9.424.566,6.047,4.862,7.511,5.98,12.142.727,3.009.115,7.409-5.19,13.778.088.549.176,1.1.263,1.659a4.889,4.889,0,0,0,3.112.61,4.715,4.715,0,0,0,1.869-.71c4.552-13.908,3.207-22.527,1.011-27.9" fill="none"/>
    </clipPath>
    <linearGradient id="linear-gradient-26" x1="-2.324" y1="2.27" x2="-2.308" y2="2.27" xlink:href="#linear-gradient-22"/>
    <clipPath id="clip-path-43">
      <rect id="Rectángulo_104115" data-name="Rectángulo 104115" width="34.498" height="25.753" transform="translate(142.129 174.927)" fill="none"/>
    </clipPath>
    <clipPath id="clip-path-44">
      <path id="Trazado_246028" data-name="Trazado 246028" d="M171.608,177.389c-6.81,5.38-6.052,15.7-10.239,16.22-1.279.16-1.208-.821-4.259-1.812-4.461-1.451-6.557.014-9.7-1.088a9.723,9.723,0,0,1-4.656-3.731l-.63.56c3.276,8.674,11.165,13.916,18.606,13.048,9.214-1.076,13.277-11,14.014-12.806a27.361,27.361,0,0,0,1.732-12.853,14.214,14.214,0,0,0-4.873,2.462" fill="none"/>
    </clipPath>
    <linearGradient id="linear-gradient-27" x1="-4.088" y1="6.839" x2="-4.059" y2="6.839" xlink:href="#linear-gradient-22"/>
    <clipPath id="clip-path-45">
      <rect id="Rectángulo_104117" data-name="Rectángulo 104117" width="49.372" height="67.101" transform="translate(185.391 174.289)" fill="none"/>
    </clipPath>
    <clipPath id="clip-path-46">
      <path id="Trazado_246030" data-name="Trazado 246030" d="M224.9,235.367c-2.841-2.689-1.73-4.692-4.852-7.126-3.048-2.376-5.154-1.284-6.952-3.633-1.674-2.188-.316-3.746-1.664-6.942-1.238-2.935-3.15-3.438-6.843-6.714-2.461-2.184-5.7-5.06-7.535-8.89-3.18-6.647-.957-13.743-.2-15.819a23.105,23.105,0,0,1,9.074-11.341c-.17-.184-.371-.393-.586-.613-11.663,1.6-18.462,8.341-19.3,10.337-1.944,4.612,1.133,6.307,1.213,19.609.038,6.359-.648,8.869,1.415,11.523,2.359,3.036,5.078,2.1,8.49,6.065,2.622,3.049,2.2,4.982,4.65,6.267,2.632,1.381,4.309-.229,7.278.4,4.96,1.058,6.02,6.777,9.3,9.906,2.479,2.366,7.064,4.02,16.1,2.244a1.26,1.26,0,0,0,.27-.88c-.255-1.758-5.727-.489-9.855-4.4" fill="none"/>
    </clipPath>
    <linearGradient id="linear-gradient-28" x1="-2.932" y1="2.463" x2="-2.915" y2="2.463" xlink:href="#linear-gradient-22"/>
    <clipPath id="clip-path-47">
      <path id="Trazado_246032" data-name="Trazado 246032" d="M183.1,158.932l.02,2.6a7.913,7.913,0,0,1-2.552,2.36,10.148,10.148,0,0,1-2.322.919s-.49.138-2.3.514c5.48,2.766,16.54,1.577,16.231,1.2s-3.115-1.79-4.85-2.866-2.324-5.779-2.324-5.779Z" fill="none"/>
    </clipPath>
    <linearGradient id="linear-gradient-29" x1="-9.852" y1="10.463" x2="-9.796" y2="10.463" xlink:href="#linear-gradient-19"/>
    <clipPath id="clip-path-48">
      <path id="Trazado_246033" data-name="Trazado 246033" d="M182.989,155.3c-1.26.468-2.209,4.572-.62,5.151a2.6,2.6,0,0,0,2.906-.906,1.347,1.347,0,0,0,.737-.37c.077-.077.418-.421.305-.673-.089-.2-.442-.3-.843-.188a2.472,2.472,0,0,0-.777-2.779,2.324,2.324,0,0,0-1.182-.315,1.552,1.552,0,0,0-.526.08" fill="none"/>
    </clipPath>
    <linearGradient id="linear-gradient-30" x1="-22.822" y1="25.425" x2="-22.695" y2="25.425" xlink:href="#linear-gradient-19"/>
    <clipPath id="clip-path-49">
      <path id="Trazado_246034" data-name="Trazado 246034" d="M184.415,182.524c.845.664,1.409.883.976,1.891s-1.219,1.9.02,2.694a5.811,5.811,0,0,0,2.689,1.215l.966.12,1.269.676s1.63-.193,1.389-1.522c0,0-5.195-5.315-7.309-6.1a3.439,3.439,0,0,0-.988-.264c-.545,0,.343.785.988,1.291" fill="none"/>
    </clipPath>
    <linearGradient id="linear-gradient-31" x1="-17.809" y1="19.004" x2="-17.711" y2="19.004" xlink:href="#linear-gradient-19"/>
    <clipPath id="clip-path-51">
      <rect id="Rectángulo_104122" data-name="Rectángulo 104122" width="231.59" height="16.475" transform="translate(23.968 234.393)" fill="none"/>
    </clipPath>
    <clipPath id="clip-path-52">
      <path id="Trazado_246041" data-name="Trazado 246041" d="M84.621,317.882c-.575.482-.971,1.458-.638,1.9.12.16-.375.442.1.447,1.575.019,4.3-1.216,4.166-1.936-.084-.463-1.071-.9-2.074-.9a2.407,2.407,0,0,0-1.554.488" fill="none"/>
    </clipPath>
    <linearGradient id="linear-gradient-32" x1="-14.987" y1="7.974" x2="-14.807" y2="7.974" xlink:href="#linear-gradient-4"/>
    <clipPath id="clip-path-53">
      <path id="Trazado_246042" data-name="Trazado 246042" d="M83.265,318.417l2.427-.122a11.286,11.286,0,0,1-.2-2.486c.159-1.792.224-3,.224-3l-2.62-.077s1.011,4.156.17,5.684" fill="none"/>
    </clipPath>
    <linearGradient id="linear-gradient-33" x1="-28.607" y1="7.519" x2="-28.262" y2="7.519" xlink:href="#linear-gradient-19"/>
    <clipPath id="clip-path-54">
      <path id="Trazado_246043" data-name="Trazado 246043" d="M82.8,318.167c-.313.574-.556,2.112,1.281,2.061s2.091-1.482,1.927-1.969a13.4,13.4,0,0,0-2.373-.326c-.413,0-.741.061-.835.234" fill="none"/>
    </clipPath>
    <linearGradient id="linear-gradient-34" x1="-17.927" y1="9.516" x2="-17.708" y2="9.516" xlink:href="#linear-gradient-4"/>
    <clipPath id="clip-path-55">
      <path id="Trazado_246044" data-name="Trazado 246044" d="M99.368,321.344c-.5.557-.757,1.578-.365,1.969.142.141-.31.49.162.429,1.561-.2,4.083-1.807,3.853-2.5-.123-.37-.856-.634-1.668-.634a2.675,2.675,0,0,0-1.982.737" fill="none"/>
    </clipPath>
    <linearGradient id="linear-gradient-35" x1="-17.559" y1="6.732" x2="-17.38" y2="6.732" xlink:href="#linear-gradient-4"/>
    <clipPath id="clip-path-56">
      <path id="Trazado_246045" data-name="Trazado 246045" d="M96.806,316.782s1.6,3.967.984,5.6l2.384-.467a11.317,11.317,0,0,1-.556-2.432c-.1-1.8-.208-3-.208-3Z" fill="none"/>
    </clipPath>
    <linearGradient id="linear-gradient-36" x1="-21.677" y1="6.233" x2="-21.452" y2="6.233" xlink:href="#linear-gradient-19"/>
    <clipPath id="clip-path-57">
      <path id="Trazado_246046" data-name="Trazado 246046" d="M97.608,321.879c-.23.613-.256,2.169,1.557,1.863s1.863-1.761,1.632-2.22c0,0-.611-.053-1.3-.053-.827,0-1.765.076-1.89.41" fill="none"/>
    </clipPath>
    <linearGradient id="linear-gradient-37" x1="-21.736" y1="8.175" x2="-21.512" y2="8.175" xlink:href="#linear-gradient-4"/>
    <clipPath id="clip-path-59">
      <path id="Trazado_246048" data-name="Trazado 246048" d="M76.093,219.685,67.306,241.2a1.967,1.967,0,0,0,1.245,2.625l16.735,5.12a1.966,1.966,0,0,0,2.385-1.108l9.554-22.381a1.968,1.968,0,0,0-1.345-2.684l-17.5-4.25a1.949,1.949,0,0,0-.464-.056,1.97,1.97,0,0,0-1.822,1.224" fill="none"/>
    </clipPath>
    <linearGradient id="linear-gradient-38" x1="-1.488" y1="3.458" x2="-1.464" y2="3.458" gradientUnits="objectBoundingBox">
      <stop offset="0" stop-color="#ff9085"/>
      <stop offset="1" stop-color="#fb6fbb"/>
    </linearGradient>
    <clipPath id="clip-path-61">
      <rect id="Rectángulo_104133" data-name="Rectángulo 104133" width="43.322" height="58.002" transform="translate(31.149 229.484)" fill="none"/>
    </clipPath>
    <clipPath id="clip-path-62">
      <path id="Trazado_246055" data-name="Trazado 246055" d="M51.711,280.6c1.631-3.249-2.367-7.568.245-12.521,2.219-4.207,6.249-3.264,8.1-7.12,2.238-4.656-2.629-8.137-2.455-15.221.208-8.469,7.495-16.947,11.784-16.2,2.775.481,3.131,4.62,5.084,9.152A102.882,102.882,0,0,0,68.9,253.589c-2.248,7.834-3.372,11.751-3.069,16.694.422,6.886,2.84,10.864.491,13.994-1.47,1.96-4.274,2.274-9.82,2.823-5.04.5-13.335,1.217-22.586-2.946-1.171-.527-2.048-.921-2.763-1.311,14.453,2.171,19.268.329,20.562-2.248" fill="none"/>
    </clipPath>
    <linearGradient id="linear-gradient-39" x1="-0.229" y1="1.843" x2="-0.215" y2="1.843" xlink:href="#linear-gradient-19"/>
    <clipPath id="clip-path-63">
      <path id="Trazado_246057" data-name="Trazado 246057" d="M65.165,263.69c-29.421,5.729-38.351,4.945-41.063,11.47a11.178,11.178,0,0,0,1.5,10.474c4.714,6.277,16.364,4.586,21.611,3.824,16.307-2.368,23.693-10.751,27.432-7.648,3.243,2.692-1.593,9.6,1.5,20.117a30.157,30.157,0,0,0,6.65,11.637l4.489-.5c1.468-8.718,7.021-44.663-6.295-51.021a6,6,0,0,0-2.791-.635c-2.168,0-5.485.812-13.026,2.281" fill="none"/>
    </clipPath>
    <linearGradient id="linear-gradient-40" x1="-0.195" y1="1.279" x2="-0.183" y2="1.279" xlink:href="#linear-gradient-4"/>
    <clipPath id="clip-path-64">
      <path id="Trazado_246058" data-name="Trazado 246058" d="M78.521,267.921c-29.421,5.73-38.352,4.946-41.064,11.472a11.177,11.177,0,0,0,1.5,10.473c4.714,6.278,16.364,4.586,21.612,3.824,16.306-2.367,23.692-10.751,27.431-7.648,3.243,2.692-1.592,9.6,1.5,20.117a30.157,30.157,0,0,0,6.65,11.637l4.489-.5c1.469-8.718,7.022-44.663-6.3-51.021a6,6,0,0,0-2.791-.635c-2.168,0-5.485.812-13.025,2.28" fill="none"/>
    </clipPath>
    <linearGradient id="linear-gradient-41" x1="-0.501" y1="1.739" x2="-0.487" y2="1.739" xlink:href="#linear-gradient-4"/>
    <clipPath id="clip-path-66">
      <rect id="Rectángulo_104138" data-name="Rectángulo 104138" width="41.701" height="18.61" transform="translate(24.6 320.241)" fill="none"/>
    </clipPath>
    <clipPath id="clip-path-67">
      <path id="Trazado_246061" data-name="Trazado 246061" d="M24.6,334.16c0-5.28,11.11-13.919,24.814-13.919A33.672,33.672,0,0,1,65.9,324.587a3.6,3.6,0,0,1,.392,1.889c-.285,2.97-5.13,4.8-7.911,5.4-7,1.517-10.423-2.671-16.2-2.512-3.57.1-8.517,1.892-14.385,9.488-2.031-1.386-3.195-2.986-3.195-4.691" fill="none"/>
    </clipPath>
    <linearGradient id="linear-gradient-42" x1="-0.589" y1="1.94" x2="-0.565" y2="1.94" xlink:href="#linear-gradient-22"/>
    <clipPath id="clip-path-68">
      <rect id="Rectángulo_104140" data-name="Rectángulo 104140" width="5.518" height="29.893" transform="translate(46.655 295.327)" fill="none"/>
    </clipPath>
    <clipPath id="clip-path-69">
      <path id="Trazado_246063" data-name="Trazado 246063" d="M48.055,325.037a5.622,5.622,0,0,0,2.787.015,1.793,1.793,0,0,0,1.331-1.745v-27.98H46.655v27.947a1.827,1.827,0,0,0,1.4,1.763" fill="none"/>
    </clipPath>
    <linearGradient id="linear-gradient-43" x1="-8.455" y1="2.037" x2="-8.274" y2="2.037" xlink:href="#linear-gradient-22"/>
    <clipPath id="clip-path-70">
      <path id="Trazado_246064" data-name="Trazado 246064" d="M32.191,246.7c-7.733.346-13.25.593-15.9,4.282-3.407,4.737,2.307,9.032,1.124,22.583-.482,5.526-1.71,7.979-.182,11.64,1.832,4.385,6.077,6.816,9.379,8.184A48.058,48.058,0,0,0,46.5,299.739a49.507,49.507,0,0,0,30.622-7.726,5.053,5.053,0,0,0,3.428-3.794,4.454,4.454,0,0,0-1.982-4.667l-8.429-5.329c-.35-1.991-4.324-22.814-20.455-29.354a36.123,36.123,0,0,0-13.479-2.281c-1.541,0-2.908.061-4.015.11" fill="none"/>
    </clipPath>
    <linearGradient id="linear-gradient-44" x1="-0.054" y1="1.448" x2="-0.042" y2="1.448" xlink:href="#linear-gradient-3"/>
    <clipPath id="clip-path-72">
      <rect id="Rectángulo_104143" data-name="Rectángulo 104143" width="50.637" height="47.675" transform="translate(24.071 249.403)" fill="none"/>
    </clipPath>
    <clipPath id="clip-path-73">
      <rect id="Rectángulo_104144" data-name="Rectángulo 104144" width="36.047" height="24.16" transform="translate(141.556 220.227)" fill="none"/>
    </clipPath>
    <clipPath id="clip-path-74">
      <rect id="Rectángulo_104145" data-name="Rectángulo 104145" width="39.912" height="3.184" transform="translate(146.898 242.479)" fill="none"/>
    </clipPath>
    <clipPath id="clip-path-75">
      <path id="Trazado_246074" data-name="Trazado 246074" d="M185.1,314.259s-8.007.556-8.125,1.079,5.435,2.544,7.376,2.619,3.536-.5,3.36-1.32-.855-2.889-.855-2.889Z" fill="none"/>
    </clipPath>
    <linearGradient id="linear-gradient-45" x1="-15.594" y1="8.38" x2="-15.506" y2="8.38" gradientUnits="objectBoundingBox">
      <stop offset="0" stop-color="#26264f"/>
      <stop offset="0.004" stop-color="#26264f"/>
      <stop offset="1" stop-color="#444b8c"/>
    </linearGradient>
    <clipPath id="clip-path-76">
      <path id="Trazado_246075" data-name="Trazado 246075" d="M184.58,314.48a2.937,2.937,0,0,0,2.185.293l1.076-3.986-3.119-.086Z" fill="none"/>
    </clipPath>
    <linearGradient id="linear-gradient-46" x1="-37.312" y1="11.563" x2="-37.109" y2="11.563" xlink:href="#linear-gradient-19"/>
    <clipPath id="clip-path-77">
      <path id="Trazado_246076" data-name="Trazado 246076" d="M162.706,312.735s-8.008.556-8.125,1.079,5.435,2.544,7.375,2.619,3.537-.5,3.361-1.319-.855-2.889-.855-2.889Z" fill="none"/>
    </clipPath>
    <linearGradient id="linear-gradient-47" x1="-13.618" y1="8.676" x2="-13.53" y2="8.676" xlink:href="#linear-gradient-45"/>
    <clipPath id="clip-path-78">
      <path id="Trazado_246077" data-name="Trazado 246077" d="M162.185,312.956a2.941,2.941,0,0,0,2.186.292l1.075-3.985-3.118-.087Z" fill="none"/>
    </clipPath>
    <linearGradient id="linear-gradient-48" x1="-32.765" y1="11.952" x2="-32.562" y2="11.952" xlink:href="#linear-gradient-19"/>
    <clipPath id="clip-path-79">
      <path id="Trazado_246078" data-name="Trazado 246078" d="M190.166,260.215c-13.316,6.356-7.764,42.3-6.294,51.02l4.488.5a30.161,30.161,0,0,0,6.65-11.637c3.109-10.587-1.393-18.217,1.5-20.116,2.183-1.434,5.725,2.3,10.716,6.041,4.363,3.266,9.831,6.533,16.467,6.347,5.837-.163,13.457-3.022,16.386-9.248.442-.941,2.614-5.861.5-10.474-2.184-4.763-13.016-6.835-34.592-10.787-6.695-1.226-10.994-2.008-13.573-2.008a5.325,5.325,0,0,0-2.243.364" fill="none"/>
    </clipPath>
    <linearGradient id="linear-gradient-49" x1="-2.129" y1="1.347" x2="-2.117" y2="1.347" gradientUnits="objectBoundingBox">
      <stop offset="0" stop-color="#893976"/>
      <stop offset="1" stop-color="#311944"/>
    </linearGradient>
    <clipPath id="clip-path-80">
      <path id="Trazado_246079" data-name="Trazado 246079" d="M176.81,264.446c-15.521,5.519-15.823,39.315-15.784,46.853l4.643.808c1.88-2.769,4.725-7.107,7.907-12.612,6.632-11.475,6.51-13.806,9.575-15.283,6.487-3.126,11.389,5.319,27.431,7.648,5.248.762,16.9,2.453,21.613-3.824a11.178,11.178,0,0,0,1.495-10.474c-2.71-6.525-11.641-5.741-41.063-11.471-7.6-1.479-10.85-2.154-12.987-2.154a7.833,7.833,0,0,0-2.83.509" fill="none"/>
    </clipPath>
    <linearGradient id="linear-gradient-50" x1="-2.169" y1="1.918" x2="-2.156" y2="1.918" xlink:href="#linear-gradient-49"/>
    <clipPath id="clip-path-81">
      <path id="Trazado_246080" data-name="Trazado 246080" d="M202.109,213.141a14.219,14.219,0,0,0-2.435,1.3c-1.7,1.114-4.978,3.262-6.5,7-2.927,7.156,3.857,12.108,9.084,30.32,2.247,7.834,3.371,11.751,3.068,16.694-.422,6.885-2.84,10.863-.491,13.994,1.471,1.96,4.273,2.274,9.82,2.824,5.041.5,13.335,1.216,22.586-2.947,2.477-1.114,3.692-1.441,4.543-2.578,2.632-3.519.143-9.03-1.455-13.833-3.019-9.077.088-6.782-3.74-29.177-2.745-16.057-4.628-18.906-6.983-20.947-4.866-4.216-11.433-4.707-14.091-4.907-.228-.017-.673-.038-1.291-.038a33.323,33.323,0,0,0-12.11,2.3" fill="none"/>
    </clipPath>
    <linearGradient id="linear-gradient-51" x1="-1.859" y1="1.678" x2="-1.848" y2="1.678" xlink:href="#linear-gradient-38"/>
    <clipPath id="clip-path-82">
      <path id="Trazado_246081" data-name="Trazado 246081" d="M159.9,242.59l-5.114.879a14,14,0,0,0,6.152.918,11.432,11.432,0,0,1,5.914,1.171l.246-1.819L161.19,242.6a3.58,3.58,0,0,0-1.287-.013" fill="none"/>
    </clipPath>
    <linearGradient id="linear-gradient-52" x1="-28.32" y1="9.362" x2="-28.141" y2="9.362" xlink:href="#linear-gradient-19"/>
    <clipPath id="clip-path-83">
      <path id="Trazado_246082" data-name="Trazado 246082" d="M209.668,198.432c-.037.013-.071.027-.071.027l-.6.37c-.431.289-.662.517-1.567,2.185-.055.1-.081.154-.1.193-.589,1.144-2.077,4.033-1.083,5.535.758,1.146,2.708,1.1,3.293,1.074a3.779,3.779,0,0,1-1.132,2.887c-1.236,1.138-5.629,2.286-5.849,2.682-.5.893,4.117,1.5,9.787,1.454,4.225-.591,7.647-3.223,7.416-4.028-.122-.43-1.534-.675-4.419-.491-.71.046-1.714.061-1.793-.647q-.122-1.108-.322-2.269-.048-.284-.1-.563c.258-4.89-.647-8.347-1.495-8.528a2.731,2.731,0,0,0-.456-.026,6.427,6.427,0,0,0-1.506.145" fill="none"/>
    </clipPath>
    <linearGradient id="linear-gradient-53" x1="-8.649" y1="7.196" x2="-8.605" y2="7.196" xlink:href="#linear-gradient-19"/>
    <clipPath id="clip-path-85">
      <path id="Trazado_246084" data-name="Trazado 246084" d="M209.206,203.39c-.5.687-.85,1.715-.229,1.845s1.26-.556,1.256-1.215a.8.8,0,0,0-.652-.844.462.462,0,0,0-.375.214" fill="none"/>
    </clipPath>
    <linearGradient id="linear-gradient-54" x1="-80.018" y1="55.617" x2="-79.634" y2="55.617" xlink:href="#linear-gradient-19"/>
    <clipPath id="clip-path-87">
      <rect id="Rectángulo_104159" data-name="Rectángulo 104159" width="43.321" height="58.002" transform="translate(196.678 227.654)" fill="none"/>
    </clipPath>
    <clipPath id="clip-path-88">
      <path id="Trazado_246085" data-name="Trazado 246085" d="M219.437,278.764c-1.631-3.248,2.367-7.567-.245-12.52-2.219-4.207-6.249-3.264-8.1-7.12-2.238-4.656,2.63-8.137,2.455-15.221-.208-8.469-7.495-16.947-11.784-16.2-2.775.481-3.131,4.62-5.083,9.152a103.014,103.014,0,0,1,5.574,14.907c2.248,7.834,3.372,11.751,3.069,16.694-.422,6.886-2.84,10.864-.491,13.994,1.471,1.96,4.274,2.274,9.82,2.823,5.04.5,13.335,1.217,22.586-2.946,1.171-.527,2.048-.921,2.763-1.311-14.453,2.171-19.267.329-20.562-2.249" fill="none"/>
    </clipPath>
    <linearGradient id="linear-gradient-55" x1="-2.492" y1="1.878" x2="-2.478" y2="1.878" xlink:href="#linear-gradient-38"/>
    <clipPath id="clip-path-89">
      <path id="Trazado_246086" data-name="Trazado 246086" d="M198.692,215.179c-1.918.829-5.727,3.118-9.084,12.03-3.524,9.355-2.584,10.622-4.787,13.072-2.4,2.671-7.365,4.957-18.722,2.92-.168.755-.336,1.508-.5,2.264,2.075,1.252,10.271,6.067,18.673,7.583,7.126,1.285,10.744-.455,11.654-.941.278-.149.488-.271.621-.348,7.23-4.184,8.5-13,9.146-17.492,1.147-7.978-.206-18.641-4.3-19.641a2.423,2.423,0,0,0-.582-.071,5.52,5.52,0,0,0-2.119.624" fill="none"/>
    </clipPath>
    <linearGradient id="linear-gradient-56" x1="-2.753" y1="2.627" x2="-2.735" y2="2.627" xlink:href="#linear-gradient-38"/>
    <clipPath id="clip-path-91">
      <rect id="Rectángulo_104163" data-name="Rectángulo 104163" width="41.7" height="18.61" transform="translate(201.296 314.835)" fill="none"/>
    </clipPath>
    <clipPath id="clip-path-92">
      <path id="Trazado_246089" data-name="Trazado 246089" d="M243,328.753c0-5.279-11.109-13.918-24.814-13.918a33.675,33.675,0,0,0-16.482,4.346,3.593,3.593,0,0,0-.391,1.889c.284,2.97,5.129,4.8,7.91,5.4,7,1.516,10.423-2.671,16.2-2.512,3.57.1,8.517,1.892,14.385,9.488,2.031-1.386,3.2-2.986,3.2-4.692" fill="none"/>
    </clipPath>
    <linearGradient id="linear-gradient-57" x1="-4.821" y1="2.231" x2="-4.797" y2="2.231" xlink:href="#linear-gradient-22"/>
    <clipPath id="clip-path-93">
      <rect id="Rectángulo_104165" data-name="Rectángulo 104165" width="5.518" height="29.893" transform="translate(215.423 289.921)" fill="none"/>
    </clipPath>
    <clipPath id="clip-path-94">
      <path id="Trazado_246091" data-name="Trazado 246091" d="M219.541,319.63a5.618,5.618,0,0,1-2.786.016,1.792,1.792,0,0,1-1.332-1.745v-27.98h5.517v27.947a1.825,1.825,0,0,1-1.4,1.762" fill="none"/>
    </clipPath>
    <linearGradient id="linear-gradient-58" x1="-39.04" y1="2.217" x2="-38.859" y2="2.217" xlink:href="#linear-gradient-22"/>
    <clipPath id="clip-path-95">
      <path id="Trazado_246092" data-name="Trazado 246092" d="M217.912,243.463c-16.131,6.539-20.1,27.363-20.456,29.353l-8.429,5.329a4.456,4.456,0,0,0-1.981,4.669,5.05,5.05,0,0,0,3.427,3.792,49.5,49.5,0,0,0,30.623,7.727,48.063,48.063,0,0,0,19.892-6.352c3.3-1.368,7.547-3.8,9.378-8.184,1.528-3.66.3-6.115-.181-11.641-1.184-13.549,4.53-17.846,1.124-22.583-2.653-3.689-8.17-3.935-15.9-4.28-1.108-.05-2.475-.111-4.017-.111a36.108,36.108,0,0,0-13.476,2.281" fill="none"/>
    </clipPath>
    <linearGradient id="linear-gradient-59" x1="-2.032" y1="1.539" x2="-2.021" y2="1.539" xlink:href="#linear-gradient-3"/>
    <clipPath id="clip-path-97">
      <rect id="Rectángulo_104168" data-name="Rectángulo 104168" width="50.637" height="47.675" transform="translate(192.889 243.997)" fill="none"/>
    </clipPath>
  </defs>
  <g id="Grupo_181946" data-name="Grupo 181946" clip-path="url(#clip-path)">
    <g id="Grupo_181744" data-name="Grupo 181744">
      <g id="Grupo_181743" data-name="Grupo 181743" clip-path="url(#clip-path)">
        <path id="Trazado_245988" data-name="Trazado 245988" d="M45.2,306.813a139.237,139.237,0,0,1-11.76-24.935c-24.192-64.086-10.274-134.08-5.7-155.7C35.113,91.3,40.7,61.8,58.958,37.519c41.49-55.183,175.488-44.363,192.154-.748,16.681,43.652,19.8,83.481,19.329,127.521.023,1.745.012,3.044.009,4.182-.044,11.017-1.061,79.235-38.035,132.017a144.2,144.2,0,0,1-28.494,30.459C153.542,370.492,80.762,364.919,45.2,306.813" fill="#e5e1f1"/>
        <g id="Grupo_181736" data-name="Grupo 181736" opacity="0.35">
          <g id="Grupo_181735" data-name="Grupo 181735">
            <g id="Grupo_181734-2" data-name="Grupo 181734" clip-path="url(#clip-path-3)">
              <path id="Trazado_245989" data-name="Trazado 245989" d="M254.645,315.962a4.357,4.357,0,0,1,.059.5,3.189,3.189,0,0,1-4.059,3.4,5.854,5.854,0,0,1-4.581-5.064,109.573,109.573,0,0,0-4.621-24.658,129.988,129.988,0,0,0-10.163-24.288l-.792-1.474-.837-1.454c-.552-.972-1.134-1.929-1.72-2.883q-1.744-2.871-3.665-5.634c-.629-.927-1.3-1.825-1.951-2.736-.663-.9-1.349-1.788-2.019-2.68-.707-.868-1.383-1.751-2.115-2.6s-1.434-1.708-2.185-2.526-1.478-1.652-2.248-2.444c-.383-.4-.758-.8-1.147-1.19l-1.171-1.156c-.768-.784-1.588-1.5-2.375-2.246-.808-.718-1.615-1.435-2.434-2.125-.829-.674-1.64-1.37-2.485-2-.42-.317-.832-.646-1.254-.956l-1.267-.9c-.213-.15-.418-.306-.636-.45l-.664-.434-1.323-.862c-.9-.542-1.788-1.1-2.7-1.616a101.551,101.551,0,0,0-22.885-9.42c-7.951-2.286-16.135-3.928-24.634-5.619-4.252-.85-8.583-1.687-13.031-2.65-2.219-.468-4.475-1-6.751-1.542-1.146-.289-2.287-.563-3.447-.872l-3.382-.9c-8.654-2.325-17.579-4.841-26.754-8.017a196.521,196.521,0,0,1-28.332-12.182,139.125,139.125,0,0,1-14.647-8.99,120.511,120.511,0,0,1-14.388-11.864c-2.318-2.243-4.574-4.624-6.737-7.119-1.085-1.247-2.136-2.531-3.173-3.834-.513-.654-1.013-1.285-1.524-1.978s-1.027-1.384-1.518-2.087a97.893,97.893,0,0,1-9.953-17.64c-.659-1.525-1.286-3.054-1.853-4.6-.308-.813-.519-1.434-.772-2.122l-.722-2.031c-.477-1.357-.909-2.734-1.33-4.115s-.794-2.779-1.185-4.175a102.959,102.959,0,0,1-3.028-17.1,86.917,86.917,0,0,1,.1-17.076,80.066,80.066,0,0,1,17.878-42.69A102.181,102.181,0,0,1,45.036,19.638a122.959,122.959,0,0,1,11.939-7.4c2.085-1.128,4.217-2.2,6.446-3.236,1.119-.515,2.256-1.025,3.459-1.527.6-.251,1.215-.5,1.878-.752l1.04-.384.588-.2.36-.116.542-.155c18.045-4.234,40.022,8.293,49.081,27.975s1.773,39.071-16.273,43.3l.186-.068c.043-.02.017-.021.017-.021l-.013-.011c-.007-.014-.075-.013-.115-.02a3.417,3.417,0,0,0-.365,0c-.27,0-.59.034-.906.063-.645.06-1.337.145-2.032.25-1.4.215-2.844.481-4.276.793a73.431,73.431,0,0,0-8.451,2.351,62.467,62.467,0,0,0-14.762,7.162A39.1,39.1,0,0,0,63,97.664a28.624,28.624,0,0,0-3.242,6.079,31.576,31.576,0,0,0-1.84,7,40.38,40.38,0,0,0-.369,8.066c.06.726.088,1.448.159,2.19.092.747.149,1.49.257,2.252l.323,2.214c.071.579.178,1.169.283,1.753a31.686,31.686,0,0,0,2.27,7c.126.289.266.574.4.86l.478.924c.332.619.675,1.24,1.049,1.856.743,1.235,1.564,2.474,2.48,3.716A73.449,73.449,0,0,0,80.31,156.212q2.324,1.77,4.826,3.447t5.143,3.295c3.515,2.152,7.193,4.22,10.982,6.214,7.583,3.995,15.592,7.678,23.87,11.347l2.971,1.311c.959.425,1.94.83,2.917,1.25,1.973.816,3.964,1.626,6,2.415,4.06,1.585,8.244,3.127,12.5,4.677,8.521,3.116,17.388,6.341,26.339,10.435a134.207,134.207,0,0,1,26.34,15.5c1.043.791,2.06,1.636,3.081,2.456,1.006.864,2,1.689,3,2.585l1.493,1.331c.489.45.964.912,1.445,1.367.97.9,1.878,1.854,2.8,2.787a114.4,114.4,0,0,1,9.867,11.84,153.344,153.344,0,0,1,14.748,25.27,191.594,191.594,0,0,1,9.857,26.018,236.723,236.723,0,0,1,6.147,26.181Z" fill="#fdb74d"/>
            </g>
          </g>
        </g>
        <g id="Grupo_181739" data-name="Grupo 181739" opacity="0.7" style="isolation: isolate">
          <g id="Grupo_181738" data-name="Grupo 181738">
            <g id="Grupo_181737" data-name="Grupo 181737" clip-path="url(#clip-path-4)">
              <path id="Trazado_245990" data-name="Trazado 245990" d="M236,54.221a22.765,22.765,0,1,1,30.309-10.857A22.764,22.764,0,0,1,236,54.221" fill="#5038a1"/>
            </g>
          </g>
        </g>
        <path id="Trazado_245991" data-name="Trazado 245991" d="M235.477,43.113a7.588,7.588,0,1,1,10.1-3.619A7.588,7.588,0,0,1,235.477,43.113Z" fill="none" stroke="#fff" stroke-width="1.98"/>
        <path id="Trazado_245992" data-name="Trazado 245992" d="M265.737,96.457a4.619,4.619,0,1,1,6.15-2.2,4.62,4.62,0,0,1-6.15,2.2" fill="#fdb74d"/>
        <path id="Trazado_245993" data-name="Trazado 245993" d="M266.16,95.562a3.629,3.629,0,1,1,4.832-1.731,3.63,3.63,0,0,1-4.832,1.731" fill="#fdb74d"/>
        <path id="Trazado_245994" data-name="Trazado 245994" d="M266.16,95.562a3.629,3.629,0,1,1,4.832-1.731A3.63,3.63,0,0,1,266.16,95.562Z" fill="none" stroke="#8c6df2" stroke-width="1.98"/>
        <path id="Trazado_245995" data-name="Trazado 245995" d="M264.586,57.962a2.969,2.969,0,1,1,3.953-1.415,2.967,2.967,0,0,1-3.953,1.415" fill="#fdb74d"/>
        <g id="Grupo_181742" data-name="Grupo 181742" opacity="0.5">
          <g id="Grupo_181741" data-name="Grupo 181741">
            <g id="Grupo_181740" data-name="Grupo 181740" clip-path="url(#clip-path-5)">
              <path id="Trazado_245996" data-name="Trazado 245996" d="M142.325,34.7a20.775,20.775,0,1,0-20.776,20.776A20.776,20.776,0,0,0,142.325,34.7" fill="#fdb74d"/>
            </g>
          </g>
        </g>
        <circle id="Elipse_6232" data-name="Elipse 6232" cx="18.162" cy="18.162" r="18.162" transform="matrix(0.071, -0.997, 0.997, 0.071, 102.146, 51.527)" fill="none" stroke="#fff" stroke-linecap="round" stroke-width="2.046" stroke-dasharray="1.535 4.093"/>
      </g>
    </g>
    <g id="Grupo_181746" data-name="Grupo 181746">
      <g id="Grupo_181745" data-name="Grupo 181745" clip-path="url(#clip-path-6)">
        <rect id="Rectángulo_104078" data-name="Rectángulo 104078" width="153.612" height="151.016" transform="matrix(0.384, -0.924, 0.924, 0.384, 130.696, 236.182)" fill="url(#linear-gradient)"/>
      </g>
    </g>
    <g id="Grupo_181748" data-name="Grupo 181748">
      <g id="Grupo_181747" data-name="Grupo 181747" clip-path="url(#clip-path-7)">
        <rect id="Rectángulo_104079" data-name="Rectángulo 104079" width="127.728" height="105.351" transform="translate(179.588 238.067) rotate(-67.449)" fill="url(#linear-gradient-2)"/>
      </g>
    </g>
    <g id="Grupo_181750" data-name="Grupo 181750">
      <g id="Grupo_181749" data-name="Grupo 181749" clip-path="url(#clip-path)">
        <path id="Trazado_245999" data-name="Trazado 245999" d="M272.4,224.08c4.283,2.174,9.664.178,12.018-4.46s.791-10.159-3.491-12.334c-.222-.112-.449-.207-.676-.3a54.27,54.27,0,0,0,1.8-7.74c.246,0,.492,0,.742-.027a9.853,9.853,0,0,0,8.662-10.029,8.343,8.343,0,0,0-9.032-8.451c-.256.023-.507.063-.756.107a49.787,49.787,0,0,0-2.092-7.39c.225-.132.448-.268.667-.421a9.853,9.853,0,0,0,2.985-12.911,8.344,8.344,0,0,0-12.153-2.3c-.214.15-.416.312-.615.477a44.053,44.053,0,0,0-5.422-5.061c.138-.226.273-.454.395-.7,2.355-4.637.791-10.159-3.491-12.334s-9.664-.177-12.018,4.46c-.122.24-.227.484-.328.729a44.145,44.145,0,0,0-7.285-1.391c.015-.258.027-.516.022-.778a8.343,8.343,0,0,0-9.032-8.451,9.853,9.853,0,0,0-8.663,10.029c.006.266.028.527.055.786a49.9,49.9,0,0,0-7.2,2.672c-.111-.227-.226-.453-.359-.673a8.344,8.344,0,0,0-12.153-2.3,9.852,9.852,0,0,0-2.985,12.911c.129.215.271.417.416.615a54.347,54.347,0,0,0-5.187,6.019c-.207-.13-.417-.257-.639-.37-4.283-2.174-9.664-.178-12.018,4.459s-.792,10.16,3.491,12.334c.222.113.449.208.676.3a54.228,54.228,0,0,0-1.8,7.739c-.246,0-.492,0-.742.027a9.853,9.853,0,0,0-8.662,10.029,8.344,8.344,0,0,0,9.032,8.452c.256-.023.507-.063.756-.107a49.786,49.786,0,0,0,2.092,7.39c-.225.132-.448.268-.667.421a9.853,9.853,0,0,0-2.985,12.911,8.345,8.345,0,0,0,12.153,2.305c.214-.151.416-.312.615-.477a44.194,44.194,0,0,0,5.421,5.061c-.137.225-.272.454-.394.694-2.354,4.638-.791,10.16,3.491,12.334s9.664.178,12.018-4.459c.122-.24.227-.484.328-.729a44.144,44.144,0,0,0,7.285,1.391c-.015.258-.027.516-.022.777a8.344,8.344,0,0,0,9.033,8.452,9.852,9.852,0,0,0,8.661-10.029c0-.266-.027-.527-.054-.786a49.775,49.775,0,0,0,7.2-2.673c.112.228.228.454.36.674a8.344,8.344,0,0,0,12.153,2.305,9.854,9.854,0,0,0,2.985-12.911c-.129-.216-.271-.417-.416-.615a54.348,54.348,0,0,0,5.187-6.019c.207.13.418.257.639.37m-53.388.677c-15.55-7.9-21.225-27.944-12.677-44.781s28.084-24.086,43.634-16.191,21.225,27.944,12.677,44.781-28.084,24.086-43.634,16.191" fill="#fdb74d"/>
      </g>
    </g>
    <g id="Grupo_181752" data-name="Grupo 181752">
      <g id="Grupo_181751" data-name="Grupo 181751" clip-path="url(#clip-path-9)">
        <rect id="Rectángulo_104081" data-name="Rectángulo 104081" width="7.94" height="11.298" transform="matrix(0.95, -0.311, 0.311, 0.95, 142.276, 133.32)" fill="url(#linear-gradient-3)"/>
      </g>
    </g>
    <g id="Grupo_181754" data-name="Grupo 181754">
      <g id="Grupo_181753" data-name="Grupo 181753" clip-path="url(#clip-path)">
        <path id="Trazado_246001" data-name="Trazado 246001" d="M147.2,142.219c.631,1.464,4.15,9.99.089,17.9-4.528,8.825-16.712,13.442-28.9,9.46-.1,1.577-1.1,21.535,8.7,26.3,10.525,5.116,30.337-8.811,33.572-26.3,2.768-14.964-7.906-27.079-9.635-28.982l-3.827,1.618" fill="#8c6df2"/>
      </g>
    </g>
    <g id="Grupo_181756" data-name="Grupo 181756">
      <g id="Grupo_181755" data-name="Grupo 181755" clip-path="url(#clip-path-11)">
        <rect id="Rectángulo_104083" data-name="Rectángulo 104083" width="8.638" height="4.315" transform="translate(107.59 300.957) rotate(-5.146)" fill="url(#linear-gradient-4)"/>
      </g>
    </g>
    <g id="Grupo_181758" data-name="Grupo 181758">
      <g id="Grupo_181757" data-name="Grupo 181757" clip-path="url(#clip-path-12)">
        <rect id="Rectángulo_104084" data-name="Rectángulo 104084" width="4.529" height="5.141" transform="matrix(0.868, -0.496, 0.496, 0.868, 106.202, 298.895)" fill="url(#linear-gradient-5)"/>
      </g>
    </g>
    <g id="Grupo_181760" data-name="Grupo 181760">
      <g id="Grupo_181759" data-name="Grupo 181759" clip-path="url(#clip-path-13)">
        <rect id="Rectángulo_104085" data-name="Rectángulo 104085" width="9.682" height="5.551" transform="matrix(0.977, -0.213, 0.213, 0.977, 134.38, 300.262)" fill="url(#linear-gradient-6)"/>
      </g>
    </g>
    <g id="Grupo_181762" data-name="Grupo 181762">
      <g id="Grupo_181761" data-name="Grupo 181761" clip-path="url(#clip-path-14)">
        <rect id="Rectángulo_104086" data-name="Rectángulo 104086" width="5.221" height="5.441" transform="translate(132.851 298.595) rotate(-34.142)" fill="url(#linear-gradient-7)"/>
      </g>
    </g>
    <g id="Grupo_181764" data-name="Grupo 181764">
      <g id="Grupo_181763" data-name="Grupo 181763" clip-path="url(#clip-path-15)">
        <rect id="Rectángulo_104087" data-name="Rectángulo 104087" width="50.919" height="81.74" transform="matrix(0.934, -0.356, 0.356, 0.934, 87.623, 231.028)" fill="url(#linear-gradient-8)"/>
      </g>
    </g>
    <g id="Grupo_181771" data-name="Grupo 181771">
      <g id="Grupo_181770" data-name="Grupo 181770" clip-path="url(#clip-path)">
        <g id="Grupo_181769" data-name="Grupo 181769" opacity="0.3" style="mix-blend-mode: multiply;isolation: isolate">
          <g id="Grupo_181768" data-name="Grupo 181768">
            <g id="Grupo_181767" data-name="Grupo 181767" clip-path="url(#clip-path-17)">
              <g id="Grupo_181766" data-name="Grupo 181766">
                <g id="Grupo_181765" data-name="Grupo 181765" clip-path="url(#clip-path-18)">
                  <rect id="Rectángulo_104088" data-name="Rectángulo 104088" width="47.678" height="79.532" transform="matrix(0.934, -0.356, 0.356, 0.934, 88.028, 232.091)" fill="url(#linear-gradient-9)"/>
                </g>
              </g>
            </g>
          </g>
        </g>
      </g>
    </g>
    <g id="Grupo_181773" data-name="Grupo 181773">
      <g id="Grupo_181772" data-name="Grupo 181772" clip-path="url(#clip-path-19)">
        <rect id="Rectángulo_104091" data-name="Rectángulo 104091" width="57.15" height="80.802" transform="matrix(0.884, -0.468, 0.468, 0.884, 63.329, 237.574)" fill="url(#linear-gradient-10)"/>
      </g>
    </g>
    <g id="Grupo_181780" data-name="Grupo 181780">
      <g id="Grupo_181779" data-name="Grupo 181779" clip-path="url(#clip-path)">
        <g id="Grupo_181778" data-name="Grupo 181778" opacity="0.3" style="mix-blend-mode: multiply;isolation: isolate">
          <g id="Grupo_181777" data-name="Grupo 181777">
            <g id="Grupo_181776" data-name="Grupo 181776" clip-path="url(#clip-path-21)">
              <g id="Grupo_181775" data-name="Grupo 181775">
                <g id="Grupo_181774" data-name="Grupo 181774" clip-path="url(#clip-path-22)">
                  <rect id="Rectángulo_104092" data-name="Rectángulo 104092" width="58.978" height="54.203" transform="matrix(0.397, -0.918, 0.918, 0.397, 105.971, 193.486)" fill="url(#linear-gradient-11)"/>
                </g>
              </g>
            </g>
          </g>
        </g>
        <path id="Trazado_246010" data-name="Trazado 246010" d="M83.507,174.631a88.4,88.4,0,0,1,52.522-1.483q1.1,6.146,2.2,12.291a146.43,146.43,0,0,1-.239,16.247c-.461,6.574-.913,6.673-1.97,15.953-1.724,15.131-1,19.084-4.044,20.9-1.978,1.183-2.693-.244-12.786-1.245-6.768-.671-10.221-.982-13.649.177-4.667,1.58-6.228,4.231-8.153,3.368-1.847-.827-2.082-4.014-2.305-9.572-.344-8.572-.323-14.4-.354-16.484-.146-9.57-2.569-16.876-5.672-26.234a126.612,126.612,0,0,0-5.548-13.919" fill="#8c6df2"/>
      </g>
    </g>
    <g id="Grupo_181782" data-name="Grupo 181782">
      <g id="Grupo_181781" data-name="Grupo 181781" clip-path="url(#clip-path-23)">
        <rect id="Rectángulo_104095" data-name="Rectángulo 104095" width="16.871" height="14.378" transform="translate(105.926 160.465) rotate(-1.252)" fill="url(#linear-gradient-12)"/>
      </g>
    </g>
    <g id="Grupo_181784" data-name="Grupo 181784">
      <g id="Grupo_181783" data-name="Grupo 181783" clip-path="url(#clip-path-24)">
        <rect id="Rectángulo_104096" data-name="Rectángulo 104096" width="13.157" height="13" transform="translate(108.323 164.751) rotate(-65.666)" fill="url(#linear-gradient-13)"/>
      </g>
    </g>
    <g id="Grupo_181786" data-name="Grupo 181786">
      <g id="Grupo_181785" data-name="Grupo 181785" clip-path="url(#clip-path-25)">
        <rect id="Rectángulo_104097" data-name="Rectángulo 104097" width="11.353" height="10.949" transform="matrix(0.822, -0.57, 0.57, 0.822, 109.622, 162.679)" fill="url(#linear-gradient-14)"/>
      </g>
    </g>
    <g id="Grupo_181788" data-name="Grupo 181788">
      <g id="Grupo_181787" data-name="Grupo 181787" clip-path="url(#clip-path-26)">
        <rect id="Rectángulo_104098" data-name="Rectángulo 104098" width="0.96" height="1.886" transform="matrix(0.161, -0.987, 0.987, 0.161, 118.415, 165.711)" fill="url(#linear-gradient-15)"/>
      </g>
    </g>
    <g id="Grupo_181790" data-name="Grupo 181790">
      <g id="Grupo_181789" data-name="Grupo 181789" clip-path="url(#clip-path-27)">
        <rect id="Rectángulo_104099" data-name="Rectángulo 104099" width="11.404" height="7.845" transform="translate(88.242 213.024) rotate(-18.141)" fill="url(#linear-gradient-16)"/>
      </g>
    </g>
    <g id="Grupo_181797" data-name="Grupo 181797">
      <g id="Grupo_181796" data-name="Grupo 181796" clip-path="url(#clip-path)">
        <path id="Trazado_246016" data-name="Trazado 246016" d="M91.033,213.939a5.888,5.888,0,0,1-.991,4.286c-3.219,4.125-14.16,2.438-20.662-3.087a21.285,21.285,0,0,1-7.268-16.13c.184-11.1,10.474-21.983,25.78-25.742q3.4,10.159,6.8,20.319c-9.436.144-15.169,7.257-14.319,12.336.633,3.783,5.045,7.186,10.663,8.018" fill="#8c6df2"/>
        <g id="Grupo_181795" data-name="Grupo 181795" opacity="0.3" style="mix-blend-mode: multiply;isolation: isolate">
          <g id="Grupo_181794" data-name="Grupo 181794">
            <g id="Grupo_181793" data-name="Grupo 181793" clip-path="url(#clip-path-29)">
              <g id="Grupo_181792" data-name="Grupo 181792">
                <g id="Grupo_181791" data-name="Grupo 181791" clip-path="url(#clip-path-30)">
                  <rect id="Rectángulo_104100" data-name="Rectángulo 104100" width="62.908" height="59.755" transform="matrix(0.397, -0.918, 0.918, 0.397, 72.565, 233.867)" fill="url(#linear-gradient-17)"/>
                </g>
              </g>
            </g>
          </g>
        </g>
      </g>
    </g>
    <g id="Grupo_181799" data-name="Grupo 181799">
      <g id="Grupo_181798" data-name="Grupo 181798" clip-path="url(#clip-path-31)">
        <rect id="Rectángulo_104103" data-name="Rectángulo 104103" width="9.321" height="3.964" transform="translate(177.055 295.731) rotate(-3.18)" fill="url(#linear-gradient-18)"/>
      </g>
    </g>
    <g id="Grupo_181801" data-name="Grupo 181801">
      <g id="Grupo_181800" data-name="Grupo 181800" clip-path="url(#clip-path-32)">
        <rect id="Rectángulo_104104" data-name="Rectángulo 104104" width="2.82" height="4.489" transform="translate(183.416 292.539) rotate(-1.252)" fill="url(#linear-gradient-19)"/>
      </g>
    </g>
    <g id="Grupo_181803" data-name="Grupo 181803">
      <g id="Grupo_181802" data-name="Grupo 181802" clip-path="url(#clip-path-33)">
        <rect id="Rectángulo_104105" data-name="Rectángulo 104105" width="7.421" height="9.658" transform="matrix(0.998, -0.055, 0.055, 0.998, 211.555, 292.326)" fill="url(#linear-gradient-20)"/>
      </g>
    </g>
    <g id="Grupo_181805" data-name="Grupo 181805">
      <g id="Grupo_181804" data-name="Grupo 181804" clip-path="url(#clip-path-34)">
        <rect id="Rectángulo_104106" data-name="Rectángulo 104106" width="5.86" height="9.002" transform="translate(210.983 288.552) rotate(-1.252)" fill="url(#linear-gradient-21)"/>
      </g>
    </g>
    <g id="Grupo_181807" data-name="Grupo 181807">
      <g id="Grupo_181806" data-name="Grupo 181806" clip-path="url(#clip-path-35)">
        <rect id="Rectángulo_104107" data-name="Rectángulo 104107" width="67.21" height="57.235" transform="matrix(0.597, -0.802, 0.802, 0.597, 138.74, 269.84)" fill="url(#linear-gradient-22)"/>
      </g>
    </g>
    <g id="Grupo_181809" data-name="Grupo 181809">
      <g id="Grupo_181808" data-name="Grupo 181808" clip-path="url(#clip-path-36)">
        <rect id="Rectángulo_104108" data-name="Rectángulo 104108" width="10.96" height="9.44" transform="translate(132.787 182.671) rotate(-20.473)" fill="url(#linear-gradient-23)"/>
      </g>
    </g>
    <g id="Grupo_181811" data-name="Grupo 181811">
      <g id="Grupo_181810" data-name="Grupo 181810" clip-path="url(#clip-path-37)">
        <rect id="Rectángulo_104109" data-name="Rectángulo 104109" width="63.397" height="65.264" transform="translate(156.01 257.26) rotate(-43.002)" fill="url(#linear-gradient-24)"/>
      </g>
    </g>
    <g id="Grupo_181813" data-name="Grupo 181813">
      <g id="Grupo_181812" data-name="Grupo 181812" clip-path="url(#clip-path)">
        <path id="Trazado_246025" data-name="Trazado 246025" d="M142.129,187.538,144.3,185.6a10.976,10.976,0,0,0,9.544,2.9c3.725-.789,5.873-3.847,7.249-5.8,4.133-5.864,1.661-10.167,6.112-14.151,1.236-1.107,3.66-2.446,5.245-2.038,3.776.974,5.95,12.331,2.295,21.264-.737,1.8-4.8,11.731-14.014,12.806-7.441.869-15.33-4.374-18.606-13.048" fill="#fff"/>
      </g>
    </g>
    <g id="Grupo_181815" data-name="Grupo 181815">
      <g id="Grupo_181814" data-name="Grupo 181814" clip-path="url(#clip-path-39)">
        <rect id="Rectángulo_104111" data-name="Rectángulo 104111" width="92.831" height="96.423" transform="translate(142.072 176.951) rotate(-35.218)" fill="url(#linear-gradient-25)"/>
      </g>
    </g>
    <g id="Grupo_181832" data-name="Grupo 181832">
      <g id="Grupo_181831" data-name="Grupo 181831" clip-path="url(#clip-path)">
        <g id="Grupo_181820" data-name="Grupo 181820" opacity="0.3" style="mix-blend-mode: multiply;isolation: isolate">
          <g id="Grupo_181819" data-name="Grupo 181819">
            <g id="Grupo_181818" data-name="Grupo 181818" clip-path="url(#clip-path-41)">
              <g id="Grupo_181817" data-name="Grupo 181817">
                <g id="Grupo_181816" data-name="Grupo 181816" clip-path="url(#clip-path-42)">
                  <rect id="Rectángulo_104112" data-name="Rectángulo 104112" width="64.972" height="54.367" transform="translate(142.243 269.941) rotate(-53.31)" fill="url(#linear-gradient-26)"/>
                </g>
              </g>
            </g>
          </g>
        </g>
        <g id="Grupo_181825" data-name="Grupo 181825" opacity="0.15" style="mix-blend-mode: multiply;isolation: isolate">
          <g id="Grupo_181824" data-name="Grupo 181824">
            <g id="Grupo_181823" data-name="Grupo 181823" clip-path="url(#clip-path-43)">
              <g id="Grupo_181822" data-name="Grupo 181822">
                <g id="Grupo_181821" data-name="Grupo 181821" clip-path="url(#clip-path-44)">
                  <rect id="Rectángulo_104114" data-name="Rectángulo 104114" width="34.767" height="26.527" transform="translate(142.129 174.927)" fill="url(#linear-gradient-27)"/>
                </g>
              </g>
            </g>
          </g>
        </g>
        <path id="Trazado_246029" data-name="Trazado 246029" d="M166.668,169.234c.417-.648,1.744-2.444,7.375-3.768a32.408,32.408,0,0,1,14.754-.378,32.958,32.958,0,0,1,17.126,9.813,23.12,23.12,0,0,0-9.074,11.342c-.752,2.075-2.976,9.172.2,15.819,1.833,3.83,5.074,6.705,7.536,8.89,3.692,3.275,5.6,3.779,6.842,6.713,1.348,3.2-.01,4.754,1.664,6.942,1.8,2.35,3.9,1.258,6.952,3.634,3.122,2.433,2.011,4.436,4.852,7.126,4.128,3.908,9.6,2.638,9.855,4.4.219,1.512-3.67,3.564-6.974,4.4-6.544,1.648-12.252-1.119-13.949-1.971-4.7-2.361-3.888-3.889-7.47-5.689-6-3.014-10.1.34-23.763.685-7.4.188-11.142.229-13.191-2.274-1.872-2.287-.888-4.795.235-15.6h0c.361-3.61,1.117-11.169,1.122-15.476,0-2.546-.88-6.705-2.646-15.024-.1-.491-1.06-4.985-1.832-10.988-.695-5.406-.594-7.067.382-8.584" fill="#fff"/>
        <g id="Grupo_181830" data-name="Grupo 181830" opacity="0.15" style="mix-blend-mode: multiply;isolation: isolate">
          <g id="Grupo_181829" data-name="Grupo 181829">
            <g id="Grupo_181828" data-name="Grupo 181828" clip-path="url(#clip-path-45)">
              <g id="Grupo_181827" data-name="Grupo 181827">
                <g id="Grupo_181826" data-name="Grupo 181826" clip-path="url(#clip-path-46)">
                  <rect id="Rectángulo_104116" data-name="Rectángulo 104116" width="61.034" height="75.421" transform="translate(173.239 176.063) rotate(-9.287)" fill="url(#linear-gradient-28)"/>
                </g>
              </g>
            </g>
          </g>
        </g>
        <path id="Trazado_246031" data-name="Trazado 246031" d="M189.572,188.214c-1.241,2.633,4.457,8.764,10.789,11.676,1.289.593,10.554,4.853,14.683.757,3.412-3.385,1.21-10.384.423-12.882-3.86-12.27-15.714-18.511-20.682-20.762-3.708,9.271-1.525,13.4-.665,14.691a49.361,49.361,0,0,0,6.065,6.672c1.872,1.753,3.038,2.607,2.881,2.881-.2.34-2.39-.3-10.912-4.451a3.312,3.312,0,0,0-2.582,1.418" fill="#fff"/>
      </g>
    </g>
    <g id="Grupo_181834" data-name="Grupo 181834">
      <g id="Grupo_181833" data-name="Grupo 181833" clip-path="url(#clip-path-47)">
        <rect id="Rectángulo_104119" data-name="Rectángulo 104119" width="17.795" height="19.416" transform="matrix(0.567, -0.824, 0.824, 0.567, 171.182, 164.807)" fill="url(#linear-gradient-29)"/>
      </g>
    </g>
    <g id="Grupo_181836" data-name="Grupo 181836">
      <g id="Grupo_181835" data-name="Grupo 181835" clip-path="url(#clip-path-48)">
        <rect id="Rectángulo_104120" data-name="Rectángulo 104120" width="7.873" height="7.951" transform="matrix(0.857, -0.516, 0.516, 0.857, 178.182, 156.784)" fill="url(#linear-gradient-30)"/>
      </g>
    </g>
    <g id="Grupo_181838" data-name="Grupo 181838">
      <g id="Grupo_181837" data-name="Grupo 181837" clip-path="url(#clip-path-49)">
        <rect id="Rectángulo_104121" data-name="Rectángulo 104121" width="10.237" height="9.25" transform="matrix(0.987, -0.161, 0.161, 0.987, 181.626, 181.437)" fill="url(#linear-gradient-31)"/>
      </g>
    </g>
    <g id="Grupo_181843" data-name="Grupo 181843">
      <g id="Grupo_181842" data-name="Grupo 181842" clip-path="url(#clip-path)">
        <path id="Trazado_246035" data-name="Trazado 246035" d="M174.974,314.762a.4.4,0,0,1-.4-.362l-7.226-78.1a.4.4,0,0,1,.794-.073l6.431,69.5V234.536a.4.4,0,0,1,.8,0v79.827a.4.4,0,0,1-.38.4h-.019" fill="#b7c0ce"/>
        <g id="Grupo_181841" data-name="Grupo 181841" opacity="0.81">
          <g id="Grupo_181840" data-name="Grupo 181840">
            <g id="Grupo_181839" data-name="Grupo 181839" clip-path="url(#clip-path-51)">
              <path id="Trazado_246036" data-name="Trazado 246036" d="M255.558,243.08l-79.28-8.686-152.31,6.923,79.77,9.552Z" fill="#f4f7fa"/>
            </g>
          </g>
        </g>
        <path id="Trazado_246037" data-name="Trazado 246037" d="M103.739,250.869l151.82-7.789v3.762l-151.82,7.789-79.77-9.552v-3.762Z" fill="#b7c0ce"/>
        <path id="Trazado_246038" data-name="Trazado 246038" d="M104.277,342h-.016a.4.4,0,0,1-.383-.4V253.715a.4.4,0,0,1,.8,0v77.674l6.077-77.705a.4.4,0,0,1,.795.062l-6.873,87.887a.4.4,0,0,1-.4.368" fill="#b7c0ce"/>
        <path id="Trazado_246039" data-name="Trazado 246039" d="M24.84,326.389h-.016a.4.4,0,0,1-.383-.4V244.871a.4.4,0,0,1,.8,0v70.948l5.573-70.979a.4.4,0,0,1,.8.063l-6.37,81.119a.4.4,0,0,1-.4.367" fill="#b7c0ce"/>
        <path id="Trazado_246040" data-name="Trazado 246040" d="M254.807,326.389a.4.4,0,0,1-.4-.366L247.647,244.9a.4.4,0,1,1,.794-.067l5.967,71.571V246.842a.4.4,0,0,1,.8,0V325.99a.4.4,0,0,1-.382.4h-.017" fill="#b7c0ce"/>
      </g>
    </g>
    <g id="Grupo_181845" data-name="Grupo 181845">
      <g id="Grupo_181844" data-name="Grupo 181844" clip-path="url(#clip-path-52)">
        <rect id="Rectángulo_104124" data-name="Rectángulo 104124" width="5.553" height="5.017" transform="translate(82.293 318.268) rotate(-33.606)" fill="url(#linear-gradient-32)"/>
      </g>
    </g>
    <g id="Grupo_181847" data-name="Grupo 181847">
      <g id="Grupo_181846" data-name="Grupo 181846" clip-path="url(#clip-path-53)">
        <rect id="Rectángulo_104125" data-name="Rectángulo 104125" width="2.9" height="5.807" transform="translate(82.812 312.747) rotate(-2.854)" fill="url(#linear-gradient-33)"/>
      </g>
    </g>
    <g id="Grupo_181849" data-name="Grupo 181849">
      <g id="Grupo_181848" data-name="Grupo 181848" clip-path="url(#clip-path-54)">
        <rect id="Rectángulo_104126" data-name="Rectángulo 104126" width="4.57" height="4.128" transform="matrix(0.833, -0.553, 0.553, 0.833, 81.165, 318.652)" fill="url(#linear-gradient-34)"/>
      </g>
    </g>
    <g id="Grupo_181851" data-name="Grupo 181851">
      <g id="Grupo_181850" data-name="Grupo 181850" clip-path="url(#clip-path-55)">
        <rect id="Rectángulo_104127" data-name="Rectángulo 104127" width="5.589" height="5.47" transform="matrix(0.747, -0.665, 0.665, 0.747, 97.024, 322.019)" fill="url(#linear-gradient-35)"/>
      </g>
    </g>
    <g id="Grupo_181853" data-name="Grupo 181853">
      <g id="Grupo_181852" data-name="Grupo 181852" clip-path="url(#clip-path-56)">
        <rect id="Rectángulo_104128" data-name="Rectángulo 104128" width="4.441" height="6.437" transform="translate(95.691 316.701) rotate(-11.104)" fill="url(#linear-gradient-36)"/>
      </g>
    </g>
    <g id="Grupo_181855" data-name="Grupo 181855">
      <g id="Grupo_181854" data-name="Grupo 181854" clip-path="url(#clip-path-57)">
        <rect id="Rectángulo_104129" data-name="Rectángulo 104129" width="4.461" height="4.37" transform="translate(96.071 322.608) rotate(-41.653)" fill="url(#linear-gradient-37)"/>
      </g>
    </g>
    <g id="Grupo_181857" data-name="Grupo 181857">
      <g id="Grupo_181856" data-name="Grupo 181856" clip-path="url(#clip-path)">
        <path id="Trazado_246047" data-name="Trazado 246047" d="M88.134,248.984l10.228-23.96a2.105,2.105,0,0,0-1.44-2.873L78.186,217.6a2.108,2.108,0,0,0-2.447,1.251l-9.407,23.028a2.106,2.106,0,0,0,1.333,2.811l17.916,5.481a2.106,2.106,0,0,0,2.553-1.187" fill="#26264f"/>
      </g>
    </g>
    <g id="Grupo_181859" data-name="Grupo 181859">
      <g id="Grupo_181858" data-name="Grupo 181858" clip-path="url(#clip-path-59)">
        <rect id="Rectángulo_104131" data-name="Rectángulo 104131" width="41.389" height="41.416" transform="translate(54.458 242.945) rotate(-63.122)" fill="url(#linear-gradient-38)"/>
      </g>
    </g>
    <g id="Grupo_181866" data-name="Grupo 181866">
      <g id="Grupo_181865" data-name="Grupo 181865" clip-path="url(#clip-path)">
        <path id="Trazado_246049" data-name="Trazado 246049" d="M93.569,241.253l.307-2.823,1.627-3.1a2.955,2.955,0,0,0,.337-1.369v-3.08l-1.964,4.542a14.761,14.761,0,0,0-1.78-1.411c-.491-.246-.43.736-.061,1.1s-.185,3.376.184,3.683l-.123,1.841Z" fill="#fff"/>
        <path id="Trazado_246050" data-name="Trazado 246050" d="M77.98,223.269c-1.527-3.735-4.806-5.883-6.506-7-4.022-2.635-6.6-2.154-15.835-3.56-12.311-1.873-13.784-3.648-17.922-2.209-5.435,1.889-8.274,6.823-9.574,9.083-6.559,11.4,1.109,17.191-.86,39.895-.8,9.272-2.865,17.33,2.087,22.1,1.043,1,2.209,1.528,4.542,2.578,9.251,4.163,17.546,3.445,22.586,2.946,5.547-.549,8.35-.864,9.821-2.823,2.349-3.13-.07-7.109-.491-13.994-.3-4.943.821-8.86,3.068-16.694,5.226-18.213,12.01-23.164,9.084-30.32" fill="#fdb74d"/>
        <path id="Trazado_246051" data-name="Trazado 246051" d="M57.374,205.994a5.926,5.926,0,0,0-.635-4.244c-.9-1.668-1.136-1.9-1.568-2.185l-.6-.37-.072-.027a6.927,6.927,0,0,0-1.962-.12c-.849.181-1.753,3.639-1.495,8.528q-.052.28-.1.564-.2,1.158-.322,2.269c-.078.708-1.082.692-1.793.646-2.884-.184-4.3.062-4.419.491-.23.8,3.192,3.437,7.417,4.029,5.67.043,10.283-.561,9.787-1.454-.22-.4-4.614-1.544-5.849-2.682a3.782,3.782,0,0,1-1.132-2.888c.343-.178,2.331-1.086,2.744-2.557" fill="#fff"/>
        <path id="Trazado_246052" data-name="Trazado 246052" d="M56.331,197.806a5.692,5.692,0,0,1-1.082,3.392,2.526,2.526,0,0,0-.549.6.747.747,0,0,0-.086.179c-.332.954,1.186,2.077.893,2.5-.213.31-1.244-.1-1.367.163-.116.252.742.774.61,1.075-.1.228-.626.02-.959.369-.166.174-.117.311-.293.843a4.77,4.77,0,0,1-.346.812c-.523.889-2.006,1.214-2.291.858-.08-.1-.011-.182-.092-.515a2.7,2.7,0,0,0-.29-.665,6.9,6.9,0,0,0-1.794-1.412,4.894,4.894,0,0,1-1.872-2.132c-.041-.1-.066-.18-.084-.235a5.634,5.634,0,0,1,.141-3.765c.841-1.689,2.738-.887,4.29-2.561,1.791-1.932.725-4.571,1.7-4.863,1.071-.321,3.483,2.551,3.474,5.352" fill="#26264f"/>
        <path id="Trazado_246053" data-name="Trazado 246053" d="M54.962,204.126c-.371-.51-1.024-.031-1.027.629s.635,1.346,1.256,1.216.271-1.158-.229-1.845" fill="#fff"/>
        <path id="Trazado_246054" data-name="Trazado 246054" d="M54.661,203.022l.861,1.12s.929,1.373,1.471.621c.443-.614.557-.6.585-.575.005,0,.006.012.007.012s-.065-.306-.13-.573a5.053,5.053,0,0,1,.737,1.582,2.8,2.8,0,0,1-.009,2.162,2.151,2.151,0,0,1-1.266.99,5.663,5.663,0,0,1-1.664-.164s1.471-1.067,1.493-1.32c.061-.69-.895-1.062-1.6-2.475a5.7,5.7,0,0,1-.48-1.38" fill="#26264f"/>
        <g id="Grupo_181864" data-name="Grupo 181864" opacity="0.3" style="mix-blend-mode: multiply;isolation: isolate">
          <g id="Grupo_181863" data-name="Grupo 181863">
            <g id="Grupo_181862" data-name="Grupo 181862" clip-path="url(#clip-path-61)">
              <g id="Grupo_181861" data-name="Grupo 181861">
                <g id="Grupo_181860" data-name="Grupo 181860" clip-path="url(#clip-path-62)">
                  <rect id="Rectángulo_104132" data-name="Rectángulo 104132" width="72.444" height="72.973" transform="matrix(0.723, -0.691, 0.691, 0.723, 1.415, 257.178)" fill="url(#linear-gradient-39)"/>
                </g>
              </g>
            </g>
          </g>
        </g>
        <path id="Trazado_246056" data-name="Trazado 246056" d="M94.122,240.7l-2.7-1.166c-1.521,1.556-3.461,3.069-5.094,2.578-2.433-.733-1.825-5.209-4.787-13.073-3.357-8.911-7.165-11.2-9.084-12.03a4.111,4.111,0,0,0-2.7-.553c-4.092,1-5.445,11.663-4.3,19.641.647,4.495,1.915,13.308,9.145,17.492,1.027.594,6.681,3.866,12.276,1.289,4.779-2.2,7.733-7.849,7.242-14.178" fill="#fdb74d"/>
      </g>
    </g>
    <g id="Grupo_181868" data-name="Grupo 181868">
      <g id="Grupo_181867" data-name="Grupo 181867" clip-path="url(#clip-path-63)">
        <rect id="Rectángulo_104135" data-name="Rectángulo 104135" width="84.12" height="88.666" transform="translate(-2.078 295.944) rotate(-54.462)" fill="url(#linear-gradient-40)"/>
      </g>
    </g>
    <g id="Grupo_181870" data-name="Grupo 181870">
      <g id="Grupo_181869" data-name="Grupo 181869" clip-path="url(#clip-path-64)">
        <rect id="Rectángulo_104136" data-name="Rectángulo 104136" width="71.709" height="52.155" transform="translate(35.945 265.641)" fill="url(#linear-gradient-41)"/>
      </g>
    </g>
    <g id="Grupo_181882" data-name="Grupo 181882">
      <g id="Grupo_181881" data-name="Grupo 181881" clip-path="url(#clip-path)">
        <path id="Trazado_246059" data-name="Trazado 246059" d="M24.6,335.347c0,5.593,11.11,10.127,24.814,10.127s24.814-4.534,24.814-10.127S63.119,325.22,49.414,325.22,24.6,329.754,24.6,335.347" fill="#b7c0ce"/>
        <path id="Trazado_246060" data-name="Trazado 246060" d="M24.6,334.16c0,5.28,11.11,9.56,24.814,9.56s24.814-4.28,24.814-9.56-11.109-13.919-24.814-13.919S24.6,328.88,24.6,334.16" fill="#fff"/>
        <g id="Grupo_181875" data-name="Grupo 181875" opacity="0.3" style="mix-blend-mode: multiply;isolation: isolate">
          <g id="Grupo_181874" data-name="Grupo 181874">
            <g id="Grupo_181873" data-name="Grupo 181873" clip-path="url(#clip-path-66)">
              <g id="Grupo_181872" data-name="Grupo 181872">
                <g id="Grupo_181871" data-name="Grupo 181871" clip-path="url(#clip-path-67)">
                  <rect id="Rectángulo_104137" data-name="Rectángulo 104137" width="41.746" height="18.61" transform="translate(24.6 320.241)" fill="url(#linear-gradient-42)"/>
                </g>
              </g>
            </g>
          </g>
        </g>
        <path id="Trazado_246062" data-name="Trazado 246062" d="M48.055,325.037a5.623,5.623,0,0,0,2.787.016,1.794,1.794,0,0,0,1.331-1.745v-27.98H46.655v27.947a1.827,1.827,0,0,0,1.4,1.762" fill="#fff"/>
        <g id="Grupo_181880" data-name="Grupo 181880" opacity="0.65" style="mix-blend-mode: multiply;isolation: isolate">
          <g id="Grupo_181879" data-name="Grupo 181879">
            <g id="Grupo_181878" data-name="Grupo 181878" clip-path="url(#clip-path-68)">
              <g id="Grupo_181877" data-name="Grupo 181877">
                <g id="Grupo_181876" data-name="Grupo 181876" clip-path="url(#clip-path-69)">
                  <rect id="Rectángulo_104139" data-name="Rectángulo 104139" width="5.518" height="29.956" transform="translate(46.655 295.327)" fill="url(#linear-gradient-43)"/>
                </g>
              </g>
            </g>
          </g>
        </g>
      </g>
    </g>
    <g id="Grupo_181884" data-name="Grupo 181884">
      <g id="Grupo_181883" data-name="Grupo 181883" clip-path="url(#clip-path-70)">
        <rect id="Rectángulo_104142" data-name="Rectángulo 104142" width="84.655" height="87.156" transform="translate(-13.437 280.881) rotate(-52.496)" fill="url(#linear-gradient-44)"/>
      </g>
    </g>
    <g id="Grupo_181895" data-name="Grupo 181895">
      <g id="Grupo_181894" data-name="Grupo 181894" clip-path="url(#clip-path)">
        <g id="Grupo_181887" data-name="Grupo 181887" opacity="0.26" style="mix-blend-mode: soft-light;isolation: isolate">
          <g id="Grupo_181886" data-name="Grupo 181886">
            <g id="Grupo_181885" data-name="Grupo 181885" clip-path="url(#clip-path-72)">
              <path id="Trazado_246065" data-name="Trazado 246065" d="M74.693,287.346c-.312-1.874-5.534-.32-10.474-3.99-7.384-5.485-3.551-14.777-9.975-23.69-5.894-8.18-17.762-12.344-21.446-9.227-4.9,4.149,7.1,19.664,0,29.675-3.447,4.863-8.7,4.629-8.728,7.481-.042,4.508,13.031,9.7,25.436,9.477,13.336-.245,25.682-6.752,25.187-9.726" fill="#fff"/>
            </g>
          </g>
        </g>
        <path id="Trazado_246066" data-name="Trazado 246066" d="M196.029,244.145l-54.473-.4v1.2a.66.66,0,0,0,.56.652l15.4,2.361a2.5,2.5,0,0,0,.553.023l37.365-2.693a.638.638,0,0,0,.592-.636Z" fill="#bfc8d6"/>
        <path id="Trazado_246067" data-name="Trazado 246067" d="M176.261,242.163l-34.141,2.194a.983.983,0,0,1-1.108-.932v-22.2a1.06,1.06,0,0,1,1.108-1h34.141a.908.908,0,0,1,.91.907V241.2a.982.982,0,0,1-.91.965" fill="#bfc8d6"/>
        <path id="Trazado_246068" data-name="Trazado 246068" d="M176.806,242.163l-34.141,2.194a.983.983,0,0,1-1.108-.932v-22.2a1.06,1.06,0,0,1,1.108-1h34.141a.908.908,0,0,1,.91.907V241.2a.982.982,0,0,1-.91.965" fill="#d8dee8"/>
        <path id="Trazado_246069" data-name="Trazado 246069" d="M175.742,240.748l-31.8,1.906a.8.8,0,0,1-.9-.765V222.457a.867.867,0,0,1,.9-.822l31.8-.12a.745.745,0,0,1,.751.743v17.7a.805.805,0,0,1-.751.791" fill="#eff2f6"/>
        <path id="Trazado_246070" data-name="Trazado 246070" d="M160.941,220.834a.394.394,0,1,1-.393-.373.384.384,0,0,1,.393.373" fill="#fff"/>
        <g id="Grupo_181890" data-name="Grupo 181890" opacity="0.48" style="mix-blend-mode: soft-light;isolation: isolate">
          <g id="Grupo_181889" data-name="Grupo 181889">
            <g id="Grupo_181888" data-name="Grupo 181888" clip-path="url(#clip-path-73)">
              <path id="Trazado_246071" data-name="Trazado 246071" d="M168.718,236.086c-2.646-1.289-4.726.344-6.733-1.267-1.217-.977-.62-1.705-2.117-3.165-1.659-1.616-2.739-1.073-4.406-2.528-2.107-1.84-1.053-3.271-2.869-4.592-2.2-1.6-4.578-.119-6.674-1.656a4.551,4.551,0,0,1-1.66-2.651h-2.051a.623.623,0,0,0-.652.589v23.023a.578.578,0,0,0,.652.547l34.974-2.248a.573.573,0,0,0,.421-.233,8.329,8.329,0,0,1-5.138-1.665c-1.967-1.571-1.626-3.121-3.747-4.154" fill="#fff"/>
            </g>
          </g>
        </g>
        <path id="Trazado_246072" data-name="Trazado 246072" d="M178.166,242.1l-36.61,2.309,15.963,2.448a2.486,2.486,0,0,0,.552.022l37.958-2.735-17.281-2.028a3.233,3.233,0,0,0-.582-.016" fill="#fff"/>
        <g id="Grupo_181893" data-name="Grupo 181893" opacity="0.47">
          <g id="Grupo_181892" data-name="Grupo 181892">
            <g id="Grupo_181891" data-name="Grupo 181891" clip-path="url(#clip-path-74)">
              <path id="Trazado_246073" data-name="Trazado 246073" d="M146.9,244.431l30.479-1.951,9.433,1.1-30.217,2.086Z" fill="#d8dee8"/>
            </g>
          </g>
        </g>
      </g>
    </g>
    <g id="Grupo_181897" data-name="Grupo 181897">
      <g id="Grupo_181896" data-name="Grupo 181896" clip-path="url(#clip-path-75)">
        <rect id="Rectángulo_104147" data-name="Rectángulo 104147" width="11.332" height="5.135" transform="matrix(0.997, -0.078, 0.078, 0.997, 176.522, 313.774)" fill="url(#linear-gradient-45)"/>
      </g>
    </g>
    <g id="Grupo_181899" data-name="Grupo 181899">
      <g id="Grupo_181898" data-name="Grupo 181898" clip-path="url(#clip-path-76)">
        <rect id="Rectángulo_104148" data-name="Rectángulo 104148" width="4.925" height="3.923" transform="translate(183.886 315.057) rotate(-80.944)" fill="url(#linear-gradient-46)"/>
      </g>
    </g>
    <g id="Grupo_181901" data-name="Grupo 181901">
      <g id="Grupo_181900" data-name="Grupo 181900" clip-path="url(#clip-path-77)">
        <rect id="Rectángulo_104149" data-name="Rectángulo 104149" width="11.332" height="5.135" transform="translate(154.128 312.251) rotate(-4.493)" fill="url(#linear-gradient-47)"/>
      </g>
    </g>
    <g id="Grupo_181903" data-name="Grupo 181903">
      <g id="Grupo_181902" data-name="Grupo 181902" clip-path="url(#clip-path-78)">
        <rect id="Rectángulo_104150" data-name="Rectángulo 104150" width="4.925" height="3.923" transform="translate(161.491 313.532) rotate(-80.945)" fill="url(#linear-gradient-48)"/>
      </g>
    </g>
    <g id="Grupo_181905" data-name="Grupo 181905">
      <g id="Grupo_181904" data-name="Grupo 181904" clip-path="url(#clip-path-79)">
        <rect id="Rectángulo_104151" data-name="Rectángulo 104151" width="79.787" height="83.585" transform="translate(152.83 295.588) rotate(-56.094)" fill="url(#linear-gradient-49)"/>
      </g>
    </g>
    <g id="Grupo_181907" data-name="Grupo 181907">
      <g id="Grupo_181906" data-name="Grupo 181906" clip-path="url(#clip-path-80)">
        <rect id="Rectángulo_104152" data-name="Rectángulo 104152" width="74.216" height="48.17" transform="translate(160.987 263.937)" fill="url(#linear-gradient-50)"/>
      </g>
    </g>
    <g id="Grupo_181909" data-name="Grupo 181909">
      <g id="Grupo_181908" data-name="Grupo 181908" clip-path="url(#clip-path-81)">
        <rect id="Rectángulo_104153" data-name="Rectángulo 104153" width="92.117" height="91.416" transform="translate(152.461 250.41) rotate(-46.322)" fill="url(#linear-gradient-51)"/>
      </g>
    </g>
    <g id="Grupo_181911" data-name="Grupo 181911">
      <g id="Grupo_181910" data-name="Grupo 181910" clip-path="url(#clip-path-82)">
        <rect id="Rectángulo_104154" data-name="Rectángulo 104154" width="5.585" height="12.673" transform="matrix(0.214, -0.977, 0.977, 0.214, 154.158, 245.42)" fill="url(#linear-gradient-52)"/>
      </g>
    </g>
    <g id="Grupo_181913" data-name="Grupo 181913">
      <g id="Grupo_181912" data-name="Grupo 181912" clip-path="url(#clip-path-83)">
        <rect id="Rectángulo_104155" data-name="Rectángulo 104155" width="23.067" height="22.377" transform="translate(195.983 200.937) rotate(-23.552)" fill="url(#linear-gradient-53)"/>
      </g>
    </g>
    <g id="Grupo_181915" data-name="Grupo 181915">
      <g id="Grupo_181914" data-name="Grupo 181914" clip-path="url(#clip-path)">
        <path id="Trazado_246083" data-name="Trazado 246083" d="M207.837,197.071c-.466,1.028.665,3.093,1.082,3.392a2.512,2.512,0,0,1,.549.6.775.775,0,0,1,.086.18c.332.954-1.186,2.077-.893,2.5.213.31,1.244-.1,1.367.163.116.252-.742.774-.61,1.075.1.228.626.02.959.369a1.276,1.276,0,0,1,.293.843c.041,1.357-3.036,6.258-3.677,8.469-.68,2.345.536,4.577,4.954,10.745,6.284,8.774,9.426,13.161,11.172,14.415,8.538,6.129,18.577,5.378,22.693,4.738,4.946-.768,15.163-2.355,18.454-10.224,3.782-9.045-3.665-21.423-11.3-23.524-3.494-.961-5.354.5-9.892-1.081-5.011-1.744-4.4-4.827-9.044-6.648-6.188-2.429-10.181,1.913-14.4-1.249-2.294-1.72-1.916-3.609-4.738-4.987-2.784-1.36-6.442-1.128-7.053.22" fill="#26264f"/>
      </g>
    </g>
    <g id="Grupo_181917" data-name="Grupo 181917">
      <g id="Grupo_181916" data-name="Grupo 181916" clip-path="url(#clip-path-85)">
        <rect id="Rectángulo_104157" data-name="Rectángulo 104157" width="2.599" height="2.759" transform="matrix(0.917, -0.4, 0.4, 0.917, 207.554, 203.526)" fill="url(#linear-gradient-54)"/>
      </g>
    </g>
    <g id="Grupo_181924" data-name="Grupo 181924">
      <g id="Grupo_181923" data-name="Grupo 181923" clip-path="url(#clip-path)">
        <g id="Grupo_181922" data-name="Grupo 181922" opacity="0.3" style="mix-blend-mode: multiply;isolation: isolate">
          <g id="Grupo_181921" data-name="Grupo 181921">
            <g id="Grupo_181920" data-name="Grupo 181920" clip-path="url(#clip-path-87)">
              <g id="Grupo_181919" data-name="Grupo 181919">
                <g id="Grupo_181918" data-name="Grupo 181918" clip-path="url(#clip-path-88)">
                  <rect id="Rectángulo_104158" data-name="Rectángulo 104158" width="72.972" height="72.444" transform="matrix(0.691, -0.723, 0.723, 0.691, 166.944, 258.095)" fill="url(#linear-gradient-55)"/>
                </g>
              </g>
            </g>
          </g>
        </g>
      </g>
    </g>
    <g id="Grupo_181926" data-name="Grupo 181926">
      <g id="Grupo_181925" data-name="Grupo 181925" clip-path="url(#clip-path-89)">
        <rect id="Rectángulo_104161" data-name="Rectángulo 104161" width="57.25" height="57.298" transform="translate(145.728 235.361) rotate(-46.322)" fill="url(#linear-gradient-56)"/>
      </g>
    </g>
    <g id="Grupo_181938" data-name="Grupo 181938">
      <g id="Grupo_181937" data-name="Grupo 181937" clip-path="url(#clip-path)">
        <path id="Trazado_246087" data-name="Trazado 246087" d="M243,329.941c0,5.593-11.11,10.127-24.814,10.127s-24.814-4.534-24.814-10.127,11.11-10.127,24.814-10.127S243,324.348,243,329.941" fill="#b7c0ce"/>
        <path id="Trazado_246088" data-name="Trazado 246088" d="M243,328.754c0,5.28-11.11,9.56-24.814,9.56s-24.814-4.28-24.814-9.56,11.11-13.919,24.814-13.919S243,323.474,243,328.754" fill="#fff"/>
        <g id="Grupo_181931" data-name="Grupo 181931" opacity="0.3" style="mix-blend-mode: multiply;isolation: isolate">
          <g id="Grupo_181930" data-name="Grupo 181930">
            <g id="Grupo_181929" data-name="Grupo 181929" clip-path="url(#clip-path-91)">
              <g id="Grupo_181928" data-name="Grupo 181928">
                <g id="Grupo_181927" data-name="Grupo 181927" clip-path="url(#clip-path-92)">
                  <rect id="Rectángulo_104162" data-name="Rectángulo 104162" width="41.746" height="18.61" transform="translate(201.25 314.835)" fill="url(#linear-gradient-57)"/>
                </g>
              </g>
            </g>
          </g>
        </g>
        <path id="Trazado_246090" data-name="Trazado 246090" d="M219.542,319.631a5.623,5.623,0,0,1-2.787.016,1.793,1.793,0,0,1-1.331-1.745V289.921h5.517v27.948a1.826,1.826,0,0,1-1.4,1.762" fill="#fff"/>
        <g id="Grupo_181936" data-name="Grupo 181936" opacity="0.65" style="mix-blend-mode: multiply;isolation: isolate">
          <g id="Grupo_181935" data-name="Grupo 181935">
            <g id="Grupo_181934" data-name="Grupo 181934" clip-path="url(#clip-path-93)">
              <g id="Grupo_181933" data-name="Grupo 181933">
                <g id="Grupo_181932" data-name="Grupo 181932" clip-path="url(#clip-path-94)">
                  <rect id="Rectángulo_104164" data-name="Rectángulo 104164" width="5.518" height="29.956" transform="translate(215.423 289.921)" fill="url(#linear-gradient-58)"/>
                </g>
              </g>
            </g>
          </g>
        </g>
      </g>
    </g>
    <g id="Grupo_181940" data-name="Grupo 181940">
      <g id="Grupo_181939" data-name="Grupo 181939" clip-path="url(#clip-path-95)">
        <rect id="Rectángulo_104167" data-name="Rectángulo 104167" width="87.156" height="84.655" transform="translate(160.352 261.38) rotate(-37.504)" fill="url(#linear-gradient-59)"/>
      </g>
    </g>
    <g id="Grupo_181945" data-name="Grupo 181945">
      <g id="Grupo_181944" data-name="Grupo 181944" clip-path="url(#clip-path)">
        <g id="Grupo_181943" data-name="Grupo 181943" opacity="0.26" style="mix-blend-mode: soft-light;isolation: isolate">
          <g id="Grupo_181942" data-name="Grupo 181942">
            <g id="Grupo_181941" data-name="Grupo 181941" clip-path="url(#clip-path-97)">
              <path id="Trazado_246093" data-name="Trazado 246093" d="M192.9,281.94c.312-1.874,5.534-.32,10.474-3.99,7.384-5.485,3.551-14.777,9.975-23.69,5.894-8.18,17.762-12.344,21.446-9.227,4.9,4.149-7.1,19.664,0,29.675,3.447,4.863,8.7,4.629,8.728,7.481.042,4.508-13.031,9.7-25.436,9.477-13.336-.245-25.681-6.752-25.187-9.726" fill="#fff"/>
            </g>
          </g>
        </g>
      </g>
    </g>
  </g>
</svg>
