<svg id="Grupo_180905" data-name="Grupo 180905" xmlns="http://www.w3.org/2000/svg" xmlns:xlink="http://www.w3.org/1999/xlink" width="311.677" height="740.192" viewBox="0 0 311.677 740.192">
  <defs>
    <clipPath id="clip-path">
      <rect id="Rectángulo_103723" data-name="Rectángulo 103723" width="311.677" height="740.192" fill="none"/>
    </clipPath>
    <clipPath id="clip-path-2">
      <rect id="Rectángulo_103689" data-name="Rectángulo 103689" width="311.677" height="740.193" transform="translate(0 -0.001)" fill="none"/>
    </clipPath>
    <clipPath id="clip-path-3">
      <rect id="Rectángulo_103687" data-name="Rectángulo 103687" width="308.354" height="213.531" transform="translate(0 507.869)" fill="none"/>
    </clipPath>
    <clipPath id="clip-path-4">
      <rect id="Rectángulo_103688" data-name="Rectángulo 103688" width="45.541" height="45.541" transform="translate(18.626 594.231)" fill="none"/>
    </clipPath>
    <clipPath id="clip-path-5">
      <path id="Trazado_245519" data-name="Trazado 245519" d="M43.59,110.119c-13.422,25.662,16.787,37.849,16.787,37.849s-26.252,51.414,13.355,86.746,73.657,10.206,73.657,10.206l22.059-69.934S125,233.619,93.44,213.31s-23.46-48.1-18.049-69.121c2.557-5.658.761-12.554-2.98-15.652a14.468,14.468,0,0,1-4.715-9.312s-5.611,6.488-2.5,11.238a5.083,5.083,0,0,1,.627,4.6c-.461-.225-.939-.449-1.442-.671-10-4.39-14.762-16.754-16.731-23.84a2.17,2.17,0,0,0-2.123-1.606,2.148,2.148,0,0,0-1.934,1.175" fill="none"/>
    </clipPath>
    <linearGradient id="linear-gradient" x1="0.009" y1="3.117" x2="0.014" y2="3.117" gradientUnits="objectBoundingBox">
      <stop offset="0" stop-color="#febbba"/>
      <stop offset="1" stop-color="#ff928e"/>
    </linearGradient>
    <clipPath id="clip-path-7">
      <path id="Trazado_245522" data-name="Trazado 245522" d="M179.773,121.514c2.205,7.064,3.731,46.512,3.731,46.512a29.863,29.863,0,0,0,29.972,4.827c-1.05-17.423-15.012-56.918-15.012-56.918Z" fill="none"/>
    </clipPath>
    <linearGradient id="linear-gradient-2" x1="-2.226" y1="10.894" x2="-2.212" y2="10.894" xlink:href="#linear-gradient"/>
    <clipPath id="clip-path-8">
      <path id="Trazado_245523" data-name="Trazado 245523" d="M179.069,62.085s-36.521,51.108-14.69,65.953,47.828-21.475,47.828-21.475,8.474-27.974-.387-37.462c-5.823-6.237-18.141-7.306-25.9-7.306-4.047,0-6.852.29-6.852.29" fill="none"/>
    </clipPath>
    <linearGradient id="linear-gradient-3" x1="-1.231" y1="6.495" x2="-1.221" y2="6.495" xlink:href="#linear-gradient"/>
    <clipPath id="clip-path-10">
      <path id="Trazado_245525" data-name="Trazado 245525" d="M205.127,102.8l.689,7.79c6.386,5.269,24.834-2.788,19.18-13.52-1.39-2.639-3.3-3.634-5.383-3.634-6.4,0-14.486,9.364-14.486,9.364" fill="none"/>
    </clipPath>
    <linearGradient id="linear-gradient-4" x1="-6.189" y1="20.963" x2="-6.158" y2="20.963" xlink:href="#linear-gradient"/>
    <clipPath id="clip-path-11">
      <path id="Trazado_245526" data-name="Trazado 245526" d="M127.092,505.672a19.314,19.314,0,0,0,2.08,13.86l91.759,154.436a21.058,21.058,0,0,1,2.409,6.009c1.682,7.247,5.17,25.009,3.349,41.167L221.942,731l20.53-4.661,4.466-55.132-5.812-3.545a27.618,27.618,0,0,1-11.169-13.075c-8.3-20.154-28.9-71.458-34.212-96.461-6.037-28.416-37.591-51.5-37.591-51.5l5.543-13.106-29.2-24.356c.107,2.773-4.761,24.767-7.41,36.5" fill="none"/>
    </clipPath>
    <linearGradient id="linear-gradient-5" x1="-0.302" y1="0.987" x2="-0.297" y2="0.987" xlink:href="#linear-gradient"/>
    <clipPath id="clip-path-12">
      <path id="Trazado_245527" data-name="Trazado 245527" d="M241.126,667.665s-3.221,33.237-2.11,46.223-14.681,12.568-14.681,12.568a14.748,14.748,0,0,0-7.539,3.8,3.7,3.7,0,0,0,2.478,6.218,88.9,88.9,0,0,0,21.994-1.244,6.728,6.728,0,0,0,5.427-6.209l2.276-38.251,13.984,17.658,2.333-1.055S254.2,689.794,252.9,682.952c-1.139-5.977-4.054-15.954-9.331-15.955a5.181,5.181,0,0,0-2.439.668" fill="none"/>
    </clipPath>
    <linearGradient id="linear-gradient-6" x1="-2.909" y1="1.245" x2="-2.895" y2="1.245" gradientUnits="objectBoundingBox">
      <stop offset="0" stop-color="#09005d"/>
      <stop offset="1" stop-color="#1a0f91"/>
    </linearGradient>
    <clipPath id="clip-path-13">
      <path id="Trazado_245528" data-name="Trazado 245528" d="M189.319,493.772s3.236,138.143,3.674,157.763-3.1,63.1-22.766,76.1l8.558,6.336s10.7-9.091,21.145-26.586c11.738-19.653,15.288-23.245,15.288-23.245l-3.9-7.976A17.532,17.532,0,0,1,209.9,664.91c4.244-20.572,18.423-88.994,22.291-103.729,4.565-17.393,4.89-40.621-10.994-60.064-7.076-8.662-14.176-11.064-19.873-11.065a21.547,21.547,0,0,0-12.007,3.72" fill="none"/>
    </clipPath>
    <linearGradient id="linear-gradient-7" x1="-0.306" y1="1.416" x2="-0.302" y2="1.416" xlink:href="#linear-gradient"/>
    <clipPath id="clip-path-14">
      <path id="Trazado_245529" data-name="Trazado 245529" d="M181.995,725.765c-5.2,5.339-11.768,1.865-11.768,1.865a19.587,19.587,0,0,0-8.892,6.383,3.589,3.589,0,0,0,2.828,5.766l18.255.174a12.846,12.846,0,0,0,12.041-8.092c3.213-8.026,8.733-19.8,15.166-25.021l-3.342,32.008a1.216,1.216,0,0,0,1.2,1.344h.015a1.207,1.207,0,0,0,1.2-1.035c.655-4.606,3.379-23.07,5.609-27.85,2.554-5.476,10.9-28.522,0-30.477,0,0-27.1,39.6-32.305,44.935" fill="none"/>
    </clipPath>
    <linearGradient id="linear-gradient-8" x1="-2.707" y1="0.948" x2="-2.69" y2="0.948" xlink:href="#linear-gradient-6"/>
    <clipPath id="clip-path-15">
      <path id="Trazado_245530" data-name="Trazado 245530" d="M166.646,326.034s4.113,13.112-2.207,34.708l-39.2,136.9a4.239,4.239,0,0,0,2.651,5.158c11.727,4.209,50.276,16.105,102.9,12.477a5.975,5.975,0,0,0,5.447-4.651c3.468-15.608,15.3-68.858,17.734-79.8,9.281-41.692,19.645-86.652-25.947-113.839-21.011,9-40.608,14.3-61.374,9.043" fill="none"/>
    </clipPath>
    <linearGradient id="linear-gradient-9" x1="-0.416" y1="1.817" x2="-0.411" y2="1.817" xlink:href="#linear-gradient-6"/>
    <clipPath id="clip-path-16">
      <path id="Trazado_245531" data-name="Trazado 245531" d="M223.384,219.069a22.883,22.883,0,0,0,6.677,9.092c50.554,42.076,38.306,69.834,18.493,78.809-20.341,9.213-13.68-2.156-28.059-2.22-6.636-.028-12.625,5.131-15.941,10.291-3.869,6.019-4.1,12.038,2.514,9.819,12.29-4.123,22.641,7.437,22.641,7.437s76.25-5.384,65.18-56.038-55.675-87.724-55.675-87.724c-3.759-2.187-7.072-3.2-9.868-3.2-10.492,0-13.717,14.211-5.962,33.731" fill="none"/>
    </clipPath>
    <linearGradient id="linear-gradient-10" x1="-0.993" y1="3.162" x2="-0.987" y2="3.162" xlink:href="#linear-gradient"/>
    <clipPath id="clip-path-18">
      <rect id="Rectángulo_103704" data-name="Rectángulo 103704" width="61.36" height="53.252" transform="translate(73.527 333.272)" fill="none"/>
    </clipPath>
    <clipPath id="clip-path-19">
      <path id="Trazado_245532" data-name="Trazado 245532" d="M73.637,380.7a1.053,1.053,0,0,1,1.411-.475c1.011.5,2.059.968,3.115,1.384a1.053,1.053,0,0,1,.6,1.346l-.007.019a1.052,1.052,0,0,1-1.365.593c-1.112-.438-2.216-.928-3.28-1.456a1.053,1.053,0,0,1-.519-1.309c.013-.034.027-.068.044-.1m9.806,2.582c1.1.268,2.227.492,3.343.665a1.052,1.052,0,0,1-.323,2.079c-1.174-.181-2.357-.417-3.517-.7a1.051,1.051,0,0,1-.774-1.271,1.188,1.188,0,0,1,.036-.12,1.054,1.054,0,0,1,1.235-.654m8.858,1.129c1.132.016,2.277-.017,3.406-.1a1.053,1.053,0,0,1,.151,2.1c-1.189.085-2.4.12-3.587.1a1.052,1.052,0,0,1,.03-2.1m8.888-.881c1.108-.237,2.218-.526,3.3-.857a1.053,1.053,0,1,1,.616,2.013c-1.139.348-2.308.652-3.474.9a1.052,1.052,0,0,1-1.249-.808,1.04,1.04,0,0,1,.042-.587,1.052,1.052,0,0,1,.765-.663m8.471-2.839c1.025-.476,2.044-1,3.028-1.567a1.052,1.052,0,1,1,1.045,1.827c-1.035.593-2.107,1.147-3.186,1.649a1.053,1.053,0,1,1-.887-1.909m7.631-4.642c.9-.693,1.772-1.432,2.606-2.2a1.052,1.052,0,0,1,1.424,1.55c-.877.806-1.8,1.584-2.742,2.313a1.053,1.053,0,0,1-1.63-1.2,1.041,1.041,0,0,1,.342-.464m16.371-35.484a1.051,1.051,0,0,1,1.123.975c.084,1.188.116,2.4.1,3.589a1.052,1.052,0,0,1-2.1-.033c.018-1.134-.013-2.28-.092-3.408a1.04,1.04,0,0,1,.063-.44,1.05,1.05,0,0,1,.913-.683M123.7,369.839c.718-.874,1.408-1.789,2.049-2.721a1.052,1.052,0,1,1,1.734,1.193c-.675.981-1.4,1.945-2.158,2.865a1.053,1.053,0,0,1-1.8-1.036,1.077,1.077,0,0,1,.174-.3m9.806-20.1a1.052,1.052,0,0,1,.876,1.2c-.185,1.176-.423,2.36-.706,3.518a1.053,1.053,0,0,1-2.045-.5c.27-1.1.5-2.226.672-3.344a1.082,1.082,0,0,1,.053-.2,1.053,1.053,0,0,1,1.15-.671m-4.948,12.609c.505-1.011.972-2.058,1.39-3.111a1.052,1.052,0,0,1,1.964.754l-.008.021c-.439,1.109-.931,2.211-1.462,3.276a1.053,1.053,0,0,1-1.929-.836c.013-.035.028-.069.045-.1" fill="none"/>
    </clipPath>
    <linearGradient id="linear-gradient-11" x1="-1.113" y1="5.612" x2="-1.098" y2="5.612" gradientUnits="objectBoundingBox">
      <stop offset="0" stop-color="#4f52ff"/>
      <stop offset="1" stop-color="#4042e2"/>
    </linearGradient>
    <clipPath id="clip-path-20">
      <path id="Trazado_245533" data-name="Trazado 245533" d="M131.566,333.958a1.039,1.039,0,0,0-.033.628c.135.526.261,1.063.375,1.6a1.052,1.052,0,1,0,2.058-.441c-.12-.561-.253-1.126-.4-1.679a1.052,1.052,0,0,0-2.005-.1" fill="none"/>
    </clipPath>
    <linearGradient id="linear-gradient-12" x1="-28.273" y1="106.36" x2="-28.056" y2="106.36" xlink:href="#linear-gradient-11"/>
    <clipPath id="clip-path-21">
      <rect id="Rectángulo_103708" data-name="Rectángulo 103708" width="64.745" height="55.004" transform="translate(50.827 302.517)" fill="none"/>
    </clipPath>
    <clipPath id="clip-path-22">
      <path id="Trazado_245534" data-name="Trazado 245534" d="M112.085,308.466a1.053,1.053,0,0,0,.468,1.282c.472.267.947.549,1.41.837a1.052,1.052,0,1,0,1.112-1.787c-.488-.3-.988-.6-1.485-.882a1.052,1.052,0,0,0-1.5.55" fill="none"/>
    </clipPath>
    <linearGradient id="linear-gradient-13" x1="-25.443" y1="91.968" x2="-25.215" y2="91.968" xlink:href="#linear-gradient-11"/>
    <clipPath id="clip-path-23">
      <path id="Trazado_245535" data-name="Trazado 245535" d="M54.237,327.857a1.052,1.052,0,1,1,1.934.83c-.436,1.017-.836,2.068-1.193,3.137a1.053,1.053,0,0,1-2-.668q.233-.695.486-1.375c.241-.648.5-1.3.77-1.924m-1.471,8.011A1.052,1.052,0,0,1,53.6,337.1c-.208,1.1-.371,2.213-.486,3.32a1.052,1.052,0,1,1-2.093-.217c.121-1.165.293-2.34.511-3.494a1.076,1.076,0,0,1,.048-.173,1.053,1.053,0,0,1,1.182-.665m4.088-13.113c.6-1,1.26-1.994,1.949-2.945a1.052,1.052,0,0,1,1.7,1.235c-.654.9-1.277,1.844-1.851,2.8a1.052,1.052,0,0,1-1.888-.909,1.032,1.032,0,0,1,.086-.177m-5.011,22.091a1.052,1.052,0,0,1,1.088,1.015c.038,1.114.125,2.239.257,3.344a1.052,1.052,0,1,1-2.09.25c-.139-1.164-.23-2.349-.27-3.521a1.038,1.038,0,0,1,.065-.4,1.051,1.051,0,0,1,.95-.685m10.633-29.434c.809-.845,1.667-1.666,2.548-2.443a1.052,1.052,0,1,1,1.391,1.579c-.837.738-1.651,1.518-2.42,2.32a1.052,1.052,0,1,1-1.519-1.456m7.1-5.931c.977-.649,1.993-1.264,3.019-1.829a1.052,1.052,0,1,1,1.014,1.844c-.975.537-1.94,1.121-2.869,1.738a1.052,1.052,0,1,1-1.164-1.753m8.22-4.245c1.1-.421,2.222-.8,3.346-1.127a1.052,1.052,0,1,1,.588,2.021c-1.068.31-2.137.671-3.179,1.071a1.053,1.053,0,0,1-.755-1.965m8.951-2.35c1.161-.171,2.343-.294,3.513-.367a1.053,1.053,0,0,1,.13,2.1c-1.111.068-2.233.186-3.336.348a1.052,1.052,0,0,1-.307-2.082M96,302.56c1.167.089,2.346.229,3.5.416a1.052,1.052,0,1,1-.336,2.078c-1.1-.178-2.22-.311-3.329-.395a1.053,1.053,0,1,1,.16-2.1m9.089,1.712c.825.251,1.653.531,2.461.831q.438.164.87.335a1.052,1.052,0,1,1-.777,1.956c-.274-.108-.55-.215-.828-.318-.767-.286-1.554-.552-2.339-.791a1.051,1.051,0,0,1-.7-1.312c.007-.021.013-.042.021-.062a1.052,1.052,0,0,1,1.292-.639" fill="none"/>
    </clipPath>
    <linearGradient id="linear-gradient-14" x1="-0.725" y1="6.289" x2="-0.71" y2="6.289" xlink:href="#linear-gradient-11"/>
    <clipPath id="clip-path-24">
      <path id="Trazado_245536" data-name="Trazado 245536" d="M52.207,354.483a1.048,1.048,0,0,0-.032.633c.145.552.3,1.11.472,1.66a1.052,1.052,0,1,0,2.012-.617c-.16-.522-.311-1.053-.448-1.576a1.052,1.052,0,0,0-2-.1" fill="none"/>
    </clipPath>
    <linearGradient id="linear-gradient-15" x1="-10.982" y1="98.524" x2="-10.767" y2="98.524" xlink:href="#linear-gradient-11"/>
    <clipPath id="clip-path-25">
      <path id="Trazado_245537" data-name="Trazado 245537" d="M97.114,313.361,93.8,318.34a26.072,26.072,0,0,0-8.368,1.16l-4.545-3.9a.5.5,0,0,0-.569-.05l-6.195,3.63a.494.494,0,0,0-.234.521l1.178,5.87a26.055,26.055,0,0,0-5.1,6.733L64,332.766a.49.49,0,0,0-.438.366l-1.814,6.947a.492.492,0,0,0,.2.534l4.979,3.315a26.06,26.06,0,0,0,1.16,8.368l-3.9,4.546a.49.49,0,0,0-.052.568l3.631,6.2a.492.492,0,0,0,.521.233l5.869-1.177a26.083,26.083,0,0,0,6.734,5.1l.458,5.965a.491.491,0,0,0,.366.437l6.948,1.815a.493.493,0,0,0,.534-.2l3.315-4.979a26.074,26.074,0,0,0,8.369-1.159l4.545,3.9a.492.492,0,0,0,.568.05l6.195-3.63a.493.493,0,0,0,.234-.521l-1.178-5.87a26.041,26.041,0,0,0,5.1-6.733l5.964-.458a.494.494,0,0,0,.439-.367l1.813-6.947a.494.494,0,0,0-.2-.534l-4.979-3.315a26.088,26.088,0,0,0-1.16-8.368l3.9-4.545a.492.492,0,0,0,.051-.569l-3.63-6.2a.492.492,0,0,0-.521-.233l-5.869,1.177a26.1,26.1,0,0,0-6.734-5.1l-.458-5.965a.492.492,0,0,0-.367-.437l-6.948-1.815a.473.473,0,0,0-.124-.016.494.494,0,0,0-.409.22" fill="none"/>
    </clipPath>
    <linearGradient id="linear-gradient-16" x1="-0.74" y1="5.769" x2="-0.727" y2="5.769" xlink:href="#linear-gradient-11"/>
    <clipPath id="clip-path-27">
      <rect id="Rectángulo_103713" data-name="Rectángulo 103713" width="44.698" height="23.803" transform="translate(35.035 387.303)" fill="none"/>
    </clipPath>
    <clipPath id="clip-path-28">
      <path id="Trazado_245540" data-name="Trazado 245540" d="M35.076,404.789a.649.649,0,0,0,.22.747c.442.331.9.652,1.361.956a.65.65,0,1,0,.715-1.086c-.44-.29-.876-.6-1.3-.911a.651.651,0,0,0-.91.131.663.663,0,0,0-.088.163" fill="none"/>
    </clipPath>
    <linearGradient id="linear-gradient-17" x1="-10.771" y1="97.695" x2="-10.461" y2="97.695" xlink:href="#linear-gradient-11"/>
    <clipPath id="clip-path-29">
      <path id="Trazado_245541" data-name="Trazado 245541" d="M39.365,407.341a.65.65,0,0,1,.87-.3,26.989,26.989,0,0,0,2.5,1.08c.18.067.36.132.542.2a.651.651,0,0,1,.4.828.672.672,0,0,1-.828.4q-.285-.1-.566-.2a28.3,28.3,0,0,1-2.626-1.132.651.651,0,0,1-.322-.809c.008-.02.017-.041.027-.061m7.093,1.873a26.91,26.91,0,0,0,3.262.5.65.65,0,0,1-.118,1.3,28.285,28.285,0,0,1-3.419-.524.65.65,0,0,1-.5-.773.668.668,0,0,1,.027-.09.65.65,0,0,1,.746-.408m6.562.593a26.623,26.623,0,0,0,3.285-.318.65.65,0,0,1,.2,1.284,28.046,28.046,0,0,1-3.446.333.651.651,0,0,1-.672-.627.661.661,0,0,1,.041-.249.649.649,0,0,1,.587-.423m6.507-1.038a26.89,26.89,0,0,0,3.107-1.112.65.65,0,0,1,.513,1.195,28.066,28.066,0,0,1-3.259,1.165.65.65,0,1,1-.361-1.248m6.056-2.6a27.18,27.18,0,0,0,2.744-1.833.65.65,0,1,1,.787,1.035,28.616,28.616,0,0,1-2.877,1.921.65.65,0,1,1-.654-1.123m5.243-3.987a26.658,26.658,0,0,0,2.212-2.444.65.65,0,1,1,1.016.811,28.013,28.013,0,0,1-2.321,2.564.65.65,0,0,1-1.063-.693.643.643,0,0,1,.156-.238m4.106-5.146a26.505,26.505,0,0,0,1.546-2.915.65.65,0,0,1,1.184.538,28.216,28.216,0,0,1-1.621,3.056.65.65,0,0,1-1.164-.565.747.747,0,0,1,.055-.114m4.268-9.727a.65.65,0,0,1,.523.756,27.966,27.966,0,0,1-.7,2.924c-.042.146-.086.291-.132.436a.643.643,0,0,1-.815.425.65.65,0,0,1-.425-.814c.043-.136.084-.273.125-.413a26.922,26.922,0,0,0,.666-2.791.652.652,0,0,1,.756-.523" fill="none"/>
    </clipPath>
    <linearGradient id="linear-gradient-18" x1="-1.13" y1="7.859" x2="-1.102" y2="7.859" xlink:href="#linear-gradient-11"/>
    <clipPath id="clip-path-30">
      <rect id="Rectángulo_103716" data-name="Rectángulo 103716" width="25.75" height="36.587" transform="translate(24.025 355.127)" fill="none"/>
    </clipPath>
    <clipPath id="clip-path-31">
      <path id="Trazado_245542" data-name="Trazado 245542" d="M25.933,372.885a28.415,28.415,0,0,1,1.417-3.093.65.65,0,0,1,1.147.613,26.829,26.829,0,0,0-1.352,2.95.65.65,0,0,1-1.215-.461l0-.009m-.246,2.774a.651.651,0,0,1,.47.79,27.026,27.026,0,0,0-.611,3.19.65.65,0,0,1-1.29-.168,28.605,28.605,0,0,1,.641-3.343c.006-.023.013-.045.021-.067a.649.649,0,0,1,.769-.4m3.448-8.767a28.108,28.108,0,0,1,2.123-2.659.65.65,0,0,1,.966.871A26.807,26.807,0,0,0,30.2,367.64a.649.649,0,0,1-1.14-.6.657.657,0,0,1,.078-.148M24.68,382.223a.652.652,0,0,1,.646.655,26.581,26.581,0,0,0,.177,3.241.65.65,0,1,1-1.291.15,27.775,27.775,0,0,1-.186-3.4.629.629,0,0,1,.041-.222.65.65,0,0,1,.613-.424m9.008-20.371a28.364,28.364,0,0,1,2.7-2.07.65.65,0,1,1,.727,1.078,26.66,26.66,0,0,0-2.575,1.975.651.651,0,0,1-.853-.983m5.631-3.8a28.632,28.632,0,0,1,3.118-1.364.65.65,0,1,1,.448,1.22,27.3,27.3,0,0,0-2.974,1.3.65.65,0,0,1-.592-1.158m6.379-2.343a27.981,27.981,0,0,1,3.356-.577.65.65,0,1,1,.142,1.292,26.767,26.767,0,0,0-3.2.551.651.651,0,0,1-.782-.484.643.643,0,0,1,.023-.375.651.651,0,0,1,.46-.407" fill="none"/>
    </clipPath>
    <linearGradient id="linear-gradient-19" x1="-0.452" y1="10.972" x2="-0.426" y2="10.972" xlink:href="#linear-gradient-11"/>
    <clipPath id="clip-path-32">
      <path id="Trazado_245543" data-name="Trazado 245543" d="M24.839,389.272a.652.652,0,0,0-.023.38c.132.54.28,1.079.44,1.6a.65.65,0,1,0,1.243-.381c-.153-.5-.294-1.013-.419-1.529a.65.65,0,0,0-1.241-.072" fill="none"/>
    </clipPath>
    <linearGradient id="linear-gradient-20" x1="-6.94" y1="127.561" x2="-6.65" y2="127.561" xlink:href="#linear-gradient-11"/>
    <clipPath id="clip-path-33">
      <path id="Trazado_245544" data-name="Trazado 245544" d="M54.96,362.218l-2.218,3.333a17.438,17.438,0,0,0-5.6.776L44.1,363.719a.329.329,0,0,0-.38-.034l-4.146,2.429a.329.329,0,0,0-.156.349l.788,3.928a17.447,17.447,0,0,0-3.414,4.505L32.8,375.2a.329.329,0,0,0-.294.245L31.294,380.1a.328.328,0,0,0,.136.357l3.332,2.219a17.463,17.463,0,0,0,.775,5.6l-2.607,3.041a.33.33,0,0,0-.034.38l2.429,4.146a.329.329,0,0,0,.349.156l3.928-.788a17.43,17.43,0,0,0,4.5,3.414l.307,3.992a.328.328,0,0,0,.245.293l4.649,1.214a.333.333,0,0,0,.358-.136l2.218-3.332a17.492,17.492,0,0,0,5.6-.776l3.041,2.607a.33.33,0,0,0,.381.034l4.145-2.429a.331.331,0,0,0,.157-.349l-.789-3.928a17.394,17.394,0,0,0,3.415-4.505L71.825,391a.328.328,0,0,0,.293-.245l1.214-4.649a.331.331,0,0,0-.136-.357l-3.333-2.219a17.466,17.466,0,0,0-.775-5.6l2.607-3.041a.329.329,0,0,0,.034-.381L69.3,370.363a.328.328,0,0,0-.348-.156l-3.928.788a17.435,17.435,0,0,0-4.506-3.414l-.307-3.991a.329.329,0,0,0-.245-.294l-4.649-1.214a.337.337,0,0,0-.083-.01.329.329,0,0,0-.274.146" fill="none"/>
    </clipPath>
    <linearGradient id="linear-gradient-21" x1="-0.541" y1="7.607" x2="-0.521" y2="7.607" xlink:href="#linear-gradient-11"/>
    <clipPath id="clip-path-35">
      <path id="Trazado_245547" data-name="Trazado 245547" d="M126.784,75.064l19.754,20.99V67.783Z" fill="none"/>
    </clipPath>
    <linearGradient id="linear-gradient-22" x1="-3.482" y1="20.211" x2="-3.453" y2="20.211" xlink:href="#linear-gradient-11"/>
    <clipPath id="clip-path-36">
      <path id="Trazado_245548" data-name="Trazado 245548" d="M22.329,33.04V65.355a5.4,5.4,0,0,0,5.006,5.5l113.6,5.942a5.376,5.376,0,0,0,5.532-5.5V35.789a5.4,5.4,0,0,0-5.147-5.5L27.72,27.537l-.125,0a5.391,5.391,0,0,0-5.266,5.505" fill="none"/>
    </clipPath>
    <linearGradient id="linear-gradient-23" x1="-0.213" y1="5.942" x2="-0.205" y2="5.942" xlink:href="#linear-gradient-11"/>
  </defs>
  <g id="Grupo_180983" data-name="Grupo 180983" clip-path="url(#clip-path)">
    <g id="Grupo_180912" data-name="Grupo 180912">
      <g id="Grupo_180911" data-name="Grupo 180911" clip-path="url(#clip-path-2)">
        <path id="Trazado_245511" data-name="Trazado 245511" d="M59.516,93.927C67.211,78.569,75.034,65.682,82.893,55.42,141.989-25.887,199.949,3.444,217.807,13.3c28.811,15.92,53.279,27.46,71.2,76.972,40.713,112.492,9.528,506.662-30.724,562.588-40.286,55.974-75.069,71.606-112.89,77.42-1.505.352-2.621.533-3.6.708-9.474,1.672-68.01,9.828-107.4-89.83C26,620.362,18.75,593.961,12.835,562.683c-25.8-141.077-9.127-355.117,46.681-468.756" fill="#e5e1f1"/>
        <g id="Grupo_180907" data-name="Grupo 180907" opacity="0.35">
          <g id="Grupo_180906" data-name="Grupo 180906">
            <g id="Grupo_180905-2" data-name="Grupo 180905" clip-path="url(#clip-path-3)">
              <path id="Trazado_245512" data-name="Trazado 245512" d="M304.891,507.884a4.052,4.052,0,0,1,.467-.013,2.987,2.987,0,0,1,2.836,4.071,5.482,5.482,0,0,1-5.107,3.849,102.605,102.605,0,0,0-23.388,2.247,121.721,121.721,0,0,0-23.506,7.446l-1.442.616-1.427.659c-.952.434-1.894.9-2.833,1.364q-2.823,1.386-5.561,2.947c-.918.508-1.812,1.063-2.716,1.59-.9.543-1.78,1.109-2.668,1.659-.87.587-1.75,1.144-2.605,1.755s-1.713,1.2-2.539,1.827-1.664,1.241-2.468,1.893c-.4.324-.812.639-1.206.97l-1.176.995c-.8.651-1.531,1.356-2.294,2.028-.738.694-1.474,1.387-2.186,2.092s-1.416,1.416-2.071,2.151c-.332.366-.672.722-1,1.09l-.949,1.106c-.159.187-.321.365-.473.556l-.46.583-.916,1.162c-.581.8-1.179,1.576-1.733,2.382a95.111,95.111,0,0,0-10.7,20.559c-2.8,7.226-5.016,14.722-7.3,22.509-1.148,3.9-2.293,7.864-3.562,11.933-.624,2.031-1.3,4.091-2,6.168-.366,1.045-.716,2.086-1.1,3.143l-1.124,3.079c-2.893,7.878-5.986,15.992-9.716,24.285a184.124,184.124,0,0,1-13.737,25.409,130.582,130.582,0,0,1-9.61,12.91,112.939,112.939,0,0,1-12.271,12.428c-2.287,1.974-4.7,3.88-7.205,5.689-1.254.908-2.539,1.78-3.843,2.639-.653.424-1.284.837-1.972,1.256s-1.377.842-2.073,1.241a91.7,91.7,0,0,1-17.289,7.808c-1.478.486-2.957.943-4.441,1.344-.785.218-1.382.363-2.046.542l-1.953.5c-1.306.331-2.627.62-3.95.9s-2.659.508-3.993.755a96.4,96.4,0,0,1-16.2,1.393,81.325,81.325,0,0,1-15.919-1.519,74.99,74.99,0,0,1-38.326-20.25,95.714,95.714,0,0,1-16.191-21.024,114.864,114.864,0,0,1-5.9-11.757c-.879-2.039-1.7-4.118-2.479-6.283-.388-1.088-.768-2.191-1.135-3.355-.184-.584-.365-1.175-.545-1.815l-.272-1-.138-.567-.078-.345-.1-.518c-2.44-17.187,11.086-36.638,30.2-43.441s36.594,1.616,39.034,18.8l-.05-.18c-.013-.042-.017-.018-.017-.018l-.011.012c-.015,0-.019.069-.028.1a3,3,0,0,0-.03.341c-.018.253-.017.553-.017.851,0,.607.024,1.258.062,1.916.084,1.325.212,2.693.383,4.055a68.58,68.58,0,0,0,1.486,8.08,58.579,58.579,0,0,0,5.444,14.37,36.659,36.659,0,0,0,8.478,10.516,26.805,26.805,0,0,0,5.4,3.532,29.437,29.437,0,0,0,6.373,2.3,37.789,37.789,0,0,0,7.491,1.02c.683.005,1.358.039,2.056.035.705-.024,1.4-.014,2.123-.052l2.093-.116c.545-.017,1.105-.068,1.659-.116a29.691,29.691,0,0,0,6.72-1.532c.28-.093.558-.2.836-.3l.9-.369c.606-.257,1.214-.525,1.819-.823,1.216-.589,2.44-1.252,3.675-2a68.793,68.793,0,0,0,14.918-12.819q1.845-2.019,3.618-4.213t3.505-4.522c2.3-3.1,4.538-6.356,6.715-9.724,4.362-6.738,8.467-13.9,12.582-21.316l1.472-2.662c.476-.858.937-1.739,1.411-2.616.925-1.772,1.848-3.561,2.755-5.4,1.818-3.655,3.607-7.429,5.409-11.274,3.621-7.687,7.371-15.688,11.939-23.7a125.648,125.648,0,0,1,16.66-23.273c.826-.907,1.7-1.785,2.55-2.669.89-.865,1.742-1.723,2.661-2.582l1.367-1.281c.461-.419.931-.823,1.4-1.233.922-.83,1.888-1.6,2.835-2.378a107.25,107.25,0,0,1,11.87-8.213,143.646,143.646,0,0,1,24.807-11.642,179.405,179.405,0,0,1,25.094-7.017,221.686,221.686,0,0,1,24.936-3.542Z" fill="#fdb74d"/>
            </g>
          </g>
        </g>
        <g id="Grupo_180910" data-name="Grupo 180910" opacity="0.7" style="isolation: isolate">
          <g id="Grupo_180909" data-name="Grupo 180909">
            <g id="Grupo_180908" data-name="Grupo 180908" clip-path="url(#clip-path-4)">
              <path id="Trazado_245513" data-name="Trazado 245513" d="M31.67,637.585a22.765,22.765,0,1,1,30.309-10.857A22.764,22.764,0,0,1,31.67,637.585" fill="#5038a1"/>
            </g>
          </g>
        </g>
        <path id="Trazado_245514" data-name="Trazado 245514" d="M31.143,626.477a7.588,7.588,0,1,1,10.1-3.619A7.588,7.588,0,0,1,31.143,626.477Z" fill="none" stroke="#fff" stroke-width="1.98"/>
        <path id="Trazado_245515" data-name="Trazado 245515" d="M61.4,679.821a4.619,4.619,0,1,1,6.15-2.2,4.619,4.619,0,0,1-6.15,2.2" fill="#fdb74d"/>
        <path id="Trazado_245516" data-name="Trazado 245516" d="M61.826,678.926a3.629,3.629,0,1,1,4.832-1.731,3.63,3.63,0,0,1-4.832,1.731" fill="#fdb74d"/>
        <path id="Trazado_245517" data-name="Trazado 245517" d="M61.826,678.926a3.629,3.629,0,1,1,4.832-1.731A3.63,3.63,0,0,1,61.826,678.926Z" fill="none" stroke="#8c6df2" stroke-width="1.98"/>
        <path id="Trazado_245518" data-name="Trazado 245518" d="M60.253,641.327a2.969,2.969,0,1,1,3.953-1.416,2.969,2.969,0,0,1-3.953,1.416" fill="#fdb74d"/>
      </g>
    </g>
    <g id="Grupo_180914" data-name="Grupo 180914">
      <g id="Grupo_180913" data-name="Grupo 180913" clip-path="url(#clip-path-5)">
        <rect id="Rectángulo_103690" data-name="Rectángulo 103690" width="203.447" height="210.409" transform="matrix(0.848, -0.529, 0.529, 0.848, -42.185, 154.09)" fill="url(#linear-gradient)"/>
      </g>
    </g>
    <g id="Grupo_180916" data-name="Grupo 180916">
      <g id="Grupo_180915" data-name="Grupo 180915" clip-path="url(#clip-path-2)">
        <path id="Trazado_245520" data-name="Trazado 245520" d="M174.976,72.231s-9.144-41.016,37.839-30.158c0,0,22.806-3.727,23.966,17.8,0,0,14.7,9.686,3.937,28.315,0,0,43.689-16.875,62.725,21.419s1.538,59.365-16.8,64.852c0,0,14.861,7.463,7.826,24.312s-42.658,28.725-63.7,8.235c0,0-59.879,7.914-58.68-34.382,0,0-27.851-17.984,1.4-52.939s1.493-47.453,1.493-47.453" fill="#42210b"/>
        <path id="Trazado_245521" data-name="Trazado 245521" d="M172.4,167.3c9.441-2.83,36.93-8.056,63.077,16.074a16.194,16.194,0,0,1,4.666,16.134c-7.023,25.855-25.553,102.243-9.305,135.295,0,0-28.632,31.561-59.867,6.123,0,0-14.015-61.08-32.371-87.894-12.673-18.513,20.208-69.516,28.528-81.839A9.738,9.738,0,0,1,172.4,167.3" fill="#8c6df2"/>
      </g>
    </g>
    <g id="Grupo_180918" data-name="Grupo 180918">
      <g id="Grupo_180917" data-name="Grupo 180917" clip-path="url(#clip-path-7)">
        <rect id="Rectángulo_103692" data-name="Rectángulo 103692" width="72.135" height="56.981" transform="matrix(0.411, -0.912, 0.912, 0.411, 155.837, 169.092)" fill="url(#linear-gradient-2)"/>
      </g>
    </g>
    <g id="Grupo_180920" data-name="Grupo 180920">
      <g id="Grupo_180919" data-name="Grupo 180919" clip-path="url(#clip-path-8)">
        <rect id="Rectángulo_103693" data-name="Rectángulo 103693" width="104.935" height="106.379" transform="translate(111.679 76.052) rotate(-24.792)" fill="url(#linear-gradient-3)"/>
      </g>
    </g>
    <g id="Grupo_180922" data-name="Grupo 180922">
      <g id="Grupo_180921" data-name="Grupo 180921" clip-path="url(#clip-path-2)">
        <path id="Trazado_245524" data-name="Trazado 245524" d="M195.973,49.872S179.2,53.847,176.844,61.438s23.791,14.631,31.117,14.975l5.9,30.632S231.312,78.229,224.4,61.587s-28.427-11.715-28.427-11.715" fill="#42210b"/>
      </g>
    </g>
    <g id="Grupo_180924" data-name="Grupo 180924">
      <g id="Grupo_180923" data-name="Grupo 180923" clip-path="url(#clip-path-10)">
        <rect id="Rectángulo_103695" data-name="Rectángulo 103695" width="32.573" height="31.059" transform="matrix(0.908, -0.419, 0.419, 0.908, 196.591, 97.382)" fill="url(#linear-gradient-4)"/>
      </g>
    </g>
    <g id="Grupo_180926" data-name="Grupo 180926">
      <g id="Grupo_180925" data-name="Grupo 180925" clip-path="url(#clip-path-11)">
        <rect id="Rectángulo_103696" data-name="Rectángulo 103696" width="232.654" height="287.627" transform="matrix(0.875, -0.485, 0.485, 0.875, 15.033, 530.664)" fill="url(#linear-gradient-5)"/>
      </g>
    </g>
    <g id="Grupo_180928" data-name="Grupo 180928">
      <g id="Grupo_180927" data-name="Grupo 180927" clip-path="url(#clip-path-12)">
        <rect id="Rectángulo_103697" data-name="Rectángulo 103697" width="70.374" height="51.355" transform="matrix(0.009, -1, 1, 0.009, 213.931, 736.887)" fill="url(#linear-gradient-6)"/>
      </g>
    </g>
    <g id="Grupo_180930" data-name="Grupo 180930">
      <g id="Grupo_180929" data-name="Grupo 180929" clip-path="url(#clip-path-13)">
        <rect id="Rectángulo_103698" data-name="Rectángulo 103698" width="252.576" height="139.977" transform="translate(97.592 709.977) rotate(-71.723)" fill="url(#linear-gradient-7)"/>
      </g>
    </g>
    <g id="Grupo_180932" data-name="Grupo 180932">
      <g id="Grupo_180931" data-name="Grupo 180931" clip-path="url(#clip-path-14)">
        <rect id="Rectángulo_103699" data-name="Rectángulo 103699" width="59.983" height="66.247" transform="translate(158.952 740.187) rotate(-89.456)" fill="url(#linear-gradient-8)"/>
      </g>
    </g>
    <g id="Grupo_180934" data-name="Grupo 180934">
      <g id="Grupo_180933" data-name="Grupo 180933" clip-path="url(#clip-path-15)">
        <rect id="Rectángulo_103700" data-name="Rectángulo 103700" width="217.405" height="244.695" transform="translate(50.503 349.397) rotate(-23.617)" fill="url(#linear-gradient-9)"/>
      </g>
    </g>
    <g id="Grupo_180936" data-name="Grupo 180936">
      <g id="Grupo_180935" data-name="Grupo 180935" clip-path="url(#clip-path-16)">
        <rect id="Rectángulo_103701" data-name="Rectángulo 103701" width="169.645" height="180.833" transform="translate(132.325 231.286) rotate(-33.998)" fill="url(#linear-gradient-10)"/>
      </g>
    </g>
    <g id="Grupo_180954" data-name="Grupo 180954">
      <g id="Grupo_180953" data-name="Grupo 180953" clip-path="url(#clip-path-2)">
        <g id="Grupo_180943" data-name="Grupo 180943" opacity="0.3">
          <g id="Grupo_180942" data-name="Grupo 180942">
            <g id="Grupo_180941" data-name="Grupo 180941" clip-path="url(#clip-path-18)">
              <g id="Grupo_180938" data-name="Grupo 180938">
                <g id="Grupo_180937" data-name="Grupo 180937" clip-path="url(#clip-path-19)">
                  <rect id="Rectángulo_103702" data-name="Rectángulo 103702" width="64.568" height="73.68" transform="translate(58.367 380.94) rotate(-69.586)" fill="url(#linear-gradient-11)"/>
                </g>
              </g>
              <g id="Grupo_180940" data-name="Grupo 180940">
                <g id="Grupo_180939" data-name="Grupo 180939" clip-path="url(#clip-path-20)">
                  <rect id="Rectángulo_103703" data-name="Rectángulo 103703" width="4.615" height="3.826" transform="translate(130.185 336.632) rotate(-69.586)" fill="url(#linear-gradient-12)"/>
                </g>
              </g>
            </g>
          </g>
        </g>
        <g id="Grupo_180952" data-name="Grupo 180952" opacity="0.3">
          <g id="Grupo_180951" data-name="Grupo 180951">
            <g id="Grupo_180950" data-name="Grupo 180950" clip-path="url(#clip-path-21)">
              <g id="Grupo_180945" data-name="Grupo 180945">
                <g id="Grupo_180944" data-name="Grupo 180944" clip-path="url(#clip-path-22)">
                  <rect id="Rectángulo_103705" data-name="Rectángulo 103705" width="4.387" height="4.711" transform="translate(110.842 310.495) rotate(-69.586)" fill="url(#linear-gradient-13)"/>
                </g>
              </g>
              <g id="Grupo_180947" data-name="Grupo 180947">
                <g id="Grupo_180946" data-name="Grupo 180946" clip-path="url(#clip-path-23)">
                  <rect id="Rectángulo_103706" data-name="Rectángulo 103706" width="65.323" height="71.471" transform="matrix(0.349, -0.937, 0.937, 0.349, 35.145, 344.609)" fill="url(#linear-gradient-14)"/>
                </g>
              </g>
              <g id="Grupo_180949" data-name="Grupo 180949">
                <g id="Grupo_180948" data-name="Grupo 180948" clip-path="url(#clip-path-24)">
                  <rect id="Rectángulo_103707" data-name="Rectángulo 103707" width="4.657" height="3.923" transform="translate(50.824 357.162) rotate(-69.586)" fill="url(#linear-gradient-15)"/>
                </g>
              </g>
            </g>
          </g>
        </g>
      </g>
    </g>
    <g id="Grupo_180956" data-name="Grupo 180956">
      <g id="Grupo_180955" data-name="Grupo 180955" clip-path="url(#clip-path-25)">
        <rect id="Rectángulo_103710" data-name="Rectángulo 103710" width="75.113" height="75.086" transform="matrix(0.976, -0.218, 0.218, 0.976, 48.328, 316.123)" fill="url(#linear-gradient-16)"/>
      </g>
    </g>
    <g id="Grupo_180972" data-name="Grupo 180972">
      <g id="Grupo_180971" data-name="Grupo 180971" clip-path="url(#clip-path-2)">
        <path id="Trazado_245538" data-name="Trazado 245538" d="M86.833,341.092a7.211,7.211,0,1,1-.442.964,7.226,7.226,0,0,1,.442-.964m11.639,1.933a5.534,5.534,0,1,0-.465,4.21,5.614,5.614,0,0,0,.342-.746,5.493,5.493,0,0,0,.123-3.464" fill="#91b3fa"/>
        <path id="Trazado_245539" data-name="Trazado 245539" d="M76.673,338.281a18.026,18.026,0,0,0-.549,1.739c-.049.187-.094.374-.137.562a17.776,17.776,0,0,0-.407,2.813l0,.038-.006.11c0,.071-.007.142-.01.213a.419.419,0,0,0,.273.413.422.422,0,0,0,.568-.377,16.918,16.918,0,0,1,21.164-15.646,17.384,17.384,0,0,1,1.659.524,16.906,16.906,0,0,1-10.2,32.19,16.893,16.893,0,0,1-7.794-4.511.431.431,0,0,0-.153-.1.421.421,0,0,0-.448.69,17.687,17.687,0,0,0,6.463,4.192,17.743,17.743,0,0,0,23.374-12.145,17.753,17.753,0,0,0-10.947-21.1,18.153,18.153,0,0,0-1.741-.549,17.75,17.75,0,0,0-21.106,10.949" fill="#91b3fa"/>
        <g id="Grupo_180963" data-name="Grupo 180963" opacity="0.3">
          <g id="Grupo_180962" data-name="Grupo 180962">
            <g id="Grupo_180961" data-name="Grupo 180961" clip-path="url(#clip-path-27)">
              <g id="Grupo_180958" data-name="Grupo 180958">
                <g id="Grupo_180957" data-name="Grupo 180957" clip-path="url(#clip-path-28)">
                  <rect id="Rectángulo_103711" data-name="Rectángulo 103711" width="3.227" height="3.444" transform="matrix(0.349, -0.937, 0.937, 0.349, 34.191, 406.396)" fill="url(#linear-gradient-17)"/>
                </g>
              </g>
              <g id="Grupo_180960" data-name="Grupo 180960">
                <g id="Grupo_180959" data-name="Grupo 180959" clip-path="url(#clip-path-29)">
                  <rect id="Rectángulo_103712" data-name="Rectángulo 103712" width="36.511" height="46.338" transform="matrix(0.349, -0.937, 0.937, 0.349, 31.424, 408.215)" fill="url(#linear-gradient-18)"/>
                </g>
              </g>
            </g>
          </g>
        </g>
        <g id="Grupo_180970" data-name="Grupo 180970" opacity="0.3">
          <g id="Grupo_180969" data-name="Grupo 180969">
            <g id="Grupo_180968" data-name="Grupo 180968" clip-path="url(#clip-path-30)">
              <g id="Grupo_180965" data-name="Grupo 180965">
                <g id="Grupo_180964" data-name="Grupo 180964" clip-path="url(#clip-path-31)">
                  <rect id="Rectángulo_103714" data-name="Rectángulo 103714" width="38.789" height="35.261" transform="matrix(0.349, -0.937, 0.937, 0.349, 13.626, 383.014)" fill="url(#linear-gradient-19)"/>
                </g>
              </g>
              <g id="Grupo_180967" data-name="Grupo 180967">
                <g id="Grupo_180966" data-name="Grupo 180966" clip-path="url(#clip-path-32)">
                  <rect id="Rectángulo_103715" data-name="Rectángulo 103715" width="3.454" height="2.754" transform="translate(23.802 391.424) rotate(-69.586)" fill="url(#linear-gradient-20)"/>
                </g>
              </g>
            </g>
          </g>
        </g>
      </g>
    </g>
    <g id="Grupo_180974" data-name="Grupo 180974">
      <g id="Grupo_180973" data-name="Grupo 180973" clip-path="url(#clip-path-33)">
        <rect id="Rectángulo_103718" data-name="Rectángulo 103718" width="50.262" height="50.243" transform="translate(22.315 364.067) rotate(-12.576)" fill="url(#linear-gradient-21)"/>
      </g>
    </g>
    <g id="Grupo_180976" data-name="Grupo 180976">
      <g id="Grupo_180975" data-name="Grupo 180975" clip-path="url(#clip-path-2)">
        <path id="Trazado_245545" data-name="Trazado 245545" d="M48,380.734a4.913,4.913,0,1,1-.3.663,5,5,0,0,1,.3-.663m6.051-.8a3.616,3.616,0,1,0,1.427,4.912,3.731,3.731,0,0,0,.221-.483,3.623,3.623,0,0,0-1.648-4.429" fill="#91b3fa"/>
        <path id="Trazado_245546" data-name="Trazado 245546" d="M40.933,378.778q-.214.577-.375,1.187a12.267,12.267,0,0,0-.383,2.465c0,.038,0,.075-.005.112a.65.65,0,1,0,1.3.056,11.045,11.045,0,0,1,.348-2.3l.033-.124a10.831,10.831,0,0,1,2.633-4.668,10.979,10.979,0,0,1,2.305-1.836l.021-.013.064-.037a10.873,10.873,0,0,1,8.3-1.147,10.99,10.99,0,0,1,1.074.339,10.945,10.945,0,0,1-6.6,20.839,11.052,11.052,0,0,1-1.06-.335,10.908,10.908,0,0,1-3.985-2.585.65.65,0,1,0-.928.91A12.245,12.245,0,1,0,56.7,371.591a12.42,12.42,0,0,0-1.2-.38,12.262,12.262,0,0,0-14.565,7.567" fill="#91b3fa"/>
      </g>
    </g>
    <g id="Grupo_180978" data-name="Grupo 180978">
      <g id="Grupo_180977" data-name="Grupo 180977" clip-path="url(#clip-path-35)">
        <rect id="Rectángulo_103720" data-name="Rectángulo 103720" width="34.322" height="33.395" transform="matrix(0.651, -0.759, 0.759, 0.651, 112.816, 84.088)" fill="url(#linear-gradient-22)"/>
      </g>
    </g>
    <g id="Grupo_180980" data-name="Grupo 180980">
      <g id="Grupo_180979" data-name="Grupo 180979" clip-path="url(#clip-path-36)">
        <rect id="Rectángulo_103721" data-name="Rectángulo 103721" width="118.289" height="126.421" transform="translate(-2.086 56.035) rotate(-49.414)" fill="url(#linear-gradient-23)"/>
      </g>
    </g>
    <g id="Grupo_180982" data-name="Grupo 180982">
      <g id="Grupo_180981" data-name="Grupo 180981" clip-path="url(#clip-path-2)">
        <path id="Trazado_245549" data-name="Trazado 245549" d="M137.951,73.7,28.522,68.417a4.977,4.977,0,0,1-4.822-4.89V34.782a4.993,4.993,0,0,1,5.193-4.9l109.429,2.445a4.983,4.983,0,0,1,4.958,4.9V68.813a5,5,0,0,1-5.329,4.89" fill="#7d97f4"/>
      </g>
    </g>
  </g>
</svg>
