<svg id="Grupo_182011" data-name="Grupo 182011" xmlns="http://www.w3.org/2000/svg" xmlns:xlink="http://www.w3.org/1999/xlink" width="376.815" height="285" viewBox="0 0 376.815 285">
  <defs>
    <clipPath id="clip-path">
      <rect id="Rectángulo_104235" data-name="Rectángulo 104235" width="376.815" height="285" fill="none"/>
    </clipPath>
    <clipPath id="clip-path-3">
      <rect id="Rectángulo_104201" data-name="Rectángulo 104201" width="299.357" height="264.178" transform="translate(46.499 6.306)" fill="none"/>
    </clipPath>
    <clipPath id="clip-path-4">
      <rect id="Rectángulo_104202" data-name="Rectángulo 104202" width="189.825" height="233.212" transform="translate(24.735 36.78)" fill="none"/>
    </clipPath>
    <clipPath id="clip-path-5">
      <rect id="Rectángulo_104203" data-name="Rectángulo 104203" width="62.379" height="23.018" transform="translate(74.762 36.78)" fill="none"/>
    </clipPath>
    <clipPath id="clip-path-6">
      <path id="Trazado_246145" data-name="Trazado 246145" d="M131.423,20.9A2.106,2.106,0,0,1,129.4,18.46a2.6,2.6,0,0,1,2.709-2.147,2.105,2.105,0,0,1,2.015,2.435,2.6,2.6,0,0,1-2.554,2.151c-.049,0-.1,0-.148,0M123.5,19.23a4.683,4.683,0,0,1-.692,1.845,5.186,5.186,0,0,1-4.6,2.356l-3.378-.193a4.459,4.459,0,0,0-4.511,3.2L107.51,36.957a10.678,10.678,0,0,1-10.662,7.625l-10.934-.471a4.782,4.782,0,0,0-4.373,2.5L74.952,59.164a1.453,1.453,0,0,0,1.3,2.176l94.821,3.025a1.715,1.715,0,0,0,1.727-1.949l-2.348-12.132a3.3,3.3,0,0,0-3.178-2.671l-9.968-.429a7.811,7.811,0,0,1-7.675-8.195l.385-10.359a3.414,3.414,0,0,0-3.312-3.564l-3.275-.188a4.022,4.022,0,0,1-3.809-4.7,7.179,7.179,0,0,0-6.853-8.248c-.185-.012-.37-.018-.554-.018a8.893,8.893,0,0,0-8.717,7.32" fill="none"/>
    </clipPath>
    <linearGradient id="linear-gradient" x1="-0.755" y1="5.203" x2="-0.745" y2="5.203" gradientUnits="objectBoundingBox">
      <stop offset="0" stop-color="#444b8c"/>
      <stop offset="0.996" stop-color="#26264f"/>
      <stop offset="1" stop-color="#26264f"/>
    </linearGradient>
    <clipPath id="clip-path-8">
      <rect id="Rectángulo_104206" data-name="Rectángulo 104206" width="87.663" height="35.903" transform="translate(75.324 28.467)" fill="none"/>
    </clipPath>
    <clipPath id="clip-path-9">
      <path id="Trazado_246161" data-name="Trazado 246161" d="M82.241,79.713c-1.512,3.026.443,6.727.986,7.755.948,1.795,1.826,2.261,1.967,3.892.143,1.658-.647,2.53-.109,4.066a4.941,4.941,0,0,0,1.636,2.149c3.809,3.19,14.984,2.623,16.4-1.166.578-1.544-.858-2.549,0-4.828.622-1.652,1.585-1.673,2.347-3.686a5.165,5.165,0,0,0,.214-4.014c-.271-.583-1-1.181-2.454-2.355-1.878-1.518-2.819-2.278-3.532-2.484a3.907,3.907,0,0,0-2.483.114,4.331,4.331,0,0,1-2.251.2c-2.469-.465-2.508-2.539-4.762-3.236a5.013,5.013,0,0,0-1.479-.211,7.668,7.668,0,0,0-6.481,3.808" fill="none"/>
    </clipPath>
    <linearGradient id="linear-gradient-2" x1="-2.229" y1="6.187" x2="-2.2" y2="6.187" xlink:href="#linear-gradient"/>
    <clipPath id="clip-path-10">
      <path id="Trazado_246162" data-name="Trazado 246162" d="M75.185,107.667l-9.251,1.281v26.537l58.763-.824V108.874l-10-1.576Z" fill="none"/>
    </clipPath>
    <linearGradient id="linear-gradient-3" x1="-1.429" y1="3.012" x2="-1.409" y2="3.012" gradientUnits="objectBoundingBox">
      <stop offset="0" stop-color="#aa80f9"/>
      <stop offset="0.996" stop-color="#6165d7"/>
      <stop offset="1" stop-color="#6165d7"/>
    </linearGradient>
    <clipPath id="clip-path-11">
      <path id="Trazado_246163" data-name="Trazado 246163" d="M90.651,95.528q-.477,3.782-.952,7.567a2.354,2.354,0,0,1-1.734,1.936,88.792,88.792,0,0,1-12.78,2.636l19,5.865L114.7,107.3c-4.579-.371-9.183-1.9-13.814-2.275a2.4,2.4,0,0,1-2.237-2.065q-.686-6.106-1.371-12.219Z" fill="none"/>
    </clipPath>
    <linearGradient id="linear-gradient-4" x1="-1.883" y1="4.51" x2="-1.858" y2="4.51" gradientUnits="objectBoundingBox">
      <stop offset="0" stop-color="#ffc444"/>
      <stop offset="0.996" stop-color="#f36f56"/>
      <stop offset="1" stop-color="#f36f56"/>
    </linearGradient>
    <clipPath id="clip-path-12">
      <path id="Trazado_246164" data-name="Trazado 246164" d="M100.745,93.665c-.3,1.321-.07,2.488.5,2.607S103.3,94.8,103.6,93.485a1.589,1.589,0,0,0-1.28-1.992.45.45,0,0,0-.1-.01c-.553,0-1.2.936-1.475,2.182" fill="none"/>
    </clipPath>
    <linearGradient id="linear-gradient-5" x1="-17.858" y1="43.201" x2="-17.678" y2="43.201" xlink:href="#linear-gradient-4"/>
    <clipPath id="clip-path-13">
      <path id="Trazado_246165" data-name="Trazado 246165" d="M86.017,91.291a1.566,1.566,0,0,0-1.307,1.983c.3,1.34,1.811,2.973,2.4,2.864s.811-1.281.511-2.618c-.285-1.272-.947-2.237-1.513-2.237a.5.5,0,0,0-.087.008" fill="none"/>
    </clipPath>
    <linearGradient id="linear-gradient-6" x1="-18.431" y1="34.436" x2="-18.211" y2="34.436" xlink:href="#linear-gradient-4"/>
    <clipPath id="clip-path-14">
      <path id="Trazado_246166" data-name="Trazado 246166" d="M86.006,90.144c0,6.018,3.673,13.094,8.181,13.117,4.484.024,8.1-6.944,8.1-12.9s-3.617-8.7-8.1-8.783l-.2,0c-4.414,0-7.976,2.645-7.976,8.572" fill="none"/>
    </clipPath>
    <linearGradient id="linear-gradient-7" x1="-3.761" y1="11.965" x2="-3.716" y2="11.965" xlink:href="#linear-gradient-4"/>
    <clipPath id="clip-path-15">
      <path id="Trazado_246167" data-name="Trazado 246167" d="M87.8,80.906c-.654.375-4.166,2.507-3.777,5.646a4.3,4.3,0,0,0,2.362,3.482c1.529.572,2.976-.381,9.848-2.761,1.192-.413,1.7-.576,2.327-.393,2.79.818,2.362,6.953,3.361,7,.794.039,2.56-3.775,1.275-7.464a10.15,10.15,0,0,0-5.217-5.428A14.028,14.028,0,0,0,92.4,79.747a9.151,9.151,0,0,0-4.6,1.159" fill="none"/>
    </clipPath>
    <linearGradient id="linear-gradient-8" x1="-3.661" y1="8.387" x2="-3.617" y2="8.387" xlink:href="#linear-gradient"/>
    <clipPath id="clip-path-16">
      <path id="Trazado_246168" data-name="Trazado 246168" d="M77.08,151.532l-5.751,9.233-2.972-4.375a1.244,1.244,0,0,0-1.649-.318,1.07,1.07,0,0,0-.392,1.53l4.022,5.911a1.176,1.176,0,0,0,1.016.492h.013a1.259,1.259,0,0,0,1.016-.576l6.739-10.837a1.04,1.04,0,0,0-.422-1.49,1.252,1.252,0,0,0-1.62.43" fill="none"/>
    </clipPath>
    <linearGradient id="linear-gradient-9" x1="-4.893" y1="10.268" x2="-4.819" y2="10.268" gradientUnits="objectBoundingBox">
      <stop offset="0" stop-color="#ff9085"/>
      <stop offset="1" stop-color="#fb6fbb"/>
    </linearGradient>
    <clipPath id="clip-path-17">
      <path id="Trazado_246169" data-name="Trazado 246169" d="M77.08,194.968l-5.751,9.383-2.972-4.3a1.23,1.23,0,0,0-1.649-.275,1.087,1.087,0,0,0-.392,1.541l4.022,5.8a1.145,1.145,0,0,0,1.016.467h.013a1.3,1.3,0,0,0,1.016-.6l6.739-11.012a1.024,1.024,0,0,0-.422-1.48,1.21,1.21,0,0,0-.535-.122,1.277,1.277,0,0,0-1.085.594" fill="none"/>
    </clipPath>
    <linearGradient id="linear-gradient-10" x1="-4.893" y1="6.845" x2="-4.819" y2="6.845" xlink:href="#linear-gradient-9"/>
    <clipPath id="clip-path-18">
      <path id="Trazado_246170" data-name="Trazado 246170" d="M77.08,173.348l-5.751,9.308-2.972-4.336a1.235,1.235,0,0,0-1.649-.3,1.079,1.079,0,0,0-.392,1.536l4.022,5.857a1.159,1.159,0,0,0,1.016.48h.013a1.283,1.283,0,0,0,1.016-.59l6.739-10.925A1.032,1.032,0,0,0,78.7,172.9a1.219,1.219,0,0,0-.551-.13,1.257,1.257,0,0,0-1.069.582" fill="none"/>
    </clipPath>
    <linearGradient id="linear-gradient-11" x1="-4.893" y1="8.536" x2="-4.819" y2="8.536" xlink:href="#linear-gradient-9"/>
    <clipPath id="clip-path-19">
      <path id="Trazado_246171" data-name="Trazado 246171" d="M77.08,214.72l-5.751,9.45-2.972-4.262a1.223,1.223,0,0,0-1.649-.256,1.093,1.093,0,0,0-.392,1.545l4.022,5.758a1.132,1.132,0,0,0,1.016.455h.013a1.316,1.316,0,0,0,1.016-.615L79.122,215.7a1.017,1.017,0,0,0-.422-1.475,1.2,1.2,0,0,0-.519-.117,1.3,1.3,0,0,0-1.1.609" fill="none"/>
    </clipPath>
    <linearGradient id="linear-gradient-12" x1="-4.893" y1="5.319" x2="-4.819" y2="5.319" xlink:href="#linear-gradient-9"/>
    <clipPath id="clip-path-20">
      <path id="Trazado_246172" data-name="Trazado 246172" d="M269.411,271.576c-2.09.629-7.327,3.981-4.046,4.368s12.951-.417,13.232-1.532a20.234,20.234,0,0,0-.138-4.438s-6.957.973-9.048,1.6" fill="none"/>
    </clipPath>
    <linearGradient id="linear-gradient-13" x1="-15.299" y1="2.125" x2="-15.241" y2="2.125" xlink:href="#linear-gradient"/>
    <clipPath id="clip-path-21">
      <path id="Trazado_246173" data-name="Trazado 246173" d="M273.592,264.426l1.019,6.672s2.6,1.168,3.848.013l.138-6.983Z" fill="none"/>
    </clipPath>
    <linearGradient id="linear-gradient-14" x1="-52.783" y1="2.538" x2="-52.59" y2="2.538" xlink:href="#linear-gradient-4"/>
    <clipPath id="clip-path-22">
      <path id="Trazado_246174" data-name="Trazado 246174" d="M328.1,264.128s-2.052,1.522-1.505,3.345,5.333,9.128,8.745,11.2,2.342-2.247,1.35-4.937-3.53-8.616-4.52-9.61a2.115,2.115,0,0,0-1.495-.441,9.875,9.875,0,0,0-2.575.441" fill="none"/>
    </clipPath>
    <linearGradient id="linear-gradient-15" x1="-23.887" y1="1.221" x2="-23.814" y2="1.221" xlink:href="#linear-gradient"/>
    <clipPath id="clip-path-23">
      <path id="Trazado_246175" data-name="Trazado 246175" d="M324.4,256.8c.992,2.764,1.946,5.037,2.692,6.714,1.65,3.708,2.553,5.1,3.575,6.306.891,1.05,3,3.293,3.567,2.92s-.967-3.105-3.942-11.088c-.432-1.16-1.8-4.852-1.8-4.852Z" fill="none"/>
    </clipPath>
    <linearGradient id="linear-gradient-16" x1="-30.121" y1="1.712" x2="-30.029" y2="1.712" xlink:href="#linear-gradient-4"/>
    <clipPath id="clip-path-25">
      <path id="Trazado_246177" data-name="Trazado 246177" d="M193.331,63.225l1.821,1.22a1.781,1.781,0,0,1-.074.783,2.744,2.744,0,0,1-2.491,1.569c-4.675.979-6.5,1.027-7.215.818-.106-.031-.513-.163-.685.018-.274.29.22,1.209.431,1.53,1.266,1.932,5.657,2.773,8.944,1.262,1.2-.552,1.661-1.145,2.538-1,1.391.236,2.246,2.072,2.752,3.592l2-3.214s-1.174-4.6-3.126-5.817-4.713-2.514-5.346-3.047a.4.4,0,0,0-.258-.106c-.528,0-.864,1.334.71,2.388" fill="none"/>
    </clipPath>
    <linearGradient id="linear-gradient-17" x1="-9.082" y1="13.077" x2="-9.032" y2="13.077" xlink:href="#linear-gradient-4"/>
    <clipPath id="clip-path-27">
      <rect id="Rectángulo_104226" data-name="Rectángulo 104226" width="24.029" height="125.65" transform="translate(262.001 141.618)" fill="none"/>
    </clipPath>
    <clipPath id="clip-path-28">
      <path id="Trazado_246181" data-name="Trazado 246181" d="M282.307,214.63c-1.719-4.2-3.8-7.521-4.919-13.984-1.475-8.551.349-13.331,2.949-33.137,1.854-14.117,1.533-16.3.3-18.416-2.679-4.6-8.357-6.641-14.15-7.475.077.3.155.6.218.882,3.04,13.883-8.562,22.353-3.328,37.614,2.579,7.524,6.7,9.247,7.655,17.975.9,8.176-2.36,9.879-1.664,17.309,1.041,11.108,8.931,13.8,10.985,22.3,1.334,5.528.21,13.61-9.534,25.308.162,1.008.323,2.019.484,3.048a9,9,0,0,0,5.715,1.121,8.683,8.683,0,0,0,3.433-1.3c8.36-25.547,5.891-41.378,1.856-51.242" fill="none"/>
    </clipPath>
    <linearGradient id="linear-gradient-18" x1="-1.792" y1="1.305" x2="-1.783" y2="1.305" xlink:href="#linear-gradient-3"/>
    <clipPath id="clip-path-29">
      <rect id="Rectángulo_104228" data-name="Rectángulo 104228" width="63.365" height="47.302" transform="translate(197.58 48.103)" fill="none"/>
    </clipPath>
    <clipPath id="clip-path-30">
      <path id="Trazado_246182" data-name="Trazado 246182" d="M251.726,52.626c-12.509,9.88-11.117,28.831-18.807,29.791-2.349.294-2.22-1.507-7.822-3.328-8.2-2.664-12.045.027-17.809-2-2.387-.838-5.493-2.629-8.551-6.854l-1.157,1.029C203.6,87.2,218.088,96.828,231.754,95.233c16.925-1.976,24.387-20.211,25.742-23.523a50.255,50.255,0,0,0,3.18-23.607,26.1,26.1,0,0,0-8.95,4.523" fill="none"/>
    </clipPath>
    <linearGradient id="linear-gradient-19" x1="-3.094" y1="4.862" x2="-3.078" y2="4.862" xlink:href="#linear-gradient-3"/>
    <clipPath id="clip-path-31">
      <rect id="Rectángulo_104230" data-name="Rectángulo 104230" width="90.685" height="123.25" transform="translate(277.042 46.931)" fill="none"/>
    </clipPath>
    <clipPath id="clip-path-32">
      <path id="Trazado_246184" data-name="Trazado 246184" d="M349.609,159.118c-5.218-4.94-3.178-8.619-8.912-13.089-5.6-4.364-9.467-2.358-12.769-6.674-3.075-4.018-.58-6.88-3.056-12.75-2.274-5.391-5.786-6.315-12.568-12.332-4.522-4.012-10.476-9.294-13.841-16.329-5.842-12.209-1.757-25.243-.375-29.056a42.449,42.449,0,0,1,16.667-20.831c-.313-.338-.682-.722-1.077-1.126-21.421,2.943-33.91,15.321-35.455,18.986-3.571,8.472,2.082,11.585,2.228,36.019.069,11.679-1.19,16.29,2.6,21.165,4.334,5.575,9.328,3.85,15.6,11.139,4.816,5.6,4.045,9.151,8.541,11.511,4.835,2.537,7.914-.42,13.367.743,9.111,1.943,11.058,12.447,17.081,18.194,4.554,4.346,12.975,7.384,29.581,4.123a2.315,2.315,0,0,0,.5-1.617c-.469-3.229-10.52-.9-18.1-8.076" fill="none"/>
    </clipPath>
    <linearGradient id="linear-gradient-20" x1="-2.365" y1="1.767" x2="-2.356" y2="1.767" xlink:href="#linear-gradient-3"/>
    <clipPath id="clip-path-33">
      <path id="Trazado_246186" data-name="Trazado 246186" d="M272.841,18.724l.037,4.782a14.483,14.483,0,0,1-4.688,4.335,18.657,18.657,0,0,1-4.263,1.688s-.9.254-4.22.946c10.067,5.08,30.381,2.9,29.814,2.195s-5.721-3.286-8.909-5.264-4.268-10.615-4.268-10.615Z" fill="none"/>
    </clipPath>
    <linearGradient id="linear-gradient-21" x1="-7.91" y1="7.76" x2="-7.879" y2="7.76" xlink:href="#linear-gradient-4"/>
    <clipPath id="clip-path-34">
      <path id="Trazado_246187" data-name="Trazado 246187" d="M272.63,12.052c-2.315.86-4.056,8.4-1.138,9.461a4.779,4.779,0,0,0,5.337-1.664,2.475,2.475,0,0,0,1.355-.678c.141-.144.765-.774.559-1.237-.162-.365-.811-.559-1.549-.346a4.54,4.54,0,0,0-1.426-5.1A4.287,4.287,0,0,0,273.6,11.9a2.828,2.828,0,0,0-.966.147" fill="none"/>
    </clipPath>
    <linearGradient id="linear-gradient-22" x1="-18.436" y1="18.833" x2="-18.367" y2="18.833" xlink:href="#linear-gradient-4"/>
    <clipPath id="clip-path-35">
      <path id="Trazado_246188" data-name="Trazado 246188" d="M275.249,62.057c1.553,1.221,2.588,1.621,1.794,3.473s-2.24,3.5.036,4.95,3.163,2.007,4.938,2.229l1.776.221,2.33,1.243s3-.354,2.551-2.8c0,0-9.542-9.764-13.425-11.206a6.307,6.307,0,0,0-1.814-.486c-1,0,.631,1.443,1.814,2.372" fill="none"/>
    </clipPath>
    <linearGradient id="linear-gradient-23" x1="-14.431" y1="13.334" x2="-14.377" y2="13.334" xlink:href="#linear-gradient-4"/>
  </defs>
  <g id="Grupo_182086" data-name="Grupo 182086" clip-path="url(#clip-path)">
    <g id="Grupo_182021" data-name="Grupo 182021">
      <g id="Grupo_182020" data-name="Grupo 182020" clip-path="url(#clip-path)">
        <path id="Trazado_246138" data-name="Trazado 246138" d="M52.246,236.251a117.089,117.089,0,0,1-18.19-19.8C-4.039,165.9,12.256,112.8,17.678,96.411,26.437,69.974,32.9,47.585,57.836,29.869,114.485-10.389,307.388,4.981,333.6,39.4c26.238,34.449,32.809,65.244,34.452,99.09.123,1.342.176,2.341.231,3.216.519,8.471,2.645,60.881-47.648,99.53-10.5,8.22-23.72,15.6-39.3,21.926-70.231,27.761-174.988,19.648-229.094-26.911" fill="#e5e1f1"/>
        <g id="Grupo_182013" data-name="Grupo 182013" opacity="0.35">
          <g id="Grupo_182012" data-name="Grupo 182012">
            <g id="Grupo_182011-2" data-name="Grupo 182011" clip-path="url(#clip-path-3)">
              <path id="Trazado_246139" data-name="Trazado 246139" d="M46.864,11.071a4.54,4.54,0,0,1-.179-.467,3.19,3.19,0,0,1,3.1-4.3A5.858,5.858,0,0,1,55.469,10.1,109.508,109.508,0,0,0,65.99,32.872a129.982,129.982,0,0,0,15.8,21.058l1.129,1.235,1.168,1.2c.774.807,1.573,1.592,2.374,2.373Q88.858,61.1,91.4,63.308c.836.744,1.711,1.449,2.561,2.174s1.746,1.4,2.614,2.1c.9.669,1.771,1.359,2.688,2S101.07,70.895,102,71.5s1.837,1.239,2.778,1.819c.469.292.931.592,1.4.873l1.419.833c.937.572,1.906,1.063,2.853,1.6.959.5,1.918,1,2.88,1.464.969.45,1.926.927,2.9,1.328.485.2.966.422,1.451.619l1.45.567c.243.093.48.193.727.28l.75.258,1.494.512c1.008.3,2,.631,3.012.9a101.567,101.567,0,0,0,24.5,3.527c8.269.268,16.6-.145,25.26-.588,4.33-.217,8.734-.467,13.283-.623,2.266-.09,4.583-.13,6.922-.159,1.183,0,2.356-.015,3.557,0l3.5.046c8.959.134,18.228.387,27.9,1.218a196.578,196.578,0,0,1,30.453,4.87,139.267,139.267,0,0,1,16.4,5.127,120.457,120.457,0,0,1,16.857,7.979c2.8,1.607,5.568,3.361,8.276,5.251,1.358.943,2.691,1.93,4.016,2.94.657.508,1.3,1,1.962,1.544s1.335,1.09,1.983,1.651a97.958,97.958,0,0,1,13.971,14.665c1.012,1.317,1.995,2.646,2.923,4,.5.713.854,1.264,1.268,1.869l1.2,1.792c.795,1.2,1.552,2.428,2.3,3.664s1.451,2.5,2.172,3.757a103.055,103.055,0,0,1,7.124,15.836,86.954,86.954,0,0,1,4.09,16.579,80.077,80.077,0,0,1-6.875,45.769,102.2,102.2,0,0,1-15.469,23.739,123.128,123.128,0,0,1-9.763,10.1c-1.745,1.6-3.549,3.169-5.457,4.716-.959.774-1.936,1.547-2.98,2.328-.523.391-1.055.782-1.636,1.189l-.913.627-.522.34-.321.2-.487.283c-16.457,8.526-40.833,1.764-54.438-15.1s-11.291-37.445,5.168-45.971l-.164.112c-.037.03-.012.024-.012.024l.016.008c.01.012.076-.006.116-.009q.179-.036.354-.09c.261-.07.563-.178.863-.283.611-.216,1.26-.468,1.909-.74,1.306-.553,2.639-1.163,3.951-1.816a73.415,73.415,0,0,0,7.618-4.351,62.521,62.521,0,0,0,12.558-10.56,39.112,39.112,0,0,0,7.6-12.255,28.6,28.6,0,0,0,1.654-6.688,31.536,31.536,0,0,0,.07-7.234,40.442,40.442,0,0,0-1.618-7.911c-.236-.689-.44-1.382-.69-2.083-.273-.7-.51-1.409-.8-2.121l-.855-2.067c-.211-.545-.459-1.09-.7-1.631a31.7,31.7,0,0,0-3.916-6.231c-.193-.25-.4-.491-.6-.736l-.689-.778c-.473-.519-.958-1.037-1.472-1.542-1.023-1.016-2.123-2.017-3.314-3a73.447,73.447,0,0,0-18.185-10.506q-2.687-1.147-5.523-2.16t-5.794-1.934c-3.935-1.226-8.007-2.33-12.17-3.335-8.33-2.015-17-3.624-25.921-5.153l-3.2-.543c-1.033-.177-2.083-.33-3.134-.5-2.113-.308-4.241-.606-6.411-.872-4.325-.541-8.76-1.012-13.271-1.47-9.024-.934-18.411-1.888-28.092-3.664a134.2,134.2,0,0,1-29.334-8.574c-1.205-.51-2.4-1.08-3.589-1.625-1.187-.592-2.352-1.148-3.542-1.772l-1.774-.924c-.584-.317-1.158-.648-1.735-.971-1.161-.636-2.275-1.338-3.4-2.017A114.5,114.5,0,0,1,95.667,78.67,153.334,153.334,0,0,1,75.176,57.783a191.7,191.7,0,0,1-15.93-22.81A236.693,236.693,0,0,1,46.873,11.1Z" fill="#fdb74d"/>
            </g>
          </g>
        </g>
        <path id="Trazado_246140" data-name="Trazado 246140" d="M208.336,44.117,26.207,34c-4.2-.2-7.971,4.2-7.971,7.89V267.111c0,5.119,5.445,6.149,9.64,5.738l180.46-17.7a6.677,6.677,0,0,0,5.958-6.471V50.284a6.268,6.268,0,0,0-5.958-6.167" fill="#97a6b7"/>
        <path id="Trazado_246141" data-name="Trazado 246141" d="M211.332,42.328,28.843,33.707c-4.195-.2-7.611,2.656-7.611,6.376V267.064c0,3.72,3.416,6.4,7.611,5.984L211.332,255.01a6.709,6.709,0,0,0,5.958-6.522V48.543a6.294,6.294,0,0,0-5.958-6.215" fill="#d8dee8"/>
        <g id="Grupo_182016" data-name="Grupo 182016" opacity="0.74">
          <g id="Grupo_182015" data-name="Grupo 182015">
            <g id="Grupo_182014" data-name="Grupo 182014" clip-path="url(#clip-path-4)">
              <path id="Trazado_246142" data-name="Trazado 246142" d="M28.843,269.97c-2.263.219-4.108-1.233-4.108-3.237V40.234a3.7,3.7,0,0,1,4.108-3.449l182.489,8.279a3.406,3.406,0,0,1,3.228,3.361V248.747a3.632,3.632,0,0,1-3.228,3.528Z" fill="#fff"/>
            </g>
          </g>
        </g>
        <path id="Trazado_246143" data-name="Trazado 246143" d="M199.57,246.9,43.486,261.345V52.381L199.57,58.026Z" fill="#fff"/>
        <g id="Grupo_182019" data-name="Grupo 182019" opacity="0.3" style="mix-blend-mode: multiply;isolation: isolate">
          <g id="Grupo_182018" data-name="Grupo 182018">
            <g id="Grupo_182017" data-name="Grupo 182017" clip-path="url(#clip-path-5)">
              <path id="Trazado_246144" data-name="Trazado 246144" d="M137.141,59.048l-62.38.749,1.4-13.509a3.714,3.714,0,0,1,3.166-3.453l10.565-1.56a3.78,3.78,0,0,0,2.858-2.106L93.9,36.78l27.632,1.638Z" fill="#97a6b7"/>
            </g>
          </g>
        </g>
      </g>
    </g>
    <g id="Grupo_182023" data-name="Grupo 182023">
      <g id="Grupo_182022" data-name="Grupo 182022" clip-path="url(#clip-path-6)">
        <rect id="Rectángulo_104205" data-name="Rectángulo 104205" width="98.581" height="52.487" transform="translate(74.412 11.91)" fill="url(#linear-gradient)"/>
      </g>
    </g>
    <g id="Grupo_182028" data-name="Grupo 182028">
      <g id="Grupo_182027" data-name="Grupo 182027" clip-path="url(#clip-path)">
        <path id="Trazado_246146" data-name="Trazado 246146" d="M171.014,50.564a3.3,3.3,0,0,0-3.178-2.67l-9.967-.429a7.812,7.812,0,0,1-7.675-8.195l.385-10.36a3.416,3.416,0,0,0-3.312-3.564l-3.275-.188a4.021,4.021,0,0,1-3.81-4.7,7.178,7.178,0,0,0-6.853-8.248,8.892,8.892,0,0,0-9.27,7.3,4.7,4.7,0,0,1-.693,1.846,5.187,5.187,0,0,1-4.6,2.356l-3.379-.194a4.459,4.459,0,0,0-4.51,3.2l-2.809,10.516a10.679,10.679,0,0,1-10.663,7.625l-10.934-.47a4.782,4.782,0,0,0-4.373,2.5L75.514,59.444a1.453,1.453,0,0,0,1.3,2.177l94.821,3.024a1.715,1.715,0,0,0,1.728-1.948ZM131.985,21.175a2.107,2.107,0,0,1-2.023-2.435,2.6,2.6,0,0,1,2.71-2.147,2.107,2.107,0,0,1,2.015,2.435,2.6,2.6,0,0,1-2.7,2.147" fill="#97a6b7"/>
        <g id="Grupo_182026" data-name="Grupo 182026" opacity="0.5" style="mix-blend-mode: soft-light;isolation: isolate">
          <g id="Grupo_182025" data-name="Grupo 182025">
            <g id="Grupo_182024" data-name="Grupo 182024" clip-path="url(#clip-path-8)">
              <path id="Trazado_246147" data-name="Trazado 246147" d="M154.787,56.334c-8.458-5.014-14.948-1.459-20.22-7.114-5.643-6.055-1.837-14.025-7.676-17.786-3.738-2.408-7.072-.284-11.42-.936a12.274,12.274,0,0,1-5.056-2.031l-2.343,8.77A10.679,10.679,0,0,1,97.41,44.863l-10.934-.471a4.78,4.78,0,0,0-4.373,2.5L75.514,59.444a1.454,1.454,0,0,0,1.3,2.177l86.172,2.748a25.187,25.187,0,0,0-8.2-8.035" fill="#fff"/>
            </g>
          </g>
        </g>
        <path id="Trazado_246148" data-name="Trazado 246148" d="M77.948,152.84v11.725l-13,.421V153.148Zm1.488-1.523-15.979.377v14.829l15.979-.518Z" fill="#d8dee8"/>
        <path id="Trazado_246149" data-name="Trazado 246149" d="M185.521,162.566l-100.2,3.248V151.178l100.2-2.366Z" fill="#d8dee8"/>
        <path id="Trazado_246150" data-name="Trazado 246150" d="M77.948,174.262v11.723l-13,.588V174.736Zm1.488-1.543-15.979.582V188.13l15.979-.723Z" fill="#d8dee8"/>
        <path id="Trazado_246151" data-name="Trazado 246151" d="M185.521,182.607l-100.2,4.533V172.5l100.2-3.651Z" fill="#d8dee8"/>
        <path id="Trazado_246152" data-name="Trazado 246152" d="M77.948,195.683V207.4l-13,.755V196.324Zm1.488-1.563-15.979.787v14.829l15.979-.928Z" fill="#d8dee8"/>
        <path id="Trazado_246153" data-name="Trazado 246153" d="M185.521,202.648l-100.2,5.818V193.83l100.2-4.936Z" fill="#d8dee8"/>
        <path id="Trazado_246154" data-name="Trazado 246154" d="M77.948,217.1v11.719l-13,.921V217.911Zm1.488-1.583-15.979.992v14.829l15.979-1.133Z" fill="#d8dee8"/>
        <path id="Trazado_246155" data-name="Trazado 246155" d="M185.521,222.689l-100.2,7.1V215.156l100.2-6.221Z" fill="#d8dee8"/>
        <path id="Trazado_246156" data-name="Trazado 246156" d="M63.457,138.69a.744.744,0,0,1-.744-.744V68.74A.743.743,0,0,1,63.476,68l63.54,1.627a.745.745,0,0,1,.725.744v66.6a.744.744,0,0,1-.733.744l-63.54.982h-.011M64.2,69.5v67.688l62.052-.96V71.092ZM127,136.964h0Z" fill="#d8dee8"/>
        <path id="Trazado_246157" data-name="Trazado 246157" d="M185.521,80.321l-48.545-.981V70.623l48.545,1.243Z" fill="#d8dee8"/>
        <path id="Trazado_246158" data-name="Trazado 246158" d="M185.521,99.109l-48.545-.4V94.353l48.545.529Z" fill="#d8dee8"/>
        <path id="Trazado_246159" data-name="Trazado 246159" d="M185.521,106.077l-48.545-.181v-4.358l48.545.312Z" fill="#d8dee8"/>
        <path id="Trazado_246160" data-name="Trazado 246160" d="M185.521,113.044l-48.545.036v-4.359l48.545.1Z" fill="#d8dee8"/>
      </g>
    </g>
    <g id="Grupo_182030" data-name="Grupo 182030">
      <g id="Grupo_182029" data-name="Grupo 182029" clip-path="url(#clip-path-9)">
        <rect id="Rectángulo_104208" data-name="Rectángulo 104208" width="34.281" height="34.588" transform="translate(70.072 94.733) rotate(-60.489)" fill="url(#linear-gradient-2)"/>
      </g>
    </g>
    <g id="Grupo_182032" data-name="Grupo 182032">
      <g id="Grupo_182031" data-name="Grupo 182031" clip-path="url(#clip-path-10)">
        <rect id="Rectángulo_104209" data-name="Rectángulo 104209" width="49.408" height="65.136" transform="matrix(0.401, -0.916, 0.916, 0.401, 55.57, 130.942)" fill="url(#linear-gradient-3)"/>
      </g>
    </g>
    <g id="Grupo_182034" data-name="Grupo 182034">
      <g id="Grupo_182033" data-name="Grupo 182033" clip-path="url(#clip-path-11)">
        <rect id="Rectángulo_104210" data-name="Rectángulo 104210" width="39.847" height="45.612" transform="translate(65.143 107.524) rotate(-59.109)" fill="url(#linear-gradient-4)"/>
      </g>
    </g>
    <g id="Grupo_182036" data-name="Grupo 182036">
      <g id="Grupo_182035" data-name="Grupo 182035" clip-path="url(#clip-path-12)">
        <rect id="Rectángulo_104211" data-name="Rectángulo 104211" width="5.565" height="4.474" transform="translate(99.356 96.134) rotate(-76.777)" fill="url(#linear-gradient-5)"/>
      </g>
    </g>
    <g id="Grupo_182038" data-name="Grupo 182038">
      <g id="Grupo_182037" data-name="Grupo 182037" clip-path="url(#clip-path-13)">
        <rect id="Rectángulo_104212" data-name="Rectángulo 104212" width="4.551" height="5.635" transform="translate(83.303 91.543) rotate(-13.223)" fill="url(#linear-gradient-6)"/>
      </g>
    </g>
    <g id="Grupo_182040" data-name="Grupo 182040">
      <g id="Grupo_182039" data-name="Grupo 182039" clip-path="url(#clip-path-14)">
        <rect id="Rectángulo_104213" data-name="Rectángulo 104213" width="22.096" height="16.796" transform="matrix(0.024, -1, 1, 0.024, 85.487, 103.273)" fill="url(#linear-gradient-7)"/>
      </g>
    </g>
    <g id="Grupo_182042" data-name="Grupo 182042">
      <g id="Grupo_182041" data-name="Grupo 182041" clip-path="url(#clip-path-15)">
        <rect id="Rectángulo_104214" data-name="Rectángulo 104214" width="22.603" height="25.124" transform="translate(77.557 90.481) rotate(-60.488)" fill="url(#linear-gradient-8)"/>
      </g>
    </g>
    <g id="Grupo_182044" data-name="Grupo 182044">
      <g id="Grupo_182043" data-name="Grupo 182043" clip-path="url(#clip-path-16)">
        <rect id="Rectángulo_104215" data-name="Rectángulo 104215" width="13.483" height="13.054" transform="translate(65.968 150.964)" fill="url(#linear-gradient-9)"/>
      </g>
    </g>
    <g id="Grupo_182046" data-name="Grupo 182046">
      <g id="Grupo_182045" data-name="Grupo 182045" clip-path="url(#clip-path-17)">
        <rect id="Rectángulo_104216" data-name="Rectángulo 104216" width="13.483" height="13.24" transform="translate(65.968 194.374)" fill="url(#linear-gradient-10)"/>
      </g>
    </g>
    <g id="Grupo_182048" data-name="Grupo 182048">
      <g id="Grupo_182047" data-name="Grupo 182047" clip-path="url(#clip-path-18)">
        <rect id="Rectángulo_104217" data-name="Rectángulo 104217" width="13.483" height="13.148" transform="translate(65.968 172.766)" fill="url(#linear-gradient-11)"/>
      </g>
    </g>
    <g id="Grupo_182050" data-name="Grupo 182050">
      <g id="Grupo_182049" data-name="Grupo 182049" clip-path="url(#clip-path-19)">
        <rect id="Rectángulo_104218" data-name="Rectángulo 104218" width="13.483" height="13.327" transform="translate(65.968 214.111)" fill="url(#linear-gradient-12)"/>
      </g>
    </g>
    <g id="Grupo_182052" data-name="Grupo 182052">
      <g id="Grupo_182051" data-name="Grupo 182051" clip-path="url(#clip-path-20)">
        <rect id="Rectángulo_104219" data-name="Rectángulo 104219" width="17.12" height="7.28" transform="translate(261.732 269.994) rotate(-3.18)" fill="url(#linear-gradient-13)"/>
      </g>
    </g>
    <g id="Grupo_182054" data-name="Grupo 182054">
      <g id="Grupo_182053" data-name="Grupo 182053" clip-path="url(#clip-path-21)">
        <rect id="Rectángulo_104220" data-name="Rectángulo 104220" width="5.182" height="8.245" transform="translate(273.414 264.132) rotate(-1.252)" fill="url(#linear-gradient-14)"/>
      </g>
    </g>
    <g id="Grupo_182056" data-name="Grupo 182056">
      <g id="Grupo_182055" data-name="Grupo 182055" clip-path="url(#clip-path-22)">
        <rect id="Rectángulo_104221" data-name="Rectángulo 104221" width="13.63" height="17.74" transform="matrix(0.998, -0.055, 0.055, 0.998, 325.099, 263.738)" fill="url(#linear-gradient-15)"/>
      </g>
    </g>
    <g id="Grupo_182058" data-name="Grupo 182058">
      <g id="Grupo_182057" data-name="Grupo 182057" clip-path="url(#clip-path-23)">
        <rect id="Rectángulo_104222" data-name="Rectángulo 104222" width="10.764" height="16.537" transform="translate(324.049 256.806) rotate(-1.252)" fill="url(#linear-gradient-16)"/>
      </g>
    </g>
    <g id="Grupo_182060" data-name="Grupo 182060">
      <g id="Grupo_182059" data-name="Grupo 182059" clip-path="url(#clip-path)">
        <path id="Trazado_246176" data-name="Trazado 246176" d="M253.344,141.295a172.783,172.783,0,0,0-.371,30.82c1.323,17.052,4.733,27.842,9.009,46.024,2.613,11.111,6.134,27.464,9.32,47.917a8.994,8.994,0,0,0,5.715,1.12,8.668,8.668,0,0,0,3.434-1.3c8.36-25.547,5.891-41.378,1.856-51.242-1.72-4.2-3.8-7.521-4.919-13.984-1.474-8.551.349-13.331,2.949-33.137,1.853-14.117,1.533-16.3.3-18.416-4.93-8.465-20.008-8.3-27.293-7.8" fill="#4d4d4d"/>
      </g>
    </g>
    <g id="Grupo_182062" data-name="Grupo 182062">
      <g id="Grupo_182061" data-name="Grupo 182061" clip-path="url(#clip-path-25)">
        <rect id="Rectángulo_104224" data-name="Rectángulo 104224" width="20.13" height="17.339" transform="matrix(0.937, -0.35, 0.35, 0.937, 180.421, 62.328)" fill="url(#linear-gradient-17)"/>
      </g>
    </g>
    <g id="Grupo_182079" data-name="Grupo 182079">
      <g id="Grupo_182078" data-name="Grupo 182078" clip-path="url(#clip-path)">
        <path id="Trazado_246178" data-name="Trazado 246178" d="M282.122,144.266c5.122,26.45,10.148,40.342,13.953,48.2a132,132,0,0,1,7.026,17.152,139.741,139.741,0,0,1,4.271,16.339c1.766,8.107,6.129,19.945,17.872,35.472a4.461,4.461,0,0,0,4.063.209,3.924,3.924,0,0,0,1.643-1.706c-1.535-14.844-3.3-27.319-4.826-36.946-.322-2.019-1.735-10.854-3.952-22.525-.867-4.568-2.138-11.261-3.661-18.135-1.895-8.56-4.8-20.206-9.283-34.16l-27.106-3.9" fill="#4d4d4d"/>
        <path id="Trazado_246179" data-name="Trazado 246179" d="M197.579,71.266l4-3.551c.487.493,7.6,7.429,17.53,5.326,6.843-1.447,10.789-7.066,13.315-10.651,7.593-10.772,3.052-18.675,11.227-25.994,2.269-2.032,6.722-4.493,9.633-3.743,6.937,1.788,10.931,22.649,4.216,39.057-1.354,3.312-8.815,21.547-25.742,23.522-13.666,1.6-28.157-8.033-34.174-23.966" fill="#fdb74d"/>
        <path id="Trazado_246180" data-name="Trazado 246180" d="M277.759,39.646c-2.9-2.684-8.462-5.779-11.249-12.974-.839-2.167-3.811-9.84.574-15.71,2.6-3.484,7.436-5.85,11.7-5.013,3.641.715,4.21,3.252,10.4,8.356,2.408,1.985,6.279,5.178,10.587,6.953,7.38,3.043,11.815.18,19.224.506,9.1.4,19.678,5.482,24.773,12.869,9.043,13.112-4.057,26.413,5.848,41.775,3.246,5.031,4.845,3.9,12.532,13.644S373.687,104.685,373,110.661c-.95,8.295-9.885,16.219-18.3,16.758-8.218.525-13.443-5.94-17.627-3.112-2.978,2.012-1.275,5.927-4.438,10.632-4.077,6.066-12.091,7.276-13.385,7.47-12.013,1.812-28.211-12.275-35.09-28.962-12.4-30.1,9.386-59.2-6.4-73.8"/>
        <g id="Grupo_182067" data-name="Grupo 182067" opacity="0.3" style="mix-blend-mode: multiply;isolation: isolate">
          <g id="Grupo_182066" data-name="Grupo 182066">
            <g id="Grupo_182065" data-name="Grupo 182065" clip-path="url(#clip-path-27)">
              <g id="Grupo_182064" data-name="Grupo 182064">
                <g id="Grupo_182063" data-name="Grupo 182063" clip-path="url(#clip-path-28)">
                  <rect id="Rectángulo_104225" data-name="Rectángulo 104225" width="119.34" height="99.859" transform="matrix(0.597, -0.802, 0.802, 0.597, 197.788, 222.621)" fill="url(#linear-gradient-18)"/>
                </g>
              </g>
            </g>
          </g>
        </g>
        <g id="Grupo_182072" data-name="Grupo 182072" opacity="0.15" style="mix-blend-mode: multiply;isolation: isolate">
          <g id="Grupo_182071" data-name="Grupo 182071">
            <g id="Grupo_182070" data-name="Grupo 182070" clip-path="url(#clip-path-29)">
              <g id="Grupo_182069" data-name="Grupo 182069">
                <g id="Grupo_182068" data-name="Grupo 182068" clip-path="url(#clip-path-30)">
                  <rect id="Rectángulo_104227" data-name="Rectángulo 104227" width="63.858" height="48.725" transform="translate(197.58 48.103)" fill="url(#linear-gradient-19)"/>
                </g>
              </g>
            </g>
          </g>
        </g>
        <path id="Trazado_246183" data-name="Trazado 246183" d="M242.652,37.647c.767-1.191,3.2-4.49,13.546-6.922a59.539,59.539,0,0,1,27.1-.693,60.525,60.525,0,0,1,31.457,18.025,42.438,42.438,0,0,0-16.666,20.831c-1.383,3.813-5.467,16.848.373,29.057,3.366,7.035,9.319,12.316,13.841,16.328,6.783,6.017,10.3,6.942,12.569,12.332,2.477,5.87-.018,8.732,3.056,12.751,3.3,4.315,7.171,2.309,12.77,6.674,5.734,4.469,3.693,8.149,8.911,13.089,7.582,7.177,17.633,4.846,18.1,8.076.4,2.778-6.741,6.547-12.81,8.076-12.021,3.028-22.5-2.054-25.621-3.62-8.632-4.336-7.142-7.143-13.721-10.449-11.02-5.535-18.55.624-43.649,1.258-13.59.344-20.463.422-24.228-4.177-3.439-4.2-1.631-8.807.433-28.663v0c.663-6.631,2.05-20.515,2.059-28.426.006-4.676-1.616-12.316-4.86-27.6-.19-.9-1.946-9.156-3.364-20.184-1.277-9.929-1.093-12.979.7-15.766" fill="#fdb74d"/>
        <g id="Grupo_182077" data-name="Grupo 182077" opacity="0.15" style="mix-blend-mode: multiply;isolation: isolate">
          <g id="Grupo_182076" data-name="Grupo 182076">
            <g id="Grupo_182075" data-name="Grupo 182075" clip-path="url(#clip-path-31)">
              <g id="Grupo_182074" data-name="Grupo 182074">
                <g id="Grupo_182073" data-name="Grupo 182073" clip-path="url(#clip-path-32)">
                  <rect id="Rectángulo_104229" data-name="Rectángulo 104229" width="112.107" height="138.53" transform="matrix(0.987, -0.161, 0.161, 0.987, 254.722, 50.19)" fill="url(#linear-gradient-20)"/>
                </g>
              </g>
            </g>
          </g>
        </g>
        <path id="Trazado_246185" data-name="Trazado 246185" d="M284.721,72.508c-2.277,4.836,8.187,16.1,19.817,21.446,2.369,1.09,19.385,8.914,26.969,1.391,6.267-6.218,2.223-19.073.779-23.662-7.09-22.536-28.864-34-37.989-38.135-6.811,17.028-2.8,24.616-1.221,26.985a90.724,90.724,0,0,0,11.139,12.254c3.439,3.221,5.58,4.789,5.292,5.291-.358.625-4.389-.556-20.043-8.175-1.815.294-3.965.954-4.743,2.605" fill="#fdb74d"/>
      </g>
    </g>
    <g id="Grupo_182081" data-name="Grupo 182081">
      <g id="Grupo_182080" data-name="Grupo 182080" clip-path="url(#clip-path-33)">
        <rect id="Rectángulo_104232" data-name="Rectángulo 104232" width="32.688" height="35.664" transform="translate(250.941 29.516) rotate(-55.438)" fill="url(#linear-gradient-21)"/>
      </g>
    </g>
    <g id="Grupo_182083" data-name="Grupo 182083">
      <g id="Grupo_182082" data-name="Grupo 182082" clip-path="url(#clip-path-34)">
        <rect id="Rectángulo_104233" data-name="Rectángulo 104233" width="14.457" height="14.601" transform="matrix(0.857, -0.516, 0.516, 0.857, 263.803, 14.777)" fill="url(#linear-gradient-22)"/>
      </g>
    </g>
    <g id="Grupo_182085" data-name="Grupo 182085">
      <g id="Grupo_182084" data-name="Grupo 182084" clip-path="url(#clip-path-35)">
        <rect id="Rectángulo_104234" data-name="Rectángulo 104234" width="18.805" height="16.992" transform="translate(270.125 60.061) rotate(-9.287)" fill="url(#linear-gradient-23)"/>
      </g>
    </g>
  </g>
</svg>
