<svg id="Grupo_181728" data-name="Grupo 181728" xmlns="http://www.w3.org/2000/svg" xmlns:xlink="http://www.w3.org/1999/xlink" width="136" height="136" viewBox="0 0 136 136">
  <defs>
    <clipPath id="clip-path">
      <rect id="Rectángulo_104067" data-name="Rectángulo 104067" width="136" height="136" fill="none"/>
    </clipPath>
  </defs>
  <g id="Grupo_181728-2" data-name="Grupo 181728" clip-path="url(#clip-path)">
    <path id="Trazado_245962" data-name="Trazado 245962" d="M136,68A68,68,0,1,1,68,0a68,68,0,0,1,68,68" fill="#5038a1"/>
    <path id="Trazado_245963" data-name="Trazado 245963" d="M110.744,63.938c-.135-1.005-.257-2.023-.417-3.017a42.477,42.477,0,0,0-5.432-14.848c-.061-.11-.122-.221-.184-.356l-.306-.6,1.483-1.472c.944-.957,1.9-1.9,2.857-2.845a2.091,2.091,0,0,0,.736-1.7,1.931,1.931,0,0,0-1.925-1.79l-6.437-.54c-.27-.024-.54-.061-.834-.1l-.908-.111-.6-6.878c-.037-.441-.062-.9-.111-1.336a1.864,1.864,0,0,0-1.214-1.7,1.8,1.8,0,0,0-2.084.429c-.993.981-1.974,1.974-2.955,2.98L90.88,31.592l-1.3-.712c-.6-.343-1.2-.674-1.8-.98a42.151,42.151,0,0,0-16.455-4.7,3.04,3.04,0,0,1-.564-.111l-.123-.024H65.315l-1.508.2c-1.1.135-2.208.282-3.3.466A42.905,42.905,0,0,0,25.893,59.6c-3.8,20.159,6.033,39.25,24.462,47.5a42.838,42.838,0,0,0,59.567-29.992c.27-1.251.442-2.575.6-3.85.074-.625.16-1.263.246-1.9.036-.183.073-.368.11-.552l.037-.159V65.262ZM89.96,37.882c.994-.846,1.913-1.79,2.882-2.8.441-.465.895-.932,1.361-1.41l.932-.932.245,2.8c.1.981.172,1.888.245,2.808a1.99,1.99,0,0,0,1.987,2c1.2.11,2.391.221,3.58.331l.773.073.588.858-.735.675c-.246.233-.516.478-.761.723l-1.434,1.435c-.981.993-1.975,1.974-2.968,2.943a2.054,2.054,0,0,1-1.312.6H95.27c-1.545-.1-3.078-.246-4.647-.38l-2.06-.184-.049-.5c-.037-.441-.062-.883-.086-1.325a20.26,20.26,0,0,0-.307-2.808,4.621,4.621,0,0,1,1.839-4.9M66.627,69.357a2,2,0,0,0,2.979-.245c1.263-1.262,2.526-2.537,3.813-3.837l2.306-2.318.4.687A9.248,9.248,0,0,1,61.391,74.507a9.3,9.3,0,0,1-.674-12.286c2.783-3.506,7.97-4.573,11.55-2.39l.625.379-.65.736q-.2.24-.4.441l-2.072,2.085c-.969.969-1.95,1.937-2.906,2.906a1.987,1.987,0,0,0-.233,2.979m9.159-12.016-.417-.269a13.026,13.026,0,0,0-11.048-1.717A12.818,12.818,0,0,0,56.977,60.8a13.155,13.155,0,1,0,21.985-.11l-.27-.417,8.019-7.97.429.466c8.154,8.889,6.278,22.892-.11,30.764a24.384,24.384,0,0,1-16.909,8.951c-.76.061-1.508.1-2.256.1a23.917,23.917,0,0,1-15.683-5.775A24.828,24.828,0,0,1,43.428,69.37,24.3,24.3,0,0,1,49.84,51.419c7.652-8.351,22.635-11.71,33.5-2.563l.5.43ZM94.252,96.873A39.075,39.075,0,0,1,67.9,107.062,38.446,38.446,0,0,1,41.515,96.689a39.024,39.024,0,0,1-3.9-53.2C51.251,26.5,73.383,25.976,87.287,34.093l.687.405L86.65,35.81c-.576.576-1.153,1.152-1.741,1.692a2.534,2.534,0,0,0-.895,2.427c.11.773.159,1.533.208,2.355.025.355.049.723.074,1.116l.085,1.165-1-.589c-8.534-5.039-17.313-5.824-26.093-2.329A27.8,27.8,0,0,0,43.109,54.178,28.459,28.459,0,0,0,84.014,91.5a28.546,28.546,0,0,0,7.957-38.894l-.625-1.017,2.391.171c.871.061,1.68.123,2.5.209a2.222,2.222,0,0,0,2.023-.687c.6-.626,1.2-1.239,1.814-1.852l1.374-1.4.417.674c7.761,12.887,7.737,34.149-7.615,48.164" fill="#fff"/>
  </g>
</svg>
