<svg id="Grupo_181729" data-name="Grupo 181729" xmlns="http://www.w3.org/2000/svg" xmlns:xlink="http://www.w3.org/1999/xlink" width="136" height="136" viewBox="0 0 136 136">
  <defs>
    <clipPath id="clip-path">
      <rect id="Rectángulo_104068" data-name="Rectángulo 104068" width="136" height="136" fill="none"/>
    </clipPath>
  </defs>
  <g id="Grupo_181729-2" data-name="Grupo 181729" clip-path="url(#clip-path)">
    <path id="Trazado_245964" data-name="Trazado 245964" d="M136,68A68,68,0,1,1,68,0a68,68,0,0,1,68,68" fill="#5038a1"/>
    <path id="Trazado_245965" data-name="Trazado 245965" d="M86.466,50.8l4.1-.976c.08-.576.132-1.136.239-1.685a7.525,7.525,0,1,1,10.29,8.37,7.376,7.376,0,0,1-9.121-2.79c-.5-.781-.94-.994-1.8-.709-.973.322-1.993.5-2.814.7.035,2.572.187,5.019.076,7.454a26.4,26.4,0,0,1-3.255,11.323,1.138,1.138,0,0,0-.026,1.277,4.543,4.543,0,0,1,.341,3.475,1.849,1.849,0,0,0,.251,1.05c.1.215.346.358.516.543.944,1.027,1.773,1.973,3.52,1.454,1.38-.411,2.659.42,3.692,1.458,3.594,3.614,7.18,7.238,10.816,10.811A7.586,7.586,0,1,1,92.251,102.9a1.486,1.486,0,0,1-.041-2.121,1.457,1.457,0,0,1,2.183.02,5.624,5.624,0,0,0,3.13,1.778,4.469,4.469,0,0,0,4.664-2.32,4.423,4.423,0,0,0-.777-5.226Q96.039,89.594,90.622,84.2c-1.325-1.321-1.818-1.331-3.142-.052-1.289,1.245-2.535,2.537-3.768,3.838a1.333,1.333,0,0,0,.021,2.076c.615.673,1.278,1.3,1.9,1.964.78.823.827,1.677.148,2.327a1.529,1.529,0,0,1-2.257-.173c-.681-.653-1.376-1.3-2.012-1.991a4.373,4.373,0,0,1-1.084-4.45,1.014,1.014,0,0,0-.36-1.291,3.027,3.027,0,0,1-.535-.532c-.873-1.092-1.771-1.837-3.385-1.333-.694.217-1.612-.315-2.436-.462a1.886,1.886,0,0,0-1.083.006,28.667,28.667,0,0,1-25.041,1.1c-.228-.092-.458-.178-.768-.3L44.37,89.539a7.791,7.791,0,0,1,2.721,5.337,7.537,7.537,0,0,1-14.965,1.67,7.553,7.553,0,0,1,5.958-8.552,22.263,22.263,0,0,1,3.081-.031,1.062,1.062,0,0,0,.783-.364c.748-1.308,1.435-2.651,2.18-4.054-.233-.173-.441-.346-.666-.49a28.866,28.866,0,0,1-9.731-37.894,9.825,9.825,0,0,1,.516-.9,1.5,1.5,0,0,1,1.985-.541,1.482,1.482,0,0,1,.615,2.026c-.633,1.366-1.386,2.687-1.907,4.095C29.7,63.986,37.376,81.325,55.1,84.135a24.7,24.7,0,0,0,17.3-3.412,1.669,1.669,0,0,1,2.223.219c1,.917,1.49.988,2.5.058,1.427-1.316,2.782-2.717,4.108-4.137.665-.713.561-1.391-.141-2.157a1.667,1.667,0,0,1-.273-2.434C89.1,58.76,83.33,39.44,66.282,34.4A25.113,25.113,0,0,0,45.01,37.33c-.675.424-1.409.785-2.073.193a1.942,1.942,0,0,1-.587-1.443,2.008,2.008,0,0,1,.907-1.2,27.885,27.885,0,0,1,16.073-4.57A28.389,28.389,0,0,1,86.3,50.444a3.646,3.646,0,0,0,.162.356m11.729-5.739a4.559,4.559,0,0,0-4.534,4.479,4.529,4.529,0,1,0,9.057.013,4.558,4.558,0,0,0-4.523-4.492M39.576,99.873a4.527,4.527,0,1,0-4.515-4.5,4.559,4.559,0,0,0,4.515,4.5M82.415,80.4l-2.036,1.958,2.24,2.3,2.026-2.055-2.23-2.2" fill="#fff"/>
    <path id="Trazado_245966" data-name="Trazado 245966" d="M36.351,59.14c-.036-12.56,10.008-22.877,22.287-22.892,12.415-.015,22.889,10.29,22.938,22.57a22.786,22.786,0,0,1-22.4,22.719,22.533,22.533,0,0,1-22.825-22.4M48.465,75.375l5.2-9.8c.073-.138.22-.286.205-.415a1.738,1.738,0,0,0-.248-.929,7.511,7.511,0,0,1,3.223-12.577,7.4,7.4,0,0,1,8.47,3.328,1,1,0,0,0,1.337.538c2.769-.7,5.557-1.328,8.336-1.99.838-.2,1.669-.424,2.5-.638a19.891,19.891,0,0,0-18.9-13.623,19.355,19.355,0,0,0-18.67,15.252,19,19,0,0,0,8.546,20.85m29.9-19.5c-.31.054-.493.075-.671.118-3.42.812-6.835,1.646-10.263,2.423-.675.153-.946.365-1.012,1.122a7.529,7.529,0,0,1-8.848,6.739.958.958,0,0,0-1.217.635c-1.592,3.065-3.224,6.109-4.84,9.162-.126.239-.229.491-.389.837,7.018,2.66,13.63,2.194,19.575-2.4,6.04-4.669,8.508-10.971,7.665-18.635M58.942,63.421a4.529,4.529,0,1,0-4.548-4.487,4.6,4.6,0,0,0,4.548,4.487" fill="#fff"/>
    <path id="Trazado_245967" data-name="Trazado 245967" d="M39.138,38.726a1.495,1.495,0,0,1,.035,2.989,1.495,1.495,0,1,1-.035-2.989" fill="#fff"/>
    <path id="Trazado_245968" data-name="Trazado 245968" d="M89.038,99.061a1.54,1.54,0,0,1-1.51-1.495,1.489,1.489,0,0,1,2.977-.035,1.514,1.514,0,0,1-1.467,1.53" fill="#fff"/>
  </g>
</svg>
