<svg id="Grupo_181730" data-name="Grupo 181730" xmlns="http://www.w3.org/2000/svg" xmlns:xlink="http://www.w3.org/1999/xlink" width="136" height="136" viewBox="0 0 136 136">
  <defs>
    <clipPath id="clip-path">
      <rect id="Rectángulo_104069" data-name="Rectángulo 104069" width="136" height="136" fill="none"/>
    </clipPath>
  </defs>
  <g id="Grupo_181730-2" data-name="Grupo 181730" clip-path="url(#clip-path)">
    <path id="Trazado_245969" data-name="Trazado 245969" d="M136,68A68,68,0,1,1,68,0a68,68,0,0,1,68,68" fill="#5038a1"/>
    <path id="Trazado_245970" data-name="Trazado 245970" d="M53.475,44.831a5.311,5.311,0,0,1,3.934,1.851c.6.6,1.059,1.707,2.2,1.276,1.19-.45.69-1.575.7-2.413.051-3.751,1.962-5.694,5.7-5.7,1.467,0,2.933-.009,4.4,0a4.984,4.984,0,0,1,5.273,5.225,9.562,9.562,0,0,0,.031,1.753,1.607,1.607,0,0,0,.673,1.089,1.651,1.651,0,0,0,1.264-.288,9.337,9.337,0,0,0,1.266-1.214,5.062,5.062,0,0,1,7.449.013C87.577,47.6,88.783,48.786,89.954,50a4.854,4.854,0,0,1,.037,6.921A20.061,20.061,0,0,0,88.466,58.5a1.412,1.412,0,0,0-.238,1.157,1.391,1.391,0,0,0,.976.677c.94.119,1.908.019,2.848.137a4.809,4.809,0,0,1,4.3,4.669q.095,2.857,0,5.719a4.817,4.817,0,0,1-4.3,4.668c-.9.112-1.837.008-2.739.133a1.516,1.516,0,0,0-1.075.681,1.555,1.555,0,0,0,.309,1.237,21.808,21.808,0,0,0,1.526,1.579,4.835,4.835,0,0,1-.044,6.758c-1.29,1.352-2.611,2.679-3.978,3.953a4.935,4.935,0,0,1-6.866-.035A16.741,16.741,0,0,0,77.6,88.316a1.589,1.589,0,0,0-1.274-.212,1.442,1.442,0,0,0-.6,1.028,15.446,15.446,0,0,0-.032,1.974,4.972,4.972,0,0,1-5.024,5.033c-1.8.027-3.593.034-5.388,0a4.954,4.954,0,0,1-4.936-4.889,16.825,16.825,0,0,0-.039-2.086,1.542,1.542,0,0,0-.677-1.081,1.59,1.59,0,0,0-1.261.293,16.612,16.612,0,0,0-1.5,1.444,4.949,4.949,0,0,1-6.948-.005c-1.3-1.236-2.574-2.507-3.824-3.8a4.849,4.849,0,0,1,0-7,16.643,16.643,0,0,0,1.452-1.5,1.4,1.4,0,0,0,.267-1.152,1.583,1.583,0,0,0-1.067-.7c-.828-.121-1.686-.011-2.522-.1a4.895,4.895,0,0,1-4.561-5.008c-.023-1.687-.02-3.373,0-5.061a4.919,4.919,0,0,1,4.724-5.085c.728-.063,1.477.049,2.193-.066a1.717,1.717,0,0,0,1.2-.664,1.7,1.7,0,0,0-.342-1.324,13.392,13.392,0,0,0-1.377-1.415,4.847,4.847,0,0,1,0-6.919c1.249-1.291,2.54-2.541,3.82-3.8a4.839,4.839,0,0,1,3.611-1.39m-1.544,14.4a5.044,5.044,0,0,1-4.778,5.067c-.768.038-1.539.011-2.308.027a1.1,1.1,0,0,0-1.225,1.228c0,1.613,0,3.226,0,4.84a1.141,1.141,0,0,0,1.28,1.293c.733.009,1.467-.013,2.2.019a5.018,5.018,0,0,1,3.481,8.4c-.488.546-1.032,1.041-1.55,1.559a1.076,1.076,0,0,0,0,1.722q1.755,1.745,3.514,3.484a1.077,1.077,0,0,0,1.721-.028c.519-.518,1.026-1.05,1.57-1.54a4.78,4.78,0,0,1,5.317-.92,4.724,4.724,0,0,1,3.142,4.49c.02.586,0,1.172.01,1.759.015,1.289.278,1.565,1.531,1.576.953.009,1.906,0,2.859,0,3.043.007,3.083.285,3.026-2.944,0-.111,0-.221,0-.33a4.708,4.708,0,0,1,2.988-4.478,4.812,4.812,0,0,1,5.427.8,19.583,19.583,0,0,1,1.493,1.46,1.18,1.18,0,0,0,1.966.044c1.1-1.125,2.229-2.228,3.352-3.334a1.111,1.111,0,0,0,.012-1.8c-.547-.541-1.112-1.069-1.615-1.648a4.658,4.658,0,0,1-.818-5.223,4.713,4.713,0,0,1,4.33-3.044c.731-.038,1.466-.017,2.2-.019A1.177,1.177,0,0,0,92.4,70.342c-.015-1.576-.01-3.153,0-4.729a1.135,1.135,0,0,0-1.273-1.295c-.806-.01-1.615.022-2.418-.039a5.01,5.01,0,0,1-3.481-8.122c.532-.65,1.168-1.213,1.761-1.814A1.083,1.083,0,0,0,87,52.618q-1.753-1.746-3.515-3.484a1.078,1.078,0,0,0-1.721.028c-.544.544-1.075,1.107-1.657,1.608a4.791,4.791,0,0,1-5.333.8,4.708,4.708,0,0,1-3.042-4.442c-.02-.586,0-1.174-.01-1.761-.015-1.286-.278-1.558-1.532-1.569-.953-.006-1.906,0-2.859,0-3.029,0-3.083-.332-3.026,2.938,0,.11,0,.219-.005.329a4.708,4.708,0,0,1-3.085,4.525,4.828,4.828,0,0,1-5.413-.922c-.408-.369-.788-.766-1.18-1.152-1.082-1.066-1.374-1.072-2.427-.037q-1.058,1.041-2.109,2.09c-1.912,1.9-1.931,1.919,0,3.807a5.41,5.41,0,0,1,1.846,3.85" fill="#fff"/>
    <path id="Trazado_245971" data-name="Trazado 245971" d="M78.785,109.556c1.361,1.149,2.626,2.181,3.849,3.26a1.826,1.826,0,0,1,.419,2.477,1.88,1.88,0,0,1-2.282.863,2.665,2.665,0,0,1-.93-.555q-3.476-2.868-6.929-5.763c-1.217-1.022-1.316-2.014-.309-3.22q2.814-3.378,5.668-6.722c.958-1.123,2.15-1.3,3.065-.512s.919,1.881-.006,3.014c-.737.906-1.5,1.79-2.4,2.859a6.83,6.83,0,0,0,.943-.159c15.422-5.4,24.8-16.022,27.764-32.181.052-.289.1-.578.161-.865a1.948,1.948,0,0,1,2.33-1.631,1.983,1.983,0,0,1,1.576,2.287A41.556,41.556,0,0,1,107.5,86.389,43.873,43.873,0,0,1,79.857,109.2c-.3.089-.6.2-1.072.356" fill="#fff"/>
    <path id="Trazado_245972" data-name="Trazado 245972" d="M110.973,57.187c.873-1.522,1.627-2.858,2.4-4.181.755-1.287,1.872-1.671,2.927-1.036,1.031.621,1.243,1.711.53,2.967q-2.225,3.918-4.487,7.813a1.989,1.989,0,0,1-3.054.859q-3.937-2.186-7.841-4.433a1.987,1.987,0,0,1-.984-2.766,2.022,2.022,0,0,1,2.953-.651,24.083,24.083,0,0,0,3.613,1.738c-.765-2.114-1.382-4.3-2.321-6.329-5.753-12.459-15.39-20.109-28.8-23.015-.286-.062-.574-.117-.858-.188a1.965,1.965,0,1,1,.79-3.845A43.757,43.757,0,0,1,110.7,56.37c.054.209.135.41.272.817" fill="#fff"/>
    <path id="Trazado_245973" data-name="Trazado 245973" d="M25.045,76.843c-.926,1.256-1.719,2.352-2.533,3.431a2.029,2.029,0,0,1-2.943.691c-.979-.7-1.1-1.841-.265-3q2.674-3.693,5.393-7.353a1.963,1.963,0,0,1,3.05-.516q3.766,2.666,7.478,5.408a1.919,1.919,0,0,1,.512,2.795,2,2,0,0,1-2.839.373c-1.234-.846-2.431-1.745-3.833-2.759a9.287,9.287,0,0,0,.152.969c4.376,15.242,14.3,24.812,29.563,28.925.141.038.29.046.431.085a1.991,1.991,0,1,1-.973,3.829A44.941,44.941,0,0,1,53.6,108.4c-14.617-5.428-24.1-15.605-28.275-30.677-.067-.244-.151-.482-.278-.881" fill="#fff"/>
    <path id="Trazado_245974" data-name="Trazado 245974" d="M56.649,28.931C43.967,33.188,35.175,41.189,30.46,53.46a58.812,58.812,0,0,0-1.994,7.517c-.356,1.49-1.112,2.233-2.335,2.04-1.266-.2-1.871-1.23-1.575-2.758C27.9,42.973,37.96,31.47,54.48,25.542c.133-.047.262-.1.654-.263-1.239-.46-2.261-.841-3.284-1.22-.446-.165-.9-.309-1.34-.491a1.959,1.959,0,1,1,1.244-3.713c1.085.324,2.141.748,3.208,1.13,1.86.666,3.723,1.321,5.576,2a2.057,2.057,0,0,1,1.418,3.018q-1.48,4.134-3.006,8.25a1.988,1.988,0,0,1-2.641,1.451c-1.14-.427-1.548-1.459-1.083-2.8.428-1.235.881-2.462,1.423-3.973" fill="#fff"/>
    <path id="Trazado_245975" data-name="Trazado 245975" d="M79.029,68.01A11.021,11.021,0,1,1,68.045,57.029,11.017,11.017,0,0,1,79.029,68.01m-3.967-.035A7.053,7.053,0,1,0,68,75.024a7.046,7.046,0,0,0,7.057-7.049" fill="#fff"/>
  </g>
</svg>
