<svg id="Grupo_181731" data-name="Grupo 181731" xmlns="http://www.w3.org/2000/svg" xmlns:xlink="http://www.w3.org/1999/xlink" width="136" height="136" viewBox="0 0 136 136">
  <defs>
    <clipPath id="clip-path">
      <rect id="Rectángulo_104070" data-name="Rectángulo 104070" width="136" height="136" fill="none"/>
    </clipPath>
  </defs>
  <g id="Grupo_181731-2" data-name="Grupo 181731" clip-path="url(#clip-path)">
    <path id="Trazado_245976" data-name="Trazado 245976" d="M136,68A68,68,0,1,1,68,0a68,68,0,0,1,68,68" fill="#5038a1"/>
    <path id="Trazado_245977" data-name="Trazado 245977" d="M95.974,25.068a1.937,1.937,0,0,1,1.139,1.953c-.023,2.685-.032,5.372,0,8.057a1.556,1.556,0,0,1-2.169,1.677,1.644,1.644,0,0,1-.879-1.638c-.006-1.293,0-2.586,0-3.878v-.917c-.328.3-.529.473-.714.659Q85.874,38.449,78.4,45.921c-1.192,1.192-1.848,1.187-3.057-.022-1.718-1.717-3.434-3.435-5.344-5.347a4.982,4.982,0,0,1-.532.8Q56.954,53.893,44.424,66.41a6.134,6.134,0,0,1-.79.707,1.48,1.48,0,0,1-2.08-2.033,4.348,4.348,0,0,1,.591-.689q13.245-13.255,26.5-26.5c1.165-1.164,1.83-1.158,3.013.024,1.72,1.718,3.438,3.438,5.087,5.087L91.633,28.11H90.517q-1.861,0-3.725,0c-1.152,0-1.719-.3-1.974-1.052s.018-1.3.967-1.989Z" fill="#fff"/>
    <path id="Trazado_245978" data-name="Trazado 245978" d="M33.289,99.89v-.9c0-4.106.069-8.213-.024-12.317a4.3,4.3,0,0,1,4.645-4.6c2.149.1,4.307.017,6.461.021,2.872.005,4.523,1.64,4.533,4.526.014,4.08,0,8.161,0,12.241v.97h8.456v-.866q0-12.583,0-25.166A4.113,4.113,0,0,1,60.6,69.43a6.1,6.1,0,0,1,1.283-.108c2.179-.01,4.359-.007,6.538,0,2.926,0,4.583,1.648,4.584,4.558q0,12.507,0,25.014v.95h8.481v-.956q0-23.456-.011-46.91a4.129,4.129,0,0,1,2.333-4.161,5.4,5.4,0,0,1,2.13-.411c2.2-.05,4.409-.023,6.614-.017,2.925.008,4.54,1.631,4.546,4.58.008,3.877,0,7.755,0,11.632V99.89c1.058,0,2.065-.067,3.056.028a2.46,2.46,0,0,1,1.452.623,1.4,1.4,0,0,1-.682,2.263,3.991,3.991,0,0,1-1.2.122q-34.63.009-69.262,0a7.125,7.125,0,0,1-.76-.014,1.494,1.494,0,0,1-1.439-1.482,1.468,1.468,0,0,1,1.467-1.527c.884-.049,1.773-.016,2.66-.018h.89m60.774-.035V90.6q0-19.271,0-38.54c0-1.406-.232-1.635-1.639-1.637q-3.115,0-6.233,0c-1.448,0-1.655.212-1.656,1.686V99.855Zm-24.12,0c.01-.178.025-.324.025-.471q0-12.838,0-25.677c0-.962-.377-1.338-1.332-1.342-2.178-.009-4.356,0-6.534,0-1.4,0-1.694.285-1.694,1.68V99.852Zm-33.612-.025h9.523c0-4.57.011-9.077-.011-13.584,0-.8-.424-1.106-1.315-1.109q-3.344-.012-6.688,0c-1.215,0-1.507.3-1.508,1.533q0,5.547,0,11.094v2.068" fill="#fff"/>
    <path id="Trazado_245979" data-name="Trazado 245979" d="M37.642,72.688a1.483,1.483,0,0,1-1.457-1.528,1.5,1.5,0,0,1,1.522-1.47,1.53,1.53,0,0,1,1.468,1.536,1.508,1.508,0,0,1-1.533,1.462" fill="#fff"/>
  </g>
</svg>
