<svg id="Grupo_180904" data-name="Grupo 180904" xmlns="http://www.w3.org/2000/svg" xmlns:xlink="http://www.w3.org/1999/xlink" width="109" height="109" viewBox="0 0 109 109">
  <defs>
    <clipPath id="clip-path">
      <rect id="Rectángulo_103686" data-name="Rectángulo 103686" width="109" height="109" fill="none"/>
    </clipPath>
  </defs>
  <g id="Grupo_180904-2" data-name="Grupo 180904" clip-path="url(#clip-path)">
    <path id="Trazado_245507" data-name="Trazado 245507" d="M54.5,109h0A54.5,54.5,0,1,1,109,54.5,54.5,54.5,0,0,1,54.5,109" fill="#5038a1"/>
    <path id="Trazado_245508" data-name="Trazado 245508" d="M57.623,87.866a1.671,1.671,0,0,1-1.02-1.754q.05-3.083,0-6.168c-.027-1.825-.127-3.649-.169-5.473a14.016,14.016,0,0,1,5.31-11.651,1.663,1.663,0,0,0,.54-.929,21.871,21.871,0,0,0-1.461-11.146c-2.7-7.366-5.471-14.7-8.214-22.055-.742-1.987-1.482-3.975-2.243-5.955a4.013,4.013,0,0,0-.583-1.073,3.227,3.227,0,0,0-3.886-.92,3.415,3.415,0,0,0-1.537,4.016c.924,2.648,1.889,5.282,2.835,7.923,1.146,3.2,2.3,6.4,3.426,9.6a1.228,1.228,0,0,0,.81.809A23.386,23.386,0,0,1,54.1,44.332a1.325,1.325,0,0,1,.552,1.929,1.373,1.373,0,0,1-1.919.436,17.33,17.33,0,0,0-14.445-.876,35.045,35.045,0,0,0-3.821,1.67,2.941,2.941,0,1,0,2.7,5.213,14.177,14.177,0,0,1,10.49-1.288,8.521,8.521,0,0,1,6.094,10.212,8.674,8.674,0,0,1-9.781,6.828,8.349,8.349,0,0,1-4.883-2.4c-.884-.893-1.792-1.762-2.711-2.619a1.859,1.859,0,0,1-.62-1.455,25.224,25.224,0,0,0-.079-2.806,5.371,5.371,0,0,0-5.442-4.656c-.009.214-.027.435-.028.656,0,2.879.01,5.757-.005,8.636a6.143,6.143,0,0,0,1.586,4.1q4.027,4.847,7.892,9.831a8.355,8.355,0,0,1,1.6,6.478c-.1.678-.2,1.356-.259,2.038a1.739,1.739,0,0,1-1.084,1.6H39.11a1.806,1.806,0,0,1-.829-2.044c.139-.762.207-1.538.3-2.309A5.625,5.625,0,0,0,37.4,79.265q-3.859-4.9-7.823-9.712a8.139,8.139,0,0,1-2.089-5.158c-.05-3.723-.027-7.448-.017-11.171a1.387,1.387,0,0,1,1.5-1.506c.361-.017.724,0,1,0a24.615,24.615,0,0,1,.22-2.946,4.982,4.982,0,0,1,2.628-3.511,23.991,23.991,0,0,1,12.556-3.3c.727.031,1.452.091,2.282.144-.109-.305-.188-.532-.269-.759-1.867-5.218-3.747-10.431-5.6-15.656a5.9,5.9,0,0,1,10.924-4.464c.7,1.632,1.278,3.316,1.957,5.1.092-.3.156-.491.208-.685A5.268,5.268,0,0,1,65.2,26.4a9.507,9.507,0,0,1,.06,1.093q0,15.389,0,30.775c0,.819,0,1.639,0,2.451.969-.232,1.968-.531,2.989-.706A13.964,13.964,0,0,1,82.739,67.08a1.376,1.376,0,0,1-.432,2.017,1.393,1.393,0,0,1-1.954-.683,11.13,11.13,0,0,0-9.271-5.827,11.452,11.452,0,0,0-11.806,9.738A11.333,11.333,0,0,0,70.915,85.1a10.926,10.926,0,0,0,9.212-5.452c.1-.155.18-.319.278-.472a1.369,1.369,0,1,1,2.365,1.371A13.822,13.822,0,0,1,77.605,85.9a13.542,13.542,0,0,1-5.47,1.848,2.237,2.237,0,0,0-.386.113H69.143a2.479,2.479,0,0,0-.388-.112A13.175,13.175,0,0,1,62.27,85.2c-1.01-.758-1.9-1.669-2.913-2.566,0,1.1-.035,2.182.012,3.264a1.993,1.993,0,0,1-.923,1.971Zm-20.3-32.133a9.568,9.568,0,0,1,1.207,5.309,1.713,1.713,0,0,0,.439,1.054c.628.691,1.352,1.294,2,1.965a5.722,5.722,0,0,0,3.291,1.673A6.009,6.009,0,1,0,45.975,53.84a12.808,12.808,0,0,0-8.654,1.893m25.043-8.885.151-.046q0-9.9-.008-19.792a2.726,2.726,0,0,0-.188-.932,2.491,2.491,0,0,0-2.805-1.566,2.441,2.441,0,0,0-2.047,2.325c-.038,2.077-.03,4.156-.009,6.233a4.024,4.024,0,0,0,.236,1.328c1.2,3.272,2.436,6.535,3.662,9.8.332.884.672,1.767,1.008,2.65" fill="#fff"/>
    <path id="Trazado_245509" data-name="Trazado 245509" d="M68.161,76.024,72.78,71.4c.727-.727,1.446-1.461,2.182-2.177a1.357,1.357,0,0,1,2.01-.128,1.38,1.38,0,0,1-.081,2.061Q73.075,75,69.238,78.809a1.365,1.365,0,0,1-2.11,0q-1.564-1.534-3.1-3.1A1.377,1.377,0,1,1,65.984,73.8c.712.706,1.406,1.432,2.177,2.22" fill="#fff"/>
    <path id="Trazado_245510" data-name="Trazado 245510" d="M83.083,72.5a1.356,1.356,0,0,1,1.4,1.294,1.364,1.364,0,1,1-2.728.054A1.307,1.307,0,0,1,83.083,72.5" fill="#fff"/>
  </g>
</svg>
