<svg id="Grupo_181732" data-name="Grupo 181732" xmlns="http://www.w3.org/2000/svg" xmlns:xlink="http://www.w3.org/1999/xlink" width="136" height="136" viewBox="0 0 136 136">
  <defs>
    <clipPath id="clip-path">
      <rect id="Rectángulo_104071" data-name="Rectángulo 104071" width="136" height="136" fill="none"/>
    </clipPath>
  </defs>
  <g id="Grupo_181732-2" data-name="Grupo 181732" clip-path="url(#clip-path)">
    <path id="Trazado_245980" data-name="Trazado 245980" d="M136,68A68,68,0,1,1,68,0a68,68,0,0,1,68,68" fill="#5038a1"/>
    <path id="Trazado_245981" data-name="Trazado 245981" d="M96.382,85.837V91.8c0,3.311,0,3.311-3.358,3.311H90.385v3.418c0,1.233.009,2.467,0,3.7-.014,1.359-.538,1.894-1.905,1.9-2.96.013-5.92,0-8.88,0H38.567c-1.93,0-2.336-.4-2.336-2.3V40.243c0-1.914.4-2.318,2.314-2.318h6.7v-.908c0-2.056-.005-4.112,0-6.168.005-1.4.533-1.943,1.947-1.944Q64.834,28.9,82.471,28.9a2.326,2.326,0,0,1,1.75.74q5.71,5.745,11.454,11.455a2.273,2.273,0,0,1,.718,1.753c-.027,2.438-.011,4.875-.011,7.367a18.05,18.05,0,0,1,12.226,8.167A17.6,17.6,0,0,1,111.4,68.762,18.167,18.167,0,0,1,96.382,85.837M48.331,31.981V92.02h45v-5.9A18.161,18.161,0,0,1,75.4,69.471a17.548,17.548,0,0,1,2.808-11.184,17.954,17.954,0,0,1,15.132-8.356V43.968h-.946q-4.563,0-9.126,0c-1.377,0-1.894-.515-1.9-1.881q-.009-4.6,0-9.209v-.9Zm30.02,35.986A15.026,15.026,0,1,0,93.724,53,15.046,15.046,0,0,0,78.351,67.967M39.315,41.01v60.011H87.288v-5.91H47.518c-1.851,0-2.27-.421-2.27-2.283V41.01ZM84.4,34.384v6.528h6.553L84.4,34.384" fill="#fff"/>
    <path id="Trazado_245982" data-name="Trazado 245982" d="M64.786,40.966q-4.146,0-8.293,0a5.238,5.238,0,0,1-.979-.065,1.49,1.49,0,0,1-1.232-1.438,1.513,1.513,0,0,1,1.2-1.469,3.312,3.312,0,0,1,.732-.063q8.582,0,17.161,0a2.915,2.915,0,0,1,1.043.156,1.473,1.473,0,0,1-.121,2.759,4.178,4.178,0,0,1-1.136.114c-2.792.009-5.583.005-8.375.005" fill="#fff"/>
    <path id="Trazado_245983" data-name="Trazado 245983" d="M64.831,49.958q-4.229,0-8.456,0a5.577,5.577,0,0,1-.819-.031A1.389,1.389,0,0,1,54.3,48.608a1.352,1.352,0,0,1,.906-1.5,2.959,2.959,0,0,1,1.042-.152q8.538-.013,17.077-.006c.164,0,.329-.007.492.006a1.5,1.5,0,0,1,1.5,1.526,1.448,1.448,0,0,1-1.542,1.461c-1.286.027-2.573.009-3.859.01h-5.09" fill="#fff"/>
    <path id="Trazado_245984" data-name="Trazado 245984" d="M58.562,70.175c1.463-1.454,2.82-2.8,4.18-4.152A7.225,7.225,0,0,1,63.4,65.4a1.48,1.48,0,0,1,2.074.112,1.437,1.437,0,0,1,0,2.013q-2.872,2.938-5.814,5.807A1.391,1.391,0,0,1,57.6,73.3q-1.463-1.383-2.849-2.845a1.49,1.49,0,1,1,2.116-2.1c.59.564,1.12,1.19,1.7,1.815" fill="#fff"/>
    <path id="Trazado_245985" data-name="Trazado 245985" d="M58.592,82.172l4.04-4.011c.214-.212.418-.436.647-.63a1.5,1.5,0,1,1,2.085,2.164c-.661.694-1.353,1.358-2.032,2.035-1.144,1.142-2.281,2.289-3.434,3.422a1.532,1.532,0,0,1-2.495.009c-.861-.842-1.718-1.691-2.557-2.555a1.488,1.488,0,0,1-.1-2.253,1.512,1.512,0,0,1,2.254.159c.527.518,1.026,1.064,1.6,1.66" fill="#fff"/>
    <path id="Trazado_245986" data-name="Trazado 245986" d="M60.248,58.98c-1.424,0-2.848.009-4.271,0a1.5,1.5,0,1,1,.018-2.983q4.313-.015,8.624,0A1.486,1.486,0,0,1,66.291,57.5c0,.916-.621,1.467-1.69,1.476-1.451.012-2.9,0-4.353,0" fill="#fff"/>
    <path id="Trazado_245987" data-name="Trazado 245987" d="M91.036,70.615c2.676-2.681,5.287-5.3,7.9-7.915,1.057-1.058,1.88-1.209,2.614-.489.712.7.555,1.6-.46,2.612q-4.3,4.3-8.6,8.6c-1.128,1.126-1.782,1.125-2.907,0Q87.6,71.451,85.63,69.474c-.923-.924-1.061-1.807-.391-2.494.706-.725,1.557-.591,2.544.395,1.064,1.064,2.132,2.124,3.253,3.24" fill="#fff"/>
  </g>
</svg>
